<?xml version="1.0" encoding="UTF-8"?><svg id="Layer_1" xmlns="http://www.w3.org/2000/svg" viewBox="0 0 4000 4000"><path d="m2978.21,2658.15c54.08,62.53,47.76,200.62-73.31,264.77-78.08,41.37-143.09,30.37-190.22-32.2-76.35-101.37-20.58-166.08,55.23-211.44,75.81-45.36,157.16-80.26,208.3-21.13Z" style="fill:#413757;"/><g style="fill:none; opacity:.4;"><path d="m2759.9,2709.28c75.81-45.36,157.16-80.26,208.3-21.13,25.03,28.94,37.09,74.07,30.85,120.57,22.13-59.27,11.36-123.32-20.85-160.57-51.14-59.13-132.49-24.22-208.3,21.13-49.31,29.5-90.11,67.21-91.61,117.86,15.27-31.33,46.25-56.7,81.61-77.86Z" style="fill:#fff;"/></g><g style="fill:none; opacity:.35;"><path d="m2904.91,2922.91c-78.1,41.37-143.13,30.38-190.25-32.21-51.73-68.64-42.82-120.5-8.1-160.89,32.04,60.72,89.65,82.24,169.2,62.98,61.15-14.79,102.69-50.66,126.17-92.29,23.9,69.54,1.24,170.35-97.02,222.42Z" style="fill:#371a45;"/></g><path d="m2818.5,2963.74c-7.84,0-15.52-.63-23.03-1.91-36.19-6.12-67.74-26.76-93.78-61.33-32.4-43.02-45.08-84.05-37.67-121.94,8.17-41.81,40.08-78.85,97.54-113.23,49.21-29.44,85.8-45.4,118.66-51.76,46-8.9,83.11,2.52,110.28,33.94,30.4,35.15,43.07,90.18,33.06,143.61-11.71,62.51-51.15,114.42-111.05,146.16-33.21,17.59-64.72,26.45-94.01,26.45Zm90.8-320.54c-32.59,0-75.01,16.51-131.05,50.04-49.09,29.37-76.02,59.32-82.32,91.56-5.56,28.45,5.11,60.8,31.73,96.14,25.14,33.38,55.71,50.1,91.34,50.1,23.86,0,49.98-7.49,78.28-22.48,50.97-27,84.46-70.83,94.31-123.41,8.23-43.93-1.61-88.51-25.69-116.35-14.7-17-33.1-25.59-56.61-25.59Z" style="fill:#371a45;"/><g style="fill:none; opacity:.3;"><ellipse cx="2000" cy="3171.25" rx="1070" ry="135" style="fill:#371a45;"/></g><path d="m2843.81,2704.07c-7.03,50.79-120.63,63.62-120.63,63.62,0,0-471.27,219.02-680.39,224.87-375.26,10.5-515.06-109.07-515.06-109.07l26.07-344.82-8.27-134.22,53.99-19.86,85.56-31.45,595.17-53.9s381.7-150.16,450.77-111.89c69.03,38.31,119.82,465.89,112.79,516.73Z" style="fill:#fff;"/><path d="m2785.99,3001.64c-61.26,99.75-178.16,193.4-326.19,182.75h-.04c-24.39,21.58-61.95,35.48-119.66,29.22-99.18-10.81-154.25-122.83-161.82-236.85-1.22-18.37-1.22-36.83.04-54.91,5.98-85.6,39.92-163.12,103.41-188.36,0,0,.08-3.25.65-8.82.04-.61.12-1.3.2-1.99,3.13-27.19,17.68-97.72,85.11-118.49,38.66-11.87,75.6-22.15,110.44-24.1,41.01-2.32,79.18,6.95,114.01,38.74.93.85,1.83,1.67,2.72,2.52.69.61,1.38,1.26,2.03,1.91,49.02,45.48,87.07,92.84,170.8,68.69,22.07-6.34,47.31-17.68,76.74-35.32,0,0,2.76,245.26-58.45,345.01Z" style="fill:#413757;"/><g style="fill:none; opacity:.4;"><path d="m2480,2901.25s-35.82-132.33-160-135c-65.11-1.4-115.26,68.06-134.79,121.19,5.63-85.6,31.12-138.7,90.95-163.95,0,0,.08-3.25.61-8.82,7.05-.24,14.44-.2,22.21.2,219.23,11.26,181.02,186.37,181.02,186.37Z" style="fill:#fff;"/></g><g style="fill:none; opacity:.4;"><path d="m2473.13,2570.09l94.42,34.31c-177.75-48.25-185.31,122.92-185.31,122.92-37.15-12.15-76.5-14.76-104.67-14.63,3.13-27.19,17.68-97.72,85.11-118.49,38.66-11.87,75.6-22.15,110.44-24.1Z" style="fill:#fff;"/></g><path d="m2185.19,3063.17c-4.88-.98-365.94-29.39-479.15-32.84-12.88-.37-50.81-.33-93.57,4.11-51.78,5.37-110.72,17.15-140.92,42.31-52.47,43.74-80.81,96.86-190.43,90.93-106.25-5.77-161.9-132.51-163.07-255.47-.04-.77-.04-1.59-.04-2.36-.04-12.52.45-25,1.54-37.27,9.35-106.01,60.81-193.64,157.55-193.44,168.16.37,270.63,89.46,328.63,168.93,30.61,41.95,71.17,74.51,117.19,94.95,36.99,16.38,77.47,24.96,119.18,24.31l335.26-5.28,7.84,101.13Z" style="fill:#413757;"/><g style="fill:none; opacity:.35;"><path d="m2185.19,3063.17c-4.88-.98-365.94-29.39-479.15-32.84-12.88-.37-50.81-.33-93.57,4.11-51.78,5.37-110.72,17.15-140.92,42.31-52.47,43.74-80.81,96.86-190.43,90.93-106.25-5.77-161.9-132.51-163.07-255.47l5.49-6.18s48.25,153.93,155.96,150.03c151.29-5.49,160.56-215.18,160.56-215.18,0,0,91.17,82.35,176.9,94.99,17.6,2.6,56.01,5,105.97,7.15,36.99,16.38,77.47,24.96,119.18,24.31l335.26-5.28,7.84,101.13Z" style="fill:#371a45;"/></g><path d="m1240.64,2678.2s29.31-104.43,61.23-111.59c0,0-9.77,109.99-17.59,112.31s-43.64-.72-43.64-.72Z" style="fill:#575b5a;"/><path d="m1272.45,2682.3c-12.63,0-29.43-1.39-32.03-1.61l-3.01-.26.82-2.91c1.21-4.32,30.09-105.95,63.09-113.35l3.34-.75-.3,3.41c-.02.28-2.49,27.86-5.87,55.37-7.04,57.2-10.92,58.36-13.49,59.12-2.42.72-7.09.98-12.54.98Zm-28.56-6.34c11.26.87,33.39,2.16,39.37.65,4.3-5.04,11.27-57.07,15.76-106.39-11.41,5.28-24.27,24.42-37.42,55.8-8.96,21.36-15.47,42.4-17.71,49.94Z" style="fill:#371a45;"/><path d="m2591.51,2423.61s166.67-115.63,197.76-114.88c0,0-108.58-294.65-118.78-297.82,0,0-140.24,144.2-372.08,188.9-231.84,44.7-621.55,46.72-806.27-50.04,0,0-109.28,151.77-16.8,212.8,92.48,61.03,1116.18,61.03,1116.18,61.03Z" style="fill:#413757;"/><g style="fill:none; opacity:.35;"><path d="m2643.89,2026.64s41.52,126.04,86.47,298c41.26,157.86,35.35,333.7,36.69,361.07,0,0,74.03-15.2,76.81-44.51,2.77-29.31-48.52-440.56-160.88-623.99h-45.24l6.16,9.44Z" style="fill:#371a45;"/></g><g style="fill:none; opacity:.35;"><path d="m2478.94,2088.91c-106.57,54.84-255.66,94.81-422.6,107.08-238.27,17.47-448.89-26.21-555.2-104.56,23.09-18.11,39.41-26.67,39.41-26.67,21.22-9.76,25.74-9.63,79.08,6.26.13.04.26.09.38.13,29.83,8.86,74.86,22.67,146.45,42.31.04,0,.08.04.13.04,5.11,1.41,10.4,2.81,15.81,4.3,84.54,23.01,180.92,27.91,273.98,24.63h.21c145.21-5.16,282.42-30.38,354.17-38.14h.09c21.05-2.26,44.23-7.8,68.09-15.38Z"/><path d="m1953.12,2202.3c-78.96,0-155.13-6.8-224.34-20.2-96.56-18.69-175.79-49.35-229.12-88.66l-2.65-1.95,2.59-2.03c23.01-18.04,39.12-26.57,39.79-26.92l.12-.06c22.13-10.18,27.42-9.78,80.84,6.14l.46.15c4.6,1.37,9.65,2.88,15.12,4.51,29.85,8.93,70.72,21.16,130.87,37.67h.25l.37.18c2.39.66,4.81,1.31,7.27,1.98,2.75.74,5.54,1.5,8.37,2.28,74.79,20.36,164.17,28.38,273.23,24.54h.3c104.21-3.7,205.33-17.91,279.16-28.28,29.27-4.11,54.56-7.66,74.75-9.85h.22c19.53-2.12,42.23-7.26,67.47-15.28l1.9,4.61c-111.42,57.34-261.85,95.46-423.56,107.35-34.76,2.55-69.35,3.81-103.4,3.81Zm-447.83-110.94c110.85,79.85,321.41,118.96,550.87,102.14,149.08-10.96,288.46-44.27,396.27-94.4-14.93,3.76-28.75,6.33-41.3,7.68h-.22c-20.09,2.19-45.29,5.73-74.46,9.83-73.94,10.39-175.2,24.61-279.76,28.32h-.3c-109.48,3.86-199.34-4.22-274.64-24.71-2.83-.78-5.61-1.53-8.36-2.28-2.41-.65-4.79-1.3-7.13-1.94h-.25l-.37-.18c-60.29-16.55-101.24-28.8-131.14-37.74-5.47-1.64-10.52-3.15-15.19-4.54l-.46-.15c-53.68-15.99-57.13-15.61-77.19-6.39-1,.53-15.75,8.49-36.37,24.37Zm260.12,24.35s.03.02.05.02l-.05-.02Zm2.18-4.5l.05.02s-.03-.01-.05-.02Z" style="fill:#371a45;"/></g><g style="fill:none; opacity:.4;"><path d="m1422.33,2860.38s-74.24-130.27-167.38-118.55c-93.14,11.72-130.29,117.57-120.52,212.34,9.77,94.77-94.68-220.81,112.57-272.92,0,0,149.98-27.15,175.33,179.12Z" style="fill:#fff;"/></g><path d="m1539.37,2595.76s-21.26,41.97-89,88.54c-67.74,46.57-114.35,53.13-114.35,53.13,0,0-92.85-53.79-82.18-79.72s50.22-127.57,109.82-124.64,116.92,3.58,143.62,24.1,32.08,38.59,32.08,38.59Z" style="fill:#575b5a;"/><path d="m1335.52,2740.02l-.75-.43c-.23-.13-23.6-13.72-45.36-30.31-30.05-22.92-42.79-40.59-37.88-52.52l1.12-2.74c12.78-31.26,51.68-126.36,111.13-123.45,5.53.27,11.03.52,16.5.77,53.32,2.44,103.68,4.75,128.53,23.84,27.04,20.77,32.73,39.09,32.95,39.86l.28.95-.45.89c-.88,1.74-22.32,43.07-89.81,89.47-67.45,46.37-113.49,53.27-115.41,53.54l-.85.12Zm25.63-204.52c-22.81,0-45.29,16.04-66.84,47.74-18.3,26.91-30.94,57.81-37.02,72.67l-1.12,2.75c-3.83,9.31,9.06,25.87,36.29,46.65,19.29,14.72,39.87,27.04,44.06,29.51,6.55-1.16,50.94-10.29,112.45-52.57,60.85-41.84,84.1-80.31,87.68-86.69-1.52-3.87-8.62-19.3-30.87-36.4-23.6-18.13-73.2-20.41-125.71-22.81-5.47-.25-10.98-.5-16.52-.77-.8-.04-1.6-.06-2.4-.06Z" style="fill:#371a45;"/><path d="m1297.4,3184.39c-5.52,0-11.23-.16-17.16-.48-30.65-1.67-58.77-12.34-83.56-31.71-22.27-17.41-41.33-41.43-56.65-71.4-27.74-54.27-41.47-125.63-37.66-195.8,3.32-61.19,19.88-116.41,46.61-155.49,31.75-46.42,76.36-69.44,128.99-66.59,60.2,3.27,108.86,37.08,140.73,97.78,23.27,44.32,29.32,87.26,29.57,89.06,1.21,8.9-5.01,17.09-13.91,18.31-8.89,1.21-17.08-5-18.3-13.89h0c-.05-.39-5.71-39.8-26.55-79.12-26.61-50.22-64.73-77.02-113.3-79.66-96.41-5.24-136.39,99.82-141.36,191.38-6.83,125.81,46.35,259.21,147.17,264.69,81.58,4.43,113.31-25.76,150.06-60.72,9.15-8.71,18.61-17.71,29.1-26.44,52.14-43.43,174.77-47.65,227.14-49.45,7.35-.25,13.15-.45,16.63-.7,105.98-7.44,234.12,2.33,322.96,11.85,96.04,10.28,168.21,22.49,168.93,22.61,8.85,1.51,14.81,9.9,13.3,18.75-1.51,8.85-9.9,14.81-18.75,13.3-2.83-.48-285.61-48.02-484.16-34.08-4.06.29-10.11.49-17.79.76-44.82,1.54-163.86,5.63-207.44,41.93-9.66,8.05-18.73,16.68-27.5,25.02-36.27,34.5-73.7,70.11-157.08,70.11Z" style="fill:#371a45;"/><path d="m1642.02,2705.75c-4.26,0-8.51-1.66-11.7-4.97-15.22-15.78-29.33-32.55-42.98-48.77-47.34-56.27-92.05-109.43-176.95-114.04-47.22-2.55-87.67,20.12-120.23,67.41-25.51,37.06-36.31,75.82-36.42,76.21-2.37,8.65-11.31,13.76-19.96,11.4-8.66-2.36-13.77-11.28-11.41-19.94.48-1.77,12.08-43.77,40.48-85.33,38.93-56.98,90.56-85.43,149.31-82.22,98.95,5.38,150.36,66.48,200.07,125.58,13.29,15.8,27.04,32.14,41.49,47.12,6.24,6.46,6.05,16.75-.41,22.99-3.16,3.04-7.22,4.56-11.29,4.56Z" style="fill:#371a45;"/><path d="m1450.63,2992.24c1.16,2.74,2.14,5.45,3.04,8.21.91,2.75,1.74,5.53,2.49,8.33,1.51,5.6,2.71,11.28,3.68,17.02,1.88,11.49,2.84,23.24,2.45,35.22-.37,11.95-1.87,24.27-6.04,36.34-.49,1.51-1.04,3.02-1.67,4.51-.62,1.49-1.17,2.99-1.91,4.46-.72,1.47-1.42,2.94-2.17,4.4-.83,1.44-1.65,2.88-2.5,4.3-3.55,5.64-7.82,11.04-13.09,15.52-6.88,5.84-17.2,5-23.04-1.88-4.55-5.36-5.05-12.82-1.78-18.61l.83-1.46c2.14-3.78,4.33-7.44,6.4-11.36.5-1,1.02-1.98,1.54-2.97l1.47-3.08c.53-1,.97-2.09,1.45-3.14.23-.53.48-1.06.73-1.58.25-.52.46-1.09.69-1.63,1.9-4.31,3.62-8.88,5.31-13.56.87-2.33,1.67-4.73,2.48-7.14l1.12-3.67c.4-1.22.75-2.46,1.1-3.71,2.87-9.96,5.16-20.4,7.23-31.08,1.04-5.34,1.97-10.76,2.9-16.23l1.37-8.26,1.31-8.33v-.08c.22-1.31,1.45-2.21,2.76-2,.85.13,1.53.7,1.84,1.44Z" style="fill:#371a45;"/><path d="m1653.66,2230.85s-40.8,255.3,14.77,263.45c0,0,95.49-67.57,82.61-151.59-12.87-84.03-51.95-108.43-97.39-111.86Z" style="fill:#575b5a;"/><path d="m1669.06,2496.92l-.99-.15c-5.93-.87-11.09-4.25-15.34-10.04-34.5-46.99-2.9-247.76-1.54-256.29l.36-2.27,2.29.17c56.74,4.28,88.41,40.5,99.67,113.97,5.37,35.07-7.42,72.85-37.01,109.26-22.22,27.35-46.39,44.58-46.63,44.75l-.82.58Zm-13.29-263.39c-3.47,22.79-30.38,207.53.99,250.25,3.23,4.4,6.86,6.99,11.06,7.87,4.39-3.25,25.4-19.31,44.88-43.31,19.95-24.58,42.38-62.8,35.87-105.26-10.69-69.78-40.2-104.66-92.8-109.55Z" style="fill:#371a45;"/><path d="m1725.24,1741.13s26.32-23.96,51.91-21.22c25.59,2.74,100.96,6.32,100.96,6.32l76.91,9.68,25.9,41.99s-12.38,69.67-13.35,72.18c-.97,2.5-30.47,19.53-30.47,19.53,0,0-15.44-37.87-93.19-48.76s-147.93-22.68-133.14-64.14l14.48-15.57Z" style="fill:#fff;"/><path d="m1935.86,1873.21l-1.08-2.65c-.15-.36-16.09-36.7-91.22-47.23-66.72-9.35-118.92-18.4-133.45-42.4-4.44-7.33-5.01-15.77-1.7-25.06l.17-.49,14.98-16.1c1.11-1.01,27.46-24.68,53.86-21.86,25.22,2.7,100.06,6.27,100.81,6.31l.19.02,78.09,9.83,27.03,43.82-.17.94c-2.91,16.4-12.5,70.11-13.48,72.64-.35.91-1.29,3.32-31.55,20.79l-2.48,1.43Zm-222.91-115.18c-2.64,7.72-2.17,14.37,1.43,20.31,13.37,22.07,66.72,31.19,129.87,40.03,67.51,9.46,88.87,38.82,93.89,47.74,12.34-7.19,25.15-15.12,27.16-17.17,1.06-4.1,8.22-43.73,12.99-70.55l-24.77-40.16-75.62-9.52c-3.11-.15-76.06-3.65-101.01-6.33-23.56-2.53-48.37,19.17-49.89,20.52l-14.05,15.11Zm252.49,90.77h0Z" style="fill:#371a45;"/><path d="m1687.86,1094.86c-23.69,118.14-177.35,210.3-304.48,184.81-127.12-25.49-210.97-141.93-187.28-260.07,23.69-118.14,145.95-193.25,273.07-167.75,127.12,25.49,242.37,124.87,218.68,243.01Z" style="fill:#413757;"/><g style="fill:none; opacity:.35;"><path d="m1687.85,1094.87c-23.69,118.15-177.33,210.32-304.46,184.82-127.13-25.5-210.99-141.95-187.29-260.1,5.36-26.71,15.74-51.2,30.08-72.84-11.49,111.27,70.02,216.67,190.17,240.76,100.77,20.21,218.28-33.53,274.4-115.53-.39,7.56-1.35,15.16-2.89,22.88Z" style="fill:#371a45;"/></g><g style="fill:none; opacity:.4;"><path d="m1294.94,887.34s201.1-56.6,306.21,98.87c0,0,60.35-6.41,57.02-19.95-3.33-13.54-92.12-116.93-271.48-117.21,0,0-85.91,14.91-91.76,38.28Z" style="fill:#fff;"/></g><path d="m1427.56,1300.21c-16.14,0-32.02-1.51-47.38-4.59-65.52-13.14-122.41-49.27-160.19-101.73-38.04-52.83-52.19-115.86-39.83-177.48,12.36-61.62,49.71-114.32,105.18-148.4,55.09-33.84,121.51-45.24,187.03-32.1,67.34,13.51,130.89,46.8,174.34,91.35,48.85,50.09,69.13,110.75,57.09,170.8-12.16,60.64-56.26,117.85-120.98,156.98-48.88,29.55-103.43,45.16-155.25,45.16Zm-7.96-437.05c-100.24,0-188.55,64.89-207.55,159.64-21.89,109.16,56.4,217.24,174.53,240.93,56.8,11.39,122.19-1.92,179.42-36.51,56.94-34.43,95.55-83.83,105.92-135.55,12.65-63.06-19.38-111.87-48.48-141.7-38.99-39.98-96.38-69.93-157.45-82.17-15.6-3.13-31.14-4.63-46.38-4.63Zm268.26,231.7h.01-.01Z" style="fill:#371a45;"/><path d="m2671.94,2011.85c-235.67,243.47-682.48,220.38-755.56,223.23-76.48,3.03-504.07-31.02-685.8-272.11-88.29-117.05-82.53-219.57-26.67-364.65,2.39-6.14,4.64-11.55,6.95-16.49,14.79-32.26,28.97-46.27,58.93-128.47,6.43-17.6,12.23-36.52,17.64-56.2,27.1-97.41,52.37-209,127.06-285.53,70.14-71.88,163.28-132.09,268.65-174.57-29.57-37.41-70.18-100.35-29.32-121.78,50.28-26.38,192.13,42.61,235.33,64.81,7.54,3.92,12.06,6.35,12.61,6.65-.17-.43-4.47-3.5-6.18-8.19-6.77-18.71-15.81-64.59,21.01-84.83,46.23-25.4,359.24,46.19,574.21,220.33h-.26c306.92,237.34,426.05,744.99,181.39,997.79Z" style="fill:#fff;"/><path d="m1906.34,2237.76c-48.9,0-167.86-10.08-294.05-44.78-78.75-21.65-149.35-49.64-209.85-83.17-73.29-40.62-131.78-89.52-173.85-145.33-43.62-57.83-65.19-112.86-67.89-173.21-2.43-54.31,10.18-114.1,40.88-193.85,2.55-6.57,4.78-11.86,7.01-16.65,4.52-9.86,9.04-18.14,13.83-26.9,10.79-19.74,24.22-44.31,45.01-101.37,5.92-16.19,11.67-34.51,17.58-56.01,2.39-8.59,4.77-17.29,7.16-26.07,24.36-89.2,51.96-190.3,120.52-260.55,69.29-71.01,161.35-131.09,266.43-173.89-23.97-30.76-50.19-72.2-44.21-100.31,2.11-9.93,8.08-17.54,17.75-22.61,22.14-11.62,63.3-6.89,122.32,14.05,46.49,16.49,92.21,38.88,115.32,50.75,1.04.54,2.02,1.05,2.94,1.53-1.86-5.13-7.77-23.37-5.98-42.92,1.89-20.6,11.35-35.73,28.13-44.95,25.82-14.18,120.79.6,225.81,35.16,76.9,25.3,224.78,83.04,351.17,185.43l5.48,4.44h-.06c84.66,66.91,157.76,156.98,211.73,260.94,53.72,103.48,86.27,216.04,94.13,325.49,5.76,80.14-1.8,155.53-22.48,224.08-21.95,72.78-58.1,135.53-107.46,186.53h0c-91.45,94.48-225.22,160.01-397.59,194.76-139.39,28.1-268.19,28.63-330.08,28.88-12.75.05-22.82.09-29.58.36-2.93.12-6.33.18-10.15.18Zm-222.84-1425.94c-11.23,0-20.97,1.72-28.51,5.68-8.41,4.41-13.37,10.7-15.19,19.22-4.48,21.08,11.61,56.17,45.3,98.79l2.07,2.62-3.1,1.25c-105.72,42.62-198.32,102.79-267.8,174-67.66,69.31-95.08,169.75-119.28,258.37-2.4,8.78-4.77,17.49-7.17,26.08-5.94,21.63-11.73,40.07-17.7,56.39-20.92,57.41-34.45,82.17-45.32,102.06-4.75,8.68-9.23,16.88-13.68,26.6-2.16,4.64-4.41,9.99-6.89,16.35-52.84,137.24-65.47,240.52,26.34,362.24,95.82,127.11,260.1,193.43,381.04,226.69,135.48,37.25,262.42,46.02,302.67,44.42,6.85-.27,16.96-.31,29.76-.36,126.41-.51,511.11-2.07,724.1-222.11h0c94.71-97.86,140.36-242.32,128.54-406.77-16.33-227.19-134.99-452.23-309.66-587.31l-5.79-4.48h.47c-124.53-99.11-268.6-155.29-344.05-180.12-116.39-38.29-201.16-46.88-221.84-35.52-40.11,22.05-22.05,75.74-19.86,81.79,1.11,3.05,3.64,5.39,4.85,6.52.68.63,1.05.97,1.3,1.59l2.56,6.4-6.07-3.27c-.49-.26-5.02-2.7-12.58-6.63-35.75-18.37-142.72-70.49-204.51-70.49Z" style="fill:#371a45;"/><g style="fill:none; opacity:.3;"><path d="m2664.52,1407.45s120.18,329.43-59.6,532.66c-277.4,313.59-1092.21,280.15-1378.93-5.86,0,0,63.83,173.91,371.27,244.91,404.84,93.49,962.27,49.14,1116.86-224.9,154.59-274.04,54.28-565.85,54.28-565.85l-103.89,19.05Z" style="fill:#371a45;"/></g><g style="fill:none; opacity:.3;"><path d="m2495.5,1070.54c167.31,142.33,33.22-68.39,33.22-68.39,0,0-247.71-111.7-299.14-125.06-51.43-13.36,92.49,45.92,265.92,193.45Z" style="fill:#371a45;"/></g><path d="m1914.65,1602.73c7.32,218.55,314.13,379.93,506.94,264.54,92.47-55.38,134.17-141.49,129.95-245.28-4.02-100.57-59.85-171.84-152.75-212.09-141.49-61.39-280.45-58.34-408.79,34.69-57.68,41.81-77.7,88.66-75.36,158.15Z" style="fill:#413757;"/><path d="m1906.13,1598.47c7.32,218.55,314.13,379.93,506.94,264.54,92.47-55.38,134.17-141.49,129.95-245.28-4.02-100.57-59.85-171.84-152.75-212.09-141.49-61.39-280.45-58.34-408.79,34.69-57.68,41.81-77.7,88.66-75.36,158.15Z" style="fill:#413757;"/><path d="m1254.22,1791.99c-39.54-21.6-69.45-50.24-90.12-84.45,6.99-29.27,17.09-60.04,29.78-93.02l.04-.04c2.13-4.94,4.39-10.31,6.77-16.15.04-.13.13-.26.17-.38,14.79-32.21,28.97-46.23,58.93-128.43,6.43-17.64,20.2-65.7,25.65-85.39,2.68-9.59,5.2-18.66,7.67-27.27,105.33-42.91,211-38.14,313.14,30.3,52.07,34.9,71.84,76.31,73.37,139.29,4.81,198.35-252.55,360.18-425.42,265.54Z" style="fill:#413757;"/><path d="m2539.45,1035.51c-3.14,0-6.32-.91-9.12-2.81-76.64-52.02-212.46-116.24-346.02-163.62-164.9-58.5-250.99-65.47-274.61-53.66-15.13,7.56-10.72,40.96-8.72,49.48l7.87,33.41-30.82-15.03c-.42-.21-43.21-21.02-92.44-37.74-82.35-27.96-114.08-21.95-125.66-15.87-9.74,5.11-11.55,10.69-12.07,14.44-2.95,21.32,27.34,57.78,42.48,72.1,6.52,6.17,6.81,16.46.65,22.98-6.16,6.52-16.44,6.82-22.97.67-5.99-5.65-58.37-56.49-52.37-100.16,1.59-11.56,7.94-27.68,29.18-38.82,29.23-15.33,78.79-10.76,151.53,13.98,27.29,9.28,52.26,19.57,69.9,27.28.01-.78.03-1.57.06-2.36,1.24-32.87,16.37-47.21,28.84-53.44,22.52-11.26,61.96-11.12,120.6.42,49.57,9.75,111.61,27.62,179.42,51.68,135.94,48.23,274.66,113.92,353.4,167.36,7.43,5.04,9.37,15.15,4.32,22.58-3.14,4.63-8.26,7.13-13.47,7.13Z" style="fill:#371a45;"/><path d="m1905.65,2250.6c-44.54,0-165.11-7.95-303.63-46.69-76.17-21.31-144.86-48.56-204.15-81.01-76.67-41.95-137.81-92.77-181.74-151.03-45.4-60.19-67.85-117.73-70.67-181.08l-.02-.76c-.01-.32-.03-.64-.03-.97-.09-1.92-.13-3.78-.17-5.42-.09-3.57-.09-7.22,0-10.82.04-2.53.09-5.09.22-7.76.08-2.27.2-4.51.35-6.81,0-.9.06-1.81.18-2.72,1.66-25.73,5.12-50.23,10-70.95,7.29-41.04,35.26-103.12,38.22-109.61l.02-.05.37-.81c4.72-10.28,9.34-18.73,14.24-27.69,11.12-20.34,23.73-43.38,44.19-99.52,6.1-16.72,19.65-63.92,25.26-84.16l1.87-6.7c2.02-7.24,3.93-14.07,5.84-20.71,2.23-7.84,4.12-14.37,5.89-20.31v-.14l1.22-3.97c18.78-62.48,36.56-105.52,86.72-180.96,6.39-9.63,13.24-19.15,20.35-28.29l.75-.92c32.34-41.55,72.25-78.7,118.63-110.45,44.41-30.4,95.06-56.05,150.54-76.25,1.12-.42,2.33-.86,3.59-1.31,8.46-3.02,17.76,1.39,20.78,9.85,3.02,8.46-1.39,17.76-9.85,20.78-1.13.4-2.22.81-3.31,1.21-109.32,39.8-195.19,99.31-255.32,176.91l-.74.91c-6.4,8.27-12.57,16.86-18.34,25.56-48.21,72.51-64.47,111.78-82.68,172.39l-.29.95c-.11.45-.24.89-.38,1.33-1.87,6.26-3.87,13.15-6.29,21.64-1.89,6.57-3.78,13.35-5.78,20.53l-1.87,6.68c-4.54,16.37-19.08,67.53-26.03,86.58-21.3,58.44-35.11,83.7-46.21,103.99-4.74,8.67-8.84,16.17-13.02,25.21l-.03.08-.38.81c-.29.62-29.32,64.16-36.01,102.52l-.2.97c-4.57,19.24-7.8,42.3-9.35,66.67v.03s-.09,1.39-.09,1.39c-.16,2.26-.27,4.44-.35,6.64v.26c-.12,2.17-.16,4.4-.2,6.75v.19c-.08,3.08-.08,6.2,0,9.27.04,1.69.08,3.3.16,4.96l.02.82c.01.33.03.66.03.99,2.56,56.37,22.95,108.07,64.14,162.68,41.13,54.56,98.79,102.36,171.38,142.08,57.12,31.26,123.5,57.57,197.3,78.22,135.72,37.97,263.08,46.95,303.5,45.35,7.12-.28,17.4-.33,30.41-.38,124.96-.54,505.24-2.18,714.1-217.95,80.26-82.9,126.32-237.23,123.21-412.84v-.43c-1.36-75.78-12.14-151.34-31.17-218.49-56.61-199.42-175.16-337.11-352.33-409.25-8.32-3.39-12.31-12.87-8.93-21.19,3.39-8.32,12.87-12.31,21.19-8.93,186.92,76.1,311.86,220.94,371.35,430.49,19.8,69.86,31,148.32,32.4,226.91v.45c1.52,86.39-8.79,170.89-29.83,244.39-23.07,80.62-57.57,145.05-102.53,191.49-93.39,96.48-229.5,163.31-404.56,198.64-140.66,28.39-270.41,28.95-332.76,29.21-12.69.05-22.72.1-29.27.36-2.7.11-6.02.17-9.92.17Z" style="fill:#371a45;"/><path d="m2944.16,1146.02c-15.77,106.06-107.42,206.32-205.21,254.25-37.67,18.45-82.79-.04-98-39.16-42.27-108.74-101.2-201.63-138.61-256.21-2.94-4.3-5.75-8.35-8.39-12.19-14.74-21.13-17.09-48.7-5.37-71.63,47.34-92.72,153.95-152.88,260.94-136.95,12.23,1.83,23.99,4.39,35.28,7.63,112.11,32.3,177.38,133.11,159.36,254.25Z" style="fill:#413757;"/><path d="m2481.2,1055.69c7.37,16.02,14.79,32.94,22.11,50.62-3.28-4.82-6.43-9.37-9.37-13.59-7.75-11.12-12.06-23.95-12.74-37.03Z" style="fill:#575b5a;"/><path d="m2514.92,1127.78l-13.67-20.06c-2.94-4.32-6-8.76-9.36-13.57-7.91-11.34-12.47-24.6-13.19-38.33l-.68-13.01,5.45,11.84c7.6,16.52,15.05,33.58,22.15,50.71l9.29,22.42Z" style="fill:#371a45;"/><g style="fill:none; opacity:.35;"><path d="m2944.16,1146.02c-15.77,106.06-107.42,206.32-205.21,254.25-37.67,18.45-82.79-.04-98-39.16-7.46-19.17-15.42-37.84-23.69-55.86,12.23,1.79,51.06-.52,63.88-4.13,152.42-42.99,239.8-149.8,237.75-254.03-.4-20.52-4.55-39.51-3.74-58.56,26.72,43.89,37.84,98.26,29.02,157.49Z" style="fill:#371a45;"/></g><g style="fill:none; opacity:.4;"><path d="m2853.74,942.22c-100.94-30.59-150.62-32.89-227.96,11.08-67.42,38.33-114.49,130.56-123.44,151.61-2.94-4.3-5.75-8.35-8.39-12.19-14.74-21.13-17.09-48.7-5.37-71.63,47.34-92.72,153.95-152.88,260.94-136.95,12.23,1.83,23.99,4.39,35.28,7.63l68.94,50.45Z" style="fill:#fff;"/></g><path d="m2708.02,1423.67c-11.45,0-22.92-2.26-33.74-6.8-8.28-3.47-12.18-13-8.71-21.28,3.47-8.28,13-12.18,21.28-8.71,14.74,6.18,30.71,5.74,44.95-1.23,101.8-49.88,182.52-149.41,196.29-242.02,8.94-60.15-4.14-117.48-36.84-161.42-32.68-43.92-83.87-73.04-144.13-82-97.71-14.53-198.07,38.21-244.08,128.26-4.21,8.24-6.13,17.55-5.56,26.92.55,8.96-6.28,16.67-15.24,17.22-8.95.53-16.67-6.28-17.22-15.24-.92-15.17,2.21-30.28,9.06-43.69,24.73-48.41,65.54-89.65,114.9-116.13,51.31-27.52,107.65-37.72,162.91-29.5,68.83,10.23,127.58,43.88,165.43,94.75,37.9,50.93,53.15,116.85,42.92,185.62-7.91,53.17-34.01,107.45-75.47,156.97-38.03,45.41-87.28,84.29-138.67,109.47-11.98,5.87-25.02,8.82-38.09,8.82Z" style="fill:#371a45;"/><path d="m1696.32,1728.08c-9.53.47-18.87,3.57-26.45,9.37-3.62,2.78-6.77,6.04-7.85,9.87-2.36,8.4,4.87,22.22,11.91,30.05,37.51,41.76,106.63,36.95,138.73-8.58,15.14-21.47,2.46-43.06-28.21-43.79-27.91-.66-55.88,1.5-88.13,3.07Z" style="fill:#371a45;"/><circle cx="1497.47" cy="1592.77" r="48.77" style="fill:#fff;"/><circle cx="2134.21" cy="1641.54" r="48.77" transform="translate(172 3485.24) rotate(-80.78)" style="fill:#fff;"/><path d="m1752.87,1895.19c.48.3.95.59,1.39.9.23.15.43.31.67.46l.74.41,1.43.83c.51.25,1.03.49,1.52.75.25.13.49.26.75.38l.8.33c.53.22,1.05.45,1.56.68l1.64.59c.55.19,1.07.42,1.65.57,4.47,1.4,9.2,2.27,13.97,2.64,9.57.71,19.25-.74,27.91-4.11,4.35-1.67,8.42-3.91,12.26-6.53,3.84-2.63,7.45-5.67,10.8-9.21,3.35-3.52,6.46-7.48,9.45-11.78,2.99-4.32,5.59-9.08,8.57-14.01l.28-.47c2.19-3.64,6.92-4.8,10.56-2.61,2.42,1.46,3.75,4.06,3.72,6.69-.09,6.53-1.1,13.12-3.1,19.59-2.04,6.45-4.98,12.77-8.9,18.65-1.03,1.44-2.05,2.88-3.11,4.31l-3.49,4.06c-1.21,1.32-2.52,2.55-3.81,3.81-.63.65-1.34,1.2-2.03,1.78l-2.09,1.73c-5.67,4.48-12.09,8.03-18.81,10.64-13.48,5.18-28.2,6.4-42.11,3.6-6.96-1.41-13.76-3.82-20.07-7.41-6.29-3.54-12.15-8.51-16.46-14.88-2.92-4.32-1.78-10.19,2.54-13.11,3.18-2.15,7.21-2.1,10.28-.19l1.47.92Z" style="fill:#371a45;"/><g style="fill:none; opacity:.35;"><path d="m2628.65,2634.76l-31.75-11.5-24.31-8.86c7.15,1.95,14.55,4.27,22.27,6.95,10.69,3.7,21.95,8.17,33.78,13.41Z" style="fill:#fff;"/><path d="m2627.8,2637.11l-31.75-11.5-24.31-8.86,1.51-4.76c7.16,1.95,14.5,4.24,22.44,7,10.71,3.71,22.14,8.25,33.97,13.49l-1.86,4.64Z" style="fill:#371a45;"/></g><path d="m2453.39,3208.44c-8.29,0-15.37-6.31-16.17-14.72-.85-8.94,5.71-16.87,14.65-17.72,213.42-20.27,343.79-138.75,367.09-333.61,16.62-138.34,9.17-284.25-22.14-433.7-3.7-17.64-7.77-35.42-12.1-52.85-43.7-177.75-107.78-304.9-126.38-339.63-4.24-7.92-1.26-17.77,6.66-22.01,7.92-4.24,17.77-1.26,22.01,6.66,19.05,35.58,84.68,165.78,129.28,347.18,4.41,17.78,8.57,35.95,12.35,53.98,32.04,152.93,39.64,302.39,22.6,444.24-3.25,27.16-13.13,109.84-67.3,189.49-30.6,45-70.59,82.05-118.86,110.1-58.07,33.76-128.78,54.79-210.15,62.52-.52.05-1.04.07-1.56.07Z" style="fill:#371a45;"/><path d="m1464.38,2126.37s-210.67,144-81.21,368.23c0,0,115.3,135.7,325.12-31.57,0,0,89.13-160.35-43.33-213.31,0,0-141.22-22.69-122.84-55.74,18.38-33.05,3.79-31.53-6.34-36.69-10.13-5.16-71.41-30.92-71.41-30.92Z" style="fill:#575b5a;"/><path d="m1510.64,2549.04c-15.12,0-29.87-1.69-44.17-5.07-55.22-13.06-84.01-46.35-85.21-47.76l-.26-.37c-29.77-51.56-43.99-103.19-42.26-153.46,1.38-40.25,12.92-79.69,34.31-117.22,36.35-63.79,89.38-100.49,89.92-100.86l1.12-.77,1.26.53c2.51,1.05,61.48,25.86,71.57,31,1.41.72,2.99,1.33,4.52,1.92,4.38,1.68,9.34,3.59,11.22,8.76,2.19,6.04-.39,15.13-8.36,29.46-1.66,2.98-1.76,5.87-.33,8.83,10.25,21.11,91.09,38.36,121.38,43.23l.27.04.26.1c34.16,13.66,56.84,35.64,67.39,65.34,12.4,34.89,5.52,74.26-2.44,101.14-8.59,29-20.25,50.15-20.37,50.36l-.24.43-.39.31c-48.13,38.37-95.31,63.93-140.23,75.96-20.14,5.4-39.86,8.1-58.98,8.1Zm-125.42-55.91c2.23,2.52,30.89,33.88,82.7,46.04,49.58,11.64,131.17,7.57,238.42-77.78,3.48-6.49,44.31-84.92,22.23-146.99-10.03-28.2-31.66-49.15-64.28-62.26-7.49-1.22-111.53-18.6-124.8-45.93-2.17-4.47-2.02-9,.45-13.44,6.91-12.43,9.61-20.95,8.03-25.32-1.1-3.02-4.44-4.31-8.31-5.79-1.65-.63-3.36-1.29-5-2.13-9.12-4.65-61.1-26.57-69.96-30.31-7.73,5.58-54.51,40.8-87.38,98.58-32.88,57.79-58.18,150.71,7.91,265.34Z" style="fill:#371a45;"/><g style="fill:none; opacity:.35;"><path d="m1395.86,2221.8s-35.88,147.21,56.62,199.32c92.49,52.11,240.89,26.38,290.4-38.01,0,0-23.7,145.32-174.86,146.87-151.16,1.55-205.93-35.03-220.56-130.73-14.62-95.7,48.4-177.44,48.4-177.44Z"/><path d="m1559.18,2532.52c-72.06,0-121.11-9.36-153.93-29.31-33.87-20.58-52.45-52.53-60.25-103.59-7.64-50.02,6.05-96.11,18.89-125.97,13.89-32.31,29.84-53.17,30-53.37l7.2-9.33-2.79,11.45c-.09.37-8.86,37.04-6.3,79.5,2.34,38.86,14.95,90.7,61.72,117.05,42.68,24.04,100.9,32.93,159.73,24.39,56.38-8.19,104.03-31.27,127.46-61.74l6.05-7.86-1.6,9.79c-.25,1.51-6.3,37.3-31.14,73.86-14.62,21.51-32.73,38.73-53.82,51.16-26.35,15.53-57.41,23.59-92.33,23.95-2.99.03-5.95.05-8.87.05Zm-168.1-299.39c-5.85,9.03-14.6,23.85-22.66,42.63-12.55,29.23-25.94,74.32-18.48,123.11,7.56,49.47,25.42,80.33,57.91,100.07,33.32,20.25,84.2,29.32,160.16,28.54,61.82-.63,109.62-25.17,142.07-72.92,16.61-24.45,24.68-48.99,28.13-62.11-25.87,27.58-71.28,48.16-124.05,55.83-59.91,8.7-119.28-.4-162.91-24.98-21.57-12.15-38.02-30.41-48.91-54.27-8.66-18.97-13.82-41.5-15.35-66.96-1.71-28.54,1.61-54.5,4.09-68.94Z" style="fill:#371a45;"/></g><g style="fill:none; opacity:.35;"><path d="m1540.83,2169.28s-54.92,32.19-16.12,74.5c36.88,40.22,136.3-11.48,190.52,77.43,0,0-14.4-67.82-42.58-77.59-28.19-9.77-137.38-3.91-134.31-48.2l2.5-26.14Z" style="fill:#fff;"/><path d="m1720.71,2335l-7.62-12.49c-31.85-52.23-79.29-54.88-121.15-57.21-28.78-1.61-53.64-2.99-69.08-19.83-11.29-12.31-16.04-25.07-14.11-37.91,3.65-24.26,29.7-39.79,30.81-40.44l4.22-2.47-2.96,31c-2.03,29.39,53.18,35.23,93.49,39.49,16.62,1.76,30.97,3.27,39.16,6.11,29.19,10.12,43.61,76.61,44.21,79.44l3.04,14.31Zm-182.88-160.69c-7.31,5.34-21.7,17.73-24.14,34.01-1.69,11.27,2.64,22.63,12.85,33.77,14.06,15.34,37.98,16.67,65.67,18.22,20.58,1.15,43.91,2.45,65.75,10.21,20.79,7.39,37.67,19.71,51.27,37.48-5.77-19.99-18.47-55.46-37.41-62.02-7.64-2.65-21.73-4.14-38.04-5.86-42.34-4.48-100.32-10.61-97.95-44.87l2-20.93Z" style="fill:#371a45;"/></g><path d="m1512.68,2559.26c-30.4,0-58.12-4.93-82.69-14.72-29.58-11.79-54-30.31-72.56-55.04-21.45-28.57-34.27-64.89-37.07-105.03-2.71-38.69,3.91-80.04,19.15-119.6,23.44-60.77,70.32-111.36,105.53-143.1,6.67-6.01,16.95-5.48,22.96,1.19,6.01,6.67,5.48,16.95-1.19,22.96-32.57,29.37-75.83,75.87-96.96,130.64-27.52,71.47-22.31,145.59,13.59,193.42,31.69,42.23,84.25,61.52,151.98,55.78,77.55-6.56,131.58-31.32,160.61-73.58,34.08-49.62,22.48-107.58,15.91-130.19-16.88-57.96-90.42-72.3-134.36-80.88-12.4-2.42-22.19-4.33-29.48-6.84-16.67-5.75-25.78-14.88-27.09-27.15-2.01-18.88,16.83-31.84,22.66-35.36,7.68-4.65,17.68-2.19,22.33,5.5,4.65,7.68,2.19,17.68-5.5,22.33-1.33.83-2.81,1.95-4.11,3.09.67.27,1.44.56,2.31.87,5.14,1.77,14.39,3.58,25.1,5.67,24.21,4.72,57.37,11.2,87.6,25.57,37.74,17.95,61.88,44.24,71.75,78.14,16.62,57.2,9.21,114.67-20.33,157.68-16.45,23.96-39.53,43.46-68.59,57.97-31.65,15.81-70.71,25.77-116.09,29.6-8.69.74-17.19,1.1-25.48,1.1Z" style="fill:#371a45;"/><path d="m1606.41,2204.51c-1.45,0-2.92-.2-4.39-.6-76.17-21.31-144.86-48.56-204.15-81.01-7.88-4.31-10.77-14.19-6.46-22.07,4.31-7.88,14.19-10.77,22.07-6.46,57.12,31.26,123.5,57.57,197.3,78.22,8.65,2.42,13.7,11.39,11.28,20.04-2.01,7.18-8.54,11.88-15.65,11.88Z" style="fill:#371a45;"/><path d="m2006.15,2769.98h-801.4c-8.07,0-15.21-5.26-17.6-12.97h0s-2.64-8.58-2.64-8.58l-10.81-34.92-56.13-181.24-22.68-73.29-82.8-267.31c-3.67-11.86,5.19-23.88,17.6-23.88h800.79c8.07,0,15.2,5.25,17.6,12.96l154.21,496.26,21.47,69.06c3.69,11.86-5.18,23.9-17.6,23.9Z" style="fill:#b8c5d3;"/><path d="m2042.81,2769.98v81.25h-804.16c-21.7,0-40-14.55-45.69-34.43-1.22-4.15-1.87-8.58-1.87-13.13v-33.7h851.71Z" style="fill:#b8c5d3;"/><path d="m2050.2,2769.99l399.25-195.22c14.42-6.92,31.19,3.31,31.63,19.29h0c.23,8.24-4.15,15.91-11.35,19.91l-426.94,237.25" style="fill:#848484;"/><path d="m2044.01,2853.42l-2.43-4.37,426.94-237.25c6.41-3.56,10.27-10.33,10.06-17.66-.18-6.66-3.69-12.71-9.38-16.17-5.69-3.47-12.67-3.82-18.67-.94l-399.23,195.21-2.2-4.49,399.25-195.22c7.55-3.63,16.32-3.19,23.45,1.17,7.14,4.35,11.54,11.94,11.77,20.3.26,9.2-4.58,17.7-12.63,22.17l-426.94,237.25Z" style="fill:#371a45;"/><rect x="1971.09" y="2570.07" width="482.76" height="5" style="fill:#371a45;"/><g style="fill:none; opacity:.2;"><path d="m2031.18,2769.98h-840.01l-4.02-12.97-2.64-8.58-66.95-216.16-22.68-73.29-90.2-291.19h92.31l99.42,325.7,50.16-24.63s69.55,121.33,16.18,217.54c15.36,17.76,38,28.62,62.6,28.62h689l16.83,54.95Z" style="fill:#371a45;"/></g><g style="fill:none; opacity:.3;"><path d="m2042.81,2808.73v34.43h-804.16c-21.7,0-40-14.55-45.69-34.43h849.85Z" style="fill:#371a45;"/></g><rect x="2035.42" y="2769.99" width="5" height="81.24" style="fill:#371a45;"/><polygon points="1971.09 2572.57 2350.64 2577.53 2305.9 2683.16 2026.37 2764.46 1971.09 2572.57" style="fill:#b8c5d3;"/><polygon points="2012.05 2730.17 2228.11 2617.56 1994.94 2617.56 2012.05 2730.17" style="fill:#545454;"/><path d="m2053.24,2786.25h-874.07l-178.71-577.11c-4.22-13.63-1.79-28.04,6.68-39.53,8.47-11.49,21.51-18.08,35.78-18.08h763.59c29.62,0,55.43,19.01,64.22,47.29l182.51,587.42Zm-850.1-32.52h805.94l-169.41-545.26c-4.54-14.61-17.87-24.42-33.16-24.42h-763.59c-3.83,0-7.34,1.77-9.61,4.85-2.27,3.08-2.93,6.95-1.79,10.62l171.62,554.21Z" style="fill:#371a45;"/><path d="m2042.79,2867.49h-804.15c-35.18,0-63.79-28.62-63.79-63.79v-49.96h867.94c8.98,0,16.26,7.28,16.26,16.26s-7.28,16.26-16.26,16.26h-835.43v17.45c0,17.25,14.03,31.27,31.27,31.27h804.15c8.98,0,16.26,7.28,16.26,16.26s-7.28,16.26-16.26,16.26Z" style="fill:#371a45;"/><path d="m2050.2,2769.99l399.25-195.22c14.42-6.92,31.19,3.31,31.63,19.29h0c.23,8.24-4.15,15.91-11.35,19.91l-426.94,237.25" style="fill:#b8c5d3;"/><g style="fill:none; opacity:.3;"><path d="m2481.06,2594.06v.65c0,8.01-4.35,15.41-11.34,19.27l-426.91,237.26,3.7-40.81,416.06-214.66c3.66-1.91,6.62-4.72,8.74-8.09,1.59-2.68,2.68-5.69,3.05-8.86,3.94,3.78,6.54,9.11,6.71,15.24Z" style="fill:#371a45;"/></g><path d="m2042.81,2867.49c-5.71,0-11.25-3.02-14.23-8.36-4.36-7.85-1.53-17.75,6.31-22.11l426.94-237.25c1.91-1.06,3.05-3.07,2.99-5.25-.08-2.75-1.78-4.2-2.79-4.81-1-.61-3.05-1.46-5.51-.3l-399.18,195.19c-8.07,3.94-17.8.6-21.75-7.46-3.94-8.07-.6-17.8,7.46-21.75l399.35-195.27c11.76-5.64,25.42-4.96,36.56,1.83,11.13,6.79,18,18.63,18.36,31.67.4,14.35-7.15,27.6-19.7,34.58l-426.94,237.25c-2.5,1.39-5.21,2.05-7.88,2.05Z" style="fill:#371a45;"/><path d="m2453.85,2588.83h-482.76c-8.98,0-16.26-7.28-16.26-16.26s7.28-16.26,16.26-16.26h482.76c8.98,0,16.26,7.28,16.26,16.26s-7.28,16.26-16.26,16.26Z" style="fill:#371a45;"/><path d="m2037.92,2867.49c-8.98,0-16.26-7.28-16.26-16.26v-81.24c0-8.98,7.28-16.26,16.26-16.26s16.26,7.28,16.26,16.26v81.24c0,8.98-7.28,16.26-16.26,16.26Z" style="fill:#371a45;"/><g style="fill:none; opacity:.35;"><path d="m2785.99,3001.64c-61.26,99.75-178.16,193.4-326.19,182.75h-.04c-24.39,21.58-61.95,35.48-119.66,29.22-99.18-10.81-154.25-122.83-161.82-236.85,21.14,43.37,75.68,129.75,171.45,119.66,133.28-13.98,142.63-188.89,142.63-188.89,0,0,15.81,195.63,156.25,110.6,101.37-61.3,117.79-234.49,119.1-326.19,22.07-6.34,47.31-17.68,76.74-35.32,0,0,2.76,245.26-58.45,345.01Z" style="fill:#371a45;"/></g><path d="m2266.42,2757.16c-1.53,0-3.08-.22-4.62-.67-8.6-2.55-13.51-11.58-10.98-20.18.46-1.57,11.63-38.81,38.46-78.13,36.36-53.29,84.24-84.77,138.47-91.05,123.75-14.32,171.4,32.98,209.68,70.99,41.06,40.77,70.73,70.24,189,15.98,8.16-3.74,17.81-.16,21.56,8,3.74,8.16.16,17.81-8,21.56-62.28,28.57-108.73,37.93-146.2,29.45-34.97-7.92-57.49-30.28-79.28-51.91-36.78-36.53-74.82-74.29-183.03-61.77-44.96,5.21-83.6,30.89-114.85,76.34-24.17,35.16-34.53,69.42-34.64,69.76-2.1,7.06-8.58,11.63-15.58,11.63Z" style="fill:#371a45;"/><path d="m2441.29,3179.9c.92-.98,1.87-1.9,2.83-2.8.48-.45.96-.89,1.45-1.33.46-.47.91-.95,1.38-1.4.92-.93,1.86-1.82,2.8-2.72.88-.97,1.79-1.89,2.69-2.82.44-.48.93-.9,1.36-1.39l1.29-1.46c.86-.97,1.79-1.88,2.62-2.89,1.68-1.99,3.41-3.94,5.01-6.03,1.68-2.02,3.2-4.19,4.82-6.3,1.51-2.2,3.1-4.36,4.55-6.65,1.52-2.24,2.9-4.6,4.35-6.94,1.33-2.4,2.72-4.8,3.99-7.3,5.15-9.92,9.43-20.63,13.03-31.82,1.82-5.59,3.43-11.31,4.92-17.13.73-2.91,1.45-5.84,2.12-8.8.64-2.95,1.29-5.98,1.85-8.91l.03-.13c.23-1.18,1.37-1.96,2.55-1.74.84.16,1.48.79,1.7,1.56,3.41,12.37,4.61,25.05,4.51,37.91-.16,12.85-1.83,25.87-5.37,38.7-1.72,6.42-3.97,12.78-6.74,18.98-1.31,3.14-2.96,6.13-4.55,9.17-.85,1.49-1.77,2.95-2.66,4.42-.46.73-.87,1.48-1.37,2.19l-1.49,2.13-1.49,2.12-.75,1.06-.81,1.02-3.29,4.04c-1.12,1.33-2.35,2.57-3.53,3.85l-1.81,1.88c-.61.62-1.26,1.21-1.91,1.79-1.3,1.17-2.58,2.35-3.91,3.49-1.36,1.09-2.76,2.15-4.15,3.19-.69.53-1.4,1.04-2.11,1.55-.73.48-1.47.94-2.21,1.4-1.48.92-2.97,1.82-4.49,2.66-7.27,4.02-16.42,1.39-20.44-5.88-3.24-5.85-2.16-12.93,2.18-17.57l1.08-1.15Z" style="fill:#371a45;"/><path d="m2366.77,3231.4c-9.12,0-18.59-.53-28.41-1.6-48.27-5.25-90.44-32.57-121.94-79-27.01-39.82-45.63-93.64-52.43-151.55-7.12-60.69-1.15-121.54,16.82-171.35,20.54-56.91,54.92-95.38,99.45-111.23,8.46-3.01,17.76,1.4,20.77,9.86,3.01,8.46-1.4,17.76-9.86,20.77-78.15,27.83-106.89,145.91-94.88,248.16,10.21,86.99,54.47,192.1,145.59,202.01,38.1,4.15,69.32-.83,92.8-14.8,7.72-4.59,17.69-2.06,22.29,5.66,4.59,7.72,2.06,17.7-5.66,22.29-23.24,13.82-51.59,20.78-84.53,20.78Z" style="fill:#371a45;"/><path d="m2489.03,2898.19c-3.28-11.69-7.42-23.24-11.95-34.44-1.15-2.8-2.34-5.58-3.56-8.34-1.2-2.77-2.44-5.51-3.72-8.22-2.56-5.44-5.32-10.75-8.17-15.98-11.43-20.86-25.4-40.01-42.24-55.04-4.21-3.74-8.59-7.23-13.11-10.43-4.53-3.19-9.23-6.07-14.05-8.63-9.67-5.08-19.81-8.99-30.35-11.57-5.27-1.27-10.62-2.28-16.04-3-2.72-.31-5.44-.66-8.19-.82-2.75-.27-5.47-.38-8.2-.46-10.9-.31-21.62.65-32.19,2.77l-.24.05c-8.14,1.63-16.06-3.64-17.69-11.78-1.49-7.44,2.79-14.7,9.75-17.13,6.54-2.3,13.31-3.91,20.14-5.03,6.83-1.08,13.72-1.58,20.57-1.6,6.86,0,13.6.5,20.37,1.34,6.76.95,13.49,2.3,20.1,4.16,13.23,3.71,25.95,9.42,37.48,16.78,5.78,3.65,11.22,7.78,16.36,12.16,5.15,4.38,9.97,9.08,14.45,14.03,4.49,4.93,8.66,10.09,12.5,15.44,3.85,5.33,7.4,10.83,10.63,16.47,6.51,11.25,11.84,22.99,16.25,34.94,2.21,5.98,4.12,12.03,5.88,18.11.87,3.04,1.69,6.09,2.46,9.14.76,3.06,1.44,6.14,2.09,9.21,1.29,6.16,2.4,12.33,3.22,18.55.84,6.22,1.48,12.4,1.69,18.75.04,1.19-.89,2.18-2.08,2.23-1.01.03-1.88-.63-2.15-1.57l-.02-.08Z" style="fill:#371a45;"/><path d="m2701.48,2282.09c-37.39,38.78-75.15,88.18-113.85,132.84-23,26.53-46.36,51.42-70.15,71.4-91.49,76.73-213.32,125.64-304.02,139.52q-.05-.03-.09-.01c-30.9,4.72-58.2,5.4-79.43,1.69-22.89-3.98-43.23-10.31-61.07-18.44-.04.01-.09-.01-.15-.04-126.22-57.69-124.63-206.61,15.82-262.75,187.72-75.01,196.19-120.56,196.19-120.56" style="fill:#413757;"/><g style="fill:none; opacity:.35;"><path d="m2001.64,2532.9s147.49,43.27,277.92-6.86c261.32-100.44,406.71-249.98,406.71-249.98,0,0-108.19,167.24-164.59,206.65-56.4,39.41-353.7,279.3-520.04,50.19Z" style="fill:#371a45;"/></g><g style="fill:none; opacity:.4;"><path d="m1990.83,2476.36s19.8-52.82,88.14-82.79c68.34-29.97,191.62-72.62,215.58-160.05,0,0-73.37,55.59-108.62,67.19-35.25,11.6-152.58,56.84-165.01,88.11-12.43,31.27-48.8,55.27-30.08,87.53Z" style="fill:#fff;"/></g><path d="m2164.53,2646.17c-12.17,0-23.32-.88-33.39-2.64-23.17-4.03-44.78-10.53-64.25-19.32-.35-.14-.7-.29-1.05-.45-32.35-14.81-58.77-36.28-76.42-62.09-17.14-25.07-25.82-53.71-25.12-82.83.73-30.19,11.51-59.55,31.16-84.93,20.5-26.47,50.6-48.16,87.04-62.72,163.94-65.51,185.27-106.94,186.54-109.75,2.2-8.09,10.28-13.26,18.66-11.7,8.83,1.64,14.65,10.13,13.01,18.96-.97,5.19-6.16,19.66-33.44,41.8-35.23,28.59-93.33,59.17-172.7,90.89-60,23.98-96.55,68.19-97.76,118.25-1.13,46.8,28.74,89.01,80.05,113.4l2.75,1.25c17.14,7.82,36.36,13.61,57.11,17.22,18.9,3.3,44.11,2.76,72.98-1.56l5.14-1.61,1.25.63c75.93-12.65,195.56-55.09,290.95-135.09,19.99-16.78,41.7-38.89,68.31-69.59,14.05-16.21,28.22-33.35,41.92-49.93,23.78-28.77,48.38-58.52,72.51-83.54,6.23-6.46,16.52-6.65,22.99-.42,6.46,6.23,6.65,16.53.42,22.99-23.27,24.13-46.38,52.09-70.85,81.69-13.82,16.72-28.12,34.01-42.41,50.51-27.77,32.03-50.64,55.29-71.98,73.2-43.99,36.89-97.99,70-156.18,95.75-52.46,23.21-107.81,40.04-155.84,47.39l-5.17.79-.09-.05c-16.66,2.34-32.07,3.52-46.12,3.52Zm104.22-423.47s0,.03,0,.04c0-.01,0-.03,0-.04Zm0-.04s0,.02,0,.03c0-.01,0-.02,0-.03Zm.35-1.37s0,0,0,0t0,0Z" style="fill:#371a45;"/><path d="m1016.6,2546.45c-7.9,0-14.83-5.77-16.05-13.82-6.7-44.1.12-79.91,20.27-106.45,26.08-34.34,64.9-39.4,66.54-39.6l.29-.03c1.38-.14,34.22-3.32,72.76,11.89,35.47,13.99,82.91,46.7,107.49,123.04,2.75,8.55-1.95,17.71-10.49,20.46-8.55,2.75-17.71-1.95-20.46-10.49-16.42-51.02-45.75-85.42-87.17-102.24-29.78-12.09-55.8-10.54-58.6-10.33-2.56.41-28,5-44.74,27.34-14.42,19.25-19.04,46.68-13.74,81.53,1.35,8.88-4.75,17.17-13.63,18.52-.83.13-1.65.19-2.46.19Z" style="fill:#371a45;"/><path d="m1137.77,2703.56c-33.53,3.7-107.19-30.77-121.13-173.36-1.02-10.53-1.3-20.2-.93-29.06,3.86-89.99,73.61-98.41,73.61-98.41,0,0,84.99-10.24,134.5,57.23,12.4,16.87,22.56,38.57,28.62,66.5,28.86,133.04-81.09,173.36-114.66,177.1Z" style="fill:#413757;"/><g style="fill:none; opacity:.4;"><path d="m1223.82,2454.96c-41.99-13.17-87.07-19.27-127.06-11.34-38.17,7.56-67.27,36.3-81.05,52.52,3.86-89.99,73.61-98.41,73.61-98.41,0,0,84.99-10.24,134.5,57.23Z" style="fill:#fff;"/></g><g style="fill:none; opacity:.35;"><path d="m1137.77,2703.56c-26.1,2.89-76.5-17.36-104.14-93.69,27.92,21.1,57.35,27.44,76.33,25.73,32.6-2.93,123.73-28.62,143.4-104.46,25.32,129.3-82.43,168.73-115.6,172.42Z" style="fill:#371a45;"/></g><path d="m1132.78,2720.07c-19.55,0-41.79-8.75-60.82-24.18-27.47-22.27-62.18-68.82-71.52-164.12-6.61-67.45,16.74-103.31,37.5-121.52,22.73-19.95,46.77-23.35,49.43-23.67h.01c1.51-.18,37.51-4.29,77.69,10.35,37.59,13.69,86.01,46.68,103.25,126.09,11.35,52.29,4.07,96.92-21.62,132.66-32.21,44.81-84.15,61.48-107.11,64.03-2.22.25-4.49.37-6.8.37Zm-41.43-301.22c-1.1.17-17.95,2.96-33.1,16.86-21.04,19.29-29.6,50.55-25.45,92.89,8.25,84.12,36.98,123.66,59.64,142.03,17.28,14,33.82,17.83,43.55,16.76,14.47-1.61,57.82-13.85,84.3-50.69,20.09-27.95,25.56-63.88,16.24-106.79-11.31-52.12-39.1-86.59-82.6-102.43-32.05-11.67-60.76-8.83-62.59-8.63Zm-.09.01h0l-.13.02.13-.02Z" style="fill:#371a45;"/><circle cx="1465.82" cy="2474.24" r="69.64" style="fill:#fff;"/><g style="fill:none; opacity:.26;"><circle cx="1395.68" cy="1581.2" r="282.82" style="fill:#fff;"/></g><g style="fill:none; opacity:.26;"><circle cx="2189.15" cy="1590.84" r="320.11" style="fill:#fff;"/></g><path d="m1405.68,1884.02c-80.89,0-156.93-31.5-214.13-88.7-57.2-57.2-88.7-133.24-88.7-214.13s31.5-156.93,88.7-214.13c57.2-57.2,133.24-88.7,214.13-88.7s156.93,31.5,214.13,88.7c57.2,57.2,88.7,133.24,88.7,214.13s-31.5,156.93-88.7,214.13c-57.2,57.2-133.24,88.7-214.13,88.7Zm0-565.65c-144.92,0-262.82,117.9-262.82,262.82s117.9,262.82,262.82,262.82,262.82-117.9,262.82-262.82-117.9-262.82-262.82-262.82Z" style="fill:#371a45;"/><path d="m2182.98,1921.3c-45.91,0-90.45-9-132.39-26.74-40.5-17.13-76.87-41.65-108.1-72.88-31.23-31.23-55.75-67.6-72.88-108.1-17.74-41.94-26.74-86.49-26.74-132.39s9-90.45,26.74-132.39c17.13-40.5,41.65-76.87,72.88-108.1,31.23-31.23,67.6-55.75,108.1-72.88,41.94-17.74,86.49-26.74,132.39-26.74s90.45,9,132.39,26.74c40.5,17.13,76.87,41.65,108.1,72.88,31.23,31.23,55.75,67.6,72.88,108.1,17.74,41.94,26.74,86.49,26.74,132.39s-9,90.45-26.74,132.39c-17.13,40.5-41.65,76.87-72.88,108.1-31.23,31.23-67.6,55.75-108.1,72.88-41.94,17.74-86.49,26.74-132.39,26.74Zm0-640.21c-165.48,0-300.11,134.63-300.11,300.11s134.63,300.11,300.11,300.11,300.11-134.63,300.11-300.11-134.63-300.11-300.11-300.11Z" style="fill:#371a45;"/><path d="m2794.64,1538.78h-282.38c-11.05,0-20-8.95-20-20s8.95-20,20-20h282.38c11.05,0,20,8.95,20,20s-8.95,20-20,20Z" style="fill:#371a45;"/><path d="m1863.49,1620.35c-11.05,0-20-8.95-20-20,0-36.21-30.5-65.67-67.99-65.67s-67.99,29.46-67.99,65.67c0,11.05-8.95,20-20,20s-20-8.95-20-20c0-58.27,48.44-105.67,107.99-105.67s107.99,47.4,107.99,105.67c0,11.05-8.95,20-20,20Z" style="fill:#371a45;"/></svg>