<svg width="28" height="28" viewBox="0 0 28 28" fill="none" xmlns="http://www.w3.org/2000/svg">
<path d="M14.9243 3.98669C16.1848 2.13638 18.3893 1.3736 20.4057 1.92883C20.6992 2.00962 20.9302 2.24506 21.0087 2.54803C21.332 3.79721 21.2023 5.14491 20.6193 6.31448C16.9464 13.2098 11.7751 10.3341 14.9243 3.98669Z" fill="#A6D239"/>
<path d="M14.7405 9.71163C14.5307 9.60402 14.445 9.34114 14.5493 9.12456L14.8591 8.48069C14.9715 8.13442 15.9389 5.32146 18.0873 3.97387C18.2876 3.84825 18.5486 3.91403 18.6702 4.12078C18.7919 4.32754 18.7282 4.59691 18.5279 4.72253C16.5037 5.99221 15.6665 8.77168 15.633 8.84124L15.3092 9.5143C15.2053 9.73015 14.951 9.81958 14.7405 9.71163Z" fill="#94C614"/>
<path d="M15.253 8.64633C15.253 10.7623 13.1516 11.3463 12.8716 8.69658C12.3597 6.59598 11.4212 4.52514 10.6491 3.0377C10.0535 1.88958 10.6226 0.46583 11.8308 0.0914434L11.846 0.0873783C12.8953 -0.237888 14.0018 0.372953 14.3231 1.4545C15.5142 5.46633 15.2431 8.46013 15.253 8.64633Z" fill="#BD7558"/>
<path d="M15.119 27.3971C15.6242 27.678 16.1722 27.8672 16.7589 27.9514C20.3299 28.4623 24.0768 24.8965 25.6205 19.7697V19.7691C26.089 18.2953 26.3127 16.6995 26.3349 15.0031C26.3315 10.4375 24.2561 6.81558 21.0415 6.35599C19.2322 6.09989 17.4986 6.88655 16.088 8.11907C15.8324 8.34214 15.5501 8.51796 15.2531 8.64584V8.64641C14.1299 9.131 12.833 8.92379 11.9123 8.11907C11.2958 7.58061 10.644 7.14914 9.97387 6.84251C2.68628 6.83387 3.39405 27.6495 12.5165 27.5801C12.6404 27.5242 12.7621 27.4634 12.8813 27.3972C13.5804 27.0076 14.4199 27.0076 15.119 27.3971Z" fill="#9EF07B"/>
<path d="M9.97364 6.84243C8.9903 6.39256 7.96747 6.21143 6.95865 6.35591C3.3667 6.86981 1.1974 11.3303 1.75116 16.6453C1.89702 18.4246 2.3191 20.223 3.1608 21.8445C4.97939 25.8239 8.1754 28.3899 11.2413 27.9513C11.6894 27.8871 12.115 27.761 12.5162 27.58C7.07541 22.9727 5.78849 11.389 9.97364 6.84243Z" fill="#9EF07B"/>
<path d="M26.7059 15.173C26.0272 14.8548 25.3246 14.5628 24.6062 14.3053L24.1819 14.9671L23.7577 14.0198C23.1983 13.844 22.6315 13.6905 22.0607 13.5629L21.6364 14.1397L21.2122 13.3931C20.6475 13.2937 20.0807 13.221 19.5152 13.1789L19.0909 13.9061L18.6667 13.1389C18.0967 13.1282 17.5299 13.1508 16.9697 13.2099L16.5454 13.8379L16.1212 13.3292C15.545 13.4308 14.978 13.5745 14.4242 13.7644L13.9999 14.6847L13.5757 14.0966C12.9848 14.3583 12.7858 14.5081 11.8787 14.9287L11.4544 15.5412L11.0302 15.3011C10.4598 15.5379 9.89376 15.7451 9.33321 15.9236L8.90894 16.7189L8.48467 16.1735C8.17279 16.2576 7.86282 16.3334 7.55509 16.3999C4.60988 17.4901 4.59238 21.8561 8.50841 21.2425C10.0507 20.8244 11.5482 20.2115 12.9523 19.4733C17.3995 17.135 22.5691 18.5343 25.545 19.7408C25.5699 19.7507 25.5954 19.7606 25.6203 19.7688V19.7694C26.7782 20.1805 28 19.2911 28 18.011V17.2532C28.0002 16.3579 27.4956 15.5432 26.7059 15.173Z" fill="#FCE299"/>
<path d="M23.7578 14.0198V16.174C23.7578 16.4159 23.9477 16.612 24.1821 16.612C24.4164 16.612 24.6063 16.4159 24.6063 16.174V14.3054C24.3257 14.2047 24.0428 14.1094 23.7578 14.0198Z" fill="#FDCD64"/>
<path d="M21.2122 15.298C21.2122 15.5399 21.4021 15.736 21.6364 15.736C21.8708 15.736 22.0607 15.5399 22.0607 15.298V13.5629C21.7787 13.4998 21.4957 13.4432 21.2122 13.3932V15.298H21.2122Z" fill="#FDCD64"/>
<path d="M18.6667 15.298C18.6667 15.5399 18.8567 15.736 19.091 15.736C19.3253 15.736 19.5153 15.5399 19.5153 15.298V13.179C19.232 13.1579 18.949 13.1443 18.6668 13.139V15.298H18.6667Z" fill="#FDCD64"/>
<path d="M16.1213 14.86C16.1213 15.1019 16.3113 15.298 16.5456 15.298C16.7799 15.298 16.9699 15.1019 16.9699 14.86V13.21C16.6852 13.2401 16.4022 13.2797 16.1214 13.3293V14.86H16.1213Z" fill="#FDCD64"/>
<path d="M13.5759 16.174C13.5759 16.4159 13.7659 16.612 14.0002 16.612C14.2345 16.612 14.4245 16.4159 14.4245 16.174V13.7645C14.138 13.8628 13.8549 13.9732 13.576 14.0968L13.5759 16.174Z" fill="#FDCD64"/>
<path d="M11.0303 16.612C11.0303 16.8539 11.2202 17.05 11.4545 17.05C11.6889 17.05 11.8788 16.8539 11.8788 16.612V14.9289C11.595 15.0605 11.3122 15.1843 11.0303 15.3013L11.0303 16.612Z" fill="#FDCD64"/>
<path d="M8.48486 18.364C8.48486 18.6059 8.67479 18.802 8.90913 18.802C9.14347 18.802 9.3334 18.6059 9.3334 18.364V15.9238C9.04908 16.0143 8.76618 16.0978 8.48492 16.1737V18.364H8.48486Z" fill="#FDCD64"/>
<path d="M7.55534 16.4001C7.29131 16.4572 7.03603 16.5059 6.78791 16.5487L6.36364 17.1538L5.93937 16.6737C5.30898 16.7505 4.74182 16.7839 4.24241 16.7913L3.81814 17.5099L3.39387 16.7803C2.51269 16.7433 1.95071 16.6404 1.75121 16.6453C0.794778 16.6704 0 17.4792 0 18.5023V19.8175C0 20.7198 0.627871 21.4883 1.48767 21.6471C3.76203 22.0706 6.23693 21.8586 8.5086 21.2426C7.39959 20.0854 6.95853 17.8497 7.55534 16.4001Z" fill="#FDCD64"/>
<path d="M6.36367 18.8019C6.59795 18.8019 6.78793 18.6058 6.78793 18.3639V16.5486C6.4936 16.5992 6.2107 16.6405 5.93945 16.6736V18.3639C5.9394 18.6059 6.12933 18.8019 6.36367 18.8019Z" fill="#FDB245"/>
<path d="M3.81826 19.6779C4.05254 19.6779 4.24252 19.4819 4.24252 19.2399V16.7913C3.93376 16.7959 3.64998 16.7911 3.39404 16.7803V19.2399C3.39404 19.4819 3.58397 19.6779 3.81826 19.6779Z" fill="#FDB245"/>
<path d="M10.4675 24.0789C10.2332 24.0789 10.0432 23.8828 10.0432 23.6409V22.9401C10.0432 22.6982 10.2331 22.5021 10.4675 22.5021C10.7018 22.5021 10.8917 22.6982 10.8917 22.9401V23.6409C10.8917 23.8828 10.7018 24.0789 10.4675 24.0789Z" fill="#25383F"/>
<path d="M17.5327 24.0789C17.2984 24.0789 17.1084 23.8828 17.1084 23.6409V22.9401C17.1084 22.6982 17.2983 22.5021 17.5327 22.5021C17.767 22.5021 17.9569 22.6982 17.9569 22.9401V23.6409C17.9569 23.8828 17.7669 24.0789 17.5327 24.0789Z" fill="#25383F"/>
<path d="M14.0001 24.4959C13.5207 24.4959 13.0647 24.2815 12.7492 23.9077C12.5952 23.7253 12.6137 23.4487 12.7903 23.2897C12.967 23.1308 13.2349 23.1498 13.3889 23.3322C13.7121 23.7152 14.2872 23.7162 14.6114 23.3322C14.7653 23.1498 15.0333 23.1308 15.2099 23.2897C15.3866 23.4487 15.4049 23.7253 15.251 23.9077C14.9355 24.2815 14.4795 24.4959 14.0001 24.4959Z" fill="#25383F"/>
</svg>
