<svg width="31" height="31" viewBox="0 0 31 31" fill="none" xmlns="http://www.w3.org/2000/svg">
<g clip-path="url(#clip0_830_4004)">
<path d="M7.65523 14.5743C7.49829 14.5743 7.34565 14.4928 7.26155 14.3471L4.564 9.67499L1.86652 14.3471C1.74113 14.5643 1.4634 14.6387 1.24622 14.5133C1.02904 14.388 0.954624 14.1102 1.08002 13.893L4.17075 8.53973C4.25189 8.39927 4.40174 8.31268 4.564 8.31268C4.72627 8.31268 4.87612 8.39927 4.95726 8.53973L8.04799 13.893C8.17339 14.1102 8.09897 14.388 7.88179 14.5133C7.81035 14.5546 7.73224 14.5743 7.65523 14.5743Z" fill="#00C4FC"/>
<path d="M8.26402 13.4887H3.92505C2.51606 14.6249 3.31449 17.6342 6.36424 17.4749C7.79514 17.1718 8.85514 16.3654 9.11948 14.4768C9.19244 13.9555 8.79047 13.4887 8.26402 13.4887Z" fill="#FDCD64"/>
<path d="M0.864175 13.4887C0.33772 13.4887 -0.0642512 13.9555 0.00876835 14.4768C0.336751 16.8197 1.88887 17.4978 3.85513 17.6146C4.08624 17.6283 4.32304 17.6342 4.56425 17.6342C4.80547 17.6342 5.04227 17.6283 5.27338 17.6146C5.6547 17.5919 6.02023 17.5478 6.36449 17.4749C4.00208 17.1074 3.58122 14.9381 3.9253 13.4887H0.864175Z" fill="#FDB245"/>
<path d="M29.5271 14.5743C29.3702 14.5743 29.2175 14.4928 29.1334 14.3471L26.436 9.67499L23.7385 14.3471C23.613 14.5643 23.3353 14.6387 23.1182 14.5133C22.901 14.388 22.8266 14.1102 22.952 13.893L26.0427 8.53973C26.1238 8.39927 26.2737 8.31268 26.436 8.31268C26.5982 8.31268 26.7481 8.39927 26.8292 8.53973L29.9199 13.893C30.0453 14.1102 29.9709 14.388 29.7537 14.5133C29.6822 14.5546 29.6041 14.5743 29.5271 14.5743Z" fill="#00C4FC"/>
<path d="M30.136 13.4887H25.797C24.388 14.6249 25.1864 17.6342 28.2362 17.4749C29.6671 17.1718 30.7271 16.3654 30.9914 14.4768C31.0644 13.9555 30.6624 13.4887 30.136 13.4887Z" fill="#FDCD64"/>
<path d="M22.7359 13.4887C22.2095 13.4887 21.8075 13.9555 21.8805 14.4768C22.2085 16.8197 23.7606 17.4978 25.7269 17.6146C25.958 17.6283 26.1948 17.6342 26.436 17.6342C26.6772 17.6342 26.914 17.6283 27.1451 17.6146C27.5265 17.5919 27.892 17.5478 28.2363 17.4749C25.8738 17.1074 25.453 14.9381 25.7971 13.4887H22.7359Z" fill="#FDB245"/>
<path d="M26.443 7.64249H4.55691C3.75606 7.64249 3.10681 8.29173 3.10681 9.09258C3.10681 9.89344 3.75606 10.5427 4.55691 10.5427H26.443C27.2439 10.5427 27.8931 9.89344 27.8931 9.09258C27.8931 8.29173 27.2439 7.64249 26.443 7.64249Z" fill="#9EF07B"/>
<path d="M10.0645 8.26097C10.0645 9.07545 10.2449 9.84845 10.5673 10.5427H20.4327C20.7551 9.84845 20.9355 9.07545 20.9355 8.26097C20.9355 8.05184 20.9232 7.84556 20.9001 7.64255H10.0999C10.0767 7.84556 10.0645 8.05184 10.0645 8.26097Z" fill="#9EF07B"/>
<path d="M17.7289 22.8279C18.6723 18.009 17.8568 12.389 17.4136 9.798H13.5863C13.1431 12.389 12.3276 18.009 13.2709 22.8279H17.7289Z" fill="#9EF07B"/>
<path d="M13.1106 13.1423C13.8321 13.4969 14.6432 13.6964 15.5 13.6964C16.3568 13.6964 17.1677 13.4969 17.8893 13.1423C17.74 11.7963 17.5572 10.6378 17.4135 9.798H13.5863C13.4427 10.6379 13.2599 11.7963 13.1106 13.1423Z" fill="#F7AC3E"/>
<path d="M18.5563 9.3866C19.1814 7.70171 18.3223 5.82911 16.6374 5.20401C14.9525 4.57892 13.0799 5.43805 12.4548 7.12293C11.8297 8.80781 12.6889 10.6804 14.3737 11.3055C16.0586 11.9306 17.9312 11.0715 18.5563 9.3866Z" fill="#FDCD64"/>
<path d="M20.2422 19.3216H10.7578C8.48465 19.3216 6.64191 21.1643 6.64191 23.4374C6.64191 24.848 7.78539 25.9914 9.19589 25.9914H21.8041C23.2147 25.9914 24.3581 24.8479 24.3581 23.4374C24.358 21.1643 22.5154 19.3216 20.2422 19.3216Z" fill="#9EF07B"/>
<path d="M12.6653 19.3216H10.7578C8.48465 19.3216 6.64191 21.1643 6.64191 23.4374C6.64191 24.848 7.7854 25.9914 9.19589 25.9914H15.0947C12.2343 24.7665 12.2261 20.8922 12.6653 19.3216Z" fill="#9EF07B"/>
<path d="M12.5211 22.7724C12.2703 22.7724 12.067 22.5691 12.067 22.3183C12.067 22.0952 11.8856 21.9138 11.6625 21.9138C11.4395 21.9138 11.2581 22.0952 11.2581 22.3183C11.2581 22.5691 11.0547 22.7724 10.804 22.7724C10.5532 22.7724 10.3499 22.5691 10.3499 22.3183C10.3499 21.5944 10.9387 21.0056 11.6625 21.0056C12.3863 21.0056 12.9752 21.5944 12.9752 22.3183C12.9752 22.5691 12.7719 22.7724 12.5211 22.7724Z" fill="#425460"/>
<path d="M20.196 22.7724C19.9452 22.7724 19.7419 22.5691 19.7419 22.3183C19.7419 22.0952 19.5604 21.9138 19.3374 21.9138C19.1144 21.9138 18.9329 22.0952 18.9329 22.3183C18.9329 22.5691 18.7296 22.7724 18.4788 22.7724C18.228 22.7724 18.0247 22.5691 18.0247 22.3183C18.0247 21.5944 18.6136 21.0056 19.3374 21.0056C20.0613 21.0056 20.6501 21.5944 20.6501 22.3183C20.6501 22.5691 20.4468 22.7724 20.196 22.7724Z" fill="#425460"/>
<path d="M15.5 24.1908C15.0197 24.1908 14.563 23.9828 14.2469 23.6202C14.0821 23.4311 14.1018 23.1443 14.2909 22.9794C14.4799 22.8146 14.7668 22.8343 14.9315 23.0234C15.0751 23.1881 15.2823 23.2825 15.4999 23.2825C15.7176 23.2825 15.9248 23.1881 16.0683 23.0234C16.2332 22.8343 16.52 22.8146 16.709 22.9794C16.8981 23.1442 16.9178 23.4311 16.753 23.6202C16.437 23.9828 15.9803 24.1908 15.5 24.1908Z" fill="#425460"/>
</g>
<defs>
<clipPath id="clip0_830_4004">
<rect width="31" height="31" fill="white"/>
</clipPath>
</defs>
</svg>
