<svg width="28" height="28" viewBox="0 0 28 28" fill="none" xmlns="http://www.w3.org/2000/svg">
<path d="M23.6311 12.926C24.6474 13.31 25.5625 13.9651 26.2859 14.8746C26.7306 15.4337 26.5373 16.1962 25.8613 16.5504C23.3367 17.8729 20.5407 17.6203 18.5693 15.9928C18.1563 14.9072 18.5221 13.728 19.4873 13.0129C20.6119 12.1799 22.3492 12.1257 23.6311 12.926Z" fill="#74CD8F"/>
<path d="M21.0062 13.6502C24.9741 13.1131 27.7194 10.5363 27.9958 6.89003C28.0684 5.93239 27.186 5.1146 26.0566 5.09272C22.7705 5.02907 20.0914 6.23974 18.5753 8.29167C16.4657 9.08978 15.7532 11.19 16.7133 12.5475C17.4913 13.6472 19.311 14.1804 21.0062 13.6502Z" fill="#00C680"/>
<path d="M19.8654 12.276C19.3684 12.276 19.1787 11.7223 19.5985 11.4963C21.7825 10.3201 23.6219 8.79995 25.0657 6.97809C25.2192 6.78438 25.5283 6.73303 25.7564 6.86352C25.9843 6.99389 26.0448 7.25656 25.8912 7.4502C24.3701 9.36957 22.4322 10.9711 20.1314 12.2103C20.0487 12.2548 19.9565 12.276 19.8654 12.276Z" fill="#00B662"/>
<path d="M19.1755 25.0661C16.8406 26.1268 14.3226 26.7298 11.7801 26.8792C11.2713 26.6172 3.46989 22.4387 3.2893 14.3802C3.1051 6.16052 11.0246 1.71558 11.4629 1.47894C13.9278 1.5601 16.3523 1.95582 18.6533 2.64001C18.6533 2.86986 18.1504 6.63734 18.9486 11.5155L18.573 15.9386C18.573 16.6036 18.1877 20.158 19.1755 25.0661Z" fill="#74CD8F"/>
<path d="M11.7801 26.8791C8.38566 27.0797 4.94735 26.4722 1.84216 25.0677C2.44793 22.0582 2.64964 19.0063 2.44529 15.9426L2.06975 11.5132C2.5501 8.57742 2.64829 5.59487 2.36501 2.64049C5.35676 1.75002 8.4407 1.37863 11.463 1.47887C9.34642 3.96661 7.91985 8.64392 7.91985 14.0037C7.91985 19.6267 9.48967 24.4985 11.7801 26.8791Z" fill="#00C680"/>
<path d="M18.9896 15.8597C15.7283 16.509 11.3704 16.6365 8.02458 16.4999L3.28925 14.3801L7.9987 11.8452C11.5199 11.9506 15.422 11.8267 17.9778 11.4902C19.4888 11.2912 20.8795 12.2237 20.9988 13.5185C21.0989 14.6124 20.2476 15.6077 18.9896 15.8597Z" fill="#9BD981"/>
<path d="M8.02456 16.4999C5.80449 16.4097 3.69915 16.1962 2.01653 15.8596C0.759225 15.6077 -0.0927371 14.6124 0.00808454 13.5185C0.126869 12.2234 1.51822 11.2912 3.02906 11.4901C4.41578 11.6727 6.15479 11.7905 7.99868 11.8451C7.88737 13.3399 7.89168 14.9389 8.02456 16.4999Z" fill="#74CD8F"/>
<path d="M6.42699 14.6784C6.15214 14.6784 5.92938 14.4892 5.92938 14.2557V13.5794C5.92938 13.346 6.15214 13.1567 6.42699 13.1567C6.70183 13.1567 6.92459 13.346 6.92459 13.5794V14.2557C6.92459 14.4892 6.70183 14.6784 6.42699 14.6784Z" fill="#495560"/>
<path d="M14.7137 14.6784C14.4389 14.6784 14.2161 14.4892 14.2161 14.2558V13.5794C14.2161 13.346 14.4389 13.1568 14.7137 13.1568C14.9886 13.1568 15.2113 13.346 15.2113 13.5794V14.2558C15.2114 14.4892 14.9886 14.6784 14.7137 14.6784Z" fill="#495560"/>
<path d="M9.10295 14.5134C8.92242 14.3374 8.94392 14.0704 9.15117 13.917C9.35835 13.7636 9.67266 13.7818 9.85331 13.9579C10.2331 14.3281 10.908 14.3281 11.2878 13.958C11.4683 13.7818 11.7826 13.7636 11.9899 13.917C12.1971 14.0703 12.2188 14.3373 12.0382 14.5133C11.2619 15.27 9.87939 15.2699 9.10295 14.5134Z" fill="#495560"/>
<path d="M19.687 27.5673C17.6434 27.8003 15.4403 27.9515 13.2272 27.9911L4.21393 26.6265L10.6847 25.4657C13.2861 25.4619 16.7136 25.3526 19.2909 25.0531C20.1018 24.9589 20.859 25.444 20.9689 26.142C21.0784 26.8364 20.5045 27.4743 19.687 27.5673Z" fill="#9BD981"/>
<path d="M13.2271 27.991C10.4165 28.0411 4.03693 27.8763 1.31925 27.5673C0.501797 27.4742 -0.0714567 26.8363 0.0379921 26.1419C0.147441 25.4476 0.898517 24.9606 1.71533 25.0531C4.18159 25.3338 7.44072 25.4713 10.6846 25.4656C11.2895 26.4184 12.1424 27.4291 13.2271 27.991Z" fill="#74CD8F"/>
<path d="M19.7547 2.52498C16.4215 2.90172 13.631 2.9966 10.4371 2.94651L3.28925 1.2465L12.6021 0.405894C14.7462 0.365316 17.2495 0.251621 19.3579 0.0113789C20.176 -0.0816445 20.9264 0.405894 21.0358 1.10021C21.1454 1.79403 20.5714 2.43201 19.7547 2.52498Z" fill="#9BD981"/>
<path d="M0.104997 1.10021C0.21451 0.405894 0.96623 -0.0816445 1.78297 0.0113789C4.72032 0.345574 8.78093 0.476879 12.602 0.405894C11.6871 1.0715 10.969 2.03159 10.437 2.94656C7.60719 2.90429 3.48349 2.76342 1.38619 2.52503C0.569446 2.43201 -0.00445205 1.79403 0.104997 1.10021Z" fill="#74CD8F"/>
</svg>
