<svg width="28" height="28" viewBox="0 0 28 28" fill="none" xmlns="http://www.w3.org/2000/svg">
<path d="M4.96704 20.6495L20.6474 4.96653L23.0268 7.34626L7.34638 23.0292L4.96704 20.6495Z" fill="#838098"/>
<path d="M4.96631 20.6492L12.1371 13.4773L14.5164 15.8571L7.34565 23.029L4.96631 20.6492Z" fill="#6A647F"/>
<path d="M10.2772 26.4368L9.45243 27.2617C8.4682 28.2461 6.85756 28.2461 5.87333 27.2617L0.738171 22.1258C-0.246057 21.1414 -0.246057 19.5305 0.738171 18.5461L1.56291 17.7212L10.2772 26.4368Z" fill="#9EF07B"/>
<path d="M0.738171 18.5461C-0.246057 19.5305 -0.246057 21.1414 0.738171 22.1258L4.11895 25.5071C3.13472 24.5227 3.13472 22.9118 4.11895 21.9274L4.94369 21.1025L1.56291 17.7212L0.738171 18.5461Z" fill="#36D49B"/>
<path d="M14.2244 25.4527L13.2914 26.3858C12.4005 27.2768 10.9427 27.2768 10.0518 26.3858L1.61395 17.9466C0.723085 17.0556 0.723085 15.5976 1.61395 14.7066L2.54693 13.7734C3.0697 13.2506 3.92517 13.2506 4.448 13.7734L14.2244 23.5514C14.7471 24.0742 14.7471 24.9299 14.2244 25.4527Z" fill="#B1ECD0"/>
<path d="M26.4372 10.2789L27.2619 9.45402C28.2461 8.46963 28.2461 6.85873 27.2619 5.87434L22.1267 0.738351C21.1425 -0.246036 19.5319 -0.246036 18.5476 0.738351L17.7229 1.56322L26.4372 10.2789Z" fill="#9EF07B"/>
<path d="M18.5476 0.73829L17.7229 1.56316L21.1037 4.94449L21.9284 4.11961C22.9126 3.13523 24.5233 3.13523 25.5075 4.11961L22.1267 0.73829C21.1425 -0.246097 19.5319 -0.246097 18.5476 0.73829Z" fill="#36D49B"/>
<path d="M25.4531 14.2266L26.386 13.2935C27.2769 12.4025 27.2769 10.9444 26.386 10.0534L17.9482 1.61421C17.0573 0.723201 15.5995 0.723201 14.7086 1.61421L13.7756 2.54734C13.2529 3.07019 13.2529 3.92581 13.7756 4.44872L23.552 14.2266C24.0748 14.7495 24.9303 14.7495 25.4531 14.2266Z" fill="#B1ECD0"/>
<path d="M2.54693 13.7734L1.61395 14.7066C0.723085 15.5976 0.723085 17.0556 1.61395 17.9466L4.99473 21.328C4.10386 20.437 4.10386 18.9789 4.99473 18.0879L5.9277 17.1548C6.45047 16.6319 7.30595 16.6319 7.82878 17.1548L4.448 13.7734C3.92517 13.2505 3.0697 13.2505 2.54693 13.7734Z" fill="#9EF07B"/>
<path d="M14.7086 1.61421L13.7756 2.54734C13.2529 3.07019 13.2529 3.92581 13.7756 4.44872L17.1564 7.83004C16.6336 7.30713 16.6336 6.45157 17.1564 5.92866L18.0894 4.99553C18.9802 4.10453 20.4381 4.10453 21.3289 4.99553L17.9482 1.61421C17.0573 0.723201 15.5995 0.723201 14.7086 1.61421Z" fill="#9EF07B"/>
<path d="M17.9874 13.2186L13.2194 17.9874C12.8351 18.3718 12.2064 18.3718 11.8221 17.9874L10.0155 16.1806C9.63122 15.7962 9.63122 15.1673 10.0155 14.783L14.7836 10.0142C15.1678 9.62984 15.7966 9.62984 16.1809 10.0142L17.9874 11.821C18.3717 12.2054 18.3717 12.8342 17.9874 13.2186Z" fill="#B3B0BE"/>
<path d="M14.5739 15.2351L12.7673 13.4283C12.383 13.0439 12.383 12.415 12.7673 12.0307L10.0155 14.7829C9.63122 15.1673 9.63122 15.7962 10.0155 16.1805L11.8221 17.9874C12.2064 18.3717 12.8351 18.3717 13.2194 17.9874L15.9712 15.2351C15.5869 15.6195 14.9581 15.6195 14.5739 15.2351Z" fill="#948EA3"/>
</svg>
