<svg width="28" height="28" viewBox="0 0 28 28" fill="none" xmlns="http://www.w3.org/2000/svg">
<g clip-path="url(#clip0_829_3095)">
<path d="M24.9852 9.83407C24.9852 15.1314 20.0783 19.4255 14.0251 19.4255C7.97211 19.4255 3.06519 15.1314 3.06519 9.83407C3.06519 4.53682 7.97211 0.242676 14.0251 0.242676C20.0783 0.242676 24.9852 4.53676 24.9852 9.83407Z" fill="#C47651"/>
<path d="M21.8265 27.7573C21.5987 23.6347 18.1934 20.3617 14.025 20.3617C9.85672 20.3617 6.45149 23.6347 6.22363 27.7573H21.8265Z" fill="#F8BDAA"/>
<path d="M4.27742 15.0976C5.38193 15.0976 6.27731 14.314 6.27731 13.3474C6.27731 12.3808 5.38193 11.5973 4.27742 11.5973C3.17291 11.5973 2.27753 12.3808 2.27753 13.3474C2.27753 14.314 3.17291 15.0976 4.27742 15.0976Z" fill="#F5AA9C"/>
<path d="M23.7728 15.0976C24.8773 15.0976 25.7727 14.314 25.7727 13.3475C25.7727 12.3809 24.8773 11.5974 23.7728 11.5974C22.6684 11.5974 21.773 12.3809 21.773 13.3475C21.773 14.314 22.6684 15.0976 23.7728 15.0976Z" fill="#F5AA9C"/>
<path d="M16.2029 20.6707C16.0295 21.5907 15.0988 22.311 14.0044 22.311C12.9145 22.311 11.9871 21.5965 11.8084 20.6818C8.70712 21.6003 6.40938 24.3962 6.22363 27.7573H21.8265C21.64 24.3822 19.3237 21.5771 16.2029 20.6707Z" fill="#87CEDC"/>
<path d="M10.0359 21.4605C9.41388 21.832 8.8469 22.2869 8.35175 22.8111V27.7573H10.0359V21.4605Z" fill="#42A4C8"/>
<path d="M18.1503 21.5436V27.7573H19.8345V22.9598C19.3433 22.4124 18.7763 21.9351 18.1503 21.5436Z" fill="#42A4C8"/>
<path d="M14.0251 21.0899C19.7419 21.0899 24.3762 17.0342 24.3762 12.0313C24.3762 7.02843 19.7419 2.97278 14.0251 2.97278C8.3084 2.97278 3.67407 7.02843 3.67407 12.0313C3.67407 17.0342 8.3084 21.0899 14.0251 21.0899Z" fill="#F9C5B8"/>
<path d="M11.0131 13.7587C11.0131 14.437 10.1706 14.987 9.13127 14.987C8.09171 14.987 7.24933 14.437 7.24933 13.7587C7.24933 13.0804 8.09164 12.5304 9.13127 12.5304C10.1706 12.5304 11.0131 13.0804 11.0131 13.7587Z" fill="#F39E9C"/>
<path d="M18.9191 14.987C19.9584 14.987 20.801 14.4371 20.801 13.7587C20.801 13.0803 19.9584 12.5304 18.9191 12.5304C17.8797 12.5304 17.0371 13.0803 17.0371 13.7587C17.0371 14.4371 17.8797 14.987 18.9191 14.987Z" fill="#F39E9C"/>
<path d="M9.92517 12.3898C10.3205 12.3898 10.6409 12.1093 10.6409 11.7634C10.6409 11.4175 10.3205 11.137 9.92517 11.137C9.52987 11.137 9.20941 11.4175 9.20941 11.7634C9.20941 12.1093 9.52987 12.3898 9.92517 12.3898Z" fill="#121325"/>
<path d="M18.125 12.3897C18.5203 12.3897 18.8407 12.1093 18.8407 11.7634C18.8407 11.4175 18.5203 11.1371 18.125 11.1371C17.7298 11.1371 17.4094 11.4175 17.4094 11.7634C17.4094 12.1093 17.7298 12.3897 18.125 12.3897Z" fill="#121325"/>
<path d="M14.025 14.0014C13.3675 14.0014 12.7568 13.6986 12.4313 13.2112C12.3541 13.0956 12.3985 12.947 12.5308 12.8793C12.6631 12.8116 12.8328 12.8506 12.91 12.9664C13.1366 13.3055 13.5637 13.516 14.025 13.516C14.4863 13.516 14.9135 13.3054 15.14 12.9664C15.2172 12.8506 15.387 12.8115 15.5193 12.8793C15.6516 12.947 15.696 13.0956 15.6188 13.2112C15.2933 13.6986 14.6826 14.0014 14.025 14.0014Z" fill="#121325"/>
<path d="M9.20951 5.53565C9.20951 5.53565 10.9546 10.2252 22.9476 9.10865L24.3763 11.7634C24.3763 11.7634 24.7866 7.23285 21.8266 3.88314C21.8266 3.88314 17.0786 -1.56554 8.35175 2.18601C8.35182 2.18601 8.21376 4.021 9.20951 5.53565Z" fill="#C47651"/>
<path d="M8.35183 2.186C8.35183 2.186 2.27758 3.57051 3.68278 11.676C3.68278 11.676 8.30075 10.1805 10.036 6.07158C10.036 6.07158 11.0567 3.21324 8.35183 2.186Z" fill="#C47651"/>
<path d="M21.8291 28.0001C21.8283 28.0001 21.8275 28.0001 21.8267 28.0001H6.22328C6.14737 28.0001 6.07485 27.9729 6.02251 27.9248C5.97016 27.8768 5.94258 27.812 5.94625 27.7457C6.12727 24.4808 8.23961 21.6678 11.3277 20.5792C11.3826 20.5599 11.4431 20.5564 11.5003 20.5693C13.1418 20.9385 14.9113 20.9383 16.5494 20.5693C16.6068 20.5564 16.6672 20.5599 16.7221 20.5792C19.7998 21.6642 21.9084 24.4619 22.1016 27.7129C22.1047 27.7272 22.1063 27.7422 22.1063 27.7574C22.1064 27.8915 21.9823 28.0001 21.8291 28.0001ZM6.51858 27.5147H21.5314C21.2718 24.5769 19.3615 22.0692 16.5979 21.0591C14.9252 21.4222 13.1278 21.4223 11.4521 21.0591C8.68856 22.0692 6.77819 24.5769 6.51858 27.5147Z" fill="#121325"/>
<path d="M4.28483 15.3406C4.28398 15.3406 4.2832 15.3406 4.28236 15.3406H4.27742C3.02164 15.3406 2 14.4466 2 13.3475C2 12.6264 2.44684 11.9601 3.16612 11.6085C3.24308 11.5709 3.33592 11.5675 3.4162 11.5995C3.49648 11.6315 3.55454 11.695 3.57274 11.7705C3.68202 12.2261 3.83157 12.6772 4.01704 13.1116C4.02451 13.129 4.02966 13.147 4.03234 13.1654C4.12462 13.7886 4.29244 14.4013 4.53131 14.9868C4.55099 15.0201 4.56207 15.0579 4.56207 15.098C4.56207 15.232 4.43798 15.3406 4.28483 15.3406ZM3.12393 12.2281C2.76612 12.5104 2.55456 12.916 2.55456 13.3475C2.55456 14.0595 3.12132 14.6578 3.88067 14.8149C3.69902 14.3084 3.56681 13.7855 3.48646 13.2553C3.34474 12.9205 3.22333 12.5764 3.12393 12.2281Z" fill="#121325"/>
<path d="M23.7726 15.3406H23.7677C23.6774 15.3406 23.5926 15.302 23.5407 15.2374C23.4888 15.1727 23.4762 15.0899 23.5068 15.0154C23.7519 14.4217 23.9238 13.7992 24.0176 13.1653C24.0203 13.1469 24.0254 13.1289 24.0328 13.1115C24.2184 12.6772 24.3679 12.226 24.4772 11.7704C24.4953 11.6949 24.5535 11.6314 24.6337 11.5994C24.7139 11.5674 24.8068 11.5708 24.8838 11.6084C25.6031 11.96 26.0499 12.6264 26.0499 13.3474C26.05 14.4465 25.0284 15.3406 23.7726 15.3406ZM24.5635 13.2553C24.4831 13.7858 24.3509 14.3087 24.1693 14.815C24.9287 14.6577 25.4954 14.0595 25.4954 13.3476C25.4954 12.916 25.2838 12.5104 24.926 12.2282C24.8267 12.5763 24.7053 12.9205 24.5635 13.2553Z" fill="#121325"/>
<path d="M21.8265 28H6.22364C6.14774 28 6.07522 27.9728 6.02287 27.9247C5.97053 27.8766 5.94294 27.8119 5.94661 27.7456C6.12474 24.5215 8.20442 21.7207 11.2449 20.6102C11.3022 20.5893 11.3661 20.5858 11.4259 20.6004L11.5519 20.6312C11.6868 20.6644 11.8217 20.6976 11.9576 20.7272C12.0498 20.7472 12.1238 20.8071 12.1538 20.886C12.4187 21.5822 13.1797 22.0683 14.0045 22.0683C14.8502 22.0683 15.6168 21.5666 15.8688 20.8481C15.8999 20.7591 15.9866 20.6936 16.0918 20.6794C16.261 20.6568 16.3983 20.6252 16.5119 20.5831C16.5796 20.5578 16.6559 20.5572 16.7241 20.5814C19.8117 21.6716 21.9232 24.4838 22.1036 27.7456C22.1072 27.812 22.0797 27.8767 22.0273 27.9248C21.975 27.9728 21.9024 28 21.8265 28ZM6.51888 27.5147H21.5313C21.2726 24.5859 19.3701 22.0831 16.6164 21.0675C16.5323 21.093 16.4415 21.1146 16.3428 21.1328C15.9727 21.9765 15.0346 22.5536 14.0045 22.5536C12.9952 22.5536 12.061 21.9893 11.6808 21.1659C11.5877 21.1441 11.4949 21.1214 11.402 21.0985L11.3706 21.0908C8.65358 22.1212 6.77545 24.6158 6.51888 27.5147Z" fill="#121325"/>
<path d="M10.036 28H8.35178C8.19862 28 8.07446 27.8913 8.07446 27.7573V22.8111C8.07446 22.7547 8.09697 22.7 8.13802 22.6565C8.6504 22.114 9.23642 21.6442 9.87965 21.26C9.96452 21.2093 10.0747 21.2038 10.1654 21.2459C10.2564 21.2879 10.3132 21.3705 10.3132 21.4604V27.7572C10.3132 27.8913 10.1891 28 10.036 28ZM8.62902 27.5147H9.75866V21.9402C9.35176 22.2223 8.97342 22.5435 8.62902 22.8993V27.5147Z" fill="#121325"/>
<path d="M19.8347 28H18.1505C17.9973 28 17.8732 27.8913 17.8732 27.7573V21.5436C17.8732 21.4527 17.9312 21.3694 18.0236 21.3278C18.1159 21.2864 18.2272 21.2933 18.3117 21.3462C18.9584 21.7506 19.5441 22.2431 20.0527 22.8099C20.0911 22.8527 20.1119 22.9054 20.1119 22.9598V27.7573C20.1119 27.8913 19.9878 28 19.8347 28ZM18.4277 27.5147H19.5574V23.0444C19.2148 22.6714 18.8365 22.3341 18.4277 22.037V27.5147Z" fill="#121325"/>
<path d="M14.0256 21.3327C13.124 21.3327 12.2279 21.234 11.3623 21.0393C7.95588 20.2686 5.21167 18.0783 4.02128 15.18C3.76252 14.553 3.58115 13.896 3.48224 13.2276C3.4251 12.8345 3.39618 12.4323 3.39618 12.0317C3.39618 11.8867 3.39942 11.7664 3.40648 11.6529C3.41233 11.557 3.48246 11.4731 3.58517 11.439C3.75772 11.3819 7.83306 9.99682 9.60369 6.36381C9.64178 6.28577 9.72361 6.23076 9.81963 6.21879C9.91507 6.20687 10.0117 6.23953 10.0732 6.30522C11.0307 7.32727 13.5259 9.04188 19.4795 9.04188C20.5534 9.04188 21.7093 8.98539 22.9154 8.87401C23.0322 8.86309 23.1452 8.91859 23.1955 9.01218L24.612 11.6513C24.6337 11.6842 24.6469 11.722 24.6486 11.7625C24.6525 11.8519 24.6538 11.9412 24.6538 12.0317C24.6538 12.4323 24.6249 12.8344 24.5678 13.227C24.4687 13.8963 24.2873 14.5533 24.0285 15.1803C22.8382 18.0785 20.094 20.2689 16.688 21.0391C15.8233 21.234 14.9277 21.3327 14.0256 21.3327ZM3.95349 11.8318C3.95165 11.8932 3.95081 11.9591 3.95081 12.0317C3.95081 12.412 3.97825 12.7935 4.03236 13.1659C4.12604 13.7987 4.29789 14.4213 4.54304 15.0155C5.67155 17.7629 8.27242 19.839 11.5007 20.5693C13.1413 20.9383 14.9112 20.9383 16.5494 20.5692C19.7774 19.8392 22.3783 17.7632 23.5068 15.0158C23.752 14.4217 23.9238 13.7992 24.0177 13.1653C24.0717 12.7935 24.0992 12.4119 24.0992 12.0317C24.0992 11.9646 24.0984 11.8982 24.0963 11.8321L22.7771 9.37439C21.6226 9.47576 20.5142 9.52719 19.4796 9.52719C13.8149 9.52719 11.1296 7.99408 9.93539 6.90005C8.19285 10.095 4.76991 11.5276 3.95349 11.8318Z" fill="#121325"/>
<path d="M3.31369 12.1105C3.27659 12.1105 3.23941 12.1039 3.20428 12.0908C3.12054 12.0594 3.05994 11.994 3.04188 11.9159L3.038 11.9013C3.03504 11.8905 3.03208 11.8797 3.02947 11.8685C2.86905 11.2052 2.78735 10.5199 2.78735 9.83383C2.78735 4.41145 7.82825 0 14.0243 0C20.2211 0 25.2626 4.41145 25.2626 9.83383C25.2626 10.5199 25.1809 11.2052 25.02 11.8706C25.0181 11.8792 25.0152 11.8896 25.0123 11.9L25.0085 11.9144C24.9936 11.9816 24.9467 12.0402 24.8796 12.0757C24.8126 12.111 24.7315 12.1199 24.6566 12.1002L24.2969 12.0056C24.22 11.987 24.1542 11.9399 24.1193 11.875L22.7772 9.37451C21.623 9.47588 20.5144 9.52725 19.4796 9.52731C13.815 9.52737 11.1297 7.99421 9.93544 6.90017C8.04066 10.3741 4.15904 11.7645 3.80208 11.8862L3.46113 12.0734C3.4162 12.098 3.36505 12.1105 3.31369 12.1105ZM22.9446 8.87278C23.0511 8.87278 23.1495 8.92649 23.1954 9.0123L24.5358 11.5096C24.6502 10.9584 24.7079 10.3964 24.7079 9.83377C24.7079 4.67901 19.9152 0.485249 14.0243 0.485249C8.13399 0.485249 3.34191 4.67901 3.34191 9.83377C3.34191 10.3852 3.39736 10.936 3.50692 11.4752L3.5297 11.4627C3.53887 11.4577 3.54826 11.4532 3.55799 11.4492C3.56773 11.4452 3.58395 11.4394 3.59418 11.4364C3.75771 11.3821 7.83305 9.99694 9.60367 6.36393C9.64176 6.28589 9.72359 6.23089 9.81961 6.21891C9.91505 6.20699 10.0117 6.23965 10.0732 6.30534C11.0307 7.32745 13.526 9.04212 19.4795 9.042C20.5535 9.04194 21.7095 8.98545 22.9154 8.87414C22.9252 8.87321 22.9349 8.87278 22.9446 8.87278Z" fill="#121325"/>
</g>
<defs>
<clipPath id="clip0_829_3095">
<rect width="28" height="28" fill="white"/>
</clipPath>
</defs>
</svg>
