<svg width="53" height="53" viewBox="0 0 53 53" fill="none" xmlns="http://www.w3.org/2000/svg">
<g clip-path="url(#clip0_835_4065)">
<path d="M33.427 53H9.69156C5.86645 53 2.76553 49.8991 2.76553 46.074V14.7406C2.76553 9.94515 6.65306 6.05762 11.4485 6.05762H41.5516C46.3471 6.05762 50.2346 9.94515 50.2346 14.7406V36.1925C50.2345 45.475 42.7095 53 33.427 53Z" fill="#FBF1CF"/>
<path d="M50.2345 22.0985H15.9569C15.3128 15.4574 15.4653 9.91535 15.4653 8.03644V6.05774H11.4485C6.65306 6.05774 2.76553 9.94527 2.76553 14.7407V46.0741C2.76553 49.8992 5.86645 53.0001 9.69156 53.0001H31.0116C21.4579 48.4921 17.7489 36.0539 16.3231 25.2978H50.2346V22.0985H50.2345Z" fill="#FAE0BD"/>
<path d="M28.2496 27.2627H24.7505C23.994 27.2627 23.3808 27.8759 23.3808 28.6324V32.1316C23.3808 32.888 23.994 33.5013 24.7505 33.5013H28.2496C29.0061 33.5013 29.6193 32.888 29.6193 32.1316V28.6324C29.6192 27.8759 29.006 27.2627 28.2496 27.2627Z" fill="#98CD64"/>
<path d="M14.0956 27.2627H10.5965C9.84 27.2627 9.22678 27.8759 9.22678 28.6324V32.1316C9.22678 32.888 9.84 33.5013 10.5965 33.5013H14.0956C14.8521 33.5013 15.4654 32.888 15.4654 32.1316V28.6324C15.4654 27.8759 14.8521 27.2627 14.0956 27.2627Z" fill="#B0ADE2"/>
<path d="M38.9044 27.2627H42.4035C43.16 27.2627 43.7732 27.8759 43.7732 28.6324V32.1316C43.7732 32.888 43.16 33.5013 42.4035 33.5013H38.9044C38.1479 33.5013 37.5347 32.888 37.5347 32.1316V28.6324C37.5347 27.8759 38.1479 27.2627 38.9044 27.2627Z" fill="#F8D2E3"/>
<path d="M28.2496 38.3347H24.7505C23.994 38.3347 23.3808 38.948 23.3808 39.7045V43.2036C23.3808 43.9601 23.994 44.5733 24.7505 44.5733H28.2496C29.0061 44.5733 29.6193 43.9601 29.6193 43.2036V39.7045C29.6192 38.948 29.006 38.3347 28.2496 38.3347Z" fill="#A2DDFD"/>
<path d="M14.0956 38.3347H10.5965C9.84 38.3347 9.22678 38.948 9.22678 39.7045V43.2036C9.22678 43.9601 9.84 44.5733 10.5965 44.5733H14.0956C14.8521 44.5733 15.4654 43.9601 15.4654 43.2036V39.7045C15.4654 38.948 14.8521 38.3347 14.0956 38.3347Z" fill="#8DE1CE"/>
<path d="M38.9044 38.3347H42.4035C43.16 38.3347 43.7732 38.948 43.7732 39.7045V43.2036C43.7732 43.9601 43.16 44.5733 42.4035 44.5733H38.9044C38.1479 44.5733 37.5347 43.9601 37.5347 43.2036V39.7045C37.5347 38.948 38.1479 38.3347 38.9044 38.3347Z" fill="#DAA985"/>
<path d="M41.5515 6.05774H11.4485C6.65306 6.05774 2.76553 9.94527 2.76553 14.7407V22.0985H50.2345V14.7406C50.2345 9.94516 46.347 6.05774 41.5515 6.05774Z" fill="#E7889D"/>
<path d="M15.4653 8.03644V6.05774H11.4485C6.65306 6.05774 2.76553 9.94527 2.76553 14.7407V22.0985H15.9567C15.3128 15.4574 15.4653 9.91525 15.4653 8.03644Z" fill="#E16E7E"/>
<path d="M50.2345 36.1925C50.2345 40.1208 47.4564 40.8556 45.0162 40.8556C41.1911 40.8556 38.0901 43.9566 38.0901 47.7817C38.0901 50.2219 37.3553 53 33.427 53C42.7095 53 50.2345 45.475 50.2345 36.1925Z" fill="#FAE0BD"/>
<path d="M12.346 11.1557C10.6233 11.1557 9.22678 9.75914 9.22678 8.03644V3.11924C9.22678 1.39653 10.6233 0 12.346 0C14.0687 0 15.4652 1.39653 15.4652 3.11924V8.03633C15.4654 9.75914 14.0688 11.1557 12.346 11.1557Z" fill="#4E5660"/>
<path d="M26.5 11.1557C24.7773 11.1557 23.3808 9.75914 23.3808 8.03644V3.11924C23.3808 1.39653 24.7773 0 26.5 0C28.2227 0 29.6192 1.39653 29.6192 3.11924V8.03633C29.6192 9.75914 28.2227 11.1557 26.5 11.1557Z" fill="#4E5660"/>
<path d="M40.654 11.1557C42.3767 11.1557 43.7733 9.75914 43.7733 8.03644V3.11924C43.7733 1.39653 42.3767 0 40.654 0C38.9313 0 37.5348 1.39653 37.5348 3.11924V8.03633C37.5347 9.75914 38.9312 11.1557 40.654 11.1557Z" fill="#4E5660"/>
<path d="M18.0161 20.9863C19.7449 20.9863 21.1465 19.8702 21.1465 18.4935C21.1465 17.1167 19.7449 16.0006 18.0161 16.0006C16.2872 16.0006 14.8857 17.1167 14.8857 18.4935C14.8857 19.8702 16.2872 20.9863 18.0161 20.9863Z" fill="white"/>
<path d="M34.9839 20.9863C36.7128 20.9863 38.1143 19.8702 38.1143 18.4935C38.1143 17.1167 36.7128 16.0006 34.9839 16.0006C33.2551 16.0006 31.8535 17.1167 31.8535 18.4935C31.8535 19.8702 33.2551 20.9863 34.9839 20.9863Z" fill="white"/>
<path d="M19.8404 16.8701C19.4116 16.8701 19.0641 16.5226 19.0641 16.0938V14.8141C19.0641 14.3853 19.4116 14.0378 19.8404 14.0378C20.2693 14.0378 20.6168 14.3853 20.6168 14.8141V16.0938C20.6168 16.5225 20.2693 16.8701 19.8404 16.8701Z" fill="#4E5660"/>
<path d="M33.1595 16.8701C32.7306 16.8701 32.3831 16.5226 32.3831 16.0938V14.8141C32.3831 14.3853 32.7306 14.0378 33.1595 14.0378C33.5883 14.0378 33.9358 14.3853 33.9358 14.8141V16.0938C33.9358 16.5225 33.5883 16.8701 33.1595 16.8701Z" fill="#4E5660"/>
<path d="M26.5 17.6318C25.6026 17.6318 24.7494 17.2432 24.159 16.5657C23.8772 16.2424 23.9111 15.7521 24.2343 15.4703C24.5574 15.1886 25.0478 15.2223 25.3297 15.5456C25.6251 15.8846 26.0517 16.0791 26.5001 16.0791C26.9484 16.0791 27.375 15.8846 27.6706 15.5456C27.9523 15.2224 28.4426 15.1886 28.766 15.4703C29.0891 15.7521 29.1229 16.2424 28.8412 16.5657C28.2506 17.2432 27.3974 17.6318 26.5 17.6318Z" fill="#4E5660"/>
</g>
<defs>
<clipPath id="clip0_835_4065">
<rect width="53" height="53" fill="white"/>
</clipPath>
</defs>
</svg>
