<svg width="28" height="28" viewBox="0 0 28 28" fill="none" xmlns="http://www.w3.org/2000/svg">
<g clip-path="url(#clip0_835_4027)">
<path d="M25.3792 6.44303H12.0656C10.6182 6.44303 9.44489 5.26952 9.44489 3.82213C9.44489 2.37474 10.6182 1.20145 12.0656 1.20145H25.3792C26.8266 1.20145 27.9999 2.37474 27.9999 3.82213C27.9999 5.26952 26.8266 6.44303 25.3792 6.44303Z" fill="#FFCD00"/>
<path d="M25.3792 11.534H12.0656C10.6182 11.534 9.44489 10.3607 9.44489 8.91329C9.44489 7.4659 10.6182 6.29239 12.0656 6.29239H25.3792C26.8266 6.29239 27.9999 7.4659 27.9999 8.91329C27.9999 10.3607 26.8266 11.534 25.3792 11.534Z" fill="#FFB600"/>
<path d="M9.85977 7.49774C9.59699 7.906 9.44489 8.3916 9.44489 8.9133C9.44489 10.3607 10.6184 11.534 12.0658 11.534H18.5253C16.1277 8.41681 12.5185 7.61268 9.85977 7.49774Z" fill="#FF9700"/>
<path d="M25.3792 16.6252H12.0656C10.6182 16.6252 9.44489 15.4517 9.44489 14.0043C9.44489 12.5569 10.6182 11.3836 12.0656 11.3836H25.3792C26.8266 11.3836 27.9999 12.5569 27.9999 14.0043C27.9999 15.4517 26.8266 16.6252 25.3792 16.6252Z" fill="#FFCD00"/>
<path d="M9.44489 14.0043C9.44489 15.4517 10.6182 16.6252 12.0656 16.6252H20.626C20.5151 15.7341 20.2791 14.806 19.8642 13.8389C19.4566 12.8889 18.9624 12.0768 18.4072 11.3836H12.0656C10.6182 11.3836 9.44489 12.5569 9.44489 14.0043Z" fill="#FFB600"/>
<path d="M25.3792 21.7161H12.0656C10.6182 21.7161 9.44489 20.5428 9.44489 19.0954C9.44489 17.6481 10.6182 16.4745 12.0656 16.4745H25.3792C26.8266 16.4745 27.9999 17.6481 27.9999 19.0954C27.9999 20.5428 26.8266 21.7161 25.3792 21.7161Z" fill="#FFB600"/>
<path d="M9.44489 19.0954C9.44489 20.5428 10.6182 21.7161 12.0656 21.7161H20.1769C20.5579 20.122 20.873 18.3823 20.6059 16.4745H12.0656C10.6182 16.4745 9.44489 17.6481 9.44489 19.0954Z" fill="#FF9700"/>
<path d="M25.3792 26.8073H12.0656C10.6182 26.8073 9.44489 25.634 9.44489 24.1866C9.44489 22.739 10.6182 21.5657 12.0656 21.5657H25.3792C26.8266 21.5657 27.9999 22.739 27.9999 24.1866C27.9999 25.634 26.8266 26.8073 25.3792 26.8073Z" fill="#FFCD00"/>
<path d="M20.2126 21.5657H12.0656C10.6182 21.5657 9.44489 22.739 9.44489 24.1866C9.44489 25.634 10.6182 26.8073 12.0656 26.8073H19.4068C19.1771 25.2484 19.755 23.515 20.2126 21.5657Z" fill="#FFB600"/>
<path d="M15.857 14.8483L13.3395 11.7944L1.17627 21.8202L3.69356 24.8741C5.88248 27.5296 10.3798 27.438 13.7386 24.6695C17.0974 21.9009 18.0457 17.5039 15.857 14.8483Z" fill="#FFDE55"/>
<path d="M11.2214 21.614C14.58 18.8455 15.5285 14.4488 13.3398 11.7935C11.1511 9.13825 6.65425 9.2299 3.29567 11.9984C-0.0629219 14.7667 -1.01126 19.1634 1.17745 21.8187C3.36595 24.474 7.8628 24.3823 11.2214 21.614Z" fill="#FFEB99"/>
<path d="M2.48072 20.7452C1.75778 19.8682 1.51872 18.6477 1.80755 17.3086C2.1278 15.8238 3.03768 14.4016 4.36992 13.3035C5.70194 12.2055 7.27196 11.5838 8.79028 11.5528C10.1599 11.5248 11.3123 11.9925 12.0352 12.8694C12.7582 13.7466 12.9972 14.9671 12.7084 16.3062C12.3881 17.7908 11.4783 19.2132 10.146 20.3113C8.81399 21.4092 7.24398 22.031 5.72566 22.062C4.35603 22.0898 3.20367 21.6224 2.48072 20.7452Z" fill="#FFF8DC"/>
<path d="M10.3873 15.1288C10.2072 15.2773 9.94099 15.2517 9.79251 15.0716L9.34622 14.5302C9.19774 14.3501 9.22338 14.0837 9.40369 13.9355C9.58378 13.787 9.84998 13.8126 9.99845 13.9927L10.4445 14.5341C10.593 14.7142 10.5674 14.9804 10.3873 15.1288Z" fill="#57565C"/>
<path d="M5.01299 19.5586C4.8329 19.7071 4.56671 19.6814 4.41823 19.5013L3.97215 18.96C3.82368 18.7799 3.84931 18.5137 4.02941 18.3652C4.2095 18.2167 4.4757 18.2424 4.62417 18.4225L5.07046 18.9638C5.21894 19.1439 5.1933 19.4101 5.01299 19.5586Z" fill="#57565C"/>
<path d="M7.38565 16.5083C7.40103 16.6758 7.30511 16.7764 7.26195 16.8121C7.2188 16.8478 7.10087 16.9253 6.94022 16.8755C6.71718 16.8065 6.48047 16.9313 6.41146 17.1541C6.34246 17.3772 6.46722 17.6139 6.69026 17.6829C7.07438 17.8019 7.48905 17.7201 7.79946 17.4643C8.10988 17.2084 8.26925 16.817 8.22567 16.4171C8.20046 16.1851 7.99195 16.0174 7.75994 16.0426C7.67513 16.052 7.3536 16.1592 7.38565 16.5083Z" fill="#57565C"/>
<path d="M22.4441 9.86783L22.619 10.1879C22.7938 10.5072 23.0564 10.7698 23.3757 10.9446L23.6958 11.1195C24.0235 11.2988 24.0235 11.7694 23.6958 11.9487L23.3757 12.1236C23.0564 12.2984 22.7938 12.5609 22.619 12.8801L22.4441 13.2004C22.2648 13.5281 21.7944 13.5281 21.6152 13.2004L21.44 12.8801C21.2652 12.5609 21.0027 12.2984 20.6835 12.1236L20.3632 11.9487C20.0357 11.7694 20.0357 11.2988 20.3632 11.1195L20.6835 10.9446C21.0027 10.7698 21.2652 10.5072 21.44 10.1879L21.6152 9.86783C21.7942 9.54011 22.2648 9.54011 22.4441 9.86783Z" fill="#FFEB99"/>
<path d="M7.94622 1.76758L8.2139 2.25681C8.48095 2.74497 8.88237 3.14639 9.37054 3.41344L9.85976 3.68113C10.3605 3.95501 10.3605 4.67433 9.85976 4.94821L9.37054 5.2159C8.88237 5.48294 8.48095 5.88415 8.2139 6.37231L7.94622 6.86176C7.67233 7.36252 6.95302 7.36252 6.67914 6.86176L6.41145 6.37231C6.1444 5.88415 5.74319 5.48273 5.25503 5.2159L4.76559 4.94821C4.26482 4.67433 4.26482 3.95501 4.76559 3.68113L5.25503 3.41344C5.74319 3.14639 6.1444 2.74497 6.41145 2.25681L6.67914 1.76758C6.95302 1.2666 7.67233 1.2666 7.94622 1.76758Z" fill="#FFEB99"/>
</g>
<defs>
<clipPath id="clip0_835_4027">
<rect width="28" height="28" fill="white"/>
</clipPath>
</defs>
</svg>
