<svg width="42" height="42" viewBox="0 0 42 42" fill="none" xmlns="http://www.w3.org/2000/svg">
<g clip-path="url(#clip0_837_4108)">
<path d="M21.7106 6.38351C20.9865 4.72606 18.3073 1.68558 15.4088 0.141092C14.6768 -0.248966 13.7793 0.209178 13.6522 1.02892C13.5967 1.38739 13.5662 1.70666 13.602 1.84816C11.0385 1.15656 8.57671 2.64789 6.09174 3.52628C5.85991 3.60823 5.67781 3.79033 5.59586 4.02215C4.71747 6.50713 3.22614 8.96897 3.91774 11.5324C3.77624 11.4966 3.45697 11.527 3.0985 11.5826C2.27876 11.7096 1.82061 12.6071 2.21067 13.3392C3.75516 16.2377 6.79564 18.9169 8.45309 19.6411L21.7106 6.38351Z" fill="#4B5165"/>
<path d="M39.8837 39.1466C39.5584 37.5202 36.1549 28.1611 34.8252 25.378C35.0379 23.7052 34.6128 22.114 33.4993 21.0006C31.271 18.7723 27.1299 19.3005 24.25 22.1804C21.3701 25.0604 20.8419 29.2014 23.0702 31.4297C23.1061 31.4656 23.1438 31.4988 23.1807 31.5333C21.6064 34.4227 19.8413 38.0129 19.5708 38.5652C18.9913 39.7481 19.4805 41.1768 20.6635 41.7562C21.8448 42.335 23.2743 41.8481 23.8545 40.6634C24.6581 39.023 26.6475 35.0572 28.0111 32.6592C29.3409 32.3795 30.6932 31.7061 31.8751 30.6646C33.2664 34.242 35.0275 39.2266 35.2062 40.082C35.4651 41.3768 36.724 42.2107 38.0127 41.953C39.3044 41.6948 40.1421 40.4383 39.8837 39.1466Z" fill="#FFD3BD"/>
<path d="M39.389 37.4459C38.3231 34.1557 35.8986 27.6247 34.8252 25.3781C35.0379 23.7053 34.6128 22.1141 33.4993 21.0006C31.271 18.7724 27.1299 19.3006 24.25 22.1805C21.3701 25.0605 20.8419 29.2015 23.0702 31.4298C23.1061 31.4657 23.1438 31.4988 23.1807 31.5334C22.1995 33.3343 21.1442 35.4072 20.4229 36.8474C21.3479 37.083 23.5635 37.9005 24.6695 39.0217C25.631 37.1044 26.9947 34.4466 28.0111 32.6594C29.341 32.3797 30.6932 31.7063 31.8752 30.6647C32.9174 33.3446 34.1671 36.8142 34.8037 38.7461C35.536 37.95 37.8977 37.1507 39.389 37.4459Z" fill="#4B5165"/>
<path d="M16.2032 35.5651C15.4946 36.696 14.0033 37.0384 12.8723 36.3298C11.7415 35.6212 11.3992 34.1299 12.1077 32.999C12.9006 31.7337 16.252 23.2664 16.4176 21.8767C16.5739 20.5527 17.7672 19.5993 19.0931 19.7512C20.4191 19.9029 21.3709 21.1013 21.2191 22.4273C20.9473 24.7866 17.2403 33.9099 16.2032 35.5651Z" fill="#FFD3BD"/>
<path d="M26.6239 17.9512C25.6594 18.8735 24.1298 18.8394 23.2073 17.8748C22.2849 16.9102 22.3163 15.3782 23.2836 14.4583C24.2492 13.5366 28.8123 7.29193 30.4095 4.6018C31.0907 3.45442 32.5735 3.07618 33.721 3.75753C34.8685 4.43888 35.2466 5.92151 34.5653 7.06905C33.2469 9.28972 28.2789 16.3667 26.6239 17.9512Z" fill="#FFBE9D"/>
<path d="M29.8057 27.7361C31.0923 26.4494 35.2061 21.7707 32.9682 19.943C29.2451 16.9025 21.2349 13.6077 18.4561 16.3865C15.6773 19.1653 18.9721 27.1756 22.0126 30.8986C23.8402 33.1365 28.519 29.0227 29.8057 27.7361Z" fill="#FFE7CB"/>
<path d="M23.1368 21.0673C24.5298 19.6742 25.5714 18.0274 26.2006 16.2593C23.0924 15.1672 19.9837 14.859 18.4561 16.3866C16.9284 17.9142 17.2367 21.0229 18.3288 24.1311C20.0969 23.5018 21.7437 22.4603 23.1368 21.0673Z" fill="#FFE7CB"/>
<path d="M8.59887 23.0076C10.283 23.0076 11.6483 21.6423 11.6483 19.9581C11.6483 18.274 10.283 16.9087 8.59887 16.9087C6.91471 16.9087 5.54944 18.274 5.54944 19.9581C5.54944 21.6423 6.91471 23.0076 8.59887 23.0076Z" fill="#FFD3BD"/>
<path d="M22.0277 9.57878C23.7119 9.57878 25.0771 8.2135 25.0771 6.52935C25.0771 4.8452 23.7119 3.47992 22.0277 3.47992C20.3435 3.47992 18.9783 4.8452 18.9783 6.52935C18.9783 8.2135 20.3435 9.57878 22.0277 9.57878Z" fill="#FFBE9D"/>
<path d="M21.5057 19.4395C25.2456 15.6997 25.6387 10.0293 22.3837 6.77441C19.1288 3.51949 13.4585 3.91258 9.71862 7.65241C5.97879 11.3922 5.58569 17.0626 8.84061 20.3175C12.0955 23.5725 17.7659 23.1794 21.5057 19.4395Z" fill="#FFD3BD"/>
<path d="M23.5576 16.6008C14.3046 23.8275 7.99487 15.3033 7.24962 11.4677C6.07829 14.6107 6.57491 18.0506 8.84266 20.3183C12.0981 23.5737 17.7693 23.1806 21.5097 19.4402C22.3713 18.5785 23.0549 17.6143 23.5576 16.6008Z" fill="#FFBE9D"/>
<path d="M13.1866 20.6275C14.1552 19.6589 14.3152 18.2484 13.5438 17.477C12.7725 16.7057 11.3619 16.8656 10.3933 17.8342C9.42466 18.8028 9.26474 20.2134 10.0361 20.9847C10.8075 21.7561 12.218 21.5962 13.1866 20.6275Z" fill="#EDA1AB"/>
<path d="M22.6945 11.1215C23.6631 10.1529 23.823 8.74233 23.0517 7.97097C22.2803 7.19962 20.8698 7.35954 19.9011 8.32817C18.9325 9.2968 18.7726 10.7073 19.5439 11.4787C20.3153 12.25 21.7258 12.0901 22.6945 11.1215Z" fill="#EDA1AB"/>
<path d="M11.4709 17.4799C11.3134 17.4799 11.1559 17.4198 11.0358 17.2997L10.3187 16.5827C10.0785 16.3423 10.0785 15.9529 10.3187 15.7126C10.5591 15.4724 10.9486 15.4724 11.1888 15.7126L11.9059 16.4296C12.1461 16.67 12.1461 17.0595 11.9059 17.2997C11.7858 17.4197 11.6283 17.4799 11.4709 17.4799Z" fill="#4B5165"/>
<path d="M18.9341 10.0165C18.7767 10.0165 18.6192 9.95646 18.4991 9.83636L17.782 9.11933C17.5417 8.87906 17.5417 8.48949 17.7819 8.2493C18.0223 8.00895 18.4119 8.00903 18.652 8.24922L19.3692 8.96626C19.6095 9.20653 19.6095 9.59609 19.3692 9.83628C19.2491 9.95646 19.0916 10.0165 18.9341 10.0165Z" fill="#4B5165"/>
<path d="M14.3246 14.7151C14.2682 14.7151 14.2118 14.7132 14.1552 14.7093C13.8161 14.686 13.5603 14.3923 13.5836 14.0533C13.6069 13.7143 13.8998 13.4603 14.2396 13.4817C14.5951 13.5059 14.9431 13.376 15.1943 13.1248C15.4456 12.8736 15.5756 12.5255 15.5512 12.1699C15.528 11.8309 15.784 11.5372 16.1229 11.514C16.4618 11.4918 16.7556 11.7466 16.7788 12.0857C16.8277 12.7962 16.5672 13.4921 16.0645 13.9949C15.6016 14.4576 14.9754 14.7151 14.3246 14.7151Z" fill="#4B5165"/>
</g>
<defs>
<clipPath id="clip0_837_4108">
<rect width="42" height="42" fill="white"/>
</clipPath>
</defs>
</svg>
