<svg width="28" height="28" viewBox="0 0 28 28" fill="none" xmlns="http://www.w3.org/2000/svg">
<g clip-path="url(#clip0_829_3679)">
<path d="M24.3394 25.7086L24.3141 9.17145H3.06824V25.7086C3.06824 25.7086 13.4549 28.5846 24.3394 25.7086Z" fill="#330B00"/>
<path d="M21.2695 27.7573C21.048 23.6347 17.7384 20.3617 13.6869 20.3617C9.6357 20.3617 6.32615 23.6347 6.10461 27.7573H21.2695Z" fill="#F6C6B1"/>
<path d="M9.50975 24.8914C9.50975 25.9789 9.0839 26.9765 8.37439 27.7573H18.9997C18.2903 26.9765 17.8643 25.9789 17.8643 24.8914C17.8643 23.9472 18.1854 23.0706 18.7344 22.345C17.9012 21.5795 16.9044 20.9996 15.8037 20.6706C15.9899 22.2574 14.7276 22.7253 13.6671 22.7966C12.197 22.8955 11.0307 21.9863 11.5326 20.6819C10.4468 21.0127 9.46333 21.5882 8.63967 22.3449C9.18846 23.0706 9.50975 23.9471 9.50975 24.8914Z" fill="#242137"/>
<path d="M24.3394 9.83401C24.3394 15.1313 19.5703 19.4254 13.687 19.4254C7.80407 19.4254 3.03485 15.1313 3.03485 9.83401C3.03485 4.53676 7.80407 0.242554 13.687 0.242554C19.5703 0.242554 24.3394 4.5367 24.3394 9.83401Z" fill="#330B00"/>
<path d="M4.21309 15.0975C5.28659 15.0975 6.15683 14.314 6.15683 13.3474C6.15683 12.3808 5.28659 11.5972 4.21309 11.5972C3.13959 11.5972 2.26935 12.3808 2.26935 13.3474C2.26935 14.314 3.13959 15.0975 4.21309 15.0975Z" fill="#F7BBAC"/>
<path d="M23.1611 15.0975C24.2346 15.0975 25.1049 14.314 25.1049 13.3474C25.1049 12.3808 24.2346 11.5972 23.1611 11.5972C22.0876 11.5972 21.2174 12.3808 21.2174 13.3474C21.2174 14.314 22.0876 15.0975 23.1611 15.0975Z" fill="#F7BBAC"/>
<path d="M23.7474 12.0313C23.7474 17.0343 19.2434 21.0899 13.6869 21.0899C8.1308 21.0899 3.62665 17.0343 3.62665 12.0313C3.62665 7.02835 8.13073 2.97275 13.6869 2.97275C19.2434 2.97275 23.7474 7.02841 23.7474 12.0313Z" fill="#FBD3C2"/>
<path d="M10.7597 13.7586C10.7597 14.437 9.94083 14.9869 8.93067 14.9869C7.9203 14.9869 7.1015 14.4369 7.1015 13.7586C7.1015 13.0803 7.92023 12.5303 8.93067 12.5303C9.94083 12.5303 10.7597 13.0803 10.7597 13.7586Z" fill="#F39E9C"/>
<path d="M20.2728 13.7586C20.2728 14.437 19.4539 14.9869 18.4437 14.9869C17.4334 14.9869 16.6146 14.4369 16.6146 13.7586C16.6146 13.0803 17.4333 12.5303 18.4437 12.5303C19.4539 12.5303 20.2728 13.0803 20.2728 13.7586Z" fill="#F39E9C"/>
<path d="M10.398 11.7634C10.398 12.1093 10.0867 12.3898 9.70223 12.3898C9.31813 12.3898 9.00677 12.1093 9.00677 11.7634C9.00677 11.4175 9.31813 11.1371 9.70223 11.1371C10.0867 11.1371 10.398 11.4175 10.398 11.7634Z" fill="#121325"/>
<path d="M17.6719 12.3897C18.0561 12.3897 18.3676 12.1093 18.3676 11.7633C18.3676 11.4174 18.0561 11.137 17.6719 11.137C17.2877 11.137 16.9763 11.4174 16.9763 11.7633C16.9763 12.1093 17.2877 12.3897 17.6719 12.3897Z" fill="#121325"/>
<path d="M13.687 14.0013C13.0479 14.0013 12.4545 13.6985 12.1382 13.2112C12.0631 13.0955 12.1063 12.9469 12.2348 12.8793C12.3635 12.8116 12.5284 12.8506 12.6034 12.9663C12.8236 13.3054 13.2388 13.516 13.687 13.516C14.1353 13.516 14.5506 13.3053 14.7708 12.9663C14.8459 12.8506 15.0109 12.8116 15.1394 12.8793C15.2679 12.9469 15.3111 13.0955 15.2361 13.2112C14.9196 13.6985 14.3261 14.0013 13.687 14.0013Z" fill="#121325"/>
<path d="M13.687 1.08354C9.44026 0.68775 5.52919 4.03912 5.52919 4.03912C3.33711 7.32245 3.6268 11.6786 3.6268 11.6786L4.69894 9.16115C4.69887 9.16115 14.361 8.66819 13.687 1.08354Z" fill="#330B00"/>
<path d="M13.687 1.08354C17.934 0.68775 21.8325 4.03912 21.8325 4.03912C24.0246 7.32245 23.7349 11.6786 23.7349 11.6786L22.6625 9.16115C22.6625 9.16115 12.3708 8.45248 13.687 1.08354Z" fill="#330B00"/>
<path d="M4.22074 15.3405C4.22006 15.3406 4.2193 15.3406 4.21834 15.3405H4.21245C3.74161 15.3405 3.29121 15.2085 2.90985 14.9586C2.34015 14.5841 2 13.9819 2 13.3474C2 12.713 2.34015 12.1107 2.90972 11.7364C3.10547 11.6073 3.32282 11.5088 3.55546 11.444C3.63918 11.4207 3.73064 11.4355 3.8001 11.4839C3.86949 11.5323 3.90829 11.6081 3.90438 11.687C3.8989 11.7928 3.89623 11.9055 3.89623 12.0316C3.89623 13.0466 4.08601 14.0407 4.46044 14.9869C4.47957 15.0201 4.4902 15.0578 4.4902 15.0979C4.4902 15.2319 4.36953 15.3405 4.22074 15.3405ZM3.35724 12.051C3.31281 12.0748 3.26968 12.1006 3.22772 12.1281C2.79638 12.4117 2.53899 12.8674 2.53899 13.3474C2.53899 13.8274 2.79638 14.2831 3.22731 14.5664C3.40983 14.686 3.61326 14.7699 3.82835 14.8154C3.51768 13.9241 3.3593 12.996 3.35724 12.051Z" fill="#121325"/>
<path d="M6.3017 26.6121C6.28593 26.6121 6.26996 26.6108 6.25377 26.6082C4.23674 26.2826 3.03939 25.954 2.98934 25.9402C2.87634 25.9089 2.79907 25.8148 2.79907 25.7083V14.7625C2.79907 14.6712 2.85598 14.5876 2.94635 14.5462C3.03658 14.505 3.14505 14.5125 3.22719 14.5663C3.51564 14.7553 3.85648 14.8552 4.21253 14.8552C4.32621 14.8552 4.43352 14.9195 4.47205 15.0158C5.5695 17.7648 8.09768 19.8405 11.2352 20.5682C11.348 20.5943 11.4292 20.6827 11.4369 20.7873C11.4445 20.8919 11.3766 20.9891 11.2687 21.0283C8.94185 21.8724 7.13963 23.9379 6.56526 26.4189C6.53873 26.5331 6.4269 26.6121 6.3017 26.6121ZM3.33799 25.5258C3.72833 25.6243 4.7014 25.8555 6.09464 26.0886C6.70486 23.7555 8.28137 21.8509 10.4048 20.8531C7.47525 19.9725 5.13123 17.9533 4.02761 15.3334C3.78736 15.3154 3.55568 15.2631 3.33792 15.1787L3.33799 25.5258Z" fill="#121325"/>
<path d="M21.0819 26.652C20.9563 26.652 20.8442 26.5725 20.818 26.4577C20.2522 23.9576 18.4464 21.8771 16.1052 21.0283C15.9971 20.9891 15.9294 20.892 15.937 20.7873C15.9445 20.6827 16.0258 20.5943 16.1385 20.5682C19.2762 19.8405 21.8043 17.7648 22.9018 15.0158C22.9402 14.9194 23.0417 14.8552 23.1554 14.8552C23.5244 14.8552 23.8701 14.7521 24.1611 14.557C24.2426 14.5022 24.3517 14.4936 24.4428 14.5348C24.5339 14.5759 24.5914 14.6596 24.5915 14.7513L24.6084 25.7079C24.6085 25.8157 24.5296 25.9107 24.4147 25.9411C23.3531 26.2216 22.2485 26.4594 21.1318 26.6477C21.1151 26.6506 21.0983 26.652 21.0819 26.652ZM16.9669 20.8537C19.0786 21.8547 20.6911 23.8093 21.2894 26.1265C22.2331 25.9605 23.1661 25.759 24.0691 25.526L24.0532 15.1724C23.8299 15.2612 23.5918 15.3156 23.346 15.3338C22.2421 17.9539 19.897 19.9735 16.9669 20.8537Z" fill="#121325"/>
<path d="M21.2713 28.0001C21.2706 28.0001 21.2698 28.0001 21.2689 28.0001H6.10482C6.03119 28.0001 5.96056 27.9729 5.90983 27.9249C5.85895 27.8768 5.83214 27.8121 5.83578 27.7458C5.86108 27.2661 5.92909 26.7863 6.03756 26.3197C6.65746 23.6422 8.53764 21.4958 11.0671 20.5782C11.1205 20.5587 11.1798 20.5553 11.2353 20.5683C12.8244 20.9387 14.549 20.9388 16.1384 20.5683C16.1937 20.5553 16.2527 20.5587 16.3066 20.5782C18.8136 21.4871 20.7447 23.703 21.3462 26.3608C21.4454 26.7969 21.5095 27.2516 21.5361 27.7127C21.5392 27.7271 21.5407 27.7421 21.5407 27.7574C21.5407 27.8914 21.4202 28.0001 21.2713 28.0001ZM6.39177 27.5148H20.9819C20.9509 27.1547 20.896 26.8002 20.8182 26.458C20.2588 23.9865 18.4878 21.9252 16.1859 21.0582C14.5626 21.4227 12.8109 21.4227 11.1878 21.0582C8.90014 21.9204 7.13281 23.9668 6.56517 26.4189C6.48166 26.7782 6.42351 27.1457 6.39177 27.5148Z" fill="#121325"/>
<path d="M18.9996 28H8.37434C8.27013 28 8.17537 27.946 8.13073 27.8612C8.08617 27.7765 8.09981 27.6762 8.1657 27.6037C8.85855 26.8413 9.24011 25.8781 9.24011 24.8914C9.24011 24.0271 8.95543 23.1937 8.41692 22.4816C8.34459 22.3859 8.3572 22.2577 8.44702 22.1751C9.17593 21.5053 10.0141 20.9861 10.9381 20.6318C10.9843 20.6142 11.0347 20.6084 11.0842 20.6151L11.248 20.6369C11.3335 20.6481 11.4189 20.6593 11.5042 20.6716C11.5774 20.6821 11.6427 20.7194 11.6844 20.7747C11.7262 20.8299 11.7408 20.8981 11.7249 20.9635C11.6278 21.3606 11.7106 21.7207 11.9643 22.005C12.2799 22.3586 12.8214 22.5614 13.45 22.5613C13.5149 22.5613 13.5812 22.5591 13.647 22.5547C14.5248 22.4957 15.5679 22.1687 15.5519 20.9462C15.5505 20.8238 15.6504 20.7194 15.785 20.7029C15.9043 20.6884 16.0219 20.6555 16.1347 20.6053C16.2041 20.5743 16.2851 20.5718 16.3569 20.5984C17.3067 20.9507 18.1714 21.4812 18.9268 22.1752C19.0168 22.2578 19.0295 22.3861 18.9572 22.4816C18.4183 23.1937 18.1336 24.027 18.1336 24.8915C18.1336 25.8779 18.5152 26.8412 19.208 27.6037C19.274 27.6763 19.2875 27.7766 19.2429 27.8613C19.1986 27.9459 19.1036 28 18.9996 28ZM8.90627 27.5146H18.4675C17.9016 26.7397 17.5947 25.8248 17.5947 24.8914C17.5947 23.9969 17.8687 23.1323 18.3891 22.3781C17.751 21.8232 17.0352 21.3897 16.2576 21.0873C16.2009 21.108 16.1435 21.1259 16.0855 21.1408C16.0077 22.2529 15.1451 22.9406 13.6871 23.0387C13.6082 23.044 13.5284 23.0466 13.45 23.0466C12.6572 23.0467 11.9626 22.7778 11.5442 22.3091C11.2464 21.9754 11.1121 21.5587 11.1546 21.1151L11.0803 21.1053C10.3123 21.4086 9.60858 21.8362 8.98491 22.3782C9.50518 23.1325 9.77903 23.9971 9.77903 24.8914C9.7791 25.825 9.4722 26.7398 8.90627 27.5146Z" fill="#121325"/>
<path d="M24.1232 12.006C24.102 12.006 24.0806 12.0037 24.0596 11.9991L23.6714 11.9143C23.5853 11.8956 23.515 11.8399 23.4832 11.7654L22.4705 9.38831C21.9204 9.33516 20.1458 9.11815 18.2862 8.40547C15.8123 7.45738 14.2112 6.00755 13.5926 4.17435C12.8966 6.06855 11.2898 7.54109 8.88581 8.47023C7.10086 9.16001 5.42624 9.34658 4.88965 9.39103L3.87832 11.7654C3.83067 11.8774 3.70019 11.9416 3.56896 11.9156L3.15702 11.8344C3.05123 11.8135 2.96957 11.7376 2.94975 11.6417C2.82736 11.0484 2.76538 10.4402 2.76538 9.83399C2.76538 4.41148 7.66481 -9.15527e-05 13.687 -9.15527e-05C19.7094 -9.15527e-05 24.6089 4.41148 24.6089 9.83399C24.6089 10.5499 24.5733 11.0779 24.386 11.8173C24.37 11.8806 24.3264 11.9355 24.2651 11.9697C24.2221 11.9936 24.1729 12.006 24.1232 12.006ZM13.6151 2.8196C13.6173 2.8196 13.6194 2.8196 13.6218 2.81966C13.7566 2.82263 13.8683 2.91492 13.8831 3.03574C14.526 8.29619 22.6016 8.91356 22.6832 8.91911C22.7869 8.92627 22.8768 8.98665 22.9142 9.0742L23.9231 11.4428C24.0448 10.8791 24.0699 10.4243 24.0699 9.83393C24.0699 4.67898 19.4123 0.485158 13.6871 0.485158C7.96204 0.485158 3.30444 4.67898 3.30444 9.83393C3.30444 10.3568 3.35291 10.8812 3.44876 11.3951L3.45802 11.3969L4.44727 9.0742C4.48519 8.98511 4.57768 8.9243 4.68362 8.9188C4.70302 8.91776 6.6506 8.80879 8.68704 8.01881C11.3793 6.97454 12.9477 5.29407 13.3492 3.02407C13.3699 2.9061 13.483 2.8196 13.6151 2.8196Z" fill="#121325"/>
<path d="M23.1615 15.3405H23.1554C23.0677 15.3405 22.9854 15.302 22.9348 15.2374C22.8843 15.1727 22.872 15.0899 22.9019 15.0156C23.284 14.0611 23.4777 13.0571 23.4777 12.0316C23.4777 11.9114 23.4751 11.7953 23.4696 11.6866C23.4657 11.6078 23.5046 11.5322 23.5738 11.4839C23.6431 11.4357 23.7342 11.4207 23.8178 11.4437C24.0549 11.5092 24.2774 11.611 24.4795 11.7464C25.0395 12.1214 25.3739 12.7199 25.3739 13.3474C25.3739 13.9731 25.041 14.5707 24.4834 14.946C24.0983 15.2042 23.6413 15.3405 23.1615 15.3405ZM24.0168 12.0508C24.0147 12.9962 23.8564 13.9244 23.5454 14.8155C23.7667 14.7689 23.975 14.6818 24.1611 14.557C24.5891 14.2689 24.8348 13.8279 24.8348 13.3474C24.8348 12.8655 24.588 12.4239 24.1576 12.1357C24.1121 12.1052 24.065 12.0768 24.0168 12.0508Z" fill="#121325"/>
</g>
<defs>
<clipPath id="clip0_829_3679">
<rect width="28" height="28" fill="white"/>
</clipPath>
</defs>
</svg>
