<svg width="142" height="126" viewBox="0 0 142 126" fill="none" xmlns="http://www.w3.org/2000/svg">
<g filter="url(#filter0_d_587_1500)">
<path d="M48.4804 16.219L31.0828 35.8582L18.9272 49.5769C11.2061 45.8343 5.89478 37.9736 5.89478 28.88C5.89478 25.9635 6.44357 23.166 7.44025 20.6C10.7898 11.9695 19.23 5.84863 29.1084 5.84863C37.2016 5.84863 44.3297 9.97925 48.4804 16.219Z" fill="#413758"/>
<path d="M123.079 49.5769C130.8 45.8343 136.112 37.9799 136.112 28.88C136.112 16.1627 125.722 5.84863 112.898 5.84863C104.792 5.84863 97.6642 9.973 93.5198 16.2127" fill="#413758"/>
<g opacity="0.55">
<path d="M135.822 25.2569C132.485 16.6139 124.038 10.4743 114.147 10.4743C106.83 10.4743 100.307 13.8351 96.0619 19.086L93.5198 16.2196C97.6705 9.97357 104.799 5.85547 112.898 5.85547C124.48 5.85547 134.074 14.2607 135.822 25.2569Z" fill="white"/>
</g>
<g opacity="0.3">
<path d="M31.0764 30.0948V35.8589L18.9208 49.5775C11.1998 45.8349 5.88843 37.9742 5.88843 28.8806C5.88843 25.9641 6.43723 23.1666 7.4339 20.6006C12.8904 33.6684 22.2263 35.9778 31.0764 30.0948Z" fill="#232333"/>
</g>
<g opacity="0.3">
<path d="M110.924 30.0948V35.8589L123.079 49.5775C130.8 45.8349 136.112 37.9742 136.112 28.8806C136.112 25.9641 135.563 23.1666 134.566 20.6006C129.11 33.6684 119.774 35.9778 110.924 30.0948Z" fill="#232333"/>
</g>
<g opacity="0.55">
<path d="M6.03345 25.2569C9.3704 16.6139 17.8169 10.4743 27.7079 10.4743C35.0252 10.4743 41.5477 13.8351 45.793 19.086L48.3352 16.2196C44.1845 9.97357 37.0564 5.85547 28.9569 5.85547C17.3753 5.85547 7.78077 14.2607 6.03345 25.2569Z" fill="white"/>
</g>
<path d="M127.735 72.0162C127.735 101.125 102.319 115.876 70.9685 115.876C39.6175 115.876 14.2024 101.125 14.2024 72.0162C14.2024 42.9079 39.6175 10.4512 70.9685 10.4512C102.319 10.4512 127.735 42.9016 127.735 72.0162Z" fill="white"/>
<path d="M71.0001 116.061C54.8074 116.061 40.8918 112.243 30.7611 105.015C19.8356 97.223 14.0637 85.82 14.0637 72.0325C14.0637 57.7943 20.2961 42.1668 30.7296 30.2256C41.9579 17.3768 56.2582 10.3047 70.9938 10.3047C85.7294 10.3047 100.03 17.3768 111.258 30.2256C121.698 42.1668 127.924 57.7943 127.924 72.0325C127.924 85.82 122.152 97.223 111.226 105.015C101.108 112.243 87.1928 116.061 71.0001 116.061ZM71.0001 10.6426C39.1256 10.6426 14.398 43.6438 14.398 72.0387C14.398 98.5811 36.615 115.736 71.0001 115.736C105.385 115.736 127.602 98.5874 127.602 72.0387C127.602 43.6438 102.875 10.6426 71.0001 10.6426Z" fill="#232333"/>
<path d="M71 117.282C54.5486 117.282 40.387 113.383 30.0418 106.011C18.782 97.981 12.8335 86.2337 12.8335 72.0394C12.8335 57.5134 19.1794 41.5855 29.8021 29.4314C35.246 23.2104 41.4531 18.2725 48.2595 14.7677C55.5831 11.0001 63.2348 9.08496 71 9.08496C78.7652 9.08496 86.4168 10.9938 93.7404 14.7677C100.547 18.2725 106.754 23.2042 112.198 29.4314C122.821 41.5855 129.166 57.5134 129.166 72.0394C129.166 86.2337 123.218 97.981 111.958 106.011C101.613 113.383 87.4513 117.282 71 117.282ZM71 11.8637C39.8193 11.8637 15.628 44.2078 15.628 72.0394C15.628 97.8433 37.3592 114.516 71 114.516C104.641 114.516 126.372 97.8433 126.372 72.0394C126.372 44.2078 102.181 11.8637 71 11.8637Z" fill="#232333"/>
<path d="M80.8152 71.9451C80.8152 74.9304 76.4185 77.3462 70.9999 77.3462C65.575 77.3462 61.1846 74.9304 61.1846 71.9451C61.1846 68.9598 65.575 67.7832 70.9999 67.7832C76.4185 67.7832 80.8152 68.9661 80.8152 71.9451Z" fill="#232333"/>
<path d="M62.7237 86.4459C61.3801 86.4459 60.0176 86.1705 58.737 85.5885C55.6839 84.2054 53.6591 81.3577 53.0346 77.5713C52.9084 76.8141 53.4257 76.1006 54.1889 75.9817C54.9522 75.8565 55.6713 76.3697 55.7912 77.127C56.258 79.9684 57.7088 82.0775 59.8914 83.0663C63.0581 84.4995 66.8933 83.3292 68.6217 80.4002C69.2715 79.3112 69.5995 78.0345 69.5995 76.6013C69.5995 76.0693 69.549 75.4998 69.4544 74.9115C69.3346 74.1542 69.8518 73.4407 70.6151 73.3218C71.3784 73.2029 72.0975 73.7161 72.2173 74.4734C72.3372 75.2056 72.394 75.9253 72.394 76.6013C72.394 78.5352 71.9335 80.2875 71.0314 81.8084C69.2967 84.7499 66.0544 86.4459 62.7237 86.4459Z" fill="#232333"/>
<path d="M83.6854 85.0507C83.6854 85.0507 83.4646 91.5908 80.544 93.7688C75.6679 87.6793 66.332 87.6793 61.4496 93.7688L58.9011 88.4428V85.0444L59.3111 84.3247C62.995 85.9957 67.6882 84.7315 69.8267 81.1016C70.6152 81.1078 71.4037 81.1078 72.1669 81.1078C74.3495 84.7941 79.1626 86.0395 82.8654 84.2371C83.3574 84.7127 83.6854 85.0507 83.6854 85.0507Z" fill="#232333"/>
<path d="M80.0518 94.3384C75.2388 99.6707 66.7608 99.6707 61.9478 94.3384C63.4932 90.9088 66.9626 88.5117 70.9998 88.5117C75.0306 88.5055 78.5064 90.9025 80.0518 94.3384Z" fill="#FF2C4B"/>
<path d="M79.3201 86.4271C75.9831 86.4271 72.6967 84.7436 70.9682 81.8084C70.0662 80.3001 69.6057 78.5477 69.6057 76.6013C69.6057 75.9253 69.6688 75.2056 69.7823 74.4734C69.9022 73.7161 70.6213 73.2029 71.3846 73.3218C72.1479 73.4407 72.6651 74.1542 72.5453 74.9115C72.4506 75.4998 72.4002 76.0693 72.4002 76.6013C72.4002 78.0407 72.7282 79.3175 73.3779 80.4002C75.1316 83.3667 79.1119 84.5246 82.2596 82.9912C83.742 82.2715 85.6281 80.6693 86.2085 77.127C86.3346 76.3697 87.0474 75.8565 87.8107 75.9817C88.574 76.1068 89.0913 76.8141 88.9651 77.5713C88.3658 81.2513 86.4166 84.0552 83.4897 85.4821C82.165 86.1267 80.7394 86.4271 79.3201 86.4271Z" fill="#232333"/>
<path d="M70.9999 99.7265C67.1457 99.7265 63.4618 98.0993 60.9071 95.2642C58.2955 92.3916 56.9141 88.4174 56.9141 83.7736C56.9141 83.01 57.5386 82.3842 58.3145 82.3842C59.0903 82.3842 59.7148 83.0038 59.7148 83.7736C59.7148 87.7165 60.8503 91.046 62.9887 93.4054C65.0199 95.6585 67.9405 96.9478 71.0062 96.9478C74.0719 96.9478 76.9863 95.6585 79.0174 93.4054C81.1622 91.046 82.2976 87.7102 82.2976 83.7673C82.2976 83.0038 82.9221 82.3779 83.698 82.3779C84.4739 82.3779 85.0984 82.9975 85.0984 83.7673C85.0984 88.4111 83.7169 92.379 81.1054 95.258C78.5317 98.0993 74.8541 99.7265 70.9999 99.7265Z" fill="#232333"/>
<path d="M80.5439 95.1514C80.1339 95.1514 79.7239 94.9699 79.4463 94.6257C77.3899 92.0534 74.3053 90.5827 70.9936 90.5827C67.6819 90.5827 64.6035 92.0534 62.5408 94.6257C62.0614 95.2265 61.1783 95.3266 60.579 94.851C59.9734 94.3753 59.8725 93.4991 60.3519 92.9046C62.9445 89.6689 66.824 87.8164 70.9936 87.8164C75.1632 87.8164 79.0426 89.6689 81.6352 92.9046C82.1147 93.5054 82.0137 94.3753 81.4081 94.851C81.1558 95.0575 80.8467 95.1514 80.5439 95.1514Z" fill="#232333"/>
<path d="M52.0758 74.824C51.9118 75.7378 51.7982 76.6453 51.7414 77.5402C51.5207 80.8823 48.8271 83.5046 45.7677 83.1541C45.4713 83.1228 45.1685 83.079 44.872 83.0227C36.2931 81.4956 30.7483 72.5084 32.4767 62.9579C34.2051 53.4136 42.5633 46.911 51.1359 48.4381C54.7693 49.089 57.8603 51.073 60.0807 53.8705C62.0993 56.4115 61.6072 60.3105 59.0399 62.3633C55.6777 65.0357 53.0409 69.4918 52.0758 74.824Z" fill="#413758"/>
<path d="M89.9241 73.3094C90.0881 74.2231 90.2017 75.1306 90.2584 76.0256C90.4792 79.3676 93.1728 81.99 96.2322 81.6395C96.5286 81.6082 96.8314 81.5644 97.1279 81.5081C105.707 79.981 111.252 70.9937 109.523 61.4432C107.795 51.899 99.4366 45.3964 90.864 46.9235C87.2306 47.5744 84.1396 49.5583 81.9192 52.3559C79.9006 54.8968 80.3927 58.7959 82.96 60.8487C86.3222 63.5211 88.959 67.9709 89.9241 73.3094Z" fill="#413758"/>
<path d="M59.9735 18.3979C57.4881 -0.584222 77.2386 -4.40818 72.2552 10.6123C74.6523 6.16872 82.1778 6.7758 76.1094 15.037C82.1715 8.24655 86.5114 14.8806 81.4271 18.4855" fill="white"/>
<path d="M81.5281 18.6229L81.3326 18.3538C83.1998 17.027 83.654 15.3685 83.4584 14.2607C83.2944 13.3219 82.6762 12.6147 81.7994 12.3706C80.235 11.9326 78.2101 12.9464 76.2357 15.1494L75.9771 14.9429C78.6075 11.3568 78.4057 9.63567 78.0461 8.92846C77.7622 8.3652 77.1819 8.05227 76.4186 8.03976C76.406 8.03976 76.3934 8.03976 76.3808 8.03976C75.1444 8.03976 73.3845 8.86588 72.4004 10.6934L72.0913 10.5619C73.3592 6.74424 73.1069 3.75267 71.3974 2.35076C70.098 1.28055 68.0542 1.29307 66.0671 2.38205C62.6103 4.27213 58.9832 9.59812 60.1313 18.3788L59.7969 18.4226C58.6236 9.47295 62.3517 4.02804 65.9031 2.0879C68.0163 0.930076 70.2052 0.936336 71.6119 2.09416C73.2646 3.45226 73.6494 6.15594 72.7284 9.60439C73.8008 8.30261 75.2832 7.70805 76.3808 7.70805C76.3934 7.70805 76.406 7.70805 76.4186 7.70805C77.3144 7.72057 77.9956 8.10234 78.3426 8.77826C78.8977 9.87976 78.4877 11.6071 77.1945 13.7225C78.8661 12.2705 80.5189 11.6697 81.8814 12.0515C82.8844 12.3331 83.5909 13.1404 83.7801 14.2044C84.0009 15.4123 83.5215 17.2085 81.5281 18.6229Z" fill="#232333"/>
<path d="M81.4272 19.8742C80.9919 19.8742 80.563 19.6739 80.2917 19.2922C79.8438 18.6663 79.9889 17.8026 80.6134 17.3583C82.0138 16.3632 82.3734 15.2116 82.2472 14.4669C82.1967 14.1915 82.0327 13.6971 81.465 13.5406C80.6323 13.309 79.068 13.816 77.1566 15.9564C76.6646 16.5134 75.813 16.5822 75.2327 16.1191C74.6523 15.656 74.5388 14.8173 74.9803 14.2228C77.0241 11.444 77.1755 9.92943 76.9484 9.47256C76.8791 9.33487 76.6961 9.25977 76.4059 9.25977C75.5102 9.24725 74.2044 9.94821 73.4916 11.2688C73.151 11.9009 72.3751 12.17 71.7065 11.8883C71.0378 11.6067 70.7035 10.8619 70.9306 10.1798C72.0156 6.91282 71.8957 4.34057 70.6215 3.28914C69.7194 2.55063 68.2055 2.60696 66.6663 3.45186C63.5502 5.15418 60.2889 10.0483 61.3613 18.222C61.4622 18.9792 60.9197 19.6802 60.1564 19.7741C59.3869 19.8742 58.6867 19.336 58.592 18.5787C57.3431 9.02194 61.437 3.1452 65.3227 1.0173C67.8901 -0.38461 70.6026 -0.334544 72.4067 1.14873C73.3655 1.9373 74.6397 3.61458 74.4505 6.8565C75.1002 6.5999 75.7752 6.46847 76.4438 6.47473C77.8 6.4935 78.8976 7.13187 79.4464 8.22085C79.8312 8.97813 79.9195 9.86684 79.7303 10.8807C80.7963 10.5991 81.6479 10.6992 82.2283 10.8619C83.698 11.275 84.7326 12.4391 85.0038 13.9787C85.3571 15.9877 84.2973 18.1469 82.2409 19.6051C81.9949 19.7929 81.711 19.8742 81.4272 19.8742Z" fill="#232333"/>
<path d="M18.9208 50.9666C18.7127 50.9666 18.5045 50.9228 18.309 50.8227C9.78679 46.6921 4.48804 38.2869 4.48804 28.8803C4.48804 15.4182 15.5271 4.46582 29.0957 4.46582C37.3908 4.46582 45.0677 8.57141 49.6473 15.4558C50.07 16.0942 49.8933 16.9578 49.2499 17.3771C48.6065 17.7965 47.736 17.6212 47.3133 16.9829C43.2573 10.8808 36.4509 7.23834 29.0957 7.23834C17.0663 7.23834 7.2825 16.9453 7.2825 28.8803C7.2825 37.2167 11.9757 44.6705 19.5327 48.3318C20.2266 48.6697 20.5168 49.4959 20.1761 50.1843C19.9364 50.6787 19.4381 50.9666 18.9208 50.9666Z" fill="#232333"/>
<path d="M123.079 50.9662C122.562 50.9662 122.064 50.6783 121.824 50.1902C121.483 49.5017 121.773 48.6693 122.467 48.3376C130.024 44.6764 134.718 37.2225 134.718 28.8862C134.718 16.9512 124.934 7.2442 112.904 7.2442C105.556 7.2442 98.7428 10.8867 94.6868 16.9887C94.2641 17.6271 93.3936 17.8023 92.7502 17.383C92.1068 16.9637 91.9301 16.1 92.3528 15.4616C96.9261 8.57727 104.609 4.47168 112.904 4.47168C126.473 4.47168 137.512 15.4241 137.512 28.8862C137.512 38.2927 132.213 46.6979 123.691 50.8285C123.489 50.9162 123.281 50.9662 123.079 50.9662Z" fill="#232333"/>
<path d="M92.8763 58.2637C89.4889 58.2637 86.7449 61.5932 86.7449 65.6988C86.7449 69.8106 89.4889 73.1402 92.8763 73.1402C96.27 73.1402 99.014 69.8106 99.014 65.6988C99.014 61.5932 96.27 58.2637 92.8763 58.2637ZM95.1535 66.6313C94.2767 66.6313 93.5576 65.6425 93.5576 64.4221C93.5576 63.2079 94.2704 62.2191 95.1535 62.2191C96.024 62.2191 96.7368 63.2079 96.7368 64.4221C96.7431 65.6425 96.024 66.6313 95.1535 66.6313Z" fill="#232333"/>
<path d="M96.7432 64.4227C96.7432 65.6431 96.0304 66.632 95.1599 66.632C94.2831 66.632 93.564 65.6431 93.564 64.4227C93.564 63.2086 94.2768 62.2197 95.1599 62.2197C96.0241 62.2197 96.7432 63.2023 96.7432 64.4227Z" fill="white"/>
<path d="M95.1536 66.7064C94.2326 66.7064 93.4819 65.68 93.4819 64.4221C93.4819 63.1641 94.2326 62.1377 95.1536 62.1377C96.0745 62.1377 96.8189 63.1641 96.8189 64.4221C96.8189 65.68 96.0745 66.7064 95.1536 66.7064ZM95.1536 62.2942C94.3209 62.2942 93.6396 63.2455 93.6396 64.4221C93.6396 65.5987 94.3209 66.55 95.1536 66.55C95.9862 66.55 96.6612 65.5924 96.6612 64.4221C96.6612 63.2517 95.9862 62.2942 95.1536 62.2942Z" fill="#232333"/>
<path d="M49.1175 58.2637C45.7301 58.2637 42.9861 61.5932 42.9861 65.6988C42.9861 69.8106 45.7301 73.1402 49.1175 73.1402C52.5112 73.1402 55.2552 69.8106 55.2552 65.6988C55.2552 61.5932 52.5112 58.2637 49.1175 58.2637ZM51.3947 66.6313C50.5179 66.6313 49.7988 65.6425 49.7988 64.4221C49.7988 63.2079 50.5116 62.2191 51.3947 62.2191C52.2652 62.2191 52.978 63.2079 52.978 64.4221C52.978 65.6425 52.2652 66.6313 51.3947 66.6313Z" fill="#232333"/>
<path d="M52.9778 64.4227C52.9778 65.6431 52.265 66.632 51.3945 66.632C50.5177 66.632 49.7986 65.6431 49.7986 64.4227C49.7986 63.2086 50.5114 62.2197 51.3945 62.2197C52.265 62.2197 52.9778 63.2023 52.9778 64.4227Z" fill="white"/>
<path d="M51.3945 66.7064C50.4736 66.7064 49.7229 65.68 49.7229 64.4221C49.7229 63.1641 50.4736 62.1377 51.3945 62.1377C52.3155 62.1377 53.0599 63.1641 53.0599 64.4221C53.0599 65.68 52.3155 66.7064 51.3945 66.7064ZM51.3945 62.2942C50.5619 62.2942 49.8806 63.2455 49.8806 64.4221C49.8806 65.5987 50.5619 66.55 51.3945 66.55C52.2272 66.55 52.9022 65.5924 52.9022 64.4221C52.9022 63.2517 52.2272 62.2942 51.3945 62.2942Z" fill="#232333"/>
<path d="M46.9853 75.7251C42.2164 75.7251 37.9585 74.1792 34.6783 71.244C30.8556 67.8268 28.4838 62.7136 27.6196 56.0358C27.3673 54.0956 27.9161 52.2619 29.1525 50.8662C30.3889 49.4706 32.1488 48.707 34.1169 48.707H59.8474C61.8092 48.707 63.5755 49.4768 64.8118 50.8662C66.0482 52.2619 66.597 54.0956 66.3447 56.0358C65.4868 62.7136 63.1087 67.8268 59.286 71.244C56.0184 74.1792 51.7605 75.7251 46.9853 75.7251ZM34.1232 51.4858C32.9752 51.4858 31.9596 51.9177 31.2594 52.7062C30.5592 53.4948 30.2564 54.5525 30.4015 55.6915C31.8145 66.6627 37.8639 72.9525 46.9916 72.9525C56.1194 72.9525 62.1688 66.6627 63.5818 55.6915C63.7269 54.5588 63.4241 53.4948 62.7239 52.7062C62.0237 51.9177 61.0081 51.4858 59.86 51.4858H34.1232Z" fill="#232333"/>
<path d="M95.3679 75.7251C90.599 75.7251 86.3411 74.1792 83.0609 71.244C79.2382 67.8268 76.8664 62.7136 76.0022 56.0358C75.7499 54.0956 76.2987 52.2619 77.5351 50.8662C78.7714 49.4706 80.5314 48.707 82.4995 48.707H108.23C110.192 48.707 111.958 49.4768 113.194 50.8662C114.431 52.2619 114.98 54.0956 114.727 56.0358C113.869 62.7136 111.491 67.8268 107.669 71.244C104.395 74.1792 100.137 75.7251 95.3679 75.7251ZM82.4995 51.4858C81.3514 51.4858 80.3358 51.9177 79.6356 52.7062C78.9354 53.4948 78.6326 54.5525 78.7777 55.6915C80.1907 66.6627 86.2401 72.9525 95.3679 72.9525C104.496 72.9525 110.545 66.6627 111.958 55.6915C112.103 54.5588 111.8 53.4948 111.1 52.7062C110.4 51.9177 109.384 51.4858 108.236 51.4858H82.4995Z" fill="#232333"/>
<path d="M77.8002 59.7219C77.3901 59.7219 76.9864 59.5466 76.7089 59.2024C74.7912 56.8242 72.9304 55.6163 71.1767 55.6163C69.4231 55.6163 67.5622 56.8242 65.6446 59.2024C65.1652 59.8032 64.282 59.8971 63.6765 59.4215C63.0709 58.9458 62.9763 58.0696 63.4557 57.4688C65.9284 54.3959 68.5273 52.8438 71.1704 52.8438C73.8135 52.8438 76.4061 54.4021 78.8852 57.4688C79.3646 58.0696 79.2699 58.9395 78.6644 59.4215C78.412 59.628 78.1093 59.7219 77.8002 59.7219Z" fill="#232333"/>
<path d="M119.774 57.6694H113.289C112.519 57.6694 111.889 57.0498 111.889 56.28C111.889 55.5102 112.513 54.8906 113.289 54.8906H119.774C120.543 54.8906 121.174 55.5102 121.174 56.28C121.174 57.0498 120.543 57.6694 119.774 57.6694Z" fill="#232333"/>
<path d="M28.711 57.6694H22.2263C21.4567 57.6694 20.8259 57.0498 20.8259 56.28C20.8259 55.5102 21.4504 54.8906 22.2263 54.8906H28.711C29.4806 54.8906 30.1114 55.5102 30.1114 56.28C30.1114 57.0498 29.4869 57.6694 28.711 57.6694Z" fill="#232333"/>
</g>
<defs>
<filter id="filter0_d_587_1500" x="0.488037" y="0" width="141.024" height="125.282" filterUnits="userSpaceOnUse" color-interpolation-filters="sRGB">
<feFlood flood-opacity="0" result="BackgroundImageFix"/>
<feColorMatrix in="SourceAlpha" type="matrix" values="0 0 0 0 0 0 0 0 0 0 0 0 0 0 0 0 0 0 127 0" result="hardAlpha"/>
<feOffset dy="4"/>
<feGaussianBlur stdDeviation="2"/>
<feComposite in2="hardAlpha" operator="out"/>
<feColorMatrix type="matrix" values="0 0 0 0 0 0 0 0 0 0 0 0 0 0 0 0 0 0 0.25 0"/>
<feBlend mode="normal" in2="BackgroundImageFix" result="effect1_dropShadow_587_1500"/>
<feBlend mode="normal" in="SourceGraphic" in2="effect1_dropShadow_587_1500" result="shape"/>
</filter>
</defs>
</svg>
