<svg width="43" height="42" viewBox="0 0 43 42" fill="none" xmlns="http://www.w3.org/2000/svg">
<path d="M20.6279 11.8211C6.71102 -2.83552 -16.3419 20.8662 19.9443 41.8154C20.3708 42.0615 20.885 42.0615 21.3115 41.8154C57.5976 20.8662 34.5448 -2.83552 20.6279 11.8211Z" fill="#FF889E"/>
<path d="M12.2925 7.35202C0.155075 5.95079 -9.54211 24.7919 19.9444 41.8154C20.3709 42.0615 20.8852 42.0615 21.3116 41.8154C21.5082 41.7018 21.7024 41.5883 21.8956 41.4746C-4.82019 25.7518 1.58823 8.60828 12.2925 7.35202Z" fill="#FF748F"/>
<path d="M10.8061 29.0489C12.7058 29.0489 14.2458 27.7273 14.2458 26.097C14.2458 24.4668 12.7058 23.1452 10.8061 23.1452C8.90646 23.1452 7.36646 24.4668 7.36646 26.097C7.36646 27.7273 8.90646 29.0489 10.8061 29.0489Z" fill="#FFC9D3"/>
<path d="M29.4506 29.0489C31.3502 29.0489 32.8902 27.7273 32.8902 26.097C32.8902 24.4668 31.3502 23.1452 29.4506 23.1452C27.5509 23.1452 26.0109 24.4668 26.0109 26.097C26.0109 27.7273 27.5509 29.0489 29.4506 29.0489Z" fill="#FFC9D3"/>
<path d="M20.1283 26.0308C21.1367 26.0308 21.9542 25.0451 21.9542 23.829C21.9542 22.613 21.1367 21.6273 20.1283 21.6273C19.12 21.6273 18.3025 22.613 18.3025 23.829C18.3025 25.0451 19.12 26.0308 20.1283 26.0308Z" fill="#423E4F"/>
<path d="M11.3812 23.218C11.0311 23.218 10.7474 22.9122 10.7474 22.535V21.0972C10.7474 20.72 11.0311 20.4142 11.3812 20.4142C11.7314 20.4142 12.015 20.72 12.015 21.0972V22.535C12.015 22.9122 11.7313 23.218 11.3812 23.218Z" fill="#423E4F"/>
<path d="M28.8755 23.218C28.5254 23.218 28.2417 22.9122 28.2417 22.535V21.0972C28.2417 20.72 28.5254 20.4142 28.8755 20.4142C29.2256 20.4142 29.5093 20.72 29.5093 21.0972V22.535C29.5093 22.9122 29.2256 23.218 28.8755 23.218Z" fill="#423E4F"/>
<path d="M33.6514 19.0708C38.5384 19.0708 42.5 14.8017 42.5 9.53542C42.5 4.26915 38.5384 0 33.6514 0C28.7644 0 24.8027 4.26915 24.8027 9.53542C24.8027 14.8017 28.7644 19.0708 33.6514 19.0708Z" fill="#B08BD7"/>
<path d="M33.6514 15.5119C36.7144 15.5119 39.1974 12.8361 39.1974 9.53542C39.1974 6.23471 36.7144 3.55895 33.6514 3.55895C30.5884 3.55895 28.1053 6.23471 28.1053 9.53542C28.1053 12.8361 30.5884 15.5119 33.6514 15.5119Z" fill="#EAEAEA"/>
<path d="M29.7955 9.53542C29.7955 6.54427 31.8346 4.06646 34.4964 3.62789C34.2209 3.58253 33.9387 3.55895 33.6514 3.55895C30.5884 3.55895 28.1053 6.23465 28.1053 9.53542C28.1053 12.8361 30.5884 15.5119 33.6514 15.5119C33.9387 15.5119 34.2209 15.4883 34.4964 15.443C31.8345 15.0044 29.7955 12.5265 29.7955 9.53542Z" fill="#DCDCDA"/>
<path d="M33.6514 3.55895C33.4369 3.55895 33.2256 3.57343 33.0176 3.59893V5.73715C33.0176 6.11435 33.3013 6.42015 33.6514 6.42015C34.0015 6.42015 34.2852 6.11435 34.2852 5.73715V3.59893C34.077 3.57343 33.8658 3.55895 33.6514 3.55895Z" fill="#81DDFD"/>
<path d="M37.0982 4.85517L35.6955 6.36668C35.448 6.63341 35.448 7.06588 35.6956 7.33262C35.9431 7.59944 36.3444 7.59926 36.5919 7.33262L37.9945 5.8211C37.7308 5.4634 37.43 5.13929 37.0982 4.85517Z" fill="#81DDFD"/>
<path d="M39.1974 9.53541C39.1974 9.30428 39.1839 9.07671 39.1603 8.85241H37.176C36.8259 8.85241 36.5422 9.15821 36.5422 9.53541C36.5422 9.9126 36.8259 10.2184 37.176 10.2184H39.1603C39.1839 9.99411 39.1974 9.76653 39.1974 9.53541Z" fill="#81DDFD"/>
<path d="M37.9945 13.2498L36.5919 11.7382C36.3444 11.4716 35.943 11.4715 35.6956 11.7382C35.448 12.0049 35.448 12.4374 35.6955 12.7041L37.0982 14.2157C37.43 13.9315 37.7308 13.6074 37.9945 13.2498Z" fill="#81DDFD"/>
<path d="M33.6513 12.6507C33.3011 12.6507 33.0175 12.9565 33.0175 13.3337V15.4719C33.2256 15.4975 33.4369 15.5119 33.6513 15.5119C33.8657 15.5119 34.0769 15.4974 34.2851 15.4719V13.3337C34.2851 12.9565 34.0014 12.6507 33.6513 12.6507Z" fill="#81DDFD"/>
<path d="M30.7108 11.7382L29.3081 13.2498C29.5719 13.6074 29.8726 13.9315 30.2045 14.2157L31.6072 12.7041C31.8547 12.4374 31.8547 12.0049 31.6071 11.7383C31.3597 11.4715 30.9584 11.4715 30.7108 11.7382Z" fill="#81DDFD"/>
<path d="M30.1267 8.85241H28.1424C28.1188 9.07671 28.1053 9.30428 28.1053 9.53541C28.1053 9.76653 28.1188 9.99411 28.1424 10.2184H30.1267C30.4768 10.2184 30.7605 9.9126 30.7605 9.53541C30.7605 9.15821 30.4768 8.85241 30.1267 8.85241Z" fill="#81DDFD"/>
<path d="M29.3081 5.82111L30.7108 7.33262C30.9584 7.59944 31.3597 7.59935 31.607 7.33262C31.8546 7.06589 31.8546 6.63342 31.6071 6.36668L30.2044 4.85508C29.8726 5.1393 29.5719 5.4634 29.3081 5.82111Z" fill="#81DDFD"/>
</svg>
