<svg width="40" height="40" viewBox="0 0 40 40" fill="none" xmlns="http://www.w3.org/2000/svg">
<g clip-path="url(#clip0_45_1064)">
<path d="M33.0367 12.6053H27.5021V3.54858C27.5021 2.02026 28.7411 0.78125 30.2694 0.78125C31.7977 0.78125 33.0367 2.02026 33.0367 3.54858V12.6053Z" fill="#9AD880"/>
<path d="M33.0367 5.18103L27.6937 2.53455C27.5701 2.84857 27.5021 3.19067 27.5021 3.54864V12.6053H33.0367V5.18103Z" fill="#8DC971"/>
<path d="M30.5553 39.2593H9.44452C7.17096 39.2593 5.32739 37.4161 5.32739 35.1422V17.0462L19.9999 3.8562L34.6725 17.0462V35.1422C34.6725 37.4161 32.8292 39.2593 30.5553 39.2593Z" fill="#CCF8FF"/>
<path d="M19.9999 3.8562L5.32739 17.0462V35.1422C5.32739 37.4161 7.17096 39.2593 9.44452 39.2593H17.9995V20.8258C17.9995 18.1 19.0722 15.4837 20.9859 13.5425L23.7997 10.6879V7.27203L19.9999 3.8562Z" fill="#ABEBF4"/>
<path d="M34.6216 20.4944L20 7.2446L5.37875 20.4944C4.06161 21.6879 2.027 21.5879 0.833463 20.271C-0.360078 18.9539 -0.259675 16.919 1.05716 15.7257L15.7169 2.44083C18.1586 0.228005 21.8414 0.228005 24.2835 2.44114L38.9429 15.7257C40.2597 16.919 40.3598 18.9539 39.1666 20.271C38.5315 20.9717 36.4429 21.9898 34.6216 20.4944Z" fill="#18B279"/>
<path d="M23.0075 23.6401H16.9925C15.3076 23.6401 13.9417 25.0061 13.9417 26.691V39.2593H26.0583V26.691C26.0583 25.0061 24.6924 23.6401 23.0075 23.6401Z" fill="#B2E59C"/>
<path d="M17.9996 23.6401H16.9925C15.3076 23.6401 13.9417 25.0061 13.9417 26.691V39.2593H17.9996V23.6401Z" fill="#9AD880"/>
<path d="M6.54421 14.6695C5.14254 12.7225 6.64065 10.6659 6.64065 10.6659L1.05716 15.7257C-0.259675 16.9189 -0.359772 18.9539 0.833464 20.271C2.02701 21.5878 4.06161 21.6879 5.37875 20.4944L10.4932 15.8597C10.4932 15.8597 7.94619 16.6165 6.54421 14.6695Z" fill="#18B279"/>
</g>
<defs>
<clipPath id="clip0_45_1064">
<rect width="40" height="40" fill="white"/>
</clipPath>
</defs>
</svg>
