<svg width="40" height="40" viewBox="0 0 40 40" fill="none" xmlns="http://www.w3.org/2000/svg">
<g clip-path="url(#clip0_56_4545)">
<path d="M38.7829 15.3635L27.8689 5.47306V3.97648C27.8689 2.81834 28.8113 1.87595 29.9694 1.87595C31.1276 1.87595 32.0699 2.81834 32.0699 3.97648V7.77317C32.0699 8.09696 32.3324 8.3591 32.6559 8.3591C32.9794 8.3591 33.2418 8.09696 33.2418 7.77317V3.97648C33.2418 2.17197 31.7739 0.704079 29.9694 0.704079C26.5164 0.704079 26.697 4.41105 26.697 4.41105L24.5516 2.46677C21.9567 0.115395 18.0431 0.11509 15.4482 2.46677L1.21699 15.3635C-0.29882 16.7371 -0.414482 19.0879 0.959113 20.6037C1.69031 21.4106 3.05384 22.2849 5.17023 21.5219V34.6469C5.17023 37.1741 7.22589 39.2298 9.75305 39.2298H30.2468C32.774 39.2298 34.8296 37.1741 34.8296 34.6469V21.4872C36.5713 22.2022 38.3495 21.3666 39.0408 20.6037C40.4144 19.0879 40.2987 16.7371 38.7829 15.3635ZM38.1725 19.8166C37.7581 20.2738 36.0711 21.1988 34.5766 19.9829L20.3933 7.13016C20.1702 6.92783 19.8296 6.92783 19.6066 7.13016L13.692 12.49C13.4521 12.7072 13.4338 13.078 13.6511 13.3179C13.8683 13.5575 14.2391 13.5758 14.4787 13.3585L19.9999 8.35514L33.6578 20.7318V34.6469C33.6578 36.5277 32.1276 38.0579 30.2471 38.0579H14.7045V26.4426C14.7045 25.1328 15.7705 24.0671 17.0803 24.0671H22.9196C24.2297 24.0671 25.2953 25.1328 25.2953 26.4426V36.1789C25.2953 36.5024 25.5575 36.7649 25.8813 36.7649C26.2048 36.7649 26.4672 36.5024 26.4672 36.1789V26.4426C26.4672 24.4867 24.8757 22.8952 22.9196 22.8952H17.0803C15.1241 22.8952 13.5327 24.4867 13.5327 26.4426V38.0579H9.75305C7.87226 38.0579 6.34211 36.5277 6.34211 34.6472V20.7318L12.4984 15.1529C12.7383 14.9356 12.7566 14.5652 12.5393 14.3253C12.322 14.0854 11.9512 14.0671 11.7114 14.2844L5.41224 19.993C4.37525 20.9326 2.76728 20.8536 1.82764 19.8166C0.887702 18.7796 0.967048 17.1717 2.00373 16.2317L16.2353 3.3353C18.3816 1.39042 21.6186 1.39042 23.7646 3.3353L37.9961 16.232C39.0328 17.1717 39.1122 18.7796 38.1725 19.8166Z" fill="#ABABA9"/>
</g>
<defs>
<clipPath id="clip0_56_4545">
<rect width="40" height="40" fill="white"/>
</clipPath>
</defs>
</svg>
