<svg width="40" height="40" viewBox="0 0 40 40" fill="none" xmlns="http://www.w3.org/2000/svg">
<path d="M15.3037 15.4242C14.9801 15.4242 14.7178 15.1618 14.7178 14.8382V13.9497C14.7178 13.6261 14.9801 13.3638 15.3037 13.3638C15.6273 13.3638 15.8896 13.6261 15.8896 13.9497V14.8382C15.8896 15.1618 15.6273 15.4242 15.3037 15.4242Z" fill="#ABABA9"/>
<path d="M24.844 15.4242C24.5204 15.4242 24.2581 15.1618 24.2581 14.8382V13.9497C24.2581 13.6261 24.5204 13.3638 24.844 13.3638C25.1676 13.3638 25.4299 13.6261 25.4299 13.9497V14.8382C25.4299 15.1618 25.1676 15.4242 24.844 15.4242Z" fill="#ABABA9"/>
<path d="M20.0738 15.9529C19.426 15.9529 18.8088 15.6797 18.3805 15.2034C18.1641 14.9628 18.1838 14.5923 18.4244 14.3759C18.6651 14.1595 19.0355 14.1792 19.2519 14.4198C19.4583 14.6493 19.7578 14.781 20.0738 14.781C20.3899 14.781 20.6894 14.6493 20.8958 14.4198C21.1121 14.1791 21.4826 14.1595 21.7233 14.3759C21.9639 14.5923 21.9836 14.9628 21.7672 15.2034C21.3388 15.6798 20.7217 15.9529 20.0738 15.9529Z" fill="#ABABA9"/>
<path d="M37.3699 9.03063H35.7302V7.72492C36.751 7.13359 37.4396 6.02992 37.4396 4.76773V4.56742C37.4396 2.68391 35.9072 1.15148 34.0236 1.15148H24.3154C23.8575 0.458438 23.0718 0 22.1807 0H17.7072C16.8161 0 16.0304 0.458438 15.5725 1.15148H5.97661C4.09309 1.15148 2.56067 2.68383 2.56067 4.56742V4.76773C2.56067 6.02992 3.24934 7.13352 4.27004 7.72492V9.0307H2.63036C1.18004 9.03063 0.00012207 10.2105 0.00012207 11.6609V14.086C0.00012207 15.332 0.338169 16.5448 0.977622 17.5934C2.12747 19.4786 4.39286 22.0043 8.66356 23.3958C9.11215 23.8638 9.59036 24.3059 10.0963 24.7178C11.7256 26.0443 13.5995 27.0229 15.5895 27.6095V29.7036C13.6176 29.9487 12.0862 31.6337 12.0862 33.6709C12.0862 33.8316 12.1057 33.9914 12.1416 34.1473C10.8625 34.8152 9.98684 36.1539 9.98684 37.6941V38.3415C9.98684 39.256 10.7308 40 11.6454 40H28.3548C29.2693 40 30.0133 39.256 30.0133 38.3415V37.6941C30.0133 36.1541 29.1378 34.8155 27.8588 34.1475C27.8947 33.9913 27.9139 33.8313 27.9139 33.6709C27.9139 31.5966 26.3262 29.8865 24.3023 29.6909V27.6505C26.845 26.9259 29.1802 25.5587 31.1099 23.6291C31.187 23.552 31.2626 23.4738 31.3379 23.3955C35.6077 22.0038 37.8728 19.4785 39.0225 17.5934C39.6621 16.5448 40.0001 15.332 40.0001 14.086V11.6609C40.0001 10.2105 38.8202 9.03063 37.3699 9.03063ZM34.0236 2.32336C35.261 2.32336 36.2677 3.33 36.2677 4.56742V4.76773C36.2677 6.00508 35.261 7.0118 34.0236 7.0118H24.738V2.55734C24.738 2.47844 24.7339 2.40047 24.7268 2.32336H34.0236ZM25.0224 18.6539L25.4835 21.3423C25.5729 21.8631 25.3709 22.3596 24.9433 22.6702C24.5157 22.9809 23.9812 23.0195 23.5134 22.7736L21.0991 21.5044C20.7305 21.3106 20.3263 21.2137 19.922 21.2137C19.5178 21.2137 19.1133 21.3106 18.7448 21.5043L16.3306 22.7736C15.8629 23.0195 15.3283 22.9809 14.9007 22.6702C14.4731 22.3596 14.2711 21.8631 14.3605 21.3423L14.8216 18.6539C14.9624 17.8331 14.6904 16.9961 14.0941 16.4148L12.1409 14.5109C11.7625 14.142 11.634 13.6217 11.7973 13.1191C11.9607 12.6165 12.3704 12.2711 12.8934 12.195L15.5926 11.8027C16.4167 11.683 17.1288 11.1657 17.4973 10.419L18.7044 7.97305C18.9383 7.49914 19.3935 7.21617 19.922 7.21617C20.4505 7.21617 20.9057 7.49914 21.1395 7.97305L22.3467 10.419C22.7153 11.1658 23.4273 11.683 24.2513 11.8027L26.9505 12.195C27.4736 12.271 27.8832 12.6165 28.0466 13.1191C28.2099 13.6218 28.0814 14.1421 27.703 14.5109L25.7499 16.4148C25.1536 16.9961 24.8816 17.8331 25.0224 18.6539ZM17.7072 1.17188H22.1807C22.9446 1.17188 23.5661 1.79344 23.5661 2.55734V10.1609C23.501 10.0815 23.444 9.99445 23.3975 9.90031L22.1904 7.45438C21.7611 6.58461 20.8919 6.0443 19.922 6.0443C18.9521 6.0443 18.0828 6.58469 17.6536 7.45438L16.4464 9.90031C16.4107 9.97266 16.3689 10.0408 16.3218 10.1046V2.55734C16.3218 1.79344 16.9433 1.17188 17.7072 1.17188ZM3.73247 4.56742C3.73247 3.33008 4.73918 2.32336 5.97653 2.32336H15.1611C15.154 2.40047 15.1499 2.47844 15.1499 2.55734V7.01172H5.97661C4.73926 7.01172 3.73254 6.00508 3.73254 4.76766V4.56742H3.73247ZM26.7421 33.6708C26.7421 33.7013 26.7395 33.7314 26.7367 33.7614C26.5022 33.7184 26.2609 33.6948 26.0142 33.6948H23.7165C23.3929 33.6948 23.1306 33.9571 23.1306 34.2807C23.1306 34.6043 23.3929 34.8666 23.7165 34.8666H26.0143C27.5732 34.8666 28.8415 36.1349 28.8415 37.6939V38.3413C28.8415 38.6097 28.6232 38.828 28.3549 38.828H11.6454C11.3771 38.828 11.1588 38.6097 11.1588 38.3413V37.6939C11.1588 36.1349 12.4271 34.8666 13.9861 34.8666H21.3728C21.6964 34.8666 21.9587 34.6043 21.9587 34.2807C21.9587 33.9571 21.6964 33.6948 21.3728 33.6948H13.9861C13.7395 33.6948 13.4984 33.7184 13.264 33.7613C13.2611 33.7313 13.2582 33.7011 13.2582 33.6708C13.2582 32.1119 14.5265 30.8436 16.0854 30.8436H23.915C25.4738 30.8436 26.7421 32.1119 26.7421 33.6708ZM23.1306 29.6717H16.7614V27.9066C17.8222 28.1323 18.9077 28.2491 20.0001 28.2491C21.0631 28.2491 22.1104 28.1428 23.1306 27.936V29.6717ZM20.0001 27.0773C13.2313 27.0773 7.2527 22.274 5.7845 15.656C5.7145 15.3402 5.40122 15.1408 5.08559 15.2109C4.76965 15.281 4.57036 15.5939 4.64051 15.9098C5.0877 17.9255 5.93981 19.8348 7.12379 21.5222C4.40004 20.2113 2.84106 18.3979 1.97809 16.9831C1.45075 16.1185 1.172 15.1167 1.172 14.086V11.6609C1.172 10.8567 1.82622 10.2025 2.63036 10.2025H4.27004V12.5191C4.27004 12.8237 4.27895 13.1316 4.29661 13.4342C4.31473 13.7457 4.57301 13.9861 4.88098 13.9861C4.89239 13.9861 4.90395 13.9858 4.91551 13.9851C5.23856 13.9663 5.4852 13.6891 5.46645 13.3661C5.4502 13.086 5.44192 12.8009 5.44192 12.519V9.67852C5.44411 9.65812 5.44528 9.63742 5.44528 9.61641C5.44528 9.59539 5.44411 9.57477 5.44192 9.5543V8.14133C5.61622 8.16883 5.79473 8.18344 5.97661 8.18344H15.15V10.6827L12.7248 11.0352C11.765 11.1746 10.9825 11.8343 10.6828 12.7568C10.3831 13.6793 10.6283 14.6729 11.3229 15.3499L13.276 17.2538C13.5961 17.5659 13.7421 18.0151 13.6665 18.4556L13.2054 21.144C13.0415 22.0999 13.4271 23.048 14.2118 23.6181C14.9964 24.1882 16.0172 24.262 16.8758 23.8107L19.29 22.5414C19.6856 22.3334 20.1581 22.3334 20.5536 22.5414L22.9679 23.8107C23.3414 24.007 23.7454 24.104 24.1475 24.104C24.6698 24.104 25.1886 23.9403 25.632 23.6181C26.4167 23.048 26.8023 22.0999 26.6383 21.144L26.1772 18.4556C26.1017 18.0151 26.2476 17.5659 26.5678 17.2538L28.5209 15.3499C29.2155 14.6729 29.4607 13.6793 29.1611 12.7568C28.8614 11.8343 28.0789 11.1746 27.1189 11.0352L24.7379 10.6891V8.18359H34.0235C34.2054 8.18359 34.3839 8.16898 34.5582 8.14148V9.55445C34.556 9.57484 34.5548 9.59555 34.5548 9.61656C34.5548 9.63758 34.556 9.6582 34.5582 9.67867V12.5191C34.5582 16.3339 33.0825 19.81 30.6731 22.4085C30.6093 22.454 30.5564 22.5113 30.516 22.5764C27.864 25.3483 24.1303 27.0773 20.0001 27.0773ZM38.8282 14.086C38.8282 15.1167 38.5495 16.1185 38.0222 16.9831C37.1604 18.396 35.6046 20.2066 32.8875 21.517C34.7349 18.8916 35.7302 15.778 35.7302 12.5191V10.2026H37.3699C38.174 10.2026 38.8282 10.8568 38.8282 11.6609V14.086Z" fill="#ABABA9"/>
</svg>
