<svg width="40" height="40" viewBox="0 0 40 40" fill="none" xmlns="http://www.w3.org/2000/svg">
<g clip-path="url(#clip0_259_1534)">
<path d="M4.40227 9.30322H2.10594C0.942891 9.30322 0 10.2461 0 11.4092V13.9076C0 15.0705 0.313203 16.2137 0.91875 17.2064C2.01391 19.0021 4.27555 21.5877 8.6543 22.9725H31.3458C35.7245 21.5877 37.9861 19.0021 39.0813 17.2064C39.6869 16.2136 40.0001 15.0704 40.0001 13.9076V11.4092C40.0001 10.246 39.0572 9.30322 37.8941 9.30322H35.5979H4.40227Z" fill="#FFC978"/>
<path d="M16.0599 26.6204H23.8285V32.7137H16.0599V26.6204Z" fill="#FCE3AB"/>
<path d="M16.0599 26.6204H20.0034V32.7137H16.0599V26.6204Z" fill="#FFCF71"/>
<path d="M4.3988 5.94806V12.2934C4.3988 20.874 11.4193 27.8945 20 27.8945C28.5806 27.8945 35.6011 20.874 35.6011 12.2934V5.94806H4.3988Z" fill="#FFE8B7"/>
<path d="M12.4537 12.3176V5.97229H35.6012V5.948H4.3988V12.2933C4.3988 20.874 11.4193 27.8945 20 27.8945C21.3753 27.8945 22.7102 27.7133 23.9829 27.375C17.3604 25.5725 12.4537 19.4908 12.4537 12.3176Z" fill="#F7DA8C"/>
<path d="M2.63782 4.308V4.10167C2.63782 2.49823 3.94977 1.18628 5.55321 1.18628H34.4469C36.0503 1.18628 37.3623 2.49823 37.3623 4.10167V4.308C37.3623 5.91144 36.0503 7.22339 34.4469 7.22339H5.55321C3.94969 7.22339 2.63782 5.91151 2.63782 4.308Z" fill="#F7DA8C"/>
<path d="M14.0455 35.6779H25.9545C26.8316 35.6779 27.5491 34.9604 27.5491 34.0834C27.5491 32.1495 25.9668 30.5673 24.0329 30.5673H15.967C14.0331 30.5673 12.4509 32.1496 12.4509 34.0834C12.4509 34.9604 13.1685 35.6779 14.0455 35.6779Z" fill="#F0EBFF"/>
<path d="M17.3662 34.0834C17.3662 34.9604 18.0838 35.6779 18.9608 35.6779H14.0455C13.1684 35.6779 12.4509 34.9603 12.4509 34.0834C12.4509 32.1495 14.0332 30.5672 15.9671 30.5672H20.8824C18.9485 30.5673 17.3662 32.1495 17.3662 34.0834Z" fill="#D3D4FF"/>
<path d="M10.9891 4.308V4.10167C10.9891 2.49823 12.3011 1.18628 13.9045 1.18628H5.55321C3.94977 1.18628 2.63782 2.49823 2.63782 4.10167V4.308C2.63782 5.91144 3.94977 7.22339 5.55321 7.22339H13.9045C12.3011 7.22339 10.9891 5.91151 10.9891 4.308Z" fill="#FFC978"/>
<path d="M28.6068 40H11.3931C10.7854 40 10.2881 39.5027 10.2881 38.895V38.228C10.2881 36.2941 11.8704 34.7118 13.8043 34.7118H26.1955C28.1295 34.7118 29.7118 36.2941 29.7118 38.228V38.895C29.7118 39.5027 29.2146 40 28.6068 40Z" fill="#676FB0"/>
<path d="M13.975 38.895V38.228C13.975 36.2941 15.5574 34.7118 17.4913 34.7118H13.8043C11.8704 34.7118 10.2881 36.2941 10.2881 38.228V38.895C10.2881 39.5027 10.7854 40 11.3931 40H15.08C14.4723 40 13.975 39.5027 13.975 38.895Z" fill="#5159A2"/>
<path d="M24.2773 16.9212H15.6071V2.03094C15.6071 0.909297 16.5164 0 17.6379 0H22.2464C23.368 0 24.2773 0.909297 24.2773 2.03094V16.9212Z" fill="#A8E0F7"/>
<path d="M21.6084 0H17.6379C16.5162 0 15.6069 0.909297 15.6069 2.03094V16.9213H19.5775V2.03094C19.5776 0.909297 20.4868 0 21.6084 0Z" fill="#7CC7EE"/>
<path d="M21.715 7.3429L22.9586 9.86266C23.2503 10.4537 23.8141 10.8633 24.4663 10.9581L27.247 11.3621C28.8894 11.6008 29.5452 13.6191 28.3567 14.7776L26.3446 16.7389C25.8727 17.1989 25.6574 17.8617 25.7688 18.5113L26.2438 21.2807C26.5243 22.9165 24.8074 24.1638 23.3385 23.3916L20.8514 22.084C20.268 21.7773 19.5711 21.7773 18.9878 22.084L16.5006 23.3916C15.0317 24.1638 13.3148 22.9165 13.5953 21.2807L14.0703 18.5113C14.1817 17.8617 13.9664 17.1989 13.4945 16.7389L11.4824 14.7776C10.2939 13.6191 10.9497 11.6008 12.5921 11.3621L15.3728 10.9581C16.025 10.8633 16.5889 10.4537 16.8805 9.86266L18.1241 7.3429C18.8583 5.85461 20.9805 5.85461 21.715 7.3429Z" fill="#F1E9FE"/>
<path d="M16.9202 11.1113C16.9202 10.5872 16.9569 10.0718 17.0264 9.56671L16.8804 9.86265C16.5887 10.4537 16.0249 10.8633 15.3727 10.958L12.592 11.3621C10.9496 11.6008 10.2938 13.6191 11.4822 14.7776L13.4944 16.7389C13.9663 17.1989 14.1816 17.8617 14.0702 18.5112L13.5952 21.2807C13.3147 22.9165 15.0315 24.1638 16.5005 23.3916L18.9876 22.084C19.571 21.7773 20.2679 21.7773 20.8512 22.084L23.3383 23.3916C24.5235 24.0146 25.8694 23.3228 26.1981 22.1733C20.9265 21.2486 16.9202 16.648 16.9202 11.1113Z" fill="#D6D2FF"/>
<path d="M15.1617 15.2685C14.8381 15.2685 14.5758 15.0061 14.5758 14.6825V13.7672C14.5758 13.4436 14.8381 13.1813 15.1617 13.1813C15.4853 13.1813 15.7477 13.4436 15.7477 13.7672V14.6825C15.7477 15.0061 15.4853 15.2685 15.1617 15.2685Z" fill="#495560"/>
<path d="M24.9901 15.2685C24.6665 15.2685 24.4042 15.0061 24.4042 14.6825V13.7672C24.4042 13.4436 24.6665 13.1813 24.9901 13.1813C25.3137 13.1813 25.576 13.4436 25.576 13.7672V14.6825C25.576 15.0061 25.3137 15.2685 24.9901 15.2685Z" fill="#495560"/>
<path d="M20.0759 15.8133C19.4135 15.8133 18.7824 15.534 18.3446 15.047C18.1282 14.8064 18.1479 14.4359 18.3886 14.2196C18.6292 14.0032 18.9997 14.0229 19.216 14.2635C19.4319 14.5037 19.7453 14.6414 20.0758 14.6414C20.4064 14.6414 20.7197 14.5037 20.9357 14.2635C21.152 14.0228 21.5225 14.0032 21.7631 14.2196C22.0038 14.4359 22.0235 14.8064 21.8071 15.047C21.3694 15.534 20.7383 15.8133 20.0759 15.8133Z" fill="#495560"/>
</g>
<defs>
<clipPath id="clip0_259_1534">
<rect width="40" height="40" fill="white"/>
</clipPath>
</defs>
</svg>
