<svg width="44" height="44" viewBox="0 0 44 44" fill="none" xmlns="http://www.w3.org/2000/svg">
<g clip-path="url(#clip0_836_4090)">
<path d="M22 40.1845C32.3154 40.1845 40.6776 31.8082 40.6776 21.4756C40.6776 11.1429 32.3154 2.76666 22 2.76666C11.6847 2.76666 3.32251 11.1429 3.32251 21.4756C3.32251 31.8082 11.6847 40.1845 22 40.1845Z" fill="#DED2CA"/>
<path d="M22 38.1812C31.2109 38.1812 38.6778 30.7018 38.6778 21.4756C38.6778 12.2493 31.2109 4.76996 22 4.76996C12.7892 4.76996 5.32227 12.2493 5.32227 21.4756C5.32227 30.7018 12.7892 38.1812 22 38.1812Z" fill="#F7E9E1"/>
<path d="M22 32.3516C27.9968 32.3516 32.8581 27.4823 32.8581 21.4756C32.8581 15.4689 27.9968 10.5995 22 10.5995C16.0033 10.5995 11.1419 15.4689 11.1419 21.4756C11.1419 27.4823 16.0033 32.3516 22 32.3516Z" fill="#DED2CA"/>
<path d="M15.0103 42.6235C13.9968 42.6235 13.1751 41.8018 13.1751 40.7883V11.3477H16.8454V40.7883C16.8454 41.8018 16.0238 42.6235 15.0103 42.6235Z" fill="#FFA163"/>
<path d="M15.0103 40.7853V11.3477H13.1751V40.7853C13.1751 41.8005 13.9968 42.6235 15.0103 42.6235C15.345 42.6235 15.6578 42.5323 15.9279 42.3755C15.3799 42.0575 15.0103 41.4652 15.0103 40.7853Z" fill="#E88441"/>
<path d="M28.99 42.6235C27.9765 42.6235 27.1548 41.8018 27.1548 40.7883V11.3477H30.825V40.7883C30.8251 41.8018 30.0035 42.6235 28.99 42.6235Z" fill="#FFDC7B"/>
<path d="M28.9796 40.7853V11.3477H27.1548V40.7853C27.1548 41.8005 27.9765 42.6235 28.99 42.6235C29.3225 42.6235 29.6335 42.5336 29.9024 42.3787C29.3515 42.0614 28.9796 41.4673 28.9796 40.7853Z" fill="#F0AE59"/>
<path d="M22.0777 43.3086C22.0777 43.3086 21.3121 36.6052 25.8939 32.8997C29.8998 29.6599 36.309 30.2101 37.8564 30.3995C38.0513 30.4234 38.1936 30.5952 38.1795 30.7914C38.0521 32.5554 37.2498 40.5631 33.0934 42.5398C28.4145 44.7652 22.0777 43.3086 22.0777 43.3086Z" fill="#A9CF54"/>
<path d="M27.7341 32.5835C28.8002 31.655 30.0364 31.0158 31.3059 30.5811C29.4252 30.9347 27.4731 31.6228 25.894 32.8997C21.3122 36.6053 22.0778 43.3086 22.0778 43.3086C22.0778 43.3086 22.7858 43.4711 23.9024 43.6047C23.8205 42.4443 23.5896 36.1933 27.7341 32.5835Z" fill="#8AA848"/>
<path d="M22.139 43.3086C22.139 43.3086 22.9045 36.6052 18.3228 32.8997C14.3168 29.6599 7.9077 30.2101 6.36031 30.3995C6.16541 30.4234 6.02309 30.5952 6.03719 30.7914C6.16455 32.5554 6.96686 40.5631 11.1233 42.5398C15.8023 44.7652 22.139 43.3086 22.139 43.3086Z" fill="#A9CF54"/>
<path d="M12.9496 42.8524C8.65157 40.6927 7.94018 31.7205 7.85287 30.2739C7.19322 30.3074 6.6745 30.3612 6.35876 30.3998C6.16437 30.4236 6.02301 30.5958 6.0371 30.7915C6.16455 32.5556 6.96686 40.5632 11.1232 42.5398C12.3379 43.1175 13.6643 43.4467 14.9626 43.618C14.2741 43.4275 13.5961 43.1772 12.9496 42.8524Z" fill="#8AA848"/>
<path d="M19.8348 8.62837C19.8348 12.319 17.6748 14.0211 15.0103 14.0211C12.3458 14.0211 10.1859 12.319 10.1859 8.62837C10.1859 4.93779 12.3457 0.656311 15.0103 0.656311C17.6749 0.656311 19.8348 4.93779 19.8348 8.62837Z" fill="#E88441"/>
<path d="M15.0103 12.1779C13.058 12.1779 12.0261 10.9506 12.0261 8.62845C12.0261 7.12454 12.4638 5.45856 13.197 4.17225C13.7762 3.15604 14.4879 2.49948 15.0103 2.49948C15.5327 2.49948 16.2445 3.15604 16.8238 4.17225C17.557 5.45856 17.9947 7.12446 17.9947 8.62845C17.9947 10.9506 16.9626 12.1779 15.0103 12.1779Z" fill="#FFA163"/>
<path d="M32.1617 0C31.7203 0 31.3626 0.358359 31.3626 0.80042V5.97479C31.3626 6.41007 31.0103 6.76292 30.5758 6.76292C30.1413 6.76292 29.789 6.41015 29.789 5.97479V0.80042C29.789 0.358359 29.4313 0 28.9899 0C28.5485 0 28.1908 0.358359 28.1908 0.80042V5.97479C28.1908 6.41007 27.8385 6.76292 27.404 6.76292C26.9695 6.76292 26.6173 6.41015 26.6173 5.97479V0.80042C26.6173 0.358359 26.2595 0 25.8181 0C25.3768 0 25.019 0.358359 25.019 0.80042V10.0438C25.019 12.2404 26.7968 14.0213 28.9898 14.0213C31.1828 14.0213 32.9607 12.2406 32.9607 10.0438V0.80042C32.9608 0.358359 32.603 0 32.1617 0Z" fill="#FFDC7B"/>
<path d="M36.5373 32.1432C36.3045 31.8408 35.8712 31.7848 35.5694 32.0179L30.8053 35.6966V32.5653C30.8053 32.1835 30.4964 31.874 30.1153 31.874C29.7341 31.874 29.4252 32.1835 29.4252 32.5653V36.7622L27.0638 38.5856L27.2639 34.311C27.2818 33.9296 26.9877 33.606 26.607 33.5882C26.2264 33.5715 25.9033 33.8649 25.8854 34.2463L25.6303 39.6927L21.6563 42.7613C21.3545 42.9944 21.2984 43.4284 21.5311 43.7308C21.667 43.9074 21.8714 44 22.0781 44C22.2253 44 22.3735 43.9532 22.4989 43.8561L26.505 40.7627L32.7396 41.4604C32.7656 41.4632 32.7914 41.4647 32.8171 41.4647C33.1639 41.4647 33.4627 41.2033 33.502 40.8501C33.5443 40.4706 33.2716 40.1288 32.8928 40.0864L28.0785 39.5477L30.2943 37.8365L34.8154 38.6467C34.8566 38.6541 34.8974 38.6575 34.9377 38.6575C35.2656 38.6575 35.5564 38.4226 35.6162 38.088C35.6833 37.7121 35.4337 37.3531 35.0585 37.2859L31.7705 36.6966L36.412 33.1126C36.7138 32.8796 36.77 32.4456 36.5373 32.1432Z" fill="#6D8539"/>
<path d="M22.5603 42.7613L18.5863 39.6927L18.3312 34.2463C18.3133 33.865 17.9911 33.5708 17.6096 33.5882C17.2289 33.6061 16.9348 33.9298 16.9527 34.311L17.1529 38.5857L14.7915 36.7622V32.5654C14.7915 32.1836 14.4826 31.8741 14.1014 31.8741C13.7203 31.8741 13.4114 32.1836 13.4114 32.5654V35.6967L8.64726 32.018C8.34545 31.7849 7.91207 31.8412 7.67944 32.1434C7.4468 32.4457 7.50284 32.8798 7.80465 33.1128L12.4461 36.6968L9.15816 37.2861C8.78296 37.3534 8.53331 37.7124 8.60043 38.0882C8.66015 38.4229 8.95096 38.6578 9.2789 38.6578C9.31921 38.6578 9.3602 38.6542 9.40119 38.6469L13.9223 37.8367L16.1382 39.5479L11.3238 40.0866C10.9451 40.129 10.6723 40.4709 10.7146 40.8504C10.754 41.2037 11.0526 41.4649 11.3995 41.4649C11.4251 41.4649 11.451 41.4634 11.477 41.4606L17.7115 40.7629L21.7176 43.8564C21.8432 43.9532 21.9914 44.0002 22.1384 44.0002C22.345 44.0002 22.5495 43.9077 22.6855 43.731C22.9182 43.4284 22.8622 42.9943 22.5603 42.7613Z" fill="#6D8539"/>
</g>
<defs>
<clipPath id="clip0_836_4090">
<rect width="44" height="44" fill="white"/>
</clipPath>
</defs>
</svg>
