<svg width="180" height="255" viewBox="0 0 180 255" fill="none" xmlns="http://www.w3.org/2000/svg">
<g opacity="0.2">
<path d="M88.202 254.499C123.941 254.499 152.913 250.243 152.913 244.994C152.913 239.745 123.941 235.489 88.202 235.489C52.4632 235.489 23.4912 239.745 23.4912 244.994C23.4912 250.243 52.4632 254.499 88.202 254.499Z" fill="#371A45"/>
</g>
<path d="M66.7594 175.979C62.5816 166.284 48.2407 161.995 45.1815 176.297C42.5291 188.699 55.6871 196.088 65.8194 193.814C69.4816 192.992 71.9058 187.924 66.7587 175.979H66.7594Z" fill="#413757"/>
<g opacity="0.2">
<path d="M65.8207 193.811C55.6891 196.086 42.5303 188.698 45.1814 176.297C46.2979 171.08 48.9119 168.336 51.9907 167.431C51.9118 167.72 51.9809 168.104 51.775 168.323C41.9191 178.817 52.2063 192.648 61.2179 178.644C64.6805 181.154 65.3811 186.465 69.665 186.217C70.0293 190.988 68.1794 193.284 65.8207 193.811Z" fill="#371A45"/>
</g>
<path d="M62.0476 195.537C56.5174 195.537 50.863 193.184 47.3481 189.193C44.157 185.569 42.9749 180.883 44.0202 175.995C45.7529 167.893 50.5644 166.15 53.2782 165.833C58.9431 165.171 65.1983 169.291 67.8381 175.416C70.9085 182.541 71.6852 188.172 70.0844 191.702C69.2708 193.495 67.8416 194.702 66.0587 195.103C64.7517 195.395 63.4028 195.537 62.0476 195.537ZM54.4749 168.393C54.1574 168.393 53.8427 168.411 53.5301 168.447C50.983 168.746 47.6691 170.402 46.3433 176.598C45.2512 181.704 47.2183 185.27 49.0613 187.362C52.902 191.723 59.6946 193.846 65.5814 192.526C66.6595 192.283 67.4557 191.611 67.9477 190.527C68.6671 188.939 69.3301 185.013 65.6805 176.543C63.6387 171.805 58.86 168.393 54.4742 168.393H54.4749Z" fill="#371A45"/>
<g opacity="0.3">
<path d="M60.4523 173.914C60.049 172.292 55.8314 169.522 52.2976 171.385C48.4484 173.414 52.2704 173.915 54.8342 174.459C57.4559 175.015 60.8556 175.536 60.4523 173.914Z" fill="white"/>
</g>
<path d="M58.6209 170.075C53.9392 178.784 49.2904 201.589 46.9827 216.542C46.9827 216.542 43.3833 216.566 40.9752 219.795C39.0352 222.396 38.2718 227.568 43.384 229.849C47.6575 231.756 58.7884 237.629 63.9585 234.341C73.3539 228.366 76.8235 205.852 85.4687 198.617L58.6202 170.075H58.6209Z" fill="#686779"/>
<path d="M85.4685 198.616C76.8226 205.851 73.3551 228.366 63.9604 234.342C58.7882 237.629 47.6566 231.755 43.3831 229.849C38.2709 227.568 39.035 222.398 40.975 219.795C43.3831 216.567 46.9825 216.544 46.9825 216.544C47.6447 212.234 48.5044 207.271 49.5072 202.183C50.8651 195.248 52.4855 188.079 54.2251 182.005C55.6368 177.067 57.1287 172.854 58.6214 170.077L85.4685 198.617V198.616Z" fill="#413757"/>
<g opacity="0.2">
<path d="M85.4685 198.616C76.8226 205.85 73.3551 228.366 63.9604 234.342C58.7882 237.629 47.6566 231.755 43.3831 229.849C38.2709 227.568 39.035 222.397 40.975 219.794C43.3831 216.566 46.9825 216.543 46.9825 216.543C47.6447 212.234 48.5044 207.271 49.5072 202.183C53.8225 206.143 60.0721 211.127 65.0441 212.053C74.3167 213.783 71.8304 206.778 69.589 204.316C67.6791 202.219 55.5147 194.515 54.2251 182.005C55.6368 177.068 57.1287 172.855 58.6214 170.077L85.4685 198.618V198.616Z" fill="#371A45"/>
</g>
<path d="M60.0163 236.621C54.879 236.621 48.4367 233.62 44.5254 231.799C43.9274 231.52 43.3922 231.271 42.9358 231.067C39.9296 229.726 38.8633 227.558 38.4977 225.974C37.8571 223.199 38.8815 220.531 40.0531 218.96C41.9826 216.373 44.5554 215.579 45.9595 215.335C48.0487 202.1 52.6815 178.541 57.5928 169.405L59.6472 170.744C55.396 178.654 50.8135 199.556 48.159 216.763C48.062 217.391 47.5686 217.853 46.9894 217.857C46.9643 217.857 43.9023 217.941 41.8975 220.629C41.1327 221.654 40.3888 223.5 40.811 225.327C41.1452 226.773 42.1619 227.884 43.8325 228.63C44.298 228.837 44.8443 229.092 45.4549 229.377C49.937 231.464 59.2634 235.809 63.3616 233.202C67.9805 230.265 71.2456 222.632 74.4032 215.251C77.3592 208.339 80.4163 201.192 84.747 197.569L86.1908 199.664C82.3262 202.898 79.3961 209.747 76.5623 216.372C73.2483 224.12 69.8213 232.131 64.5549 235.48C63.2786 236.292 61.7183 236.621 60.0156 236.621L60.0163 236.621Z" fill="#371A45"/>
<path d="M54.5205 225.112C52.321 226.306 50.499 229.364 51.9798 231.887C52.4236 232.639 53.1074 233.304 53.8618 233.906C54.2581 234.212 54.3502 234.818 54.0655 235.249C53.8032 235.647 53.3098 235.754 52.9309 235.516C51.4948 234.633 50.0252 233.105 49.6644 231.168C49.0747 227.956 51.2854 224.326 54.3363 224.179C54.8296 224.158 54.9685 224.905 54.5205 225.112Z" fill="#232333"/>
<path d="M47.3864 222.138C45.1869 223.332 43.3649 226.39 44.8457 228.913C45.2902 229.665 45.9733 230.33 46.7277 230.932C47.1233 231.238 47.2161 231.843 46.9314 232.275C46.6691 232.673 46.1757 232.78 45.7961 232.542C44.36 231.659 42.8904 230.131 42.5303 228.194C41.9399 224.982 44.1513 221.352 47.2022 221.205C47.6955 221.184 47.8344 221.931 47.3864 222.138Z" fill="#232333"/>
<path d="M70.901 232.723C70.9708 235.574 70.3295 240.815 68.8389 242.144C66.4154 244.308 58.401 243.228 51.8206 242.233C42.7573 240.862 35.2209 238.334 32.7506 236.374C30.8469 234.39 32.3019 228.778 33.8671 225.812" fill="white"/>
<path d="M70.4795 237.86C70.1453 239.749 69.6045 241.461 68.8403 242.144C66.4161 244.307 58.401 243.229 51.8206 242.233C42.7559 240.863 35.2195 238.335 32.7492 236.376C32.2147 235.818 31.9467 234.98 31.8713 233.991C34.9229 235.994 42.4851 238.431 51.4598 239.788C58.4087 240.838 66.8662 241.978 69.4265 239.695C69.8389 239.327 70.1878 238.677 70.4788 237.861L70.4795 237.86Z" fill="#E8E8E8"/>
<path d="M63.2146 244.394C59.9655 244.394 55.9168 243.848 51.6992 243.21C43.0672 241.904 35.0604 239.422 32.228 237.173C32.1959 237.147 32.1652 237.12 32.1359 237.09C29.8226 234.679 31.3396 228.639 33.094 225.316C33.3424 224.845 33.8909 224.686 34.3179 224.96C34.745 225.233 34.8901 225.837 34.6417 226.308C33.0109 229.396 32.0772 234.197 33.3277 235.615C35.597 237.368 42.6806 239.855 51.942 241.255C56.863 241.999 66.0247 243.385 68.2752 241.377C69.3275 240.437 70.0825 235.888 70.0057 232.749C69.9925 232.205 70.3826 231.751 70.8766 231.737C71.3693 231.737 71.7824 232.152 71.7956 232.696C71.8564 235.172 71.3379 241.182 69.4021 242.91C68.1879 243.994 65.9933 244.394 63.2139 244.394H63.2146Z" fill="#371A45"/>
<path d="M74.8776 219.651C74.4805 220.69 73.9146 221.936 73.3836 223.54C65.307 220.605 52.2236 213.031 44.8289 208.647C45.6055 206.287 46.6397 203.904 48.8685 203.026C49.6215 202.729 53.024 202.304 60.4725 207.59C69.741 214.168 74.3466 215.238 74.8329 215.885C75.6745 217.011 75.4645 218.101 74.8776 219.652V219.651Z" fill="#FFCE31"/>
<path d="M145.322 175.072C145.322 175.072 148.953 182.783 138.439 187.392C126.15 192.775 115.678 177.731 129.066 161.515C129.066 161.515 127.891 158.877 122.982 156.798L114.842 138.966L109.626 127.541C109.626 127.541 118.575 129.167 126.745 133.874C127.338 134.215 127.924 134.573 128.504 134.947C133.145 137.94 167.978 162.012 145.322 175.072Z" fill="#686779"/>
<path d="M145.323 175.072C145.323 175.072 148.953 182.783 138.439 187.391C126.149 192.775 115.677 177.731 129.068 161.517C129.068 161.517 127.892 158.878 122.983 156.797L114.841 138.966L114.176 137.506L109.627 127.541C109.627 127.541 118.575 129.168 126.745 133.874C127.336 134.216 127.924 134.574 128.503 134.949C128.67 135.057 128.879 135.192 129.124 135.356C135.594 139.671 167.157 162.486 145.323 175.072Z" fill="#413757"/>
<g opacity="0.2">
<path d="M129.124 135.356C124.43 136.54 119.41 137.279 114.176 137.506L109.627 127.54C109.627 127.54 118.575 129.167 126.745 133.874C127.336 134.216 127.924 134.574 128.503 134.948C128.67 135.057 128.879 135.191 129.124 135.355V135.356Z" fill="#371A45"/>
</g>
<path d="M89.2556 134.689C74.3907 130.521 62.6053 122.202 56.9885 112.036C65.354 116.423 75.4381 121.199 85.6144 125.009C88.405 126.054 89.4615 129.995 89.2556 134.689Z" fill="#545468"/>
<path d="M120.126 137.019C115.805 137.542 111.295 137.713 106.667 137.486C93.8131 136.858 82.1141 133.269 72.979 127.773C75.7786 121.581 82.6989 112.022 98.3461 114.162C115.894 116.561 119.428 130.669 120.126 137.019L120.126 137.019Z" fill="#545468"/>
<g opacity="0.2">
<path d="M138.438 187.391C129.712 191.214 121.899 184.735 122.902 174.849C122.916 174.704 122.934 174.563 122.952 174.418C122.967 174.287 122.985 174.155 123.006 174.021C123.03 173.846 123.06 173.673 123.093 173.498C123.689 170.136 125.289 166.438 128.175 162.648C130.748 168.667 130.975 174.521 131.269 182.784C131.34 184.777 134.91 185.299 136.224 184.993C142.918 183.435 139.244 176.667 139.244 176.667C139.244 176.667 142.231 176.144 145.368 175.04C145.353 175.05 145.338 175.063 145.323 175.073C145.323 175.073 148.952 182.787 138.438 187.392V187.391Z" fill="#371A45"/>
</g>
<g opacity="0.2">
<path d="M129.982 161.077C130.039 161.004 129.628 161.142 128.996 161.378C128.684 160.816 127.232 158.597 122.981 156.795L121.302 152.714L121.603 152.093C122.141 150.352 122.804 149.237 123.582 149.187C126.199 149.007 130.635 156.875 136.222 156.401C136.222 156.401 133.286 158.035 129.981 161.076L129.982 161.077Z" fill="#371A45"/>
</g>
<path d="M133.44 189.798C129.522 189.798 125.958 187.91 123.76 184.416C120.667 179.498 120.102 170.941 127.536 161.437C126.879 160.636 125.418 159.239 122.554 158.025C121.939 157.765 121.632 157.004 121.869 156.326C122.106 155.649 122.796 155.31 123.412 155.571C128.607 157.773 129.997 160.619 130.139 160.936C130.355 161.42 130.281 162.001 129.95 162.4C122.781 171.084 123.066 178.694 125.723 182.919C128.307 187.029 133.126 188.304 137.998 186.17C141.414 184.674 143.559 182.72 144.373 180.364C145.236 177.869 144.298 175.759 144.258 175.671C143.966 175.03 144.191 174.241 144.767 173.908C149.298 171.297 151.635 168.079 151.716 164.344C151.933 154.274 136.233 141.455 127.902 136.083C119.603 130.732 109.534 128.859 109.434 128.841C108.784 128.723 108.343 128.046 108.45 127.33C108.558 126.614 109.169 126.13 109.822 126.246C110.251 126.325 120.431 128.22 129.108 133.814C129.856 134.295 136.596 138.7 142.924 144.813C150.465 152.098 154.226 158.69 154.103 164.406C154.006 168.888 151.549 172.677 146.796 175.682C147.118 176.919 147.392 178.97 146.623 181.242C145.573 184.342 142.968 186.822 138.879 188.613C137.056 189.413 135.211 189.798 133.439 189.798L133.44 189.798Z" fill="#371A45"/>
<path d="M145.774 176.289C143.647 176.959 141.498 177.305 139.298 177.32C138.967 177.321 138.697 177.027 138.697 176.662C138.696 176.337 138.91 176.065 139.192 176.011C140.187 175.795 141.167 175.503 142.122 175.133C143.042 174.779 144.024 174.339 144.87 173.856C146.441 173.037 147.418 175.657 145.774 176.289Z" fill="#371A45"/>
<path d="M128.285 160.521C130.711 158.623 133.158 156.73 136.041 155.776C136.361 155.684 136.687 155.895 136.77 156.247C136.848 156.575 136.686 156.91 136.406 157.028C133.927 158.294 131.816 160.46 129.843 162.514C128.597 163.77 126.97 161.697 128.285 160.521Z" fill="#371A45"/>
<path d="M85.6157 125.011C62.3804 116.309 39.6239 102.583 36.7154 99.9386C36.1215 98.1302 34.6261 95.8192 33.0972 94.9392C31.271 93.8886 28.7393 94.4657 26.939 97.4301C24.4073 94.963 19.9852 93.7763 17.5247 95.9706C16.1367 97.2087 15.5757 98.8819 15.5373 100.379C11.3685 100.919 9.83125 105.909 11.4341 109.795C10.3958 114.373 12.0419 119.504 18.6956 122.657C40.4606 141.718 62.1816 150.573 76.5008 154.643C86.7238 157.548 94.009 128.153 85.6157 125.01V125.011Z" fill="#413757"/>
<g opacity="0.2">
<path d="M89.2556 134.689C74.3907 130.521 62.6053 122.202 56.9885 112.036C65.354 116.423 75.4381 121.199 85.6144 125.009C88.405 126.054 89.4615 129.995 89.2556 134.689Z" fill="#371A45"/>
</g>
<g opacity="0.2">
<path d="M71.2819 132.716C69.7091 141.183 82.3116 156.293 76.5009 154.643C62.1817 150.574 40.4614 141.719 18.6965 122.658C17.4132 122.05 16.3148 121.366 15.3867 120.627C18.5353 121.544 23.1848 122.392 27.235 121.123C27.235 121.123 53.9223 147.782 71.2819 132.716Z" fill="#371A45"/>
</g>
<path d="M77.9405 156.164C77.3732 156.164 76.7933 156.084 76.203 155.917C61.7449 151.808 39.9346 142.9 18.0761 123.795C11.9932 120.851 9.07078 115.697 10.1845 109.914C9.32339 107.497 9.45388 104.729 10.5509 102.587C11.4127 100.905 12.7734 99.7536 14.4419 99.2717C14.7119 97.5755 15.5193 96.0676 16.7733 94.9494C19.485 92.5315 23.7703 93.3677 26.7249 95.5858C28.9244 92.8628 31.7017 92.6537 33.65 93.7743C35.4099 94.7865 36.9772 97.1613 37.7106 99.1273C41.5096 102.27 63.6471 115.395 86.0003 123.766C91.1495 125.694 91.2912 134.701 89.2438 142.254C87.2822 149.489 83.1267 156.164 77.9412 156.164H77.9405ZM20.813 96.1376C19.8381 96.1376 18.9414 96.3981 18.2757 96.9922C16.9778 98.1497 16.7503 99.6337 16.7307 100.416C16.714 101.069 16.2653 101.609 15.677 101.685C13.9757 101.906 13.0811 103 12.6304 103.879C11.8355 105.43 11.7937 107.489 12.5215 109.251C12.6331 109.522 12.6583 109.826 12.5927 110.114C11.9646 112.886 11.9828 118.045 19.1675 121.451C19.2645 121.497 19.3559 121.557 19.439 121.629C41.0099 140.521 62.5376 149.318 76.7989 153.371C81.2252 154.629 85.1664 148.101 86.9556 141.502C88.7218 134.986 88.5599 127.502 85.2313 126.255C62.0966 117.591 39.0428 103.759 35.9556 100.952C35.7909 100.802 35.666 100.607 35.5927 100.385C35.1008 98.8867 33.7952 96.8239 32.5447 96.1045C31.3954 95.4428 29.4959 95.5842 27.9314 98.1604C27.7402 98.4755 27.4339 98.6846 27.0919 98.733C26.7479 98.7814 26.406 98.6654 26.1478 98.414C24.7542 97.056 22.644 96.1376 20.8123 96.1376H20.813Z" fill="#371A45"/>
<path d="M27.9615 112.863C26.8025 114.782 25.8109 118.714 23.1885 116.738C20.5661 114.762 19.8955 110.818 21.6895 107.93C23.4843 105.042 27.0641 104.303 29.6865 106.279C32.3089 108.255 29.2141 110.788 27.9615 112.863Z" fill="white"/>
<path d="M32.4838 103.363C33.3782 102.378 33.3782 100.781 32.4838 99.796C31.5894 98.8109 30.1393 98.8109 29.2449 99.796C28.3505 100.781 28.3505 102.378 29.2449 103.363C30.1393 104.348 31.5894 104.348 32.4838 103.363Z" fill="white"/>
<path d="M22.9274 103.005C23.7586 101.955 23.6594 100.362 22.706 99.4466C21.7525 98.5311 20.3058 98.6403 19.4747 99.6904C18.6435 100.741 18.7426 102.334 19.6961 103.249C20.6495 104.165 22.0962 104.056 22.9274 103.005Z" fill="white"/>
<path d="M18.5889 107.599C18.9727 106.272 18.3067 104.853 17.1014 104.43C15.8962 104.008 14.608 104.741 14.2243 106.069C13.8406 107.396 14.5066 108.815 15.7118 109.237C16.9171 109.66 18.2052 108.927 18.5889 107.599Z" fill="white"/>
<path d="M18.4816 115.947C19.376 114.962 19.376 113.365 18.4816 112.38C17.5872 111.395 16.1371 111.395 15.2427 112.38C14.3483 113.365 14.3483 114.962 15.2427 115.947C16.1371 116.932 17.5872 116.932 18.4816 115.947Z" fill="white"/>
<path d="M125.188 187.821C126.841 196.857 126.123 213.363 124.491 230.638C124.491 230.638 127.885 231.955 129.205 235.872C130.268 239.028 129.457 244.191 123.948 244.51C119.344 244.776 106.918 246.477 103.169 241.359C98.6287 235.161 99.2595 220.045 94.5828 198.618L125.188 187.821Z" fill="#686779"/>
<path d="M123.949 244.511C119.344 244.776 106.917 246.476 103.169 241.359C100.716 238.006 99.7724 232.047 98.6831 223.892C97.7578 216.967 96.7313 208.461 94.5828 198.619L125.188 187.822C125.543 189.765 125.791 192.055 125.94 194.626C126.489 203.994 125.77 217.078 124.49 230.637C124.49 230.637 127.886 231.955 129.205 235.874C130.268 239.029 129.456 244.192 123.95 244.511L123.949 244.511Z" fill="#413757"/>
<g opacity="0.2">
<path d="M103.512 211.211C101.885 215.464 109.627 215.863 109.627 215.863L110.128 222.433C110.128 222.433 103.793 223.215 98.6831 223.892C97.7578 216.967 96.7313 208.461 94.5828 198.619L125.188 187.822C125.543 189.765 125.791 192.055 125.94 194.626C121.55 206.462 105.097 207.063 103.513 211.211H103.512Z" fill="#371A45"/>
</g>
<path d="M115.061 246.316C110.005 246.316 104.702 245.544 102.24 242.184C99.3719 238.269 98.4697 231.43 97.2206 221.963C96.3839 215.62 95.3427 207.725 93.4216 198.924L95.7426 198.309C97.6895 207.227 98.739 215.188 99.5827 221.584C100.777 230.636 101.64 237.177 104.098 240.532C107.013 244.513 117.094 243.718 121.939 243.337C122.679 243.278 123.336 243.227 123.885 243.195C125.685 243.091 126.975 242.406 127.72 241.159C128.66 239.584 128.504 237.572 128.085 236.328C126.987 233.066 124.117 231.886 124.088 231.875C123.573 231.669 123.246 231.101 123.302 230.5C125.191 210.516 125.438 195.848 124.017 188.079L126.357 187.56C127.824 195.575 127.624 209.796 125.765 229.834C127.011 230.554 129.252 232.232 130.324 235.413C130.966 237.32 131.143 240.21 129.714 242.603C128.9 243.967 127.249 245.633 124.01 245.821C123.475 245.852 122.833 245.902 122.11 245.959C120.086 246.119 117.605 246.314 115.06 246.314L115.061 246.316Z" fill="#371A45"/>
<path d="M115.471 234.753C118.888 236.205 119.544 242.043 116.554 244.379C115.598 245.165 114.523 245.563 113.479 245.783C113.009 245.882 112.554 245.542 112.464 245.024C112.379 244.534 112.651 244.06 113.076 243.926C113.949 243.633 114.773 243.258 115.4 242.72C117.497 240.908 116.696 237.456 115.021 235.57C114.658 235.209 115.018 234.557 115.472 234.754L115.471 234.753Z" fill="#232333"/>
<path d="M122.947 234.511C126.364 235.963 127.02 241.801 124.029 244.137C123.073 244.923 121.999 245.321 120.955 245.541C120.484 245.64 120.029 245.3 119.94 244.782C119.855 244.292 120.126 243.818 120.552 243.684C121.424 243.391 122.249 243.015 122.877 242.478C124.974 240.666 124.172 237.214 122.498 235.327C122.135 234.967 122.495 234.315 122.948 234.512L122.947 234.511Z" fill="#232333"/>
<path d="M116.73 230.578C120.268 229.632 124.209 229.092 127.548 231.153C128.887 232.074 127.714 234.274 126.33 233.427C125.126 232.292 123.511 231.67 121.899 231.395C120.251 231.102 118.517 231.064 116.847 231.223C116.487 231.277 116.376 230.682 116.729 230.578H116.73Z" fill="#232333"/>
<path d="M121.317 198.495C121.317 198.495 118.484 200.872 112.839 203.473C107.855 205.769 103.274 206.366 103.274 206.366C97.6477 207.185 92.6228 206.977 90.3151 206.712C88.022 206.449 83.1101 205.525 77.7948 203.473C77.7948 203.473 73.0127 201.735 67.6834 198.037C64.1001 195.549 61.5133 191.645 61.5133 191.645C54.8896 181.652 55.3432 170.961 57.9182 160.615C59.4499 154.466 62.6291 147.731 65.5069 142.418C68.5676 136.759 71.2821 132.716 71.2821 132.716L98.3456 114.163L120.291 140.116C120.797 142.834 121.846 146.272 123.041 150.155C127.487 164.636 133.911 185.365 121.317 198.495Z" fill="white"/>
<g opacity="0.2">
<path d="M128.682 177.84C128.733 185.413 126.88 192.697 121.317 198.495C121.317 198.495 118.485 200.874 112.838 203.474C107.855 205.768 103.274 206.367 103.274 206.367C97.6477 207.185 92.622 206.978 90.315 206.712C88.0227 206.449 83.1107 205.525 77.7955 203.474C77.7955 203.474 73.0112 201.736 67.6841 198.037C64.1001 195.549 61.5126 191.644 61.5126 191.644C55.9258 183.213 55.3739 174.287 56.8867 165.487C56.8567 171.713 64.0673 197.186 91.0366 198.928C118.13 200.677 127.706 182.539 128.681 177.84H128.682Z" fill="#371A45"/>
</g>
<path d="M123.041 150.155C99.0635 157.162 77.039 148.561 65.5068 142.418C68.5675 136.759 71.282 132.716 71.282 132.716C71.282 132.716 75.5687 111.049 98.3455 114.163C121.122 117.277 120.291 140.117 120.291 140.117C120.797 142.834 121.846 146.272 123.041 150.155Z" fill="#413757"/>
<g opacity="0.2">
<path d="M120.126 137.019C115.805 137.542 111.295 137.713 106.667 137.486C93.8131 136.858 82.1141 133.269 72.979 127.773C75.7786 121.581 82.6989 112.022 98.3461 114.162C115.894 116.561 119.428 130.669 120.126 137.019L120.126 137.019Z" fill="#371A45"/>
</g>
<path d="M61.0311 192.032C57.7625 187.858 55.653 182.505 55.1185 176.998C54.1157 166.295 57.7192 154.829 62.4442 145.628C64.8879 140.934 67.631 136.466 70.8019 132.327C71.273 131.731 72.1592 132.406 71.7614 133.108C69.2584 137.651 66.8188 142.246 64.5683 146.909C62.3779 151.557 60.2405 156.293 58.9823 161.34C56.4143 171.58 56.7765 182.14 61.9962 191.258C62.3737 191.923 61.5196 192.654 61.0318 192.034L61.0311 192.032Z" fill="#371A45"/>
<path d="M103.353 207.018C96.9484 208.652 90.0846 208.659 83.7547 206.619C81.6417 205.973 79.5706 205.152 77.5972 204.095C77.2985 203.935 77.1743 203.539 77.3195 203.21C77.4437 202.929 77.7263 202.787 77.9921 202.854C82.1449 203.852 86.2794 204.881 90.4873 205.416C94.677 205.86 98.9602 205.807 103.197 205.716C103.901 205.697 104.046 206.833 103.354 207.019L103.353 207.018Z" fill="#371A45"/>
<path d="M120.876 139.984C122.274 144.849 124.161 149.582 125.628 154.456C129.956 168.758 133.975 187.983 121.727 198.973C121.472 199.203 121.094 199.162 120.886 198.88C120.695 198.623 120.71 198.255 120.907 198.018C122.427 196.126 123.72 194.071 124.719 191.871C130.996 177.683 125.034 161.974 121.265 147.898C120.619 145.41 120.017 142.875 119.707 140.248C119.665 139.887 119.896 139.556 120.224 139.51C120.522 139.466 120.798 139.676 120.877 139.984H120.876Z" fill="#371A45"/>
<path d="M75.1473 220.804C74.679 222.031 73.9735 223.546 73.3692 225.596C73.3427 225.691 73.3162 225.785 73.2862 225.883V225.893C73.132 226.429 72.9868 227.003 72.8563 227.617C71.9289 231.933 71.5821 236.036 70.1767 237.476C69.5277 238.145 68.1405 238.439 66.3324 238.501C65.061 238.546 63.5788 238.475 62.0018 238.331C59.6717 238.122 57.1352 237.76 54.7605 237.404C54.7424 237.401 54.7277 237.398 54.7103 237.398C54.0285 237.297 53.3614 237.196 52.7152 237.097C43.6512 235.726 35.4916 232.625 33.0228 230.666C31.5615 228.936 31.7248 224.764 33.6096 222.277C35.7108 219.394 41.3156 217.249 43.1893 214.762C44.9736 212.391 45.0713 205.784 49.1382 204.179C49.8911 203.881 53.2937 203.457 60.7422 208.742C70.0106 215.32 75.1228 215.314 75.6085 215.961C76.4501 217.087 75.7334 219.254 75.1466 220.804H75.1473Z" fill="white"/>
<path d="M75.1472 220.804C74.9874 221.228 74.7976 221.686 74.5897 222.188C74.2045 223.141 73.7655 224.255 73.3685 225.596C73.342 225.691 73.3154 225.785 73.2854 225.883V225.893C73.1312 226.429 72.9861 227.003 72.8556 227.617C71.9282 231.933 71.5814 236.036 70.176 237.476C69.527 238.145 68.1397 238.439 66.3317 238.501C65.0603 238.546 63.5781 238.475 62.001 238.331C59.671 238.122 57.1344 237.76 54.7598 237.404C54.7416 237.401 54.727 237.398 54.7095 237.398C54.0278 237.297 53.3606 237.196 52.7145 237.097C43.6505 235.726 35.4909 232.625 33.022 230.666C31.5608 228.936 31.7241 224.764 33.6089 222.277C35.71 219.394 41.3149 217.249 43.1886 214.762C44.3714 213.191 44.8131 209.767 46.1585 207.162C46.843 205.833 47.7621 204.72 49.1375 204.179C49.8904 203.881 53.293 203.457 60.7415 208.742C70.0099 215.32 75.1228 215.313 75.6085 215.96C76.4501 217.086 75.7327 219.254 75.1458 220.804H75.1472Z" fill="white"/>
<path d="M75.1472 220.804C74.9874 221.228 74.7976 221.686 74.5897 222.188C74.2045 223.141 73.7655 224.255 73.3685 225.596C73.342 225.691 73.3154 225.785 73.2854 225.883V225.893C73.1312 226.429 72.9861 227.003 72.8556 227.617C71.9282 231.933 71.5814 236.036 70.176 237.476C69.527 238.145 68.1397 238.439 66.3317 238.501C65.0603 238.546 63.5781 238.475 62.001 238.331C59.671 238.122 57.1344 237.76 54.7598 237.404C54.7416 237.401 54.727 237.398 54.7095 237.398C54.0278 237.297 53.3606 237.196 52.7145 237.097C43.6505 235.726 35.4909 232.625 33.022 230.666C31.5608 228.936 31.7241 224.764 33.6089 222.277C35.71 219.394 41.3149 217.249 43.1886 214.762C44.3714 213.191 44.8131 209.767 46.1585 207.162C46.843 205.833 47.7621 204.72 49.1375 204.179C49.8904 203.881 53.293 203.457 60.7415 208.742C70.0099 215.32 75.1228 215.313 75.6085 215.96C76.4501 217.086 75.7327 219.254 75.1458 220.804H75.1472Z" fill="white"/>
<path d="M75.1473 220.803C74.9875 221.229 74.7984 221.687 74.589 222.188C74.2052 223.142 73.7663 224.253 73.3685 225.598C73.342 225.691 73.3162 225.787 73.2841 225.883V225.893C73.1299 226.431 72.9847 227.003 72.857 227.618C71.9268 231.933 71.5814 236.037 70.1774 237.477C69.5263 238.146 68.1398 238.441 66.3324 238.502C65.0596 238.546 63.5774 238.476 62.0018 238.332C59.6711 238.124 57.1338 237.759 54.7591 237.404C54.7417 237.401 54.727 237.397 54.7096 237.397C54.0292 237.298 53.3607 237.196 52.7159 237.096C43.6512 235.726 35.4931 232.625 33.0228 230.666C31.5609 228.937 31.7234 224.766 33.6096 222.276C34.4729 221.095 35.9201 220.039 37.4602 219.03C39.3318 217.805 41.3401 216.653 42.5843 215.442C42.8139 215.218 43.0176 214.991 43.1886 214.763C44.3714 213.192 44.8131 209.767 46.1585 207.165C46.8417 205.837 47.7628 204.722 49.1375 204.178C49.8904 203.884 53.2937 203.458 60.7394 208.743C70.0078 215.321 75.1228 215.314 75.6085 215.961C76.4515 217.088 75.7334 219.255 75.1466 220.804L75.1473 220.803Z" fill="white"/>
<path d="M61.4616 209.241C60.8398 211.321 59.5377 213.242 58.3605 215.006C55.4659 213.316 52.6816 211.549 50.2637 209.952L52.2315 204.315C54.1121 204.798 56.8846 206.005 60.7414 208.742C60.8579 208.822 60.971 208.902 61.084 208.982C61.2117 209.072 61.3367 209.158 61.4616 209.241Z" fill="#FFB522"/>
<path d="M59.5957 213.117C58.602 214.711 57.4945 216.193 56.7793 217.563C55.5818 216.642 54.5065 215.656 53.623 214.615L54.6461 208.741C56.1338 210.351 57.8225 211.811 59.5957 213.117V213.117Z" fill="#FFB522"/>
<path d="M53.6229 220.416L51.2426 226.197C48.182 221.92 41.3406 219.868 37.4607 219.03C39.3322 217.804 41.3406 216.652 42.5848 215.441L53.6229 220.416Z" fill="#E5E5E5"/>
<path d="M75.9873 217.602C75.9266 218.642 75.5135 219.842 75.1472 220.803C74.9874 221.228 74.7983 221.686 74.5889 222.188C74.2051 223.142 73.7662 224.253 73.3684 225.598C73.3419 225.691 73.3161 225.787 73.284 225.883V225.893C73.1298 226.431 72.9846 227.003 72.8569 227.618C71.9267 231.933 71.5813 236.037 70.1773 237.477C69.5262 238.146 68.1397 238.441 66.3323 238.502C65.0595 238.546 63.5774 238.476 62.0017 238.332C59.671 238.124 57.1337 237.759 54.759 237.403C54.7416 237.4 54.7269 237.397 54.7095 237.397C54.0291 237.298 53.3606 237.196 52.7158 237.096C43.6512 235.726 35.493 232.625 33.0227 230.665C32.3284 229.843 31.9997 228.47 32.052 226.988C32.0925 227.046 32.1337 227.097 32.1769 227.148C34.6444 229.107 42.7963 232.266 51.8673 233.581C75.3998 236.987 69.1222 234.541 75.9866 217.602L75.9873 217.602Z" fill="#E8E8E8"/>
<path d="M55.3144 237.477C54.655 237.384 53.9976 237.288 53.3557 237.191C53.1407 237.159 52.9286 237.128 52.7165 237.095C50.4492 236.753 48.2407 236.301 46.1625 235.79C45.642 235.658 45.1305 235.527 44.628 235.393C44.1284 235.255 43.6344 235.118 43.1515 234.977C42.6721 234.837 42.1982 234.692 41.7391 234.545C38.8648 233.633 36.4496 232.647 34.7756 231.764C34.6416 231.693 34.5111 231.623 34.3862 231.553C34.1999 231.447 34.0261 231.344 33.8628 231.245C33.7553 231.178 33.6479 231.114 33.5488 231.047C33.4009 230.948 33.2669 230.852 33.142 230.759C33.1015 230.73 33.0603 230.698 33.0226 230.666C32.7784 230.377 32.5809 230.025 32.4295 229.622C32.3772 229.487 32.3304 229.347 32.2899 229.202C32.1036 228.54 32.0227 227.778 32.0513 226.987C32.0917 227.045 32.1329 227.096 32.1762 227.147C34.6437 229.106 42.7956 232.266 51.8665 233.581C52.9621 233.741 53.9969 233.885 54.9676 234.016C55.2551 235.225 55.4093 236.423 55.3137 237.476L55.3144 237.477Z" fill="#FFB522"/>
<path d="M62.0016 238.331C59.6709 238.123 57.1336 237.758 54.759 237.403C54.7415 237.4 54.7269 237.396 54.7094 237.396C54.6194 237.38 54.5266 237.364 54.4359 237.352C53.849 236.251 53.3257 234.992 52.8721 233.725C55.7059 234.129 58.0834 234.439 60.0882 234.64C60.6576 235.921 61.294 237.176 62.0002 238.331H62.0016Z" fill="#FFB522"/>
<path d="M75.9874 217.602C75.9267 218.642 75.5135 219.842 75.1472 220.803C74.9874 221.228 74.7983 221.686 74.5889 222.188C74.2051 223.142 73.7662 224.253 73.3685 225.598C73.3419 225.691 73.3161 225.787 73.284 225.883V225.893C73.1298 226.431 72.9847 227.003 72.857 227.618C71.9268 231.933 71.5813 236.037 70.1773 237.477C69.5263 238.146 68.1397 238.441 66.3324 238.502C65.2137 238.389 64.1119 238.281 63.188 238.252C63.9695 237.273 64.6094 236.069 65.1698 234.894C70.9038 234.708 71.3399 232.167 73.1563 225.919C73.8102 223.655 74.6503 220.906 75.9874 217.603V217.602Z" fill="#FFB522"/>
<path d="M75.1473 220.803C74.9875 221.225 74.7984 221.679 74.5953 222.182C74.5925 222.185 74.5897 222.185 74.5897 222.188C66.1615 220.511 52.7892 211.776 46.1599 207.163C46.2032 207.08 46.2471 207 46.2904 206.916C46.4244 206.673 46.5695 206.439 46.7203 206.212C46.8221 206.065 46.9296 205.918 47.0399 205.78C47.095 205.71 47.1529 205.64 47.2115 205.572C47.2611 205.514 47.3134 205.457 47.3657 205.402C47.4125 205.351 47.4586 205.303 47.5053 205.258C47.5458 205.217 47.5897 205.175 47.633 205.137C48.0663 204.734 48.5632 204.404 49.1382 204.177C49.8911 203.883 53.2944 203.457 60.7401 208.742C60.8567 208.821 60.9697 208.901 61.0827 208.981C70.1418 215.287 75.4369 214.081 75.9721 214.666C77.7941 216.658 75.7334 219.253 75.1466 220.803H75.1473Z" fill="#9EF07B"/>
<g opacity="0.2">
<path d="M61.4616 209.241C60.8398 211.321 59.5377 213.242 58.3605 215.006C55.4659 213.316 52.6816 211.549 50.2637 209.952L52.2315 204.315C54.1121 204.798 56.8846 206.005 60.7414 208.742C60.8579 208.822 60.971 208.902 61.084 208.982C61.2117 209.072 61.3367 209.158 61.4616 209.241Z" fill="#371A45"/>
</g>
<g opacity="0.7">
<path d="M76.5973 217.425C76.4871 217.054 76.2896 216.689 75.9728 216.343C75.4383 215.758 70.1425 216.964 61.0834 210.658C60.9704 210.578 60.8567 210.498 60.7408 210.419C53.2951 205.134 49.8918 205.56 49.1389 205.854C48.5632 206.082 48.0664 206.411 47.6337 206.814C47.5904 206.852 47.5465 206.894 47.506 206.935C47.4593 206.98 47.4132 207.028 47.3664 207.079C47.3141 207.134 47.2618 207.191 47.2122 207.249C47.1543 207.316 47.0957 207.387 47.0406 207.457C46.9854 207.524 46.9331 207.595 46.8808 207.666C46.6337 207.493 46.3923 207.327 46.1599 207.163C46.2032 207.08 46.2471 207 46.2904 206.916C46.4244 206.673 46.5695 206.439 46.7203 206.212C46.8221 206.065 46.9296 205.918 47.0399 205.78C47.095 205.71 47.1529 205.64 47.2115 205.572C47.2611 205.514 47.3134 205.457 47.3657 205.402C47.4125 205.351 47.4586 205.303 47.5053 205.258C47.5458 205.217 47.5897 205.175 47.633 205.137C48.0663 204.734 48.5632 204.404 49.1382 204.177C49.8911 203.883 53.2944 203.457 60.7401 208.742C60.8567 208.821 60.9697 208.901 61.0827 208.981C70.1418 215.287 75.4369 214.081 75.9721 214.666C76.7509 215.518 76.8206 216.481 76.5966 217.425H76.5973Z" fill="white"/>
</g>
<path d="M148.916 49.8622C141.36 39.1016 143.276 32.107 146.519 27.9675C150.615 22.7382 157.045 17.2369 164.94 19.6194C176.19 23.0149 182.277 35.1904 176.732 46.4075C173.419 53.1101 168.51 56.3004 164.204 57.7945C159.367 59.4722 154.515 57.836 148.916 49.8622Z" fill="#413757"/>
<g opacity="0.2">
<path d="M148.902 49.8608C154.503 57.8346 159.356 59.4716 164.19 57.7939C168.499 56.2983 173.405 53.1088 176.719 46.4062C176.793 46.2555 176.866 46.108 176.936 45.9566C174.9 48.3283 171.451 50.687 166.484 48.5781C160.526 46.0496 157.167 30.6461 147.263 27.0293C147.001 27.3436 146.749 27.6564 146.506 27.9669C143.263 32.1041 141.346 39.098 148.902 49.8608Z" fill="#371A45"/>
</g>
<g opacity="0.3">
<path d="M142.978 33.2434C147.179 27.4216 154.339 20.4323 163.302 23.1392C172.678 25.9721 178.633 34.6207 177.755 43.9571C181.369 33.4747 175.375 22.7703 164.942 19.6207C154.128 16.3582 146.064 27.8835 142.978 33.2442V33.2434Z" fill="white"/>
</g>
<path d="M142.63 32.62C145.332 25.9773 151.313 19.6967 157.885 18.0366C161.406 17.1412 165.104 17.8744 168.367 19.4776C174.872 22.5311 180.033 29.5926 179.998 37.5995C180.073 43.5173 177.333 49.0325 173.627 53.1343C169.872 57.1954 164.76 59.5771 159.586 60.1973C158.015 60.3441 157.753 57.8325 159.313 57.585C164.028 57.0109 168.563 54.9089 171.958 51.2552C177.761 44.9107 179.81 35.8156 174.655 28.2108C171.898 24.152 167.446 21.4036 162.926 20.5913C158.248 19.8442 153.85 22.1999 150.322 25.6061C147.883 27.9702 145.851 30.6886 143.633 33.3309C143.191 33.8866 142.352 33.2978 142.63 32.6192V32.62Z" fill="#371A45"/>
<path d="M76.0488 38.0819C86.0939 30.1665 86.0834 22.8614 84.0576 17.8696C81.4987 11.5644 76.7752 4.25999 68.5919 4.04325C56.9307 3.73506 47.9239 13.4704 50.3077 25.9694C51.7326 33.4383 55.6013 38.0473 59.3353 40.841C63.5299 43.979 68.6044 43.9475 76.0481 38.0819H76.0488Z" fill="#686779"/>
<path d="M76.0495 38.0835C68.6045 43.9483 63.5285 43.9798 59.3367 40.8434C55.5999 38.0474 51.7326 33.4391 50.307 25.9702C50.2756 25.8027 50.2442 25.6382 50.2163 25.4707C50.2163 25.4676 50.217 25.4638 50.2142 25.4638C48.1682 13.2091 57.0877 3.73818 68.5933 4.0433C76.2888 4.24851 80.923 10.719 83.5768 16.7345C83.7457 17.1188 83.9062 17.4977 84.0576 17.872C86.0841 22.8614 86.0946 30.1666 76.0495 38.0842V38.0835Z" fill="#413757"/>
<g opacity="0.2">
<path d="M76.0495 38.0832C68.6045 43.948 63.5286 43.9795 59.3368 40.843C55.6 38.047 51.7327 33.4388 50.307 25.9699C50.2756 25.8024 50.2442 25.6379 50.2163 25.4704C51.5477 28.387 54.2357 31.7372 59.544 31.2899C65.9109 30.7534 73.1473 17.0631 83.5769 16.7334C83.7458 17.1177 83.9063 17.4966 84.0577 17.8709C86.0842 22.8603 86.0946 30.1655 76.0495 38.0832Z" fill="#371A45"/>
</g>
<g opacity="0.3">
<path d="M86.0736 24.0439C83.5691 17.1384 78.5343 8.17704 69.2436 7.93264C59.5237 7.67825 51.563 14.0765 49.9685 23.2976C49.242 12.1136 57.7763 3.75784 68.5911 4.04374C79.8002 4.34117 84.5167 17.9331 86.0736 24.0447V24.0439Z" fill="white"/>
</g>
<path d="M85.4218 23.921C82.7555 17.7771 80.1617 10.618 74.5226 7.22174C71.8235 5.51785 68.7217 5.19736 65.6436 5.58471C59.5181 6.26335 53.5595 10.6334 51.7577 17.2752C49.9399 23.8126 52.2573 31.3637 56.3612 36.2963C58.4791 38.8386 61.1608 40.8085 64.0672 42.1849C64.6771 42.4685 64.9618 43.2463 64.7001 43.9157C64.4391 44.5828 63.7378 44.891 63.1321 44.6044C59.9487 43.0972 56.983 40.9284 54.6069 38.0793C53.4185 36.6598 52.385 35.0812 51.526 33.395C49.0474 28.294 47.8618 22.1433 49.4772 16.499C51.8031 7.81968 60.0366 2.55352 67.9743 2.64421C74.5889 2.45899 79.8714 6.93814 83.1023 12.9974C84.8992 16.25 86.1643 19.8238 86.5704 23.5574C86.6437 24.3029 85.7142 24.5934 85.4232 23.921H85.4218Z" fill="#371A45"/>
<path d="M109.033 130.557C109.033 130.557 146.917 136.112 159.305 114.153C165.801 102.64 164.219 87.5374 164.219 87.5205C164.182 86.8365 171.95 47.7139 141.661 26.2673C133.121 20.2203 124.687 17.6102 116.226 16.13C107.735 14.8696 98.9749 14.7005 89.218 17.7885C54.6104 28.7436 51.8422 68.6747 51.6279 69.318C51.6244 69.3349 46.1689 83.2988 49.3865 96.3835C55.5224 121.336 93.2576 128.007 93.2576 128.007" fill="white"/>
<path d="M109.033 130.557C109.033 130.557 146.917 136.112 159.305 114.153C165.801 102.64 164.219 87.5374 164.219 87.5205C164.182 86.8365 171.95 47.7139 141.661 26.2673C133.121 20.2203 124.687 17.6102 116.226 16.13C107.735 14.8696 98.9749 14.7005 89.218 17.7885C54.6104 28.7436 51.8422 68.6747 51.6279 69.318C51.6244 69.3349 46.1689 83.2988 49.3865 96.3835C55.5224 121.336 93.2576 128.007 93.2576 128.007L109.034 130.557L109.033 130.557Z" fill="white"/>
<path d="M148.916 49.8622C141.36 39.1016 143.277 32.107 146.519 27.9675C150.615 22.7382 157.045 17.2369 164.94 19.6194C176.191 23.0149 182.277 35.1904 176.732 46.4075C173.419 53.1101 168.51 56.3004 164.204 57.7945C159.368 59.4722 154.516 57.836 148.916 49.8622Z" fill="#413757"/>
<g opacity="0.2">
<path d="M148.903 49.8608C154.503 57.8346 159.357 59.4716 164.19 57.7939C168.499 56.2983 173.406 53.1088 176.72 46.4062C176.793 46.2555 176.866 46.108 176.937 45.9566C174.9 48.3283 171.451 50.687 166.484 48.5781C160.526 46.0496 157.167 30.6461 147.263 27.0293C147.002 27.3436 146.749 27.6564 146.506 27.9669C143.263 32.1041 141.347 39.098 148.903 49.8608Z" fill="#371A45"/>
</g>
<g opacity="0.3">
<path d="M142.978 33.2434C147.179 27.4216 154.339 20.4323 163.302 23.1392C172.678 25.9721 178.633 34.6207 177.755 43.9571C181.369 33.4747 175.375 22.7703 164.942 19.6207C154.128 16.3582 146.064 27.8835 142.978 33.2442V33.2434Z" fill="white"/>
</g>
<path d="M142.63 32.62C145.332 25.9773 151.313 19.6967 157.886 18.0366C161.406 17.1412 165.104 17.8744 168.367 19.4776C174.873 22.5311 180.033 29.5926 179.999 37.5995C180.073 43.5173 177.333 49.0325 173.628 53.1343C169.872 57.1954 164.76 59.5771 159.586 60.1973C158.015 60.3441 157.753 57.8325 159.313 57.585C164.028 57.0109 168.564 54.9089 171.958 51.2552C177.762 44.9107 179.81 35.8156 174.655 28.2108C171.898 24.152 167.446 21.4036 162.927 20.5913C158.248 19.8442 153.85 22.1999 150.323 25.6061C147.883 27.9702 145.851 30.6886 143.633 33.3309C143.191 33.8866 142.352 33.2978 142.63 32.6192V32.62Z" fill="#371A45"/>
<path d="M76.0488 38.0819C86.0939 30.1665 86.0834 22.8614 84.0576 17.8696C81.4987 11.5644 76.7752 4.25999 68.5919 4.04325C56.9307 3.73506 47.9239 13.4704 50.3077 25.9694C51.7326 33.4383 55.6013 38.0473 59.3353 40.841C63.5299 43.979 68.6044 43.9475 76.0481 38.0819H76.0488Z" fill="#686779"/>
<path d="M76.0495 38.0835C68.6045 43.9483 63.5285 43.9798 59.3367 40.8434C55.5999 38.0474 51.7326 33.4391 50.307 25.9702C50.2756 25.8027 50.2442 25.6382 50.2163 25.4707C50.2163 25.4676 50.217 25.4638 50.2142 25.4638C48.1682 13.2091 57.0877 3.73818 68.5933 4.0433C76.2888 4.24851 80.923 10.719 83.5768 16.7345C83.7457 17.1188 83.9062 17.4977 84.0576 17.872C86.0841 22.8614 86.0946 30.1666 76.0495 38.0842V38.0835Z" fill="#413757"/>
<g opacity="0.2">
<path d="M76.0495 38.0832C68.6045 43.948 63.5286 43.9795 59.3368 40.843C55.6 38.047 51.7327 33.4388 50.307 25.9699C50.2756 25.8024 50.2442 25.6379 50.2163 25.4704C51.5477 28.387 54.2357 31.7372 59.544 31.2899C65.9109 30.7534 73.1473 17.0631 83.5769 16.7334C83.7458 17.1177 83.9063 17.4966 84.0577 17.8709C86.0842 22.8603 86.0946 30.1655 76.0495 38.0832Z" fill="#371A45"/>
</g>
<g opacity="0.3">
<path d="M86.0736 24.0439C83.5691 17.1384 78.5343 8.17704 69.2436 7.93264C59.5237 7.67825 51.563 14.0765 49.9685 23.2976C49.242 12.1136 57.7763 3.75784 68.5911 4.04374C79.8002 4.34117 84.5167 17.9331 86.0736 24.0447V24.0439Z" fill="white"/>
</g>
<path d="M85.4218 23.921C82.7555 17.7771 80.1617 10.618 74.5226 7.22174C71.8235 5.51785 68.7217 5.19736 65.6436 5.58471C59.5181 6.26335 53.5595 10.6334 51.7577 17.2752C49.9399 23.8126 52.2573 31.3637 56.3612 36.2963C58.4791 38.8386 61.1608 40.8085 64.0672 42.1849C64.6771 42.4685 64.9618 43.2463 64.7001 43.9157C64.4391 44.5828 63.7378 44.891 63.1321 44.6044C59.9487 43.0972 56.983 40.9284 54.6069 38.0793C53.4185 36.6598 52.385 35.0812 51.526 33.395C49.0474 28.294 47.8618 22.1433 49.4772 16.499C51.8031 7.81968 60.0366 2.55352 67.9743 2.64421C74.5889 2.45899 79.8714 6.93814 83.1023 12.9974C84.8992 16.25 86.1643 19.8238 86.5704 23.5574C86.6437 24.3029 85.7142 24.5934 85.4232 23.921H85.4218Z" fill="#371A45"/>
<path d="M109.033 130.557C109.033 130.557 146.917 136.112 159.305 114.153C165.801 102.64 164.219 87.5374 164.219 87.5205C164.182 86.8365 171.95 47.7139 141.661 26.2673C133.121 20.2203 124.687 17.6102 116.226 16.13C107.735 14.8696 98.9749 14.7005 89.218 17.7885C54.6104 28.7436 51.8422 68.6747 51.6279 69.318C51.6244 69.3349 46.1689 83.2988 49.3865 96.3835C55.5224 121.336 93.2576 128.007 93.2576 128.007L109.034 130.557L109.033 130.557Z" fill="white"/>
<g opacity="0.2">
<path d="M164.319 94.6613C164.056 100.081 162.955 107.684 159.305 114.153C146.916 136.113 109.033 130.558 109.033 130.558L93.2576 128.007C93.2576 128.007 55.5203 121.338 49.3872 96.3836C47.7431 89.701 48.3607 82.7886 49.3607 77.6216C49.2176 81.0732 49.4444 84.7738 50.3362 88.406C56.4722 113.36 94.2067 120.029 94.2067 120.029L109.982 122.58C109.982 122.58 147.866 128.135 160.254 106.178C162.328 102.504 163.578 98.4602 164.319 94.6605V94.6613Z" fill="#371A45"/>
</g>
<path d="M109.112 129.905C122.095 130 135.797 130.303 147.668 123.719C151.576 121.477 155.121 118.457 157.595 114.454C162.388 106.912 163.585 95.8953 162.933 87.6041C165.282 71.5013 162.963 53.9213 153.952 40.656C150.657 35.7595 146.515 31.5432 141.915 28.1585C134.25 22.3205 125.208 19.0495 116.043 17.4948C108.686 16.378 101.138 16.2459 93.8514 17.9398C86.6171 19.5822 79.5901 22.7486 73.6552 27.6274C61.5557 37.4796 54.6878 53.5847 52.7604 69.7728C49.9084 77.785 48.2462 88.9176 51.1324 97.8305C54.9055 109.118 64.9499 115.949 74.5714 120.522C80.6466 123.338 87.0205 125.339 93.3518 127.356C94.0622 127.542 93.8863 128.72 93.1627 128.654C83.0387 127.584 73.293 123.587 64.5096 118.015C57.8943 113.677 51.8128 107.538 48.9782 99.4422C45.7271 89.6677 47.1304 78.6781 50.3906 69.1433L50.4499 68.9804C50.4457 68.9927 50.4464 69.0073 50.4527 69.0227L50.496 68.8613C50.4806 68.8836 50.4702 68.9097 50.466 68.9366C50.4646 68.9474 50.4639 68.9589 50.466 68.9335L50.4897 68.7468L50.5386 68.3625C53.2908 46.2442 65.3051 25.5262 84.985 17.9044C91.3344 15.309 98.1144 13.994 104.878 13.911C118.336 13.871 132.117 17.4164 143.339 25.8313C148.184 29.3882 152.532 33.8089 156.008 38.9713C165.219 52.584 167.893 70.4345 165.598 86.9647L165.543 87.3474L165.517 87.5334C165.515 87.5457 165.512 87.5595 165.517 87.5334C165.52 87.5003 165.517 87.4673 165.508 87.4358V87.6156C165.517 87.5979 165.521 87.5787 165.52 87.561L165.534 87.7363L165.562 88.0975C166.12 98.5407 164.37 110.14 158.05 118.319C148.738 130.007 132.411 132.53 119.016 132.464C115.629 132.372 112.27 132.057 108.955 131.207C108.256 131.008 108.411 129.886 109.113 129.904L109.112 129.905Z" fill="#371A45"/>
<path d="M85.6864 88.7649C89.156 88.5335 97.3937 86.1333 99.0224 72.8365C100.621 59.788 96.6031 54.8269 89.0988 53.4235C81.5937 52.0202 70.5487 54.604 63.8238 61.2006C59.0326 65.9003 56.8456 74.7664 58.1547 78.8036C60.7422 86.7835 82.2169 88.9954 85.6864 88.7641V88.7649Z" fill="#413757"/>
<path d="M125.837 95.2559C122.575 93.9363 115.311 89.0306 117.22 75.7784C119.094 62.7736 124.237 59.2944 131.791 60.3258C139.345 61.3572 149.25 67.3281 153.97 75.7746C157.333 81.7924 157.114 90.9766 154.807 94.4297C150.246 101.254 129.1 96.5756 125.837 95.2559Z" fill="#413757"/>
<path d="M132.22 90.2667C137.147 90.2667 141.14 85.3331 141.14 79.2471C141.14 73.1612 137.147 68.2275 132.22 68.2275C127.294 68.2275 123.3 73.1612 123.3 79.2471C123.3 85.3331 127.294 90.2667 132.22 90.2667Z" fill="#371A45"/>
<path d="M130.218 85.8568C131.875 85.7803 133.143 83.7364 133.05 81.2915C132.957 78.8466 131.538 76.9266 129.881 77.0031C128.224 77.0796 126.957 79.1236 127.05 81.5684C127.143 84.0133 128.561 85.9333 130.218 85.8568Z" fill="white"/>
<g opacity="0.35">
<path d="M137.083 78.6161C138.064 78.3063 138.521 76.7513 138.102 75.1428C137.684 73.5343 136.549 72.4815 135.567 72.7912C134.586 73.101 134.13 74.656 134.548 76.2645C134.967 77.873 136.101 78.9258 137.083 78.6161Z" fill="white"/>
</g>
<path d="M75.8402 38.4085C75.2805 37.0436 81.5881 26.6773 90.2187 31.4454C93.3275 33.1631 93.1642 36.7215 90.5307 37.0589C88.0213 37.3802 87.0116 36.6278 83.0766 37.4694C80.8498 37.9459 76.3991 39.7735 75.8402 38.4085Z" fill="#413757"/>
<path d="M148.059 50.1562C148.953 49.0279 145.635 37.0961 136.122 38.913C132.696 39.567 131.917 43.0263 134.35 44.1868C136.668 45.2928 137.832 44.8939 141.378 46.9528C143.384 48.1172 147.165 51.2844 148.059 50.1562Z" fill="#413757"/>
<path d="M55.3145 237.476C54.4339 237.353 53.5623 237.225 52.7158 237.096C43.6526 235.728 35.4923 232.626 33.0213 230.665C31.6229 229.01 31.7136 225.113 33.38 222.601C36.7191 226.022 44.7188 229.752 51.9245 226.436C51.9245 226.436 55.7074 233.182 55.3145 237.477V237.476Z" fill="#9EF07B"/>
<g opacity="0.2">
<path d="M55.3145 237.477C54.655 237.384 53.9977 237.288 53.3557 237.191C53.1408 237.159 52.9286 237.128 52.7165 237.095C50.4493 236.753 48.2407 236.301 46.1626 235.79C45.642 235.658 45.1305 235.527 44.6281 235.393C44.1284 235.259 43.6344 235.121 43.1515 234.977C42.6721 234.837 42.1983 234.692 41.7391 234.545C38.8648 233.636 36.4497 232.65 34.7756 231.764C34.6416 231.693 34.5111 231.623 34.3862 231.553C34.1999 231.45 34.0261 231.347 33.8628 231.245C33.7554 231.178 33.6479 231.114 33.5488 231.047C33.4009 230.951 33.2669 230.855 33.142 230.759C33.1015 230.73 33.0603 230.698 33.0227 230.666H33.0199C32.7784 230.38 32.5809 230.025 32.4302 229.622C32.3779 229.487 32.3311 229.347 32.2907 229.202C32.1043 228.54 32.0234 227.778 32.052 226.987C32.0925 227.045 32.1336 227.096 32.1769 227.147C34.6444 229.106 42.7963 232.266 51.8672 233.581C52.9628 233.741 53.9977 233.885 54.9683 234.016C55.2558 235.225 55.4101 236.423 55.3145 237.476V237.477Z" fill="#371A45"/>
</g>
<path d="M75.1472 220.804C74.679 222.032 73.9735 223.547 73.3692 225.596C68.2088 224.032 58.2621 220.08 53.623 214.615L54.6454 208.743C60.7659 215.36 70.2681 219.446 75.1472 220.804Z" fill="#9EF07B"/>
<g opacity="0.2">
<path d="M59.5957 213.117C58.602 214.711 57.4945 216.193 56.7793 217.563C55.5818 216.642 54.5065 215.656 53.623 214.615L54.6461 208.741C56.1338 210.351 57.8225 211.811 59.5957 213.117V213.117Z" fill="#371A45"/>
</g>
<path d="M73.3691 226.583C73.2903 226.583 73.2107 226.571 73.1312 226.547C66.5444 224.551 57.3116 220.405 52.9684 215.289C52.773 215.059 52.6893 214.739 52.743 214.43L53.7653 208.557C53.8274 208.2 54.0633 207.91 54.378 207.802C54.6927 207.692 55.036 207.785 55.2719 208.039C61.3848 214.647 70.7788 218.572 75.3656 219.849C75.6182 219.919 75.8303 220.108 75.9468 220.364C76.0634 220.621 76.0725 220.922 75.9713 221.187C75.8401 221.529 75.6921 221.894 75.5323 222.285C75.1158 223.306 74.6433 224.462 74.219 225.902C74.0969 226.317 73.7466 226.584 73.3677 226.584L73.3691 226.583ZM54.5894 214.298C58.6235 218.754 66.6749 222.438 72.7983 224.394C73.1751 223.253 73.5701 222.285 73.9008 221.476C73.9029 221.47 73.9057 221.463 73.9085 221.457C69.2045 219.979 61.1224 216.397 55.221 210.676L54.5901 214.298H54.5894Z" fill="#371A45"/>
<path d="M50.8045 227.183C50.704 227.183 50.6035 227.164 50.5065 227.126C50.2155 227.013 49.9978 226.742 49.9308 226.409L49.8673 226.09C49.7877 225.672 49.9608 225.246 50.2965 225.033L50.7954 224.716C51.1248 224.506 51.5379 224.549 51.8268 224.823C52.115 225.097 52.2148 225.541 52.0759 225.931C51.9887 226.176 51.9238 226.309 51.9238 226.309C51.9035 226.351 51.8756 226.4 51.8505 226.438C51.8121 226.495 51.6635 226.701 51.3641 226.966C51.2029 227.108 51.0054 227.182 50.8052 227.182L50.8045 227.183Z" fill="#232333"/>
<path d="M51.2421 226.557C51.1311 226.557 51.0188 226.535 50.9099 226.486C50.4508 226.284 50.2275 225.71 50.411 225.204C50.6503 224.546 51.1172 222.802 50.284 220.846C49.3077 218.555 46.9017 216.712 43.1327 215.369C42.6624 215.202 42.4042 214.646 42.5564 214.127C42.7085 213.609 43.213 213.325 43.684 213.492C47.9435 215.01 50.7097 217.202 51.905 220.008C53.0362 222.664 52.3998 225.039 52.0732 225.937C51.9329 226.322 51.5966 226.557 51.2414 226.557H51.2421Z" fill="#232333"/>
<path d="M45.7251 228.606C44.312 228.606 42.6003 228.42 40.5333 227.943C36.5502 227.022 33.9236 225.316 32.7254 222.871C32.4903 222.392 32.6529 221.794 33.0883 221.536C33.523 221.277 34.0659 221.456 34.3011 221.935C35.2243 223.819 37.5062 225.229 40.9011 226.013C47.2624 227.48 49.6643 225.933 50.249 225.423C50.6363 225.086 51.1995 225.157 51.5065 225.584C51.8128 226.012 51.7473 226.631 51.36 226.969C50.5477 227.677 48.8799 228.606 45.7258 228.606H45.7251Z" fill="#371A45"/>
<path d="M65.5242 239.5C64.4872 239.5 63.3016 239.438 61.9283 239.314C59.5962 239.105 57.0471 238.742 54.641 238.381C54.6375 238.381 54.6333 238.38 54.6291 238.38C54.6166 238.378 54.604 238.377 54.5922 238.375C53.9746 238.284 53.3689 238.192 52.7792 238.103L52.5943 238.075C43.6155 236.716 35.1733 233.587 32.5006 231.467C32.4532 231.429 32.4085 231.386 32.3688 231.338C30.5293 229.16 30.7987 224.449 32.9242 221.645C34.1154 220.011 36.2375 218.662 38.2897 217.358C39.9708 216.29 41.7083 215.186 42.5011 214.133C43.0237 213.439 43.4236 212.144 43.8465 210.771C44.7145 207.956 45.7948 204.453 48.8366 203.251C49.4611 203.004 52.9928 202.071 61.2277 207.914C68.1284 212.811 72.8541 213.256 74.8714 213.446C75.7584 213.529 76.2476 213.575 76.6048 213.967C78.5266 216.067 77.221 218.649 76.4415 220.191C76.2538 220.562 76.0773 220.912 75.974 221.184C75.974 221.184 75.974 221.186 75.974 221.186C75.8428 221.528 75.6949 221.893 75.5351 222.285C75.1185 223.305 74.6461 224.462 74.2218 225.902C74.2022 225.971 74.1799 226.048 74.1562 226.13C74.1513 226.151 74.1464 226.171 74.1408 226.192C73.9873 226.726 73.8491 227.281 73.7291 227.842C73.4912 228.95 73.293 230.039 73.1011 231.092C72.5072 234.346 72.039 236.916 70.7885 238.198C70.0104 239 68.6037 239.41 66.3623 239.487C66.0943 239.497 65.8159 239.501 65.5263 239.501L65.5242 239.5ZM54.7959 236.415C54.8329 236.418 54.8685 236.423 54.9076 236.431C57.2634 236.784 59.7832 237.142 62.0749 237.348C63.7406 237.5 65.1627 237.555 66.3036 237.514C68.5764 237.436 69.3224 237.005 69.5652 236.755C70.3957 235.904 70.8569 233.376 71.344 230.702C71.5387 229.633 71.7403 228.528 71.9853 227.389C72.1102 226.802 72.2546 226.219 72.4151 225.656C72.4214 225.627 72.4284 225.599 72.4368 225.572C72.4647 225.481 72.4891 225.393 72.5142 225.305C72.972 223.752 73.487 222.49 73.9008 221.476C74.0536 221.101 74.196 220.752 74.3216 220.424C74.4639 220.049 74.6649 219.652 74.877 219.23C75.7012 217.602 76.1917 216.444 75.4506 215.493C75.2874 215.464 74.9887 215.436 74.7186 215.411C72.568 215.208 67.5318 214.734 60.257 209.571C52.4373 204.023 49.4695 205.096 49.4402 205.107C47.2113 205.987 46.3621 208.741 45.5408 211.405C45.0628 212.954 44.6113 214.417 43.8786 215.391C42.8807 216.716 41.0845 217.858 39.1829 219.066C37.2737 220.279 35.2996 221.533 34.308 222.893C32.673 225.051 32.5774 228.565 33.6227 229.925C35.9053 231.665 43.7446 234.744 52.8371 236.119L53.0228 236.148C53.5992 236.236 54.1916 236.325 54.7959 236.415Z" fill="#371A45"/>
<path d="M73.2853 225.883V225.893C73.1311 226.429 72.986 227.003 72.8555 227.617C71.9281 231.933 71.5813 236.036 70.1759 237.475C69.5269 238.145 68.1396 238.438 66.3316 238.501C65.2144 238.39 64.1118 238.279 63.1865 238.252C64.7399 236.307 65.7357 233.48 66.6484 231.737C68.5451 228.113 71.0851 226.438 73.2846 225.883H73.2853Z" fill="#9EF07B"/>
<g opacity="0.2">
<path d="M73.2847 225.882V225.892C73.1305 226.43 72.9854 227.003 72.8577 227.618C71.9275 231.932 71.5821 236.036 70.1781 237.477C69.527 238.145 68.1404 238.441 66.3331 238.501C65.2145 238.389 64.1126 238.281 63.1887 238.251C63.9703 237.272 64.6102 236.069 65.1705 234.894C70.9045 234.708 71.3406 232.167 73.1571 225.918C73.2003 225.905 73.2415 225.893 73.2847 225.883V225.882Z" fill="#371A45"/>
</g>
<path d="M66.3323 239.486C66.3051 239.486 66.2786 239.485 66.252 239.483L66.1613 239.473C65.0678 239.365 64.0351 239.263 63.1642 239.238C62.8167 239.228 62.5062 238.998 62.3666 238.647C62.2277 238.296 62.2849 237.889 62.5145 237.601C63.5264 236.334 64.3058 234.615 64.9932 233.1C65.2988 232.427 65.587 231.792 65.8731 231.244C68.2359 226.731 71.4054 225.346 73.0844 224.922C73.3489 224.855 73.6294 224.925 73.8422 225.112C74.0557 225.299 74.18 225.583 74.18 225.883V225.893C74.18 225.994 74.1653 226.094 74.1381 226.191C73.9846 226.725 73.8464 227.28 73.7264 227.841C73.4884 228.949 73.2902 230.038 73.0983 231.091C72.5045 234.345 72.0363 236.916 70.7858 238.198C70.0077 238.999 68.6009 239.41 66.3595 239.486C66.3497 239.486 66.3407 239.486 66.3316 239.486L66.3323 239.486ZM64.9032 237.374C65.3609 237.414 65.8354 237.46 66.3225 237.509L66.3581 237.513C68.5876 237.43 69.3238 237.003 69.5646 236.756C70.395 235.905 70.8562 233.377 71.3433 230.703C71.5366 229.641 71.7369 228.544 71.979 227.415C70.5904 228.117 68.8535 229.5 67.4251 232.23C67.1648 232.726 66.8885 233.336 66.5961 233.981C66.1006 235.075 65.5598 236.267 64.9032 237.375V237.374Z" fill="#371A45"/>
<path d="M62.0016 238.33C59.6716 238.121 57.135 237.759 54.7603 237.403C54.7422 237.4 54.7275 237.397 54.7101 237.397C54.618 237.381 54.5266 237.365 54.4373 237.352C52.3536 233.445 51.0849 227.591 50.8037 226.197C51.0347 225.991 51.1296 225.854 51.1296 225.854C51.1296 225.854 51.177 225.753 51.2419 225.57L56.269 222.364C56.269 222.364 58.0652 231.893 62.0016 238.33Z" fill="#9EF07B"/>
<g opacity="0.2">
<path d="M62.0016 238.331C59.6709 238.123 57.1336 237.758 54.759 237.403C54.7415 237.4 54.7269 237.396 54.7094 237.396C54.6194 237.38 54.5266 237.364 54.4359 237.352C53.849 236.251 53.3257 234.992 52.8721 233.725C55.7059 234.129 58.0834 234.439 60.0882 234.64C60.6576 235.921 61.294 237.176 62.0002 238.331H62.0016Z" fill="#371A45"/>
</g>
<path d="M62.0024 239.316C61.978 239.316 61.9536 239.316 61.9298 239.313C59.5963 239.104 57.0472 238.742 54.6411 238.381C54.6376 238.381 54.6334 238.38 54.6293 238.38C54.6097 238.377 54.5902 238.375 54.5706 238.371C54.4646 238.353 54.3906 238.339 54.3194 238.329C54.0466 238.289 53.8058 238.112 53.6663 237.851C51.4828 233.755 50.1716 227.603 49.9308 226.411C49.8576 226.046 49.9776 225.666 50.2414 225.431C50.3007 225.378 50.3453 225.334 50.3767 225.301C50.3865 225.275 50.3977 225.245 50.4102 225.21C50.4842 225.002 50.6196 224.828 50.7947 224.717L55.8218 221.511C56.0709 221.352 56.3738 221.335 56.6362 221.464C56.8986 221.594 57.0884 221.854 57.147 222.164C57.1644 222.258 58.9564 231.583 62.7449 237.78C62.9368 238.094 62.9486 238.502 62.7749 238.829C62.6137 239.133 62.3185 239.317 62.0024 239.317V239.316ZM54.6795 238.382C54.69 238.382 54.6997 238.382 54.7102 238.382C54.6997 238.382 54.6893 238.382 54.6795 238.382ZM54.9991 236.444C56.729 236.703 58.544 236.964 60.29 237.164C57.7338 232.275 56.2482 226.456 55.6711 223.885L51.9468 226.26C51.9336 226.29 51.9266 226.306 51.9266 226.306C51.9036 226.354 51.8722 226.409 51.8422 226.453C51.8324 226.467 51.8156 226.49 51.7912 226.521C52.1785 228.319 53.2957 233.045 54.9998 236.445L54.9991 236.444Z" fill="#371A45"/>
<path d="M45.0706 212.983C45.0706 212.983 45.894 212.092 47.0544 206.852C47.7146 203.87 49.4863 199.928 55.99 203.118C59.9411 205.055 59.0095 208.094 57.8399 211.013C56.7813 213.654 54.9154 216.094 54.0501 216.995C52.8066 218.289 45.0713 212.983 45.0713 212.983H45.0706Z" fill="white"/>
<path d="M57.8399 211.015C57.5461 211.745 57.1944 212.458 56.8169 213.127C55.8288 214.885 54.6781 216.345 54.05 216.997C52.8058 218.291 45.0698 212.983 45.0698 212.983C45.0698 212.983 45.7558 212.244 46.7585 208.133C46.8541 207.74 46.9532 207.314 47.0551 206.853C47.7146 203.869 49.4877 199.929 55.9893 203.118C59.9417 205.055 59.0087 208.095 57.8406 211.015H57.8399Z" fill="white"/>
<path d="M56.8169 213.127C55.8288 214.885 54.6781 216.344 54.05 216.997C52.8058 218.29 45.0698 212.982 45.0698 212.982C45.0698 212.982 45.7558 212.243 46.7585 208.133C50.2867 208.267 55.1198 209.749 56.8176 213.126L56.8169 213.127Z" fill="#E5E5E5"/>
<path d="M53.4645 218.191C52.5881 218.191 51.1708 217.738 48.6894 216.354C46.589 215.184 44.6776 213.875 44.5974 213.82C44.3483 213.65 44.1515 213.394 44.1361 213.071C44.1215 212.757 44.2066 212.492 44.4243 212.296C44.5485 212.104 45.2352 210.909 46.1842 206.619C46.7564 204.034 47.7899 202.37 49.3432 201.53C51.1143 200.573 53.4729 200.803 56.3542 202.217C61.359 204.671 59.6026 209.055 58.6584 211.41C57.5768 214.109 55.6773 216.657 54.6641 217.712C54.4045 217.981 54.0591 218.191 53.4639 218.191H53.4645ZM46.2917 212.65C49.5337 214.792 52.6914 216.36 53.4967 216.214C54.3871 215.264 56.0751 212.975 57.0206 210.615C58.3898 207.198 58.5133 205.435 55.6257 204.018C53.2531 202.855 51.4032 202.613 50.1318 203.301C49.0844 203.868 48.3621 205.106 47.9232 207.086C47.263 210.07 46.6957 211.731 46.291 212.649L46.2917 212.65Z" fill="#371A45"/>
<path d="M50.5776 221.891C50.5776 221.891 48.4625 225.001 50.2399 227.11C52.3229 229.582 56.6926 227.136 58.3081 223.037C60.4169 217.685 55.2705 212.826 50.5434 210.909C44.3747 208.408 42.6044 211.781 42.6372 214.275C42.6693 216.77 50.5783 221.891 50.5783 221.891H50.5776Z" fill="#9EF07B"/>
<g opacity="0.7">
<path d="M58.3082 223.037C57.9942 223.837 57.5727 224.573 57.0849 225.224C57.2098 224.977 57.3263 224.724 57.4275 224.462C59.5349 219.11 54.3906 214.251 49.6615 212.336C46.1417 210.908 44.0552 211.392 42.9192 212.538C43.6226 210.563 45.7614 208.972 50.5422 210.908C55.2706 212.826 60.4149 217.685 58.3082 223.037Z" fill="white"/>
</g>
<path d="M52.3898 229.087C51.2823 229.087 50.3061 228.637 49.5838 227.78C47.9879 225.887 48.7332 223.511 49.3452 222.225C46.8561 220.547 41.7746 216.812 41.7418 214.289C41.7187 212.543 42.4138 210.947 43.5994 210.023C45.2678 208.722 47.7081 208.709 50.8525 209.984C53.9012 211.219 57.6744 213.868 59.1216 217.592C59.8815 219.549 59.8843 221.513 59.1293 223.429C58.0107 226.268 55.5774 228.562 53.2118 229.008C52.932 229.06 52.657 229.087 52.3905 229.087H52.3898ZM51.2963 222.48C51.2795 222.504 49.6536 224.964 50.8964 226.439C51.3807 227.014 52.0597 227.224 52.9096 227.064C54.6842 226.73 56.6095 224.871 57.4873 222.644C58.0386 221.245 58.0344 219.807 57.4755 218.369C56.4678 215.775 53.6249 213.209 50.2342 211.835C47.7123 210.812 45.7766 210.744 44.6349 211.633C43.6196 212.425 43.5261 213.735 43.5324 214.261C43.5456 215.294 47.0501 218.462 51.0325 221.041C51.2516 221.183 51.4066 221.422 51.4561 221.697C51.5063 221.971 51.4484 222.256 51.2963 222.48V222.48Z" fill="#371A45"/>
<path d="M38.8865 218.125C38.8865 218.125 45.679 217.816 51.4123 224.131C51.4123 224.131 55.2908 225.171 54.5657 221.208C53.803 217.042 45.164 213.241 42.9247 213.846C40.7755 214.426 39.0058 216.11 38.8872 218.126L38.8865 218.125Z" fill="white"/>
<path d="M54.6515 222.24C54.5615 224.977 51.4108 224.132 51.4108 224.132C45.6796 217.816 38.8843 218.127 38.8843 218.127C38.9457 217.118 39.416 216.197 40.1397 215.451C40.0552 215.729 40.0029 216.014 39.9854 216.308C39.9854 216.308 46.2288 216.023 51.7946 221.562C52.4715 222.236 53.3961 222.566 54.2886 222.356C54.4114 222.327 54.5328 222.289 54.6508 222.24H54.6515Z" fill="#E5E5E5"/>
<path d="M52.4375 225.242C51.8088 225.242 51.3085 225.118 51.201 225.089C51.0412 225.046 50.8961 224.956 50.7795 224.829C45.3875 218.891 38.9892 219.111 38.9236 219.111C38.6689 219.128 38.424 219.015 38.246 218.815C38.0688 218.616 37.9767 218.342 37.9934 218.063C38.133 215.693 40.0282 213.613 42.7113 212.889C44.6038 212.378 48.7796 214.071 51.4962 215.971C53.0781 217.078 55.0474 218.851 55.4437 221.014C55.7117 222.478 55.4842 223.607 54.7662 224.365C54.099 225.071 53.1793 225.244 52.4375 225.244V225.242ZM51.8486 223.219C52.3538 223.304 53.1723 223.318 53.5268 222.94C53.8325 222.614 53.7829 221.924 53.6873 221.402C53.4759 220.247 52.3566 218.908 50.5353 217.634C47.6456 215.613 44.1091 214.541 43.137 214.803C41.6856 215.195 40.5342 216.108 40.0394 217.183C42.292 217.381 47.3372 218.382 51.8486 223.219Z" fill="#371A45"/>
<path d="M59.7249 225.761L62.2203 231.174L70.8662 225.05L62.8092 228.071L59.7249 225.761Z" fill="#371A45"/>
<path d="M70.9337 75.6558C71.2736 69.8916 75.226 64.3933 80.521 63.3373C86.5676 62.1261 91.8878 65.9035 92.5228 72.7983C92.6714 74.423 92.5486 76.0162 92.1788 77.521C92.0462 78.0598 91.5424 78.3787 91.0532 78.2327C90.7008 78.1274 90.4524 77.8108 90.3896 77.4396C89.6994 73.9027 88.9556 69.7601 85.7868 68.13C79.9056 65.4731 74.7822 69.9385 72.6901 76.0408C72.3405 77.1206 70.8786 76.7948 70.9344 75.6542L70.9337 75.6558Z" fill="#371A45"/>
<path d="M96.4105 91.9206C97.372 95.0386 102.145 95.582 103.738 92.8459C104.577 91.6216 104.86 89.8862 105.166 88.4067C105.715 88.4974 106.802 88.6696 107.352 88.7603C107.295 89.701 107.169 90.9046 107.262 91.8407C107.402 94.9057 109.545 96.5757 112.223 96.3475C113.238 96.2499 114.178 95.8279 114.813 94.8957C115.007 94.5867 115.398 94.5145 115.671 94.7412C116.424 95.3991 115.125 97.0061 114.589 97.4688C111.528 100.071 106.349 98.5479 105.149 94.4084C104.644 92.8321 104.608 91.2289 104.922 89.6211L105.918 91.1866L105.899 91.1835L107.261 89.9992C107.245 90.2582 107.227 90.4296 107.202 90.6348C106.645 94.8634 103.611 97.8669 99.6462 96.9108C97.5381 96.4458 95.3672 94.6643 95.2339 92.1404C95.2172 91.7753 95.4719 91.4641 95.8034 91.4456C96.0867 91.4295 96.3351 91.6331 96.4112 91.9206H96.4105Z" fill="#371A45"/>
<path d="M113.298 85.5819C113.083 87.1904 110.987 88.3018 109.107 88.9827C107.142 89.6952 105.092 89.3616 103.398 88.0535C101.779 86.8031 100.064 85.0715 100.28 83.4629C100.931 78.6103 113.949 80.7284 113.298 85.5819Z" fill="#371A45"/>
<g opacity="0.5">
<path d="M109.498 83.9908C109.436 84.455 108.625 84.7417 107.895 84.907C107.13 85.0799 106.317 84.9477 105.631 84.5388C104.975 84.1476 104.274 83.615 104.336 83.1508C104.524 81.7513 109.686 82.5913 109.498 83.9908Z" fill="white"/>
</g>
<path d="M111.267 97.5415C114.828 97.1772 114.519 92.9148 118.53 92.5467C120.704 92.3468 122.203 94.787 121.172 97.1211C120.051 99.6558 116.436 100.413 114.443 99.7857C112.33 99.1209 111.266 97.5415 111.266 97.5415H111.267Z" fill="#FF8080"/>
<path d="M115.951 101.144C115.298 101.144 114.684 101.058 114.157 100.892C111.731 100.128 110.48 98.3039 110.428 98.2263C110.203 97.8927 110.159 97.4508 110.312 97.0719C110.466 96.6923 110.794 96.434 111.169 96.3956C112.461 96.2634 113.04 95.4918 113.841 94.4235C114.774 93.1792 115.935 91.6305 118.443 91.4C119.825 91.2716 121.109 91.9364 121.878 93.1738C122.683 94.4688 122.77 96.132 122.11 97.6245C121.03 100.069 118.253 101.144 115.95 101.144H115.951ZM113.361 98.0173C113.736 98.2693 114.193 98.5099 114.73 98.679C116.353 99.1893 119.378 98.5483 120.233 96.6169C120.559 95.8784 120.53 95.0775 120.154 94.4734C119.81 93.9193 119.25 93.6334 118.616 93.6926C116.985 93.8424 116.308 94.7447 115.451 95.8876C114.91 96.61 114.285 97.4431 113.36 98.0165L113.361 98.0173Z" fill="#371A45"/>
<path d="M138.136 26.4288C136.804 21.2549 146.782 22.9249 146.354 18.2905C146.042 14.9204 134.679 7.61911 125.08 15.6851C125.08 15.6851 125.181 13.0651 125.802 9.67885C126.547 5.62087 126.51 2.19541 124.977 1.49602C121.87 0.0795677 115.778 6.80521 104.143 12.5125C99.6426 14.7198 91.0992 17.7072 87.197 18.5411L113.394 43.4162L138.136 26.4296L138.136 26.4288Z" fill="white"/>
<path d="M137.562 26.6076C136.355 23.7202 138.976 21.921 141.104 21.1163L142.184 20.6936C142.881 20.4154 143.563 20.161 144.114 19.8366C144.536 19.5938 144.943 19.294 145.076 18.8775C145.095 18.806 145.108 18.7315 145.111 18.6408C145.112 18.5616 145.099 18.3987 145.092 18.4025C144.813 17.6486 144.095 16.9768 143.412 16.4227C140.578 14.2454 136.964 13.2632 133.535 13.5337C130.724 13.7597 128.049 14.9202 125.771 16.7578C124.999 17.4203 123.803 16.6863 123.889 15.6296C124.003 13.0295 124.438 10.574 124.857 8.04083C125.02 6.8634 125.124 5.67136 125.064 4.58078C125.011 3.88677 124.944 3.23657 124.617 2.78774C124.549 2.70934 124.501 2.70473 124.413 2.67169C123.701 2.47878 122.695 2.923 121.946 3.29575C118.942 4.8982 116.128 7.04708 113.176 8.87548C111.186 10.1413 109.153 11.3479 107.076 12.4585C102.939 14.7058 98.5431 16.3658 94.1468 17.8676C91.9194 18.6108 89.7289 19.3171 87.4254 19.832C85.9035 20.1249 85.3976 17.6539 86.9621 17.2528C88.0284 17.0214 89.1204 16.7155 90.2042 16.3904C95.6053 14.7119 100.98 12.8074 106.033 10.0936C110.123 7.93092 113.93 5.33397 117.84 2.75085C120.026 1.45275 123.118 -0.998177 125.722 0.43672C128.384 2.24744 127.359 7.56739 126.902 10.3403C126.596 12.1019 126.366 13.9795 126.274 15.7402L124.357 14.6397H124.357C129.42 9.9945 137.004 9.34046 142.825 12.6852C145.101 14.0171 148.436 16.4242 147.431 19.7859C146.408 22.6288 143.056 22.9762 140.806 23.8524C139.616 24.2935 138.562 24.7654 138.71 26.2495C138.788 26.9965 137.848 27.297 137.562 26.6084V26.6076Z" fill="#371A45"/>
<path d="M97.2434 234.448C96.6977 237.178 96.436 242.355 97.6474 243.94C99.6181 246.517 107.517 247.11 114.021 247.491C122.979 248.017 130.661 247.117 133.368 245.732C135.534 244.209 135.075 238.509 134.066 235.335L97.2441 234.449L97.2434 234.448Z" fill="white"/>
<path d="M97.6478 243.941C99.6184 246.517 107.518 247.109 114.022 247.49C122.979 248.015 130.661 247.116 133.366 245.733C134.666 244.821 135.02 242.407 134.878 239.936C134.765 241.645 134.317 243.12 133.366 243.79C130.661 245.176 122.979 246.076 114.022 245.551C107.518 245.169 99.6184 244.575 97.6478 241.998C97.1216 241.31 96.8718 239.942 96.8048 238.393C96.7176 240.666 96.9067 242.974 97.6478 243.941Z" fill="#E8E8E8"/>
<path d="M119.148 248.628C117.467 248.628 115.729 248.579 113.972 248.476C106.233 248.022 99.1081 247.382 96.9624 244.576C95.3846 242.513 95.894 236.612 96.3685 234.236C96.4746 233.704 96.9519 233.368 97.4355 233.485C97.9184 233.602 98.2233 234.128 98.1173 234.66C97.5171 237.665 97.4788 242.191 98.3322 243.305C100.156 245.691 109.206 246.222 114.068 246.507C123.217 247.042 130.451 246.092 132.931 244.868C134.366 243.76 134.269 238.96 133.22 235.661C133.057 235.147 133.303 234.584 133.769 234.405C134.237 234.224 134.747 234.495 134.91 235.009C135.79 237.777 136.746 244.528 133.85 246.565C133.816 246.588 133.781 246.609 133.745 246.628C131.277 247.89 125.639 248.629 119.149 248.629L119.148 248.628Z" fill="#371A45"/>
<path d="M125.002 212.327C124.345 211.858 120.482 209.248 111.047 212.806C100.821 216.663 98.4333 214.917 97.8199 215.39C95.5073 217.169 97.2805 222.631 97.2805 229.119C97.2805 233.466 96.4361 237.228 97.6476 238.812C99.6182 241.389 107.517 241.981 114.021 242.362C122.979 242.888 131.358 241.564 134.066 240.179C135.764 238.812 136.305 234.76 134.91 231.981C133.368 228.777 128.33 225.571 126.944 222.793C125.625 220.148 127.54 214.14 125.003 212.326L125.002 212.327Z" fill="#FCFCFC"/>
<path d="M97.2807 229.119C97.2807 233.466 96.435 237.228 97.6471 238.812C99.3644 241.056 105.581 241.795 111.455 242.198C112.324 242.258 113.184 242.313 114.021 242.361C122.979 242.889 131.357 241.564 134.066 240.178C135.691 238.869 136.257 235.098 135.075 232.339C135.022 232.217 134.967 232.099 134.909 231.981C133.369 228.776 128.329 225.572 126.943 222.794C125.623 220.15 127.539 214.142 125.002 212.327C124.345 211.857 120.482 209.247 111.048 212.807C100.821 216.665 98.4342 214.917 97.818 215.39C95.5076 217.17 97.2807 222.631 97.2807 229.119Z" fill="#FCFCFC"/>
<path d="M97.2804 229.119C97.2804 233.466 96.4346 237.228 97.6467 238.812C99.3641 241.056 105.581 241.795 111.454 242.198C112.323 242.258 113.184 242.313 114.021 242.361C122.978 242.889 131.357 241.564 134.066 240.178C135.69 238.869 136.257 235.098 135.074 232.339C135.022 232.217 134.967 232.099 134.909 231.981C133.369 228.776 128.329 225.572 126.943 222.794C126.306 221.52 126.422 219.462 126.428 217.468C126.434 215.33 126.315 213.268 125.001 212.327C124.345 211.857 120.482 209.247 111.048 212.807C100.82 216.665 98.4339 214.917 97.8177 215.39C96.1492 216.677 96.6119 219.881 96.995 224.011C97.1429 225.595 97.2797 227.317 97.2797 229.119H97.2804Z" fill="#FCFCFC"/>
<path d="M97.2804 229.119C97.2804 233.466 96.4346 237.228 97.6467 238.812C99.3641 241.056 105.581 241.795 111.454 242.198C112.323 242.258 113.184 242.313 114.021 242.361C122.978 242.889 131.357 241.564 134.066 240.178C135.69 238.869 136.257 235.098 135.074 232.339C135.022 232.217 134.967 232.099 134.909 231.981C133.369 228.776 128.329 225.572 126.943 222.794C126.306 221.52 126.422 219.462 126.428 217.468C126.434 215.33 126.315 213.268 125.001 212.327C124.345 211.857 120.482 209.247 111.048 212.807C100.82 216.665 98.4339 214.917 97.8177 215.39C96.1492 216.677 96.6119 219.881 96.995 224.011C97.1429 225.595 97.2797 227.317 97.2797 229.119H97.2804Z" fill="#FCFCFC"/>
<path d="M97.2811 229.12C97.2811 233.467 96.4354 237.228 97.6475 238.812C99.3648 241.057 105.582 241.796 111.455 242.199C112.324 242.259 113.184 242.314 114.022 242.362C122.979 242.89 131.358 241.565 134.067 240.179C135.691 238.87 136.258 235.099 135.075 232.34C135.023 232.218 134.968 232.1 134.91 231.982C134.346 230.807 133.311 229.632 132.157 228.476C130.443 226.764 128.467 225.093 127.391 223.54C127.217 223.288 127.066 223.041 126.944 222.795C126.308 221.521 126.424 219.463 126.43 217.469C126.435 215.331 126.317 213.269 125.003 212.328C124.346 211.858 120.484 209.248 111.049 212.808C100.822 216.666 98.4353 214.918 97.8192 215.391C96.1507 216.678 96.6133 219.882 96.9964 224.012C97.1444 225.596 97.2811 227.318 97.2811 229.12Z" fill="#FCFCFC"/>
<path d="M112.013 220.74C113.408 220.295 114.594 219.87 115.452 219.515C116.71 218.993 118.186 218.596 119.692 218.298C119.553 216.592 119.288 213.385 119.091 210.98C117.039 211.057 114.394 211.544 111.049 212.808C110.86 212.879 110.674 212.949 110.491 213.016C110.374 215.91 111.197 218.714 112.013 220.74Z" fill="#FFB522"/>
<path d="M111.125 218.103C111.7 220.238 112.534 222.005 113.051 222.988C114.438 222.284 115.751 221.471 116.923 220.529V214.665C115.027 216.051 113.066 217.181 111.125 218.103Z" fill="#FFB522"/>
<path d="M119.152 231.099C123.128 228.093 129.281 228.221 132.158 228.477C130.443 226.765 128.467 225.094 127.392 223.542C122.881 224.111 116.388 226.441 116.167 227.825C115.871 229.691 119.152 231.099 119.152 231.099V231.099Z" fill="#E8E8E8"/>
<path d="M97.6476 238.813C99.3649 241.057 105.582 241.797 111.455 242.199C112.324 242.26 113.184 242.315 114.022 242.362C122.979 242.89 131.358 241.565 134.067 240.18C135.2 239.267 135.819 237.158 135.686 235.027C135.418 235.673 135.055 236.205 134.616 236.56C131.907 237.945 123.528 239.271 114.571 238.742C113.734 238.695 112.874 238.64 112.004 238.58C106.131 238.176 99.9141 237.437 98.1967 235.193C97.8102 234.691 97.4466 233.874 97.127 232.853C96.9581 235.538 96.8018 237.706 97.6469 238.813H97.6476Z" fill="#E8E8E8"/>
<path d="M96.9957 224.011C103 223.553 111.969 220.96 115.451 219.513C118.732 218.153 123.484 217.653 126.428 217.468C126.434 215.33 126.315 213.268 125.001 212.327C124.345 211.857 120.482 209.247 111.048 212.807C100.82 216.665 98.4339 214.917 97.8177 215.39C96.1492 216.677 96.6119 219.881 96.995 224.011H96.9957Z" fill="#9EF07B"/>
<g opacity="0.2">
<path d="M112.013 220.74C113.408 220.295 114.594 219.87 115.452 219.515C116.71 218.993 118.186 218.596 119.692 218.298C119.553 216.592 119.288 213.385 119.091 210.98C117.039 211.057 114.394 211.544 111.049 212.808C110.86 212.879 110.674 212.949 110.491 213.016C110.374 215.91 111.197 218.714 112.013 220.74Z" fill="#371A45"/>
</g>
<g opacity="0.7">
<path d="M96.6565 220.01C96.7381 218.711 97.0549 217.719 97.819 217.13C98.4352 216.657 100.821 218.404 111.049 214.547C120.483 210.988 124.345 213.596 125.003 214.066C125.953 214.748 126.278 216.016 126.383 217.472C126.4 217.472 126.415 217.469 126.43 217.469C126.435 215.331 126.317 213.269 125.003 212.328C124.346 211.858 120.483 209.248 111.049 212.808C100.822 216.666 98.4352 214.918 97.819 215.391C96.7437 216.221 96.5518 217.85 96.6565 220.01Z" fill="white"/>
</g>
<path d="M111.455 242.198C112.323 242.259 113.184 242.313 114.021 242.361C122.978 242.889 131.357 241.564 134.066 240.178C135.691 238.869 136.257 235.098 135.074 232.339C131.284 234.954 122.955 236.916 116.572 232.256C116.572 232.256 111.797 237.982 111.455 242.198Z" fill="#9EF07B"/>
<g opacity="0.2">
<path d="M111.455 242.2C112.324 242.261 113.185 242.315 114.022 242.363C122.979 242.891 131.358 241.566 134.067 240.18C135.2 239.268 135.819 237.158 135.686 235.027C135.418 235.673 135.055 236.205 134.616 236.56C131.907 237.946 123.528 239.272 114.571 238.743C113.897 238.704 113.208 238.663 112.513 238.614C111.958 239.824 111.548 241.066 111.455 242.2Z" fill="#371A45"/>
</g>
<path d="M96.8066 222.038C96.949 223.561 97.1353 225.258 97.2253 227.067C102.03 226.772 111.167 225.146 116.921 220.53V214.666C109.432 220.146 100.89 221.635 96.8066 222.038Z" fill="#9EF07B"/>
<g opacity="0.2">
<path d="M111.125 218.103C111.7 220.238 112.534 222.005 113.051 222.988C114.438 222.284 115.751 221.471 116.923 220.529V214.665C115.027 216.051 113.066 217.181 111.125 218.103Z" fill="#371A45"/>
</g>
<path d="M97.2252 228.053C97.0054 228.053 96.7926 227.964 96.6279 227.802C96.4513 227.627 96.3438 227.382 96.3313 227.121C96.2608 225.7 96.1317 224.368 96.0068 223.08L95.9168 222.139C95.8924 221.877 95.9642 221.614 96.1164 221.411C96.2685 221.207 96.489 221.08 96.727 221.056C100.977 220.636 109.189 219.141 116.426 213.845C116.702 213.644 117.054 213.626 117.345 213.797C117.636 213.969 117.817 214.303 117.817 214.666V220.53C117.817 220.845 117.68 221.141 117.449 221.327C111.982 225.713 103.164 227.69 97.2747 228.051C97.258 228.051 97.2412 228.053 97.2252 228.053ZM97.7918 222.921C97.8839 223.874 97.9851 224.923 98.0598 226.017C103.533 225.551 111.119 223.747 116.026 220.021V216.455C109.32 220.884 102.104 222.402 97.7918 222.921Z" fill="#371A45"/>
<path d="M117.692 233.241C117.431 233.241 117.182 233.117 117.011 232.896C116.765 232.579 116.656 232.348 116.629 232.285C116.611 232.243 116.593 232.19 116.58 232.147C116.58 232.147 116.538 232.003 116.495 231.743C116.426 231.331 116.6 230.916 116.93 230.708C117.26 230.5 117.674 230.545 117.961 230.818L118.388 231.225C118.68 231.503 118.777 231.957 118.629 232.35C118.629 232.35 118.59 232.453 118.514 232.647C118.391 232.959 118.131 233.179 117.825 233.23C117.78 233.238 117.736 233.241 117.692 233.241Z" fill="#232333"/>
<path d="M117.374 232.549C116.953 232.549 116.579 232.222 116.496 231.75C116.332 230.816 116.117 228.392 117.657 226.06C119.282 223.596 122.317 222.046 126.679 221.451C127.176 221.387 127.617 221.769 127.677 222.309C127.738 222.85 127.389 223.342 126.899 223.409C123.049 223.933 120.427 225.215 119.105 227.219C117.978 228.926 118.135 230.694 118.255 231.375C118.348 231.91 118.031 232.427 117.546 232.53C117.488 232.543 117.431 232.548 117.375 232.548L117.374 232.549Z" fill="#232333"/>
<path d="M126.714 236.053C120.439 236.053 117.948 234.092 117.014 232.898C116.69 232.485 116.732 231.863 117.107 231.507C117.482 231.152 118.047 231.197 118.37 231.61C118.846 232.219 120.895 234.192 127.26 234.076C130.654 234.012 133.084 233.121 134.285 231.499C134.599 231.078 135.162 231.015 135.545 231.359C135.929 231.703 135.985 232.324 135.673 232.747C134.105 234.861 131.285 235.972 127.29 236.047C127.096 236.051 126.903 236.052 126.715 236.052L126.714 236.053Z" fill="#371A45"/>
<path d="M118.038 243.465C116.701 243.465 115.34 243.428 113.973 243.347C106.234 242.893 99.1081 242.253 96.963 239.447C95.8996 238.056 96.044 235.796 96.2269 232.935C96.305 231.715 96.3853 230.454 96.3853 229.119C96.3853 227.003 96.1885 224.962 96.0147 223.162C95.6344 219.217 95.3337 216.099 97.3078 214.581C97.7216 214.263 98.1626 214.299 98.7746 214.346C100.117 214.452 103.265 214.698 110.758 211.873C119.772 208.473 124.064 210.48 125.491 211.5C127.374 212.846 127.345 215.714 127.32 218.245C127.304 219.812 127.287 221.433 127.729 222.319C128.315 223.492 129.803 224.909 131.243 226.28C133.001 227.954 134.819 229.684 135.702 231.52C137.272 234.647 136.738 239.25 134.596 240.975C134.548 241.014 134.497 241.047 134.444 241.074C131.964 242.342 125.384 243.465 118.04 243.465H118.038ZM98.2289 216.286C97.2422 217.218 97.4878 219.762 97.7949 222.953C97.9728 224.803 98.1752 226.898 98.1752 229.118C98.1752 230.523 98.0886 231.877 98.0119 233.073C97.8695 235.296 97.7355 237.397 98.3315 238.176C100.155 240.562 109.206 241.092 114.067 241.378C123.048 241.906 131.111 240.537 133.601 239.328C134.829 238.236 135.324 234.848 134.124 232.459C133.391 230.936 131.702 229.327 130.069 227.772C128.438 226.219 126.897 224.753 126.158 223.268C125.49 221.93 125.509 220.046 125.527 218.224C125.548 216.104 125.57 213.911 124.514 213.156C123.572 212.482 119.84 210.534 111.336 213.741C103.499 216.697 100.097 216.43 98.6448 216.315C98.4955 216.303 98.3315 216.29 98.2275 216.288L98.2289 216.286Z" fill="#371A45"/>
<path d="M97.647 238.81C98.5884 240.046 100.888 240.821 103.745 241.342C103.236 239.312 102.477 236.332 101.954 234.447C100.96 230.869 99.2715 228.548 97.2458 227.565C97.2688 228.074 97.2807 228.593 97.2807 229.118C97.2807 233.468 96.4349 237.229 97.647 238.81Z" fill="#9EF07B"/>
<g opacity="0.2">
<path d="M97.6476 238.81C98.5889 240.046 100.888 240.821 103.745 241.342C103.46 240.205 103.097 238.775 102.742 237.402C100.617 236.893 98.9609 236.195 98.1967 235.193C97.8102 234.69 97.4466 233.874 97.127 232.853C96.9581 235.538 96.8018 237.705 97.6469 238.81L97.6476 238.81Z" fill="#371A45"/>
</g>
<path d="M103.744 242.329C103.696 242.329 103.647 242.324 103.598 242.315C100.073 241.672 97.9637 240.759 96.9617 239.444C95.8989 238.056 96.044 235.798 96.2269 232.939C96.305 231.717 96.386 230.455 96.386 229.118C96.386 228.615 96.3748 228.11 96.3525 227.615C96.3371 227.273 96.483 226.947 96.7391 226.753C96.9952 226.56 97.3238 226.526 97.6078 226.663C99.9679 227.808 101.768 230.399 102.811 234.158C103.375 236.188 104.179 239.366 104.608 241.079C104.689 241.403 104.615 241.752 104.411 242.001C104.239 242.21 103.997 242.328 103.745 242.328L103.744 242.329ZM98.1759 229.362C98.1668 230.681 98.0859 231.951 98.0133 233.078C97.8709 235.3 97.7362 237.398 98.3315 238.174C98.3315 238.174 98.3322 238.176 98.3329 238.176C98.7439 238.716 99.8081 239.451 102.497 240.082C102.067 238.383 101.514 236.237 101.098 234.735C100.438 232.361 99.4243 230.51 98.1752 229.361L98.1759 229.362Z" fill="#371A45"/>
<path d="M105.119 241.563C107.389 241.899 109.906 242.104 112.321 242.258C114.983 238.919 117.187 233.542 117.692 232.255C117.503 232.012 117.436 231.859 117.436 231.859C117.436 231.859 117.407 231.753 117.376 231.564L113.071 227.454C113.071 227.454 109.953 236.528 105.12 241.564L105.119 241.563Z" fill="#9EF07B"/>
<g opacity="0.2">
<path d="M105.12 241.562C107.39 241.898 109.907 242.103 112.322 242.257C113.148 241.22 113.929 239.991 114.63 238.746C114.61 238.746 114.592 238.742 114.572 238.742C113.735 238.695 112.875 238.64 112.005 238.58C110.59 238.483 109.154 238.365 107.765 238.211C106.959 239.418 106.073 240.571 105.12 241.563V241.562Z" fill="#371A45"/>
</g>
<path d="M112.321 243.244C112.304 243.244 112.287 243.244 112.27 243.242C110.362 243.121 107.534 242.916 105 242.541C104.658 242.49 104.374 242.228 104.268 241.866C104.162 241.505 104.254 241.108 104.504 240.847C109.135 236.023 112.203 227.193 112.234 227.104C112.337 226.803 112.568 226.576 112.852 226.497C113.133 226.419 113.436 226.497 113.658 226.708L117.962 230.819C118.115 230.965 118.219 231.165 118.255 231.384C118.261 231.418 118.267 231.448 118.271 231.474C118.293 231.507 118.327 231.556 118.373 231.615C118.595 231.902 118.649 232.301 118.513 232.647C117.906 234.192 115.715 239.496 112.993 242.909C112.823 243.122 112.577 243.245 112.32 243.245L112.321 243.244ZM107.014 240.818C108.773 241.02 110.545 241.153 111.929 241.245C114.131 238.325 115.992 234.023 116.668 232.367C116.648 232.329 116.636 232.301 116.628 232.285C116.611 232.244 116.592 232.191 116.579 232.148C116.579 232.148 116.574 232.131 116.566 232.098L113.427 229.1C112.484 231.526 110.213 236.833 107.013 240.819L107.014 240.818Z" fill="#371A45"/>
<path d="M125.431 220.699C125.431 220.699 124.788 219.674 124.55 214.391C124.414 211.384 123.37 207.228 116.572 208.975C112.441 210.037 112.828 213.152 113.465 216.201C114.041 218.96 115.428 221.69 116.11 222.734C117.091 224.234 125.43 220.699 125.43 220.699H125.431Z" fill="white"/>
<path d="M113.467 216.201C113.508 216.403 113.554 216.602 113.604 216.8C114.24 219.348 115.478 221.768 116.112 222.735C117.092 224.233 125.433 220.699 125.433 220.699C125.433 220.699 124.912 219.873 124.634 215.885C124.602 215.431 124.573 214.931 124.549 214.39C124.415 211.384 123.372 207.229 116.571 208.974C112.441 210.037 112.831 213.151 113.467 216.201Z" fill="white"/>
<path d="M113.603 216.8C114.239 219.348 115.477 221.768 116.111 222.735C117.091 224.233 125.432 220.699 125.432 220.699C125.432 220.699 124.911 219.873 124.633 215.885C122.703 215.36 119.143 214.848 116.167 216.967C115.199 217.659 114.341 217.459 113.604 216.8H113.603Z" fill="#E5E5E5"/>
<path d="M117.238 224.09C116.312 224.09 115.725 223.829 115.385 223.31C114.585 222.087 113.183 219.244 112.594 216.422C112.079 213.956 111.12 209.364 116.369 208.015C119.388 207.24 121.702 207.499 123.251 208.786C124.611 209.915 125.328 211.732 125.445 214.342C125.639 218.652 126.097 219.946 126.186 220.159C126.366 220.396 126.403 220.674 126.336 220.979C126.266 221.293 126.028 221.503 125.754 221.619C125.667 221.656 123.607 222.527 121.387 223.226C119.56 223.803 118.213 224.09 117.24 224.09H117.238ZM116.786 222.077C117.547 222.377 120.831 221.508 124.29 220.117C124.055 219.145 123.79 217.43 123.655 214.44C123.566 212.449 123.08 211.114 122.172 210.36C121.066 209.441 119.251 209.298 116.775 209.935C113.771 210.706 113.595 212.423 114.337 215.979C114.85 218.438 116.087 220.978 116.785 222.077H116.786Z" fill="#371A45"/>
<path d="M118.632 228.156C118.632 228.156 120.147 231.581 118.082 233.251C115.661 235.207 111.864 231.962 110.996 227.686C109.864 222.103 115.635 218.471 120.509 217.588C126.869 216.436 128.007 220.045 127.558 222.44C127.108 224.836 118.632 228.157 118.632 228.157L118.632 228.156Z" fill="#9EF07B"/>
<g opacity="0.7">
<path d="M110.996 227.687C111.223 228.8 111.647 229.844 112.194 230.743C111.97 230.202 111.79 229.63 111.67 229.034C110.566 223.583 116.201 220.037 120.959 219.172C125.115 218.419 126.989 219.751 127.643 221.412C127.603 219.153 126.007 216.592 120.508 217.587C115.635 218.471 109.862 222.1 110.995 227.686L110.996 227.687Z" fill="white"/>
</g>
<path d="M116.457 234.819C115.951 234.819 115.426 234.71 114.896 234.492C112.687 233.579 110.724 230.869 110.123 227.901C109.716 225.896 110.049 224 111.112 222.267C113.134 218.969 117.217 217.186 120.363 216.615C123.612 216.027 125.964 216.538 127.356 218.136C128.347 219.272 128.75 220.956 128.433 222.64C127.978 225.067 122.471 227.627 119.784 228.742C120.157 230.113 120.466 232.547 118.61 234.046C117.975 234.56 117.238 234.819 116.456 234.82L116.457 234.819ZM122.772 218.351C122.134 218.351 121.426 218.421 120.654 218.561C117.163 219.193 114 221.081 112.596 223.369C111.82 224.636 111.576 226.016 111.87 227.47C112.34 229.787 113.877 231.963 115.525 232.644C116.311 232.969 116.993 232.905 117.552 232.455C118.984 231.297 117.838 228.611 117.826 228.584C117.716 228.332 117.709 228.039 117.805 227.781C117.902 227.523 118.093 227.32 118.332 227.226C122.594 225.555 126.496 223.225 126.681 222.24C126.775 221.737 126.904 220.463 126.065 219.5C125.401 218.738 124.279 218.351 122.772 218.351V218.351Z" fill="#371A45"/>
<path d="M130.523 226.91C130.523 226.91 124.034 225.23 117.453 230.142C117.453 230.142 113.543 230.354 114.907 226.685C116.341 222.829 125.299 220.928 127.353 221.966C129.325 222.962 130.747 224.944 130.522 226.91L130.523 226.91Z" fill="white"/>
<path d="M116.341 230.03C116.937 230.17 117.454 230.142 117.454 230.142C124.034 225.228 130.524 226.908 130.524 226.908C130.559 226.611 130.553 226.316 130.515 226.022C130.053 225.577 129.507 225.208 128.903 224.956C125.645 223.598 117.89 225.82 116.458 229.677C116.411 229.798 116.373 229.914 116.341 230.029V230.03Z" fill="white"/>
<path d="M116.341 230.03C116.937 230.17 117.454 230.142 117.454 230.142C124.034 225.228 130.524 226.908 130.524 226.908C130.559 226.611 130.553 226.316 130.515 226.022C130.053 225.577 129.507 225.208 128.903 224.956C125.645 223.598 117.89 225.82 116.458 229.677C116.411 229.798 116.373 229.914 116.341 230.029V230.03Z" fill="#E8E8E8"/>
<path d="M117.316 231.132C116.73 231.132 115.017 231.013 114.17 229.694C113.603 228.811 113.573 227.673 114.079 226.311C114.825 224.303 117.024 222.993 118.736 222.248C121.674 220.97 125.989 220.19 127.726 221.07C130.195 222.317 131.676 224.713 131.411 227.033C131.38 227.31 131.242 227.56 131.033 227.72C130.825 227.879 130.565 227.934 130.319 227.871C130.233 227.849 124.096 226.374 117.955 230.959C117.82 231.06 117.66 231.119 117.496 231.127C117.466 231.129 117.403 231.132 117.316 231.132H117.316ZM125.669 222.671C124.122 222.671 121.639 223.106 119.394 224.082C117.432 224.936 116.132 225.993 115.736 227.059C115.558 227.538 115.395 228.185 115.63 228.554C115.904 228.983 116.683 229.133 117.181 229.156C122.313 225.436 127.318 225.48 129.54 225.745C129.228 224.627 128.273 223.516 126.98 222.863C126.731 222.737 126.27 222.671 125.669 222.671Z" fill="#371A45"/>
<path d="M109.175 230.018L105.863 234.724L98.5652 227.066L105.816 231.615L109.175 230.018Z" fill="#371A45"/>
<path d="M118.696 96.0691C118.11 98.5562 116.077 100.517 113.66 100.2C113.325 100.172 113.007 100.087 112.674 100.026C112.184 99.9365 111.852 99.4262 111.934 98.8859C112.016 98.3456 112.48 97.9805 112.97 98.0704C113.043 98.082 113.156 98.125 113.228 98.1511C114.104 98.5531 115.106 98.7406 115.997 98.2856C116.925 97.8506 117.687 96.8676 118.129 95.8639C118.262 95.4812 118.797 95.6733 118.696 96.0691Z" fill="#371A45"/>
<path d="M30.1211 43.6388C31.8301 40.5592 32.673 36.8624 32.3123 32.995C31.4372 23.6079 23.8184 16.7793 15.2953 17.743C6.77213 18.7068 0.572014 27.0979 1.44708 36.4851C2.32214 45.8722 9.94092 52.7008 18.4641 51.7371C20.8346 51.4688 23.025 50.625 24.9335 49.3461L32.1127 51.1192L30.1204 43.6388H30.1211Z" fill="white"/>
<g opacity="0.5">
<path d="M15.5997 21.0117C23.5619 20.1117 30.7326 26.0111 32.3564 34.4445C32.3585 33.842 32.3348 33.2348 32.2776 32.6215C31.4025 23.2343 23.7838 16.4057 15.2606 17.3695C6.73746 18.3333 0.537346 26.7244 1.41241 36.1115C1.46963 36.7271 1.55755 37.3305 1.6713 37.9222C1.7013 29.2983 7.63555 21.9117 15.5997 21.0109V21.0117Z" fill="white"/>
</g>
<path d="M16.8479 53.3314C12.9827 53.3314 9.26545 51.882 6.22576 49.159C2.72899 46.0248 0.549705 41.5787 0.0891448 36.6392C-0.861283 26.4427 5.89709 17.2953 15.155 16.2486C24.4144 15.2018 32.7184 22.646 33.6695 32.8425C34.0289 36.6976 33.313 40.485 31.5963 43.8405L33.4225 50.6976C33.5586 51.2079 33.4393 51.7598 33.1085 52.1479C32.7777 52.536 32.2851 52.7035 31.8141 52.5867L25.159 50.9428C23.1374 52.1994 20.9344 52.9695 18.603 53.2331C18.0161 53.2992 17.4299 53.3322 16.8472 53.3322L16.8479 53.3314ZM16.8898 19.1552C16.409 19.1552 15.9233 19.1821 15.4342 19.2375C7.67303 20.1152 2.00745 27.7831 2.80436 36.331C3.19025 40.472 5.01714 44.1987 7.94867 46.8264C10.8802 49.4533 14.5661 50.6676 18.3245 50.2411C20.4368 50.0021 22.4214 49.2689 24.2246 48.0607C24.5267 47.8586 24.8875 47.7932 25.2322 47.8785L30.1518 49.0936L28.8113 44.0611C28.7032 43.6538 28.7555 43.2157 28.9565 42.8545C30.5824 39.9247 31.2732 36.5677 30.9543 33.1476C30.2077 25.1385 24.0473 19.1545 16.8891 19.1545L16.8898 19.1552Z" fill="#371A45"/>
<g opacity="0.3">
<path d="M30.2077 43.4741C25.9587 47.433 20.1047 49.1661 14.2912 47.5729C7.84407 45.8059 3.09402 40.3984 1.38576 33.8364C1.34459 34.7064 1.36343 35.591 1.44647 36.4849C2.32154 45.872 9.94031 52.7007 18.4635 51.7369C20.834 51.4687 23.0244 50.6248 24.9329 49.3459L32.1121 51.119L30.1198 43.6386C30.1498 43.5848 30.1777 43.5287 30.207 43.4749L30.2077 43.4741Z" fill="#371A45"/>
</g>
<path d="M21.8403 29.9414C20.4977 28.4627 18.3212 28.7278 16.9786 30.2065L16.7699 30.4363L16.5613 30.2065C15.2187 28.7278 13.0422 28.4627 11.6996 29.9414C10.357 31.4201 10.357 33.8172 11.6996 35.2959L11.9082 35.5257L16.1293 40.1747C16.4831 40.5644 17.0574 40.5644 17.4112 40.1747L21.6323 35.5257L21.841 35.2959C23.1836 33.8172 23.1836 31.4201 21.841 29.9414H21.8403Z" fill="#FF0068"/>
</svg>
