<svg width="181" height="255" viewBox="0 0 181 255" fill="none" xmlns="http://www.w3.org/2000/svg">
<g opacity="0.3">
<path d="M78.4872 254.5C118.614 254.5 151.143 251.447 151.143 247.681C151.143 243.914 118.614 240.861 78.4872 240.861C38.3603 240.861 5.83105 243.914 5.83105 247.681C5.83105 251.447 38.3603 254.5 78.4872 254.5Z" fill="#371A45"/>
</g>
<path d="M12.9469 169.526C8.45368 174.721 8.97895 186.195 19.0381 191.525C25.5255 194.962 30.9274 194.049 34.8429 188.85C41.1865 180.427 36.5523 175.05 30.2538 171.281C23.9553 167.513 17.196 164.613 12.9469 169.526Z" fill="#413757"/>
<g opacity="0.4">
<path d="M14.329 172.751C18.5781 167.838 25.3364 170.738 31.6358 174.506C34.1092 175.986 36.3226 177.716 37.7187 179.778C37.0165 176.213 33.9193 173.474 30.2536 171.281C23.9551 167.513 17.1958 164.613 12.9468 169.525C9.85418 173.101 9.1391 179.652 12.2741 185.126C10.8835 180.484 11.8271 175.644 14.329 172.751Z" fill="white"/>
</g>
<g opacity="0.3">
<path d="M19.0371 191.524C25.5263 194.961 30.9291 194.048 34.8446 188.848C39.1425 183.144 38.4025 178.835 35.5173 175.479C32.8551 180.524 28.0687 182.312 21.4588 180.712C16.3785 179.483 12.9266 176.502 10.9766 173.043C8.9908 178.821 10.8744 187.197 19.038 191.524H19.0371Z" fill="#371A45"/>
</g>
<path d="M26.2167 195.104C23.7526 195.104 21.1041 194.361 18.3175 192.885C13.2888 190.22 9.97788 185.861 8.99371 180.609C8.15146 176.115 9.22039 171.481 11.7831 168.518C14.0887 165.853 17.2311 164.883 21.1244 165.637C23.877 166.169 26.9364 167.503 31.0444 169.96C35.8676 172.846 38.5464 175.964 39.2366 179.494C39.8633 182.697 38.798 186.157 36.0722 189.775C33.879 192.687 31.2177 194.426 28.162 194.943C27.527 195.05 26.8783 195.105 26.2167 195.105V195.104ZM18.6815 168.473C16.7795 168.473 15.295 169.164 14.1118 170.532C12.148 172.803 11.3463 176.446 12.0199 180.041C12.8281 184.352 15.576 187.947 19.7587 190.163C22.1196 191.414 24.2658 192.041 26.2139 192.041C29.0945 192.041 31.5421 190.671 33.6127 187.922C35.7902 185.03 36.6656 182.393 36.215 180.084C35.7027 177.46 33.4938 175.012 29.4631 172.602C24.8399 169.835 21.3502 168.473 18.6806 168.473H18.6815Z" fill="#371A45"/>
<path d="M132.487 142.797C132.487 142.797 138.656 176.406 133.785 190.91C133.785 190.91 92.3312 212.91 64.6492 206.333C36.968 199.758 23.643 191.202 23.643 191.202C23.643 191.202 20.6776 164.932 23.0588 160.71C25.44 156.488 62.9904 134.191 62.9904 134.191L132.485 142.796L132.487 142.797Z" fill="white"/>
<path d="M23.6458 191.201C23.6458 191.201 53.2381 205.008 76.6803 206.347C72.9288 206.282 70.0961 206.166 70.0961 206.166C70.0961 206.166 69.7192 209.149 68.9074 213.486C66.9796 223.792 62.5849 241.748 54.9152 245.526C44.0212 250.894 38.0102 237.842 32.8967 228.044C29.8687 222.241 27.1825 210.392 25.4971 201.695C24.3313 195.7 23.6458 191.201 23.6458 191.201Z" fill="#413757"/>
<path d="M82.6328 206.394C80.7161 206.486 78.7348 206.463 76.6992 206.348C78.5349 206.378 80.5861 206.401 82.6328 206.394Z" fill="#575B5A"/>
<path d="M80.2048 206.681C79.0732 206.681 77.8974 206.647 76.6865 206.577L76.7031 206.117C78.9442 206.154 80.884 206.169 82.6321 206.163L82.6441 206.624C81.858 206.661 81.0434 206.681 80.2048 206.681Z" fill="#371A45"/>
<path d="M134.637 188.949C134.637 188.949 130.646 220.243 122.057 235.001C113.464 249.763 105.753 247.627 99.5382 242.332C93.3236 237.037 93.3623 205.793 93.3623 205.793C91.1691 206.232 86.9357 206.378 82.6719 206.393C106.699 205.261 134.637 188.949 134.637 188.949Z" fill="#413757"/>
<g opacity="0.3">
<path d="M93.5961 213.285C95.5239 223.59 96.4897 241.748 104.158 245.526C115.052 250.894 121.063 237.842 126.177 228.044C129.205 222.241 131.891 210.392 133.577 201.695C130.079 210.177 120.654 226.783 110.761 226.783C100.298 226.783 96.9467 220.085 93.5952 213.285H93.5961Z" fill="#371A45"/>
</g>
<path d="M145.034 190.75C142.112 194.506 138.111 196.465 133.955 195.572C133.955 195.572 136.56 164.844 134.302 150.528C134.129 149.439 133.978 148.489 133.844 147.665C132.216 137.644 133.244 146.018 133.244 146.018C133.244 146.018 118.714 142.905 90.9532 142.597C87.5436 142.558 20.4275 152.67 20.4275 152.67L34.732 115.567C34.732 115.567 34.909 112.719 37.5721 112.961C38.0375 113.004 38.5839 113.138 39.2152 113.404C45.7035 116.113 59.0137 125.006 75.2756 125.549C112.222 126.776 127.672 116.005 127.672 116.005C127.672 116.005 130.981 119.569 134.436 124.502C137.137 128.358 139.928 133.056 141.298 137.536C144.414 147.741 149.283 162.338 149.652 174.998C149.837 181.356 147.986 186.966 145.035 190.749L145.034 190.75Z" fill="#413757"/>
<g opacity="0.3">
<path d="M141.811 191.399C141.517 194.458 138.111 196.466 133.955 195.573C133.955 195.573 136.561 164.845 134.302 150.529C134.129 149.439 133.979 148.489 133.844 147.666C136.28 152.48 143.395 174.926 141.811 191.398V191.399Z" fill="#371A45"/>
</g>
<g opacity="0.3">
<path d="M89.232 137.922C108.661 137.922 127.381 133.629 136.232 127.187C132.776 122.253 127.671 116.006 127.671 116.006C127.671 116.006 112.221 126.777 75.2749 125.549C59.0131 125.006 45.7019 116.114 39.2145 113.404C38.5833 113.139 38.0368 113.004 37.5715 112.962C37.506 113.385 34.6825 115.668 34.7314 116.097C34.8014 116.708 34.9968 117.343 35.3018 117.994L34.9396 117.882C8.21594 155.665 29.8713 222.016 29.8713 222.016L30.627 222.488C31.3531 224.638 32.1125 226.544 32.8948 228.044C38.0092 237.842 44.0202 250.895 54.9142 245.527C61.8495 242.11 65.5945 226.405 67.6734 215.808C66.41 218.072 63.686 220.557 60.4101 222.585C52.205 227.668 41.3791 223.386 38.6699 214.123C28.6715 179.943 33.5039 149.027 37.7088 132.524C38.7915 128.276 43.5483 126.164 47.4288 128.205C57.5903 133.553 72.8071 137.922 89.2311 137.922H89.232Z" fill="#371A45"/>
</g>
<path d="M93.992 157.118C101.084 150.026 101.084 138.528 93.992 131.436C86.9003 124.345 75.4026 124.345 68.311 131.436C61.2193 138.528 61.2193 150.026 68.311 157.118C75.4026 164.21 86.9003 164.21 93.992 157.118Z" fill="#9EF07B"/>
<g opacity="0.4">
<path d="M81.2791 130.264C89.91 130.264 97.1281 136.287 98.9757 144.357C98.9757 144.33 98.9776 144.304 98.9776 144.277C98.9776 134.247 90.8471 126.117 80.8184 126.117C70.7896 126.117 62.6592 134.248 62.6592 144.277C62.6592 145.676 62.8223 147.035 63.1218 148.344C63.1651 138.352 71.2771 130.264 81.2791 130.264Z" fill="white"/>
</g>
<g opacity="0.4">
<path d="M26.9105 130.264C35.5413 130.264 42.7595 136.287 44.6071 144.357C44.6071 144.33 44.6089 144.304 44.6089 144.277C44.6089 134.247 36.4785 126.117 26.4497 126.117C16.421 126.117 8.29053 134.248 8.29053 144.277C8.29053 145.676 8.45362 147.035 8.75311 148.344C8.79643 138.352 16.9085 130.264 26.9105 130.264Z" fill="white"/>
</g>
<g opacity="0.3">
<path d="M99.3106 144.275C99.3106 154.308 91.1792 162.435 81.1514 162.435C71.1236 162.435 62.9922 154.308 62.9922 144.275C62.9922 142.04 63.3958 139.9 64.1349 137.922C66.7132 144.815 73.3591 149.725 81.1514 149.725C88.9436 149.725 95.5895 144.815 98.1679 137.922C98.907 139.9 99.3106 142.04 99.3106 144.275Z" fill="#371A45"/>
</g>
<path d="M81.1514 163.977C75.8896 163.977 70.943 161.927 67.222 158.207C63.5009 154.487 61.4524 149.539 61.4524 144.277C61.4524 139.015 63.5018 134.068 67.222 130.348C70.9421 126.628 75.8896 124.578 81.1514 124.578C92.0132 124.578 100.85 133.415 100.85 144.278C100.85 149.54 98.801 154.487 95.0809 158.208C91.3608 161.929 86.4132 163.978 81.1524 163.978L81.1514 163.977ZM81.1514 127.657C71.9871 127.657 64.5311 135.113 64.5311 144.278C64.5311 153.443 71.9871 160.899 81.1514 160.899C90.3158 160.899 97.7717 153.443 97.7717 144.278C97.7717 135.113 90.3158 127.657 81.1514 127.657Z" fill="#371A45"/>
<path d="M72.3388 150.829C72.289 149.94 72.2005 149.094 72.0734 148.286C69.1872 129.837 46.9144 132.435 46.2021 151.353C46.191 151.66 46.1827 151.976 46.1827 152.292L45.9938 151.649V151.646L38.701 129.757C35.9918 131.606 30.1725 135.588 25.1392 139.119C23.8049 145.034 23.3542 151.78 24.9254 158.826C25.5723 161.732 26.5758 164.645 28.0152 167.508C39.417 190.197 72.3839 180.458 72.3839 152.431C72.3839 151.884 72.3683 151.35 72.3379 150.83L72.3388 150.829Z" fill="#413757"/>
<g opacity="0.4">
<path d="M72.0734 148.285C70.3917 145.873 65.2543 139.585 58.6176 140.793C49.3472 142.481 47.4066 149.667 46.2021 151.352C46.9145 132.434 69.1873 129.837 72.0734 148.285Z" fill="white"/>
</g>
<g opacity="0.35">
<path d="M47.4417 180.337C44.4505 180.337 41.533 179.728 38.8192 178.521C34.1647 176.451 30.3579 172.678 27.8118 167.611C26.424 164.851 25.3781 161.912 24.7026 158.875L24.5432 158.158L25.0841 158.656C30.3892 163.541 40.8502 171.407 51.313 169.202C64.4583 166.432 70.5688 154.369 72.1289 150.738L72.5131 149.844L72.5712 150.816C72.6025 151.337 72.6182 151.88 72.6182 152.43C72.6182 159.438 70.5485 165.772 66.6321 170.746C63.0926 175.241 58.1662 178.423 52.7607 179.705C50.9803 180.127 49.199 180.337 47.4436 180.337H47.4417ZM25.3191 159.495C25.9863 162.239 26.9622 164.896 28.2228 167.404C32.857 176.627 40.4936 179.867 47.4353 179.868C49.2433 179.868 51.0033 179.649 52.6528 179.257C62.36 176.955 72.1556 167.767 72.1556 152.43C72.1556 152.225 72.1538 152.021 72.1492 151.819C71.1355 153.996 69.2602 157.432 66.3068 160.748C62.1121 165.458 57.0991 168.454 51.4079 169.654C50.1528 169.918 48.8664 170.05 47.5523 170.05C44.0119 170.05 40.2687 169.091 36.3763 167.184C32.7105 165.388 28.9941 162.802 25.32 159.495H25.3191Z" fill="#371A45"/>
</g>
<path d="M47.4396 181.645C44.2669 181.645 41.1706 180.998 38.2863 179.715C33.3517 177.521 29.3247 173.538 26.6394 168.196C23.7118 162.372 22.4051 155.707 22.7553 148.388C23.0317 142.595 24.343 136.381 26.6523 129.92C30.565 118.971 35.9273 111.182 36.153 110.856C36.6378 110.157 37.597 109.984 38.2955 110.469C38.994 110.953 39.1673 111.912 38.6826 112.61C38.6291 112.688 33.2964 120.443 29.5265 131.025C26.0966 140.651 23.2879 154.674 29.3892 166.813C34.8897 177.758 44.8567 179.757 52.3504 177.981C61.5562 175.797 70.845 167.049 70.845 152.427C70.845 147.542 69.6102 143.527 67.2751 140.815C65.3021 138.524 62.6076 137.262 59.6883 137.262C53.7418 137.262 47.7216 142.424 47.7216 152.289C47.7216 153.14 47.0323 153.828 46.1827 153.828C45.3331 153.828 44.6438 153.139 44.6438 152.289C44.6438 146.892 46.2509 142.273 49.291 138.929C52.0334 135.913 55.8235 134.184 59.6883 134.184C63.5531 134.184 67.0401 135.825 69.6074 138.806C72.4309 142.085 73.9237 146.795 73.9237 152.427C73.9237 159.732 71.7573 166.346 67.6584 171.553C63.9374 176.279 58.753 179.626 53.0618 180.976C51.181 181.422 49.2974 181.644 47.4396 181.644V181.645Z" fill="#371A45"/>
<path d="M108.553 248.3C104.855 248.3 101.884 247.097 99.4748 244.622C96.7775 241.851 94.8728 237.546 93.6518 231.462C92.3312 224.881 91.8318 216.387 92.123 205.493C92.146 204.643 92.8519 203.972 93.7024 203.995C94.5521 204.018 95.2229 204.725 95.1999 205.575C94.9188 216.088 95.4128 224.593 96.6697 230.856C97.7552 236.266 99.4406 240.175 101.68 242.475C103.504 244.349 105.688 245.222 108.553 245.222C111.018 245.222 113.608 243.7 116.248 240.698C118.619 238.002 120.972 234.183 123.241 229.348C127.208 220.895 130.023 211.123 130.754 206.883C135.026 182.129 134.122 161.918 132.612 149.321C130.975 135.668 128.292 127.768 128.265 127.69C127.989 126.886 128.416 126.01 129.219 125.734C130.023 125.456 130.898 125.883 131.175 126.686C131.289 127.015 133.973 134.896 135.655 148.84C136.639 157.003 137.069 165.558 136.934 174.265C136.764 185.143 135.707 196.294 133.789 207.408C133.08 211.513 130.347 221.456 126.029 230.656C123.637 235.754 121.124 239.817 118.561 242.732C115.311 246.428 111.945 248.302 108.554 248.302L108.553 248.3Z" fill="#371A45"/>
<path d="M50.0007 248.3C45.9746 248.3 42.037 245.816 38.2985 240.917C34.9829 236.574 31.9438 230.52 29.2659 222.922C26.7078 215.665 24.5874 207.196 23.1342 198.431C21.6432 189.434 20.8553 180.096 20.8553 171.426C20.8553 168.914 20.8304 166.482 20.8055 164.13C20.7198 155.839 20.6452 148.68 21.6865 142.348C21.8247 141.509 22.6163 140.941 23.4548 141.079C24.2934 141.217 24.862 142.009 24.7238 142.847C23.7267 148.915 23.7995 155.952 23.8833 164.099C23.9082 166.459 23.9331 168.899 23.9331 171.427C23.9331 188.404 27.0119 207.273 32.1686 221.9C34.7037 229.09 37.6691 235.02 40.7451 239.05C43.8708 243.146 46.9846 245.222 50.0007 245.222C53.4683 245.222 56.4475 243.334 59.1088 239.453C61.3527 236.18 63.2694 231.573 64.8074 225.76C67.466 215.705 68.0401 205.484 68.0456 205.382C68.0917 204.533 68.8178 203.885 69.6647 203.928C70.5134 203.973 71.1649 204.698 71.1188 205.547C71.0958 205.974 70.5263 216.148 67.7931 226.505C66.1667 232.67 64.1025 237.607 61.6577 241.178C58.4223 245.905 54.5004 248.301 49.9988 248.301L50.0007 248.3Z" fill="#371A45"/>
<path d="M80.648 208.424C76.3787 208.424 72.5305 207.929 69.1504 206.941C68.3348 206.703 67.8658 205.848 68.1045 205.032C68.3431 204.215 69.1974 203.747 70.0138 203.986C81.6755 207.394 96.7449 203.27 96.896 203.227C97.7143 202.999 98.5639 203.477 98.7925 204.296C99.021 205.115 98.5427 205.964 97.7244 206.193C97.5613 206.238 93.6735 207.315 88.2154 207.957C85.5661 208.268 83.0412 208.424 80.648 208.424Z" fill="#371A45"/>
<path d="M51.3619 140.579C50.7988 140.579 50.2561 140.269 49.9852 139.732C48.3384 136.456 48.7172 131.641 48.7347 131.437C48.8056 130.59 49.5484 129.961 50.3961 130.031C51.243 130.102 51.8724 130.844 51.8024 131.691C51.7987 131.733 51.4808 135.854 52.7349 138.349C53.1164 139.109 52.8105 140.034 52.0512 140.416C51.8291 140.528 51.5932 140.58 51.361 140.58L51.3619 140.579Z" fill="#371A45"/>
<path d="M135.056 197.408C134.3 197.408 133.824 197.344 133.755 197.335C132.914 197.215 132.328 196.436 132.448 195.594C132.568 194.753 133.347 194.167 134.189 194.286C134.194 194.286 135.474 194.45 137.22 194.121C139.502 193.691 141.482 192.66 143.106 191.057C145.014 189.174 146.398 186.508 147.218 183.134C148.254 178.868 148.392 173.462 147.628 167.065C145.611 150.185 140.096 137.582 135.827 129.981C131.195 121.737 126.984 117.432 126.942 117.389C126.345 116.785 126.35 115.811 126.954 115.213C127.557 114.616 128.531 114.619 129.129 115.223C129.309 115.405 133.615 119.792 138.445 128.357C141.268 133.363 143.687 138.774 145.634 144.438C148.065 151.509 149.765 159 150.684 166.699C152.194 179.325 150.356 188.273 145.221 193.296C141.529 196.906 137.184 197.408 135.057 197.408L135.056 197.408Z" fill="#371A45"/>
<path d="M116.933 20.1219C116.251 31.196 126.889 42.9742 137.962 43.6562C149.036 44.3381 158.565 35.9134 159.247 24.8402C159.929 13.767 151.504 4.23646 140.432 3.55452C129.358 2.87259 117.615 9.04781 116.933 20.1219Z" fill="#413757"/>
<g opacity="0.35">
<path d="M116.933 20.1221C116.251 31.1962 126.886 42.9753 137.961 43.6572C149.035 44.3392 158.566 35.9135 159.248 24.8394C159.402 22.3356 159.091 19.9129 158.39 17.6523C156.854 27.8307 147.764 35.3256 137.298 34.6814C128.52 34.1405 120.011 26.6244 117.206 18.0173C117.069 18.6992 116.978 19.3987 116.934 20.123L116.933 20.1221Z" fill="#371A45"/>
</g>
<g opacity="0.4">
<path d="M147.308 5.22127C133.675 1.41348 124.428 7.14636 122.578 8.97193C121.282 9.5525 120.179 10.0621 120.179 10.0621L114.65 16.5129L120.87 20.8902C122.685 16.8087 124.815 14.1261 126.512 12.4526C126.519 12.4553 126.524 12.4572 126.524 12.4572C138.683 1.05039 154.034 10.7625 154.034 10.7625C154.073 8.54526 147.307 5.22127 147.307 5.22127H147.308Z" fill="white"/>
</g>
<path d="M139.226 45.2335C138.775 45.2335 138.322 45.2197 137.867 45.192C132.176 44.8418 126.354 41.7879 121.893 36.8134C117.414 31.8196 115.047 25.7015 115.396 20.0267C115.743 14.4053 118.78 9.47232 123.95 6.13635C128.57 3.15518 134.611 1.65399 140.526 2.018C146.291 2.37279 151.574 4.95217 155.401 9.28064C159.227 13.6091 161.138 19.1678 160.783 24.9348C160.428 30.7009 157.849 35.984 153.521 39.8103C149.534 43.3351 144.502 45.2344 139.226 45.2353V45.2335ZM138.736 5.04064C128.972 5.04064 119.069 10.4759 118.469 20.2156C118.17 25.073 120.253 30.3728 124.185 34.7575C128.111 39.1348 133.166 41.8183 138.057 42.1187C143.002 42.4228 147.77 40.7834 151.482 37.5018C155.194 34.2202 157.407 29.689 157.711 24.744C158.015 19.7991 156.376 15.031 153.094 11.3182C149.813 7.6062 145.282 5.39359 140.337 5.08948C139.805 5.0563 139.271 5.04064 138.736 5.04064Z" fill="#371A45"/>
<path d="M29.2576 103.689C48.1052 125.723 86.3873 126.1 92.614 126.729C99.1309 127.39 135.829 126.731 152.618 107.095C160.774 97.5621 160.822 88.7762 156.813 76.0903C156.642 75.554 156.477 75.0794 156.307 74.6453C155.214 71.8125 154.076 70.5408 151.949 63.363C151.492 61.8258 151.096 60.18 150.738 58.4696C148.936 50.008 147.364 40.343 141.387 33.4139C135.775 26.9051 128.137 21.2736 119.361 17.0907C122.083 14.0506 125.882 8.88904 122.505 6.84415C118.349 4.32651 105.872 9.47329 102.065 11.1422C101.401 11.4371 101.002 11.6214 100.953 11.6435C100.969 11.6076 101.354 11.368 101.523 10.9763C102.2 9.41431 103.213 5.54293 100.175 3.6206C96.3599 1.20802 69.2501 5.67655 49.974 19.4194H49.9961C22.5352 38.0778 9.68941 80.8095 29.2567 103.689H29.2576Z" fill="white"/>
<g opacity="0.3">
<path d="M33.0697 52.1056C33.0697 52.1056 21.0735 79.6107 35.3587 97.9134C57.4021 126.156 127.168 127.585 153.16 104.665C153.16 104.665 146.794 119.183 120.163 123.631C85.0952 129.486 37.7196 122.766 25.9575 98.5474C14.1954 74.3285 24.297 49.9326 24.297 49.9326L33.0697 52.1056Z" fill="#371A45"/>
</g>
<g opacity="0.3">
<path d="M50.7482 22.9182C35.7101 34.1951 46.8004 18.2036 46.8004 18.2036C46.8004 18.2036 68.5443 9.966 73.0072 9.09515C77.47 8.22429 66.3364 11.2294 50.7482 22.9182Z" fill="#371A45"/>
</g>
<path d="M96.0881 72.7285C94.3133 91.3565 67.2615 103.526 51.3996 92.6567C43.7935 87.4408 40.6843 79.8658 41.5911 71.0236C42.4638 62.4552 47.6067 56.6615 55.7528 53.7116C68.16 49.2127 80.0115 50.2043 90.4835 58.8243C95.1896 62.6994 96.6539 66.8058 96.0881 72.7285Z" fill="#413757"/>
<path d="M96.8383 72.4087C95.0635 91.0366 68.0117 103.206 52.1499 92.3369C44.5437 87.121 41.4346 79.546 42.3413 70.7038C43.214 62.1354 48.3569 56.3417 56.5031 53.3918C68.9102 48.8929 80.7617 49.8845 91.2337 58.5045C95.9398 62.3796 97.4041 66.486 96.8383 72.4087Z" fill="#413757"/>
<path d="M151.499 92.3668C154.99 90.7292 157.695 88.441 159.641 85.6275C159.197 83.0906 158.497 80.4098 157.586 77.5263L157.582 77.5226C157.426 77.0895 157.261 76.6186 157.088 76.1081C157.085 76.097 157.079 76.0859 157.075 76.074C155.981 73.2448 154.843 71.9731 152.717 64.7953C152.26 63.2545 151.338 59.0771 150.976 57.3668C150.797 56.5337 150.63 55.7458 150.464 54.9975C141.693 50.7787 132.643 50.6303 123.561 55.9384C118.93 58.6449 117.024 62.0786 116.562 67.4493C115.108 84.365 136.237 99.5409 151.499 92.3668Z" fill="#413757"/>
<path d="M45.7941 21.1463C45.2679 21.1463 44.7555 20.8763 44.468 20.3916C44.0349 19.6599 44.2764 18.7162 45.008 18.2831C52.0244 14.127 64.2307 9.24006 76.1061 5.83221C82.0305 4.13198 87.4314 2.93029 91.7229 2.3571C96.8253 1.67516 100.227 1.8779 102.119 2.97453C103.185 3.59196 104.44 4.93095 104.376 7.80615C105.911 7.24862 108.015 6.53627 110.295 5.91515C116.679 4.17345 120.974 4.04904 123.426 5.53456C125.236 6.63027 125.708 8.08906 125.785 9.11934C126.074 12.9548 121.28 17.0676 120.733 17.5238C120.079 18.0684 119.109 17.9799 118.565 17.3266C118.021 16.6741 118.108 15.7037 118.761 15.1591C120.477 13.7233 122.838 10.9716 122.715 9.3488C122.691 9.03364 122.568 8.61434 121.831 8.16739C121.076 7.70939 118.518 6.86341 111.105 8.88527C106.824 10.0529 103.092 11.5937 103.056 11.6093L100.036 12.8617L100.994 9.73585C101.202 9.04562 101.743 6.31418 100.577 5.63777C98.6471 4.51994 91.3027 4.67384 76.9557 8.79035C65.3116 12.1318 53.3873 16.8971 46.5774 20.9307C46.3313 21.0763 46.0613 21.1454 45.7941 21.1454V21.1463Z" fill="#371A45"/>
<path d="M96.8752 128.348C94.8709 128.348 93.3946 128.274 92.5892 128.192C92.0336 128.135 91.1793 128.079 90.0966 128.007C84.7675 127.656 73.6799 126.925 61.8017 123.757C47.0069 119.811 35.7074 113.371 28.2192 104.617C24.6078 100.395 21.9889 94.69 20.4371 87.6578C19.0244 81.2568 18.5867 73.9693 19.1719 66.585L19.1746 66.5454C19.7082 59.8273 21.0803 53.172 23.1436 47.2981C29.3425 29.6673 40.8061 17.9232 57.2163 12.3903C58.0217 12.1184 58.8953 12.5515 59.1662 13.357C59.438 14.1624 59.0049 15.036 58.1995 15.3069C42.733 20.521 31.9163 31.6274 26.0472 48.3173C24.0734 53.9396 22.7584 60.3213 22.2442 66.7739L22.2414 66.8135C21.0554 81.7581 24.1646 95.1416 30.558 102.614C47.2216 122.095 79.6448 124.232 90.2993 124.934C91.4115 125.008 92.2907 125.065 92.8998 125.127C99.3089 125.777 135.291 125.07 151.579 106.025C155.363 101.601 157.365 97.3183 157.877 92.5493C157.88 92.5198 157.883 92.4912 157.885 92.4627L157.892 92.3936C157.907 92.2535 157.919 92.1162 157.93 91.9761C157.954 91.7144 157.969 91.4499 157.979 91.1891V91.1771C157.989 90.9716 157.997 90.7827 157.999 90.5993V90.5744C158.004 90.3874 158.005 90.2031 158.004 90.0105V89.8796V89.8768C158.001 87.7997 157.846 85.8267 157.559 84.1698L157.546 84.0776C157.179 80.7831 155.041 75.2235 155.019 75.1691L154.985 75.0806C154.679 74.2955 154.371 73.6375 154.014 72.8782C153.171 71.0821 152.121 68.8474 150.606 63.7319C150.112 62.0639 149.137 57.6129 148.834 56.1854L148.71 55.6058C148.576 54.9837 148.451 54.3958 148.326 53.83C148.163 53.09 148.029 52.4919 147.903 51.9491C147.892 51.9086 147.883 51.868 147.875 51.8275L147.856 51.7473C146.622 46.489 145.443 43.059 141.718 36.6295C141.273 35.8618 140.796 35.1016 140.297 34.368L140.287 34.356L140.233 34.2759C135.522 27.3551 128.522 21.8379 119.428 17.8789L119.412 17.8716C119.324 17.8329 119.236 17.7942 119.145 17.7545C118.364 17.42 118.002 16.5151 118.336 15.7336C118.671 14.9521 119.576 14.59 120.357 14.9245C120.459 14.9678 120.558 15.012 120.656 15.0554L120.666 15.059C125.302 17.0772 129.503 19.5414 133.146 22.3788C136.951 25.3416 140.172 28.7337 142.723 32.4623L142.733 32.4733L142.787 32.5526C143.349 33.3737 143.885 34.2261 144.383 35.0868C148.28 41.8085 149.574 45.5877 150.853 51.0368L150.942 51.4036V51.4165C151.06 51.9279 151.186 52.491 151.333 53.1665C151.461 53.7397 151.588 54.3322 151.721 54.9598L151.846 55.5413C152.219 57.3014 153.127 61.3995 153.558 62.8546C155.007 67.7461 155.96 69.7763 156.801 71.5668C157.173 72.3593 157.525 73.1085 157.875 74.0163L157.907 74.0983C158.14 74.7056 160.192 80.138 160.6 83.6869C160.909 85.4885 161.076 87.6043 161.083 89.8151C161.089 89.8971 161.088 89.9782 161.084 90.0584C161.085 90.2556 161.084 90.4473 161.078 90.6408C161.076 90.8721 161.066 91.0933 161.057 91.3061C161.046 91.6121 161.027 91.9291 160.999 92.2397C160.986 92.3936 160.972 92.5456 160.956 92.7004C160.953 92.729 160.95 92.7576 160.947 92.7852L160.942 92.8497C160.365 98.2767 158.133 103.099 153.919 108.025C149.912 112.712 144.512 116.692 137.869 119.856C132.431 122.448 126.154 124.5 119.212 125.957C110.005 127.889 101.83 128.346 96.8761 128.346L96.8752 128.348Z" fill="#371A45"/>
<path d="M11.173 19.4832C10.3418 28.6203 15.9391 38.8088 23.1019 44.7702C25.8619 47.0648 29.9874 46.4391 32.0415 43.493C37.7521 35.3042 44.5279 28.7705 48.741 24.9866C49.0728 24.6881 49.3879 24.4079 49.6856 24.1425C51.3378 22.6828 52.0898 20.4379 51.5783 18.2944C49.5142 9.6283 41.8647 2.47256 32.646 1.63672C31.5918 1.54181 30.5625 1.51692 29.558 1.55839C19.5836 1.98045 12.1203 9.04496 11.1721 19.4823L11.173 19.4832Z" fill="#413757"/>
<g opacity="0.35">
<path d="M36.1053 38.1226C34.8622 37.9456 33.5002 37.6802 32.8846 37.4415C20.2397 32.574 13.6399 22.7799 14.6406 13.9138C14.8369 12.1702 15.341 10.5852 15.422 8.95312C12.7976 12.4817 11.42 17.0267 11.701 22.1449C12.2051 31.3041 19.2205 40.5738 27.174 45.4303C27.5629 45.669 27.9665 45.8533 28.3784 45.9925L36.1053 38.1226Z" fill="#371A45"/>
</g>
<g opacity="0.4">
<path d="M22.8071 4.36165C31.8185 3.85665 35.9957 4.66853 41.5385 9.88627C46.3709 14.4359 48.4222 23.055 48.741 24.9857C49.0728 24.6871 49.3879 24.4069 49.6856 24.1415C51.3378 22.6818 52.0898 20.437 51.5784 18.2935C49.5142 9.62732 41.8648 2.47158 32.646 1.63574C31.5918 1.54082 30.5625 1.51594 29.558 1.55741L22.8062 4.35981L22.8071 4.36165Z" fill="white"/>
</g>
<path d="M26.9602 47.6988C25.2001 47.6988 23.4842 47.0888 22.1167 45.9516C18.3367 42.8064 15.0128 38.5618 12.7588 33.9992C10.2984 29.0202 9.21933 23.9517 9.63861 19.3431C10.1805 13.3789 12.7985 8.16946 17.0088 4.67407C21.2137 1.18329 26.8173 -0.439546 32.7859 0.102319C37.5796 0.538206 42.0876 2.53702 45.8225 5.88313C49.4145 9.10114 51.9911 13.3817 53.0766 17.9359C53.3816 19.215 53.3364 20.5614 52.9448 21.8303C52.6942 22.6431 51.8325 23.0984 51.0207 22.8477C50.2079 22.5971 49.7527 21.7354 50.0034 20.9235C50.2319 20.1808 50.2595 19.3947 50.0826 18.6501C48.0903 10.2945 40.8629 3.92762 32.5076 3.16828C27.3546 2.70013 22.5489 4.07599 18.9753 7.04242C15.3989 10.0107 13.1717 14.4783 12.7045 19.6214C11.9838 27.5549 16.6632 37.4089 24.086 43.5842C25.096 44.4246 26.3722 44.772 27.6808 44.5619C28.5203 44.4274 29.31 44.9987 29.4436 45.8382C29.5782 46.6778 29.0068 47.4675 28.1673 47.6011C27.7656 47.6656 27.3619 47.697 26.9602 47.697V47.6988Z" fill="#371A45"/>
<path d="M115.071 84.4775C115.982 84.6913 116.651 85.3299 116.855 86.0994C117.047 86.821 116.411 87.995 115.8 88.6558C112.54 92.1825 106.631 91.6876 103.94 87.7527C102.671 85.8967 103.782 84.0656 106.407 84.0407C109.115 84.0149 111.827 84.2997 115.071 84.4784V84.4775Z" fill="#371A45"/>
<path d="M140.61 72.4635C140.811 69.1951 138.957 66.4214 136.468 66.2684C133.98 66.1153 131.799 68.6408 131.598 71.9092C131.397 75.1776 133.252 77.9512 135.74 78.1043C138.229 78.2574 140.409 75.732 140.61 72.4635Z" fill="white"/>
<path d="M82.6869 70.8161C82.888 67.5477 81.0336 64.774 78.545 64.6209C76.0565 64.4678 73.8761 66.9933 73.6751 70.2617C73.474 73.5301 75.3284 76.3038 77.817 76.4569C80.3055 76.61 82.4859 74.0845 82.6869 70.8161Z" fill="white"/>
<path d="M113.009 102.134C113.057 98.7517 111.724 95.9898 110.031 95.9656C108.338 95.9414 106.926 98.6639 106.877 102.047C106.829 105.429 108.162 108.191 109.855 108.215C111.548 108.239 112.96 105.517 113.009 102.134Z" fill="#DB3333"/>
<path d="M167.928 195.714C175.019 188.622 175.019 177.124 167.928 170.032C160.836 162.94 149.338 162.94 142.247 170.032C135.155 177.124 135.155 188.622 142.247 195.714C149.338 202.806 160.836 202.806 167.928 195.714Z" fill="#9EF07B"/>
<g opacity="0.4">
<path d="M155.548 168.861C164.179 168.861 171.397 174.884 173.245 182.954C173.245 182.928 173.247 182.901 173.247 182.874C173.247 172.844 165.116 164.714 155.087 164.714C145.059 164.714 136.928 172.845 136.928 182.874C136.928 184.273 137.091 185.632 137.391 186.941C137.434 176.949 145.546 168.861 155.548 168.861Z" fill="white"/>
</g>
<g opacity="0.3">
<path d="M173.249 182.873C173.249 192.902 165.117 201.033 155.089 201.033C145.062 201.033 136.927 192.902 136.927 182.873C136.927 181.076 137.188 179.341 137.677 177.702C139.901 185.209 146.854 190.685 155.089 190.685C163.325 190.685 170.274 185.209 172.499 177.702C172.987 179.341 173.249 181.076 173.249 182.873Z" fill="#371A45"/>
</g>
<path d="M155.088 202.574C149.826 202.574 144.879 200.524 141.158 196.804C137.437 193.084 135.389 188.136 135.389 182.875C135.389 177.614 137.438 172.666 141.158 168.945C144.879 165.225 149.826 163.175 155.088 163.175C165.95 163.175 174.787 172.012 174.787 182.875C174.787 193.738 165.95 202.574 155.088 202.574ZM155.088 166.254C145.923 166.254 138.467 173.71 138.467 182.875C138.467 192.04 145.923 199.496 155.088 199.496C164.252 199.496 171.708 192.04 171.708 182.875C171.708 173.71 164.252 166.254 155.088 166.254Z" fill="#371A45"/>
<path d="M25.6038 148.445H46.345L49.3482 140.11H25.6038V148.445Z" fill="#9EF07B"/>
<path d="M47.4258 149.984H24.0647V138.571H51.5394L47.4267 149.984H47.4258ZM27.1425 146.905H45.263L47.1567 141.65H27.1425V146.905Z" fill="#371A45"/>
<path d="M39.2898 157.118C46.3814 150.026 46.3814 138.528 39.2898 131.436C32.1982 124.345 20.7004 124.345 13.6088 131.436C6.51719 138.528 6.51719 150.026 13.6088 157.118C20.7004 164.21 32.1982 164.21 39.2898 157.118Z" fill="#9EF07B"/>
<g opacity="0.4">
<path d="M8.75128 148.885C8.75128 138.855 16.8817 130.725 26.9105 130.725C35.5072 130.725 42.7042 136.701 44.5859 144.725C44.0993 135.13 36.1661 127.5 26.4497 127.5C16.7334 127.5 8.29053 135.63 8.29053 145.659C8.29053 147.091 8.46193 148.483 8.77524 149.819C8.75957 149.51 8.75128 149.198 8.75128 148.885Z" fill="white"/>
</g>
<g opacity="0.3">
<path d="M44.6099 144.275C44.6099 154.308 36.4785 162.435 26.4507 162.435C16.4229 162.435 8.2915 154.308 8.2915 144.275C8.2915 142.451 8.56058 140.688 9.06096 139.026C11.3159 146.495 18.2465 151.937 26.4507 151.937C34.6549 151.937 41.5855 146.495 43.8405 139.026C44.3408 140.688 44.6099 142.451 44.6099 144.275Z" fill="#371A45"/>
</g>
<path d="M26.4496 163.977C21.1878 163.977 16.2411 161.927 12.521 158.207C8.80089 154.487 6.75146 149.539 6.75146 144.277C6.75146 133.415 15.5878 124.577 26.4505 124.577C31.7123 124.577 36.659 126.627 40.38 130.347C44.1011 134.067 46.1496 139.015 46.1496 144.276C46.1496 149.537 44.1001 154.485 40.38 158.206C36.6599 161.927 31.7123 163.976 26.4505 163.976L26.4496 163.977ZM26.4496 127.657C17.2852 127.657 9.8293 135.113 9.8293 144.278C9.8293 153.442 17.2852 160.899 26.4496 160.899C35.614 160.899 43.0699 153.442 43.0699 144.278C43.0699 135.113 35.614 127.657 26.4496 127.657Z" fill="#371A45"/>
<path d="M153.488 65.2616C153.488 65.2616 152.956 62.7688 151.607 61.7247C146.524 57.7805 129.593 56.8747 88.1723 58.5242C47.5937 60.1424 27.2321 72.0303 20.6498 76.7854C19.4684 77.6351 17.6475 76.9485 17.5867 75.5035C17.4365 71.9805 17.6835 68.5782 18.1682 65.3464C18.8142 61.0345 19.885 57.0304 21.0166 53.476C21.3806 52.3223 21.7556 51.2173 22.1196 50.1622C23.5544 46.0309 25.9107 42.8479 29.9017 40.9892C44.526 34.1707 90.7313 17.8494 140.776 31.6282C140.776 31.6282 145.688 33.1718 149.626 40.8823C150.489 42.5779 151.31 44.5712 152.017 46.9147C152.781 49.4388 153.124 51.3547 153.398 52.8374C153.648 54.1967 153.834 55.1919 154.227 55.9669C155.711 58.9057 153.488 65.2606 153.488 65.2606V65.2616Z" fill="#9EF07B"/>
<path d="M19.475 77.3856C19.1313 77.3856 18.7857 77.3101 18.4687 77.1553C17.8016 76.8309 17.386 76.2171 17.3565 75.514C17.2173 72.2508 17.4145 68.819 17.9407 65.3126C18.4991 61.585 19.4335 57.6905 20.7974 53.4063C21.1789 52.1972 21.5696 51.0499 21.9023 50.0869C23.4707 45.5705 26.0555 42.5257 29.8042 40.7803C34.0818 38.7861 49.7695 31.9953 72.0184 28.3571C82.9078 26.5767 93.8028 25.8136 104.401 26.0882C116.946 26.4136 129.204 28.2032 140.836 31.4055C140.896 31.4239 142.132 31.8221 143.865 33.1822C145.453 34.4282 147.776 36.7569 149.829 40.7776C150.767 42.6169 151.577 44.66 152.236 46.8487C152.976 49.2907 153.317 51.1412 153.593 52.6276L153.624 52.7962C153.862 54.0892 154.05 55.1093 154.431 55.864C155.944 58.8554 153.797 65.0748 153.704 65.3375L153.434 66.1115L153.262 65.3089C153.257 65.2849 152.731 62.8862 151.465 61.9066C146.395 57.9725 129.243 57.1183 88.1807 58.754C47.8906 60.3602 27.6267 72.0297 20.7845 76.9719C20.4048 77.2447 19.9422 77.3847 19.475 77.3847V77.3856ZM100.191 26.479C90.9913 26.479 81.6131 27.2558 72.093 28.8123C49.9022 32.4404 34.2633 39.21 29.9986 41.1978C26.3688 42.8879 23.8623 45.8451 22.3372 50.2371C22.0064 51.1965 21.6166 52.3401 21.236 53.5445C19.8796 57.8057 18.9507 61.6771 18.3959 65.3798C17.8734 68.8568 17.679 72.2591 17.8163 75.4928C17.8393 76.0328 18.1499 76.4871 18.6696 76.7396C19.2668 77.0299 19.9901 76.9737 20.5145 76.5968C23.5748 74.386 30.3838 70.1027 41.5866 66.259C54.9576 61.6716 70.6278 58.9917 88.1623 58.2923C109.287 57.4509 123.702 57.2933 133.527 57.7947C143.308 58.2941 149.098 59.4848 151.747 61.5407C152.679 62.2614 153.231 63.6022 153.503 64.4491C154.024 62.7083 155.152 58.3089 154.02 56.0696C153.609 55.2568 153.416 54.2062 153.171 52.8773L153.14 52.7087C152.867 51.2333 152.527 49.3967 151.795 46.9795C151.143 44.8167 150.344 42.7994 149.418 40.9849C145.579 33.4642 140.754 31.8608 140.706 31.846C127.712 28.2686 114.158 26.4762 100.19 26.4762L100.191 26.479Z" fill="#371A45"/>
<path d="M153.488 65.2616C153.488 65.2616 152.956 62.7688 151.607 61.7247C146.524 57.7805 129.593 56.8747 88.1723 58.5242C47.5937 60.1424 27.2321 72.0303 20.6498 76.7854C19.4684 77.6351 17.6475 76.9485 17.5867 75.5035C17.4365 71.9805 17.6835 68.5782 18.1682 65.3464C18.8142 61.0345 19.885 57.0304 21.0166 53.476C21.3806 52.3223 21.7556 51.2173 22.1196 50.1622C23.5544 46.0309 25.9107 42.8479 29.9017 40.9892C44.526 34.1707 90.7313 17.8494 140.776 31.6282C140.776 31.6282 145.688 33.1718 149.626 40.8823C150.489 42.5779 151.31 44.5712 152.017 46.9147C152.781 49.4388 153.124 51.3547 153.398 52.8374C153.648 54.1967 153.834 55.1919 154.227 55.9669C155.711 58.9057 153.488 65.2606 153.488 65.2606V65.2616Z" fill="#9EF07B"/>
<g opacity="0.4">
<path d="M18.1683 69.0331C18.8142 64.7213 19.885 60.7172 21.0166 57.1628C21.3806 56.0091 21.7557 54.9041 22.1197 53.849C23.5545 49.7177 25.9108 46.5347 29.9018 44.676C44.5261 37.8575 90.7314 21.5362 140.777 35.315C140.777 35.315 145.688 36.8586 149.626 44.5691C150.489 46.2647 151.31 48.258 152.017 50.6015C152.781 53.1256 153.124 55.0414 153.398 56.5242C153.648 57.8835 153.834 58.8787 154.227 59.6537C154.385 59.968 154.5 60.3228 154.581 60.7034C154.819 59.0022 154.844 57.1895 154.227 55.9676C153.834 55.1926 153.648 54.1973 153.398 52.838C153.124 51.3544 152.781 49.4394 152.017 46.9153C151.31 44.5719 150.489 42.5786 149.626 40.8829C145.688 33.1724 140.777 31.6289 140.777 31.6289C90.7314 17.85 44.5261 34.1705 29.9018 40.9898C25.9108 42.8486 23.5554 46.0316 22.1197 50.1628C21.7557 51.218 21.3806 52.3229 21.0166 53.4767C19.885 57.031 18.8142 61.0351 18.1683 65.347C17.6955 68.4977 17.4522 71.8107 17.5785 75.2379C17.6577 73.1119 17.8669 71.0393 18.1683 69.0331Z" fill="white"/>
</g>
<path d="M153.488 65.2616C153.488 65.2616 152.956 62.7688 151.607 61.7247C146.524 57.7805 129.593 56.8746 88.1723 58.5242C47.5937 60.1424 27.2321 72.0303 20.6498 76.7854C19.4684 77.6351 17.6475 76.9485 17.5867 75.5035C17.4365 71.9805 17.6835 68.5782 18.1682 65.3463C18.8142 61.0345 19.885 57.0304 21.0166 53.476C40.2208 44.6357 92.4683 26.5588 149.625 40.8832C150.488 42.5788 151.309 44.5721 152.016 46.9156C152.78 49.4397 153.123 51.3556 153.397 52.8383C153.647 54.1976 153.833 55.1928 154.226 55.9679C155.71 58.9066 153.487 65.2616 153.487 65.2616H153.488Z" fill="white"/>
<path d="M153.488 65.2612C153.488 65.2612 152.956 62.7685 151.607 61.7244C146.524 57.7802 129.593 56.8743 88.1723 58.5239C47.5937 60.1421 27.2321 72.0299 20.6498 76.785C19.4684 77.6347 17.6475 76.9482 17.5867 75.5032C17.4365 71.9801 17.6835 68.5778 18.1682 65.346C18.4539 65.1866 18.7469 65.0345 19.0464 64.8889C36.3265 56.4808 91.0123 36.1379 150.882 51.5524C150.882 51.5524 151.882 51.8501 153.398 52.838C153.648 54.1972 153.834 55.1925 154.227 55.9675C155.711 58.9063 153.488 65.2612 153.488 65.2612Z" fill="#9EF07B"/>
<g opacity="0.3">
<path d="M21.5391 54.7498C21.5391 54.7498 17.5425 68.4282 28.2034 64.8028C35.5303 62.311 75.5744 50.9798 108.389 52.1114C148.846 53.5066 154.225 55.9671 154.225 55.9671L153.898 62.123C153.898 62.123 150.87 59.5519 147.568 59.2543C144.266 58.9566 108.473 57.8784 108.473 57.8784C108.473 57.8784 67.4319 58.8571 58.1993 62.0189C48.9659 65.1807 31.1227 68.5498 21.4239 76.3423C21.4239 76.3423 17.1674 79.1834 17.0854 75.125C17.0034 71.0656 19.567 55.9266 21.5391 54.7489V54.7498Z" fill="#371A45"/>
</g>
<path d="M19.4812 78.6978C18.9449 78.6978 18.404 78.5771 17.8999 78.3329C16.7913 77.7947 16.0993 76.7617 16.0486 75.5673C15.6275 65.6129 18.2943 56.4924 20.6654 49.6583C22.3536 44.7908 25.1623 41.4981 29.2501 39.5933C33.5674 37.5806 49.3952 30.7299 71.8071 27.0659C82.7767 25.2726 93.7546 24.504 104.435 24.7805C117.036 25.1076 129.353 26.8991 141.048 30.1061C141.675 30.1752 143.433 30.5097 145.522 32.1408C148.625 34.5635 151.071 38.68 152.795 44.377C153.72 47.4356 154.14 49.4943 154.446 50.9964C154.626 51.8783 154.768 52.575 154.949 53.1629C157.682 62.0475 155.014 65.812 154.7 66.2119L152.671 68.8014L151.983 65.5843C151.844 64.9503 151.337 63.463 150.661 62.9395C148.344 61.1416 142.709 60.0367 133.436 59.563C123.662 59.0635 109.299 59.222 88.233 60.0625C48.3133 61.6549 28.3 73.1594 21.5482 78.0315C20.9372 78.473 20.2129 78.6978 19.4803 78.6978H19.4812ZM100.191 27.7875C91.0611 27.7875 81.7548 28.5588 72.3047 30.1042C50.2816 33.7047 34.7782 40.4135 30.5513 42.3837C27.2117 43.9402 24.9946 46.5721 23.5746 50.6674C21.2929 57.2435 18.7256 66.0018 19.1246 75.4374C19.1246 75.4568 19.1274 75.5065 19.2435 75.5627C19.378 75.6282 19.5927 75.6466 19.7475 75.5351C26.7252 70.4998 47.3559 58.6111 88.1113 56.9864C109.273 56.1423 123.726 55.9838 133.594 56.4888C143.793 57.0094 149.639 58.2489 152.549 60.5076C152.734 60.6504 152.906 60.8098 153.066 60.9794C153.143 59.3501 152.934 57.0804 152.008 54.0679C151.783 53.3371 151.627 52.5759 151.431 51.612C151.136 50.1679 150.733 48.1903 149.849 45.2681C147.997 39.1463 145.569 36.1707 143.858 34.7525C142.167 33.3508 140.882 33.1821 140.714 33.1656L140.512 33.1674L140.366 33.1112C127.483 29.5642 114.042 27.7875 100.19 27.7875H100.191Z" fill="#371A45"/>
</svg>
