<svg width="128" height="128" viewBox="0 0 128 128" fill="none" xmlns="http://www.w3.org/2000/svg">
<path d="M11.5861 31.4951C12.5196 35.1073 14.3972 38.5873 16.7765 41.2727C18.4814 43.1944 21.5852 43.2577 23.4955 41.465C24.4792 40.5415 25.4833 39.6617 26.4856 38.8267C30.8994 35.1577 35.3308 32.3781 38.2681 30.6544C38.551 30.4864 38.8199 30.333 39.0755 30.1829C39.2651 30.0741 39.4449 29.9532 39.6124 29.8201C40.7002 28.9745 41.3322 27.6987 41.267 26.3605C40.9505 20.11 36.3366 14.2335 29.7058 12.5439C28.9477 12.3524 28.2002 12.2112 27.4588 12.1195C20.0998 11.2105 13.6647 15.2074 11.5314 22.323C11.4115 22.7231 11.3119 23.1273 11.2308 23.5387C10.7134 26.0854 10.8905 28.8252 11.5861 31.4943V31.4951Z" fill="#413757"/>
<g opacity="0.4">
<path d="M11.5862 31.4951C15.6853 34.7665 20.9656 37.2807 26.4858 38.8275C30.8995 35.1585 35.331 32.3789 38.2682 30.6552C38.5512 30.4872 38.82 30.3338 39.0757 30.1837C39.2652 30.0749 39.4451 29.954 39.6125 29.8209C38.8368 29.9751 38.1492 30.0806 37.7111 30.1058C26.3253 30.7282 17.2174 31.2963 11.2301 23.5396C10.7126 26.0862 10.8898 28.826 11.5853 31.4951H11.5862Z" fill="#371A45"/>
</g>
<g opacity="0.6">
<path d="M14.6416 17.6169C20.5434 14.6734 23.6155 13.9771 29.0254 15.6984C33.7416 17.1989 37.8971 22.108 38.7337 23.249C38.8606 22.9617 38.9832 22.6915 39.0978 22.435C39.7404 21.0221 39.5227 19.369 38.4886 18.1493C34.3093 13.2134 26.8578 10.8672 20.3856 13.0146C19.646 13.2605 18.9452 13.5445 18.2823 13.8627L14.6416 17.6169Z" fill="white"/>
</g>
<path d="M20.1253 43.8191C20.12 43.8191 20.1147 43.8191 20.1094 43.8191C18.4662 43.7988 16.928 43.1139 15.8878 41.9396C13.5561 39.3077 11.7093 35.9698 10.6894 32.541C9.5778 28.8038 9.48613 25.173 10.425 22.0412C11.6397 17.9875 14.2666 14.7032 17.8218 12.7937C21.3832 10.8808 25.7124 10.4304 30.0133 11.526C33.4671 12.4057 36.4952 14.3356 38.7695 17.1046C40.9522 19.7624 42.2463 23.0321 42.4129 26.31C42.4596 27.223 42.2427 28.14 41.787 28.9629C41.4987 29.4823 40.8076 29.6892 40.2434 29.4239C39.6792 29.1585 39.4545 28.5222 39.7427 28.0029C40.0178 27.507 40.1482 26.956 40.1209 26.409C39.8141 20.3751 35.4065 15.092 29.4015 13.5622C25.7027 12.62 22.0011 12.9949 18.9793 14.618C15.9451 16.2484 13.6928 19.084 12.6376 22.6028C11.012 28.0256 13.0801 35.4269 17.6658 40.6029C18.2846 41.3017 19.1635 41.6928 20.1402 41.705C20.7741 41.7131 21.2809 42.1919 21.2721 42.7754C21.2633 43.3541 20.7511 43.8175 20.1253 43.8175V43.8191Z" fill="#371A45"/>
<path d="M116.87 31.4951C115.937 35.1073 114.059 38.5873 111.68 41.2727C109.975 43.1944 106.871 43.2577 104.961 41.465C103.977 40.5415 102.973 39.6617 101.971 38.8267C97.5568 35.1577 93.1254 32.3781 90.1881 30.6544C89.9052 30.4864 89.6363 30.333 89.3806 30.1829C89.1911 30.0741 89.0113 29.9532 88.8438 29.8201C87.756 28.9745 87.1239 27.6987 87.1892 26.3605C87.5056 20.11 92.1195 14.2335 98.7504 12.5439C99.5085 12.3524 100.256 12.2112 100.997 12.1195C108.356 11.2105 114.791 15.2074 116.925 22.323C117.045 22.7231 117.144 23.1273 117.225 23.5387C117.743 26.0854 117.566 28.8252 116.87 31.4943V31.4951Z" fill="#413757"/>
<g opacity="0.4">
<path d="M116.87 31.4951C112.771 34.7665 107.491 37.2807 101.971 38.8275C97.557 35.1585 93.1256 32.3789 90.1883 30.6552C89.9054 30.4872 89.6365 30.3338 89.3808 30.1837C89.1913 30.0749 89.0115 29.954 88.844 29.8209C89.6197 29.9751 90.3073 30.0806 90.7454 30.1058C102.131 30.7282 111.239 31.2963 117.226 23.5396C117.744 26.0862 117.567 28.826 116.871 31.4951H116.87Z" fill="#371A45"/>
</g>
<g opacity="0.6">
<path d="M113.814 17.6169C107.912 14.6734 104.84 13.9771 99.43 15.6984C94.7138 17.1989 90.5583 22.108 89.7218 23.249C89.5948 22.9617 89.4723 22.6915 89.3577 22.435C88.7151 21.0221 88.9328 19.369 89.9668 18.1493C94.1461 13.2134 101.598 10.8672 108.07 13.0146C108.809 13.2605 109.51 13.5445 110.173 13.8627L113.814 17.6169Z" fill="white"/>
</g>
<path d="M108.33 43.8189C107.703 43.8189 107.191 43.3555 107.183 42.7769C107.174 42.1934 107.681 41.7138 108.315 41.7065C109.292 41.6943 110.171 41.3031 110.789 40.6044C115.375 35.4284 117.443 28.0262 115.818 22.6043C114.763 19.0854 112.511 16.2499 109.476 14.6195C106.454 12.9956 102.753 12.6206 99.0537 13.5637C93.0487 15.0934 88.6411 20.3766 88.3343 26.4104C88.307 26.9574 88.4375 27.5085 88.7125 28.0043C89.0008 28.5237 88.7768 29.1608 88.2118 29.4253C87.6476 29.6907 86.9565 29.4846 86.6682 28.9644C86.2125 28.1415 85.9956 27.2244 86.0424 26.3114C86.209 23.0336 87.5031 19.7639 89.6857 17.1061C91.96 14.3362 94.9881 12.4072 98.4419 11.5275C102.743 10.4319 107.072 10.8823 110.633 12.7951C114.189 14.7055 116.816 17.989 118.03 22.0427C118.969 25.1745 118.877 28.8053 117.766 32.5425C116.746 35.9713 114.9 39.3092 112.567 41.941C111.527 43.1145 109.989 43.7995 108.346 43.8206C108.341 43.8206 108.335 43.8206 108.33 43.8206V43.8189Z" fill="#371A45"/>
<path d="M126.339 69.4237C130.388 101.847 98.5203 115.64 64.2043 115.64C29.8882 115.64 -1.66771 101.88 2.06995 69.4237C5.98657 35.4158 36.0854 17.3735 64.2043 17.3735C92.3231 17.3735 122.09 35.4158 126.339 69.4237Z" fill="white"/>
<g opacity="0.2">
<path d="M63.6223 115.897C29.3081 115.897 -2.24876 102.138 1.48802 69.6822C1.52681 69.3568 1.56471 69.0305 1.60879 68.7075C5.34558 93.4029 28.2088 108.547 63.6223 108.547C99.0358 108.547 121.877 93.4784 125.675 69.0459C125.702 69.2578 125.729 69.4704 125.757 69.6822C129.805 102.106 97.9392 115.897 63.6223 115.897Z" fill="#371A45"/>
</g>
<path d="M63.9759 117.06C52.9331 117.06 42.3671 115.621 33.4205 112.897C23.5651 109.898 15.6966 105.439 10.0354 99.6447C6.25544 95.7769 3.50508 91.3272 1.85927 86.4189C0.118261 81.2258 -0.403598 75.4574 0.308674 69.2742C4.34077 34.2689 35.3898 15.9531 63.9768 15.9531C71.2573 15.9531 78.4876 17.108 85.4658 19.3852C92.6378 21.7257 99.2035 25.1463 104.979 29.5514C111.093 34.2146 116.12 39.8378 119.919 46.2644C124.001 53.1682 126.599 60.9055 127.643 69.2612C128.41 75.4014 127.939 81.1358 126.243 86.3069C124.642 91.1916 121.932 95.6268 118.191 99.4905C112.535 105.33 104.632 109.828 94.7006 112.858C85.6958 115.607 75.0708 117.06 63.9768 117.06H63.9759ZM63.9759 18.7935C36.7685 18.7935 7.21631 36.2361 3.37639 69.5737C2.07702 80.8574 5.08918 90.3355 12.3291 97.7457C22.5592 108.215 41.3833 114.219 63.9759 114.219C86.5685 114.219 105.658 108.162 115.887 97.6004C123.051 90.2032 125.975 80.7779 124.578 69.5858C120.414 36.2402 90.9391 18.7935 63.9768 18.7935H63.9759Z" fill="#371A45"/>
<path d="M72.1513 83.5376C71.9406 84.7022 71.231 88.2218 69.8144 91.266C68.5626 93.9506 66.7669 96.2643 64.2846 96.2643C61.8022 96.2643 59.9025 93.8775 58.6031 91.1418C57.2518 88.2981 56.5033 85.0739 56.231 83.7535C60.0956 85.6225 66.1763 87.2569 72.1513 83.5376Z" fill="#371A45"/>
<path d="M69.8135 91.2655C68.5618 93.9501 66.7661 96.2638 64.2837 96.2638C61.8013 96.2638 59.9017 93.877 58.6023 91.1413C61.3571 90.0084 65.6933 88.9988 69.8135 91.2655Z" fill="#ED2E7A"/>
<path d="M64.2378 86.8425C62.3936 86.8425 60.7099 86.5657 59.2625 86.1827C54.4476 84.9077 51.2573 82.2475 51.1242 82.1347C50.5856 81.6802 50.5495 80.9101 51.0431 80.415C51.5368 79.92 52.3724 79.8867 52.9102 80.3395C52.9745 80.3931 55.8659 82.7734 60.0823 83.8665C65.6306 85.3054 70.8245 83.929 75.5204 79.778C76.0476 79.3121 76.8841 79.3275 77.3901 79.8128C77.8961 80.2982 77.8794 81.0683 77.3522 81.5341C72.7436 85.6081 68.1323 86.8433 64.2369 86.8433L64.2378 86.8425Z" fill="#371A45"/>
<path d="M64.1715 97.5035C62.4014 97.5035 60.7988 96.6969 59.4104 95.1054C58.4195 93.9701 57.5283 92.4159 56.7623 90.4861C55.4955 87.2959 54.9886 84.1585 54.9675 84.027C54.8617 83.3615 55.3615 82.7439 56.0844 82.6465C56.8072 82.55 57.4781 83.0093 57.5839 83.6748C57.59 83.7154 58.0819 86.7311 59.2588 89.6827C60.0609 91.6945 61.7658 95.0697 64.1715 95.0697C66.5772 95.0697 68.3067 91.6515 69.1169 89.6145C70.3007 86.6385 70.7944 83.6301 70.7988 83.6001C70.9064 82.9355 71.5781 82.4753 72.3009 82.5751C73.0229 82.6741 73.5218 83.2934 73.4143 83.958C73.3931 84.0911 72.8757 87.2448 71.5992 90.452C70.827 92.3916 69.9323 93.9538 68.9388 95.0949C67.546 96.6944 65.9416 97.5052 64.1706 97.5052L64.1715 97.5035Z" fill="#371A45"/>
<path d="M64.2084 78.0631C67.8559 78.0631 70.8128 76.5774 70.8128 74.7447C70.8128 72.912 67.8559 71.4263 64.2084 71.4263C60.5609 71.4263 57.604 72.912 57.604 74.7447C57.604 76.5774 60.5609 78.0631 64.2084 78.0631Z" fill="#371A45"/>
<path d="M64.1714 86.8474C63.4415 86.8474 62.8491 86.302 62.8491 85.6301V76.3711C62.8491 75.6992 63.4415 75.1538 64.1714 75.1538C64.9013 75.1538 65.4937 75.6992 65.4937 76.3711V85.6301C65.4937 86.302 64.9013 86.8474 64.1714 86.8474Z" fill="#371A45"/>
<path d="M24.3452 62.7561C20.0909 68.8663 18.5588 78.8929 26.2167 83.1227C33.3491 87.0628 42.5566 83.298 47.5663 74.1892C52.576 65.0804 50.4797 53.063 43.915 51.1632C37.9586 49.4395 30.3299 54.161 24.3452 62.7561Z" fill="#413757"/>
<path d="M41.6636 70.4597C41.5596 70.3631 41.4529 70.2479 41.3489 70.1424L41.0377 69.821C40.8341 69.6075 40.6269 69.3998 40.426 69.1953C40.0196 68.7871 39.6123 68.4008 39.2006 68.0486C38.3782 67.3441 37.5301 66.7907 36.6795 66.5659C36.2519 66.4531 35.8182 66.4165 35.3537 66.4571C34.8891 66.4993 34.399 66.6251 33.8965 66.8109C33.3975 67.0041 32.8845 67.2467 32.3741 67.53C31.861 67.8124 31.3515 68.1313 30.812 68.4495L30.8059 68.4527C30.5934 68.5777 30.3113 68.5201 30.1756 68.3253C30.0857 68.1963 30.083 68.0388 30.1518 67.9114C30.4524 67.3595 30.8314 66.8467 31.2722 66.363C31.7165 65.8842 32.2295 65.4354 32.8316 65.0548C32.9841 64.9606 33.1366 64.8665 33.3015 64.7853L33.5483 64.6612L33.8048 64.5467C34.1548 64.4047 34.525 64.283 34.9147 64.1994C35.6957 64.0355 36.5543 64.0395 37.3494 64.2262C38.1472 64.4096 38.8692 64.7561 39.4721 65.1814C40.0777 65.6074 40.5749 66.1082 40.9875 66.6397C41.3991 67.1721 41.7244 67.7394 41.9792 68.3237C42.1061 68.6166 42.2119 68.9153 42.2992 69.2188C42.3415 69.3714 42.3803 69.5239 42.4111 69.6798C42.442 69.8372 42.4667 69.9873 42.4825 70.1602C42.5046 70.3931 42.3168 70.5976 42.0638 70.6171C41.9237 70.6285 41.7923 70.5798 41.6998 70.4946L41.6636 70.4605V70.4597Z" fill="white"/>
<path d="M104.111 62.7561C108.365 68.8663 109.897 78.8929 102.238 83.1227C95.1061 87.0628 85.8985 83.298 80.8888 74.1892C75.8791 65.0804 77.9754 53.063 84.5401 51.1632C90.4966 49.4395 98.1253 54.161 104.11 62.7561H104.111Z" fill="#413757"/>
<path d="M85.9735 70.1589C85.9893 69.986 86.014 69.8367 86.0449 69.6785C86.0757 69.5227 86.1145 69.3701 86.1568 69.2175C86.2441 68.914 86.3499 68.6153 86.4768 68.3224C86.7307 67.7372 87.056 67.1708 87.4685 66.6384C87.8811 66.1077 88.3774 65.6061 88.9839 65.1801C89.5868 64.7548 90.3088 64.4083 91.1066 64.2249C91.9026 64.0382 92.7612 64.035 93.5414 64.1981C93.9319 64.2817 94.3021 64.4034 94.6512 64.5454L94.9077 64.6599L95.1545 64.784C95.3194 64.866 95.4719 64.9601 95.6244 65.0535C96.2265 65.4333 96.7395 65.8821 97.1838 66.3617C97.6246 66.8445 98.0036 67.3574 98.3042 67.9101C98.4171 68.1179 98.3263 68.3694 98.1006 68.4733C97.9516 68.5415 97.7824 68.5285 97.651 68.4522L97.644 68.4482C97.1036 68.1309 96.5941 67.8111 96.0819 67.5287C95.5706 67.2454 95.0584 67.0028 94.5595 66.8097C94.057 66.6238 93.566 66.498 93.1023 66.4558C92.6378 66.4152 92.2032 66.4518 91.7765 66.5646C90.9259 66.7894 90.0778 67.3428 89.2554 68.0473C88.8437 68.3995 88.4364 68.7858 88.0301 69.194C87.8282 69.3985 87.6219 69.6062 87.4183 69.8197L87.1071 70.1411C87.0031 70.2466 86.8964 70.361 86.7924 70.4584L86.7571 70.4908C86.5791 70.6564 86.2882 70.658 86.1075 70.4941C86.007 70.4032 85.9629 70.2774 85.9735 70.1573V70.1589Z" fill="white"/>
</svg>
