<svg width="40" height="40" viewBox="0 0 40 40" fill="none" xmlns="http://www.w3.org/2000/svg">
<g clip-path="url(#clip0_108_2761)">
<path d="M36.257 34.4015H3.74303C1.67578 34.4015 6.10352e-05 32.7258 6.10352e-05 30.6585V9.28985C6.10352e-05 7.22259 1.67578 5.54688 3.74303 5.54688H36.257C38.3243 5.54688 40 7.22259 40 9.28985V30.6585C40 32.7258 38.3243 34.4015 36.257 34.4015Z" fill="#CCF8FF"/>
<path d="M9.89414 30.6585V9.28985C9.89414 7.22259 11.5699 5.54688 13.6371 5.54688H3.74303C1.67578 5.54688 6.10352e-05 7.2229 6.10352e-05 9.28985V30.6585C6.10352e-05 32.7258 1.67578 34.4015 3.74303 34.4015H13.6371C11.5699 34.4015 9.89414 32.7258 9.89414 30.6585Z" fill="#ABEBF4"/>
<path d="M36.257 5.54688H3.74303C1.67578 5.54688 6.10352e-05 7.2229 6.10352e-05 9.28985V11.087H40V9.28985C40 7.2229 38.3243 5.54688 36.257 5.54688Z" fill="#7DE2E2"/>
<path d="M13.6371 5.54688H3.74303C1.67578 5.54688 6.10352e-05 7.2229 6.10352e-05 9.29015V11.087H9.89414V9.29015C9.89414 7.2229 11.5699 5.54688 13.6371 5.54688Z" fill="#66D3D0"/>
<path d="M15.9812 30.3363H7.367C5.55273 30.3363 4.08209 28.8657 4.08209 27.0514V18.4372C4.08209 16.623 5.55273 15.1523 7.367 15.1523H15.9812C17.7954 15.1523 19.2664 16.623 19.2664 18.4372V27.0514C19.2664 28.8657 17.7954 30.3363 15.9812 30.3363Z" fill="white"/>
<path d="M7.367 15.1523C5.55273 15.1523 4.08209 16.623 4.08209 18.4372V27.0514C4.08209 28.8657 5.55273 30.3363 7.367 30.3363H9.89415V15.1523H7.367Z" fill="#E1FEFF"/>
<path d="M15.3769 30.3363V26.8189C15.3769 24.7825 13.7107 23.1162 11.6742 23.1162C9.63781 23.1162 7.97156 24.7822 7.97156 26.8189V30.3363H15.3769Z" fill="#FFC477"/>
<path d="M11.6742 23.1162C9.82214 23.1162 8.27643 24.4941 8.01154 26.2754C11.579 27.1424 13.8892 25.8921 14.9402 25.08C14.3149 23.9136 13.0832 23.1162 11.6742 23.1162Z" fill="#FFB052"/>
<path d="M35.3344 17.1343H23.9319C23.2651 17.1343 22.7246 16.5935 22.7246 15.927C22.7246 15.2602 23.2651 14.7197 23.9319 14.7197H35.3344C36.0009 14.7197 36.5414 15.2602 36.5414 15.927C36.5414 16.5938 36.0009 17.1343 35.3344 17.1343Z" fill="#C6C5CA"/>
<path d="M35.3344 21.6787H23.9319C23.2651 21.6787 22.7246 21.1382 22.7246 20.4714C22.7246 19.8049 23.2651 19.2642 23.9319 19.2642H35.3344C36.0009 19.2642 36.5414 19.8049 36.5414 20.4714C36.5414 21.1382 36.0009 21.6787 35.3344 21.6787Z" fill="#C6C5CA"/>
<path d="M35.3344 26.2241H23.9319C23.2651 26.2241 22.7246 25.6833 22.7246 25.0168C22.7246 24.35 23.2651 23.8096 23.9319 23.8096H35.3344C36.0009 23.8096 36.5414 24.35 36.5414 25.0168C36.5414 25.6833 36.0009 26.2241 35.3344 26.2241Z" fill="#C6C5CA"/>
<path d="M29.9997 30.7685H23.9319C23.2651 30.7685 22.7246 30.2281 22.7246 29.5613C22.7246 28.8948 23.2651 28.354 23.9319 28.354H29.9997C30.6662 28.354 31.207 28.8948 31.207 29.5613C31.207 30.2281 30.6662 30.7685 29.9997 30.7685Z" fill="#C6C5CA"/>
<path d="M14.7645 21.3881C14.7645 23.0946 13.3808 24.478 11.6742 24.478C9.9674 24.478 8.58405 23.0946 8.58405 21.3881C8.58405 19.6812 9.9674 18.2979 11.6742 18.2979C13.3808 18.2979 14.7645 19.6812 14.7645 21.3881Z" fill="#FFDAAA"/>
<path d="M5.49536 8.31702C5.49536 8.65057 5.22497 8.92065 4.89172 8.92065C4.55817 8.92065 4.28809 8.65057 4.28809 8.31702C4.28809 7.98376 4.55817 7.71338 4.89172 7.71338C5.22497 7.71338 5.49536 7.98376 5.49536 8.31702Z" fill="#FF929F"/>
<path d="M8.91516 8.31702C8.91516 8.65057 8.64477 8.92065 8.31152 8.92065C7.97797 8.92065 7.70789 8.65057 7.70789 8.31702C7.70789 7.98376 7.97797 7.71338 8.31152 7.71338C8.64477 7.71338 8.91516 7.98376 8.91516 8.31702Z" fill="#FFEB99"/>
<path d="M12.335 8.31702C12.335 8.65057 12.0646 8.92065 11.7313 8.92065C11.3978 8.92065 11.1277 8.65057 11.1277 8.31702C11.1277 7.98376 11.3978 7.71338 11.7313 7.71338C12.0646 7.71338 12.335 7.98376 12.335 8.31702Z" fill="#C8EFB9"/>
</g>
<defs>
<clipPath id="clip0_108_2761">
<rect width="40" height="40" fill="white"/>
</clipPath>
</defs>
</svg>
