<svg width="40" height="40" viewBox="0 0 40 40" fill="none" xmlns="http://www.w3.org/2000/svg">
<g clip-path="url(#clip0_56_4587)">
<path d="M5.92004 8.66553C5.92004 8.98901 5.6579 9.25146 5.33411 9.25146C5.01062 9.25146 4.74817 8.98901 4.74817 8.66553C4.74817 8.34204 5.01062 8.07959 5.33411 8.07959C5.6579 8.07959 5.92004 8.34204 5.92004 8.66553Z" fill="#ABABA9"/>
<path d="M9.23975 8.66553C9.23975 8.98901 8.97729 9.25146 8.65381 9.25146C8.33002 9.25146 8.06787 8.98901 8.06787 8.66553C8.06787 8.34204 8.33002 8.07959 8.65381 8.07959C8.97729 8.07959 9.23975 8.34204 9.23975 8.66553Z" fill="#ABABA9"/>
<path d="M12.5594 8.66553C12.5594 8.98901 12.297 9.25146 11.9735 9.25146C11.6497 9.25146 11.3876 8.98901 11.3876 8.66553C11.3876 8.34204 11.6497 8.07959 11.9735 8.07959C12.297 8.07959 12.5594 8.34204 12.5594 8.66553Z" fill="#ABABA9"/>
<path d="M35.7806 5.39062H4.21936C1.8927 5.39062 0 7.28333 0 9.60999V30.3525C0 32.6788 1.8927 34.5718 4.21936 34.5718H35.7806C38.1073 34.5718 40 32.6788 40 30.3525V9.60999C40 7.28333 38.1073 5.39062 35.7806 5.39062ZM38.8281 30.3525C38.8281 32.0328 37.4612 33.4 35.7806 33.4H4.21936C2.53876 33.4 1.17188 32.0328 1.17188 30.3525V11.9403H36.904C37.2278 11.9403 37.4899 11.6779 37.4899 11.3544C37.4899 11.0306 37.2278 10.7684 36.904 10.7684H1.17188V9.60999C1.17188 7.92938 2.53876 6.5625 4.21936 6.5625H35.7806C37.4612 6.5625 38.8281 7.92938 38.8281 9.60999V30.3525Z" fill="#ABABA9"/>
<path d="M16.0989 14.7144H7.73712C5.65582 14.7144 3.9624 16.4078 3.9624 18.4891V26.8509C3.9624 28.9325 5.65582 30.6256 7.73712 30.6256H16.0989C18.1805 30.6256 19.8737 28.9325 19.8737 26.8509V18.4891C19.8737 16.4078 18.1802 14.7144 16.0989 14.7144ZM18.7018 26.8509C18.7018 28.2861 17.5342 29.4537 16.0989 29.4537H16.0983V26.6251C16.0983 25.4498 15.6009 24.3417 14.7455 23.5544C15.22 22.9462 15.5035 22.1826 15.5035 21.3531C15.5035 19.3762 13.8953 17.7676 11.918 17.7676C9.9411 17.7676 8.33252 19.3762 8.33252 21.3531C8.33252 23.3304 9.9411 24.939 11.918 24.939C12.6425 24.939 13.3167 24.7223 13.8812 24.3515C14.541 24.9219 14.9265 25.7483 14.9265 26.6254V29.4537H8.90991V26.6254C8.90991 26.3297 8.95325 26.0373 9.03839 25.7565C9.13269 25.4468 8.95813 25.1193 8.64838 25.0253C8.33923 24.931 8.01147 25.1056 7.91748 25.4153C7.79816 25.8069 7.73804 26.214 7.73804 26.6254V29.4537H7.73712C6.30188 29.4537 5.13428 28.2861 5.13428 26.8512V18.4891C5.13428 17.0538 6.30188 15.8862 7.73712 15.8862H16.0989C17.5342 15.8862 18.7018 17.0538 18.7018 18.4891V26.8509ZM11.918 23.7671C10.5872 23.7671 9.50439 22.684 9.50439 21.3531C9.50439 20.0223 10.5872 18.9395 11.918 18.9395C13.2489 18.9395 14.3317 20.0223 14.3317 21.3531C14.3317 22.6843 13.2489 23.7671 11.918 23.7671Z" fill="#ABABA9"/>
<path d="M34.8849 14.2949H23.8165C22.8473 14.2949 22.0587 15.0835 22.0587 16.0527C22.0587 17.022 22.8473 17.8105 23.8165 17.8105H34.8849C35.8542 17.8105 36.6428 17.022 36.6428 16.0527C36.6428 15.0835 35.8542 14.2949 34.8849 14.2949ZM34.8849 16.6387H23.8165C23.4937 16.6387 23.2306 16.3759 23.2306 16.0527C23.2306 15.7296 23.4937 15.4668 23.8165 15.4668H34.8849C35.2081 15.4668 35.4709 15.7296 35.4709 16.0527C35.4709 16.3759 35.2081 16.6387 34.8849 16.6387Z" fill="#ABABA9"/>
<path d="M34.8849 18.7065H23.8165C22.8473 18.7065 22.0587 19.4951 22.0587 20.4644C22.0587 21.4336 22.8473 22.2222 23.8165 22.2222H25.4309C25.7547 22.2222 26.0168 21.96 26.0168 21.6362C26.0168 21.3127 25.7547 21.0503 25.4309 21.0503H23.8165C23.4937 21.0503 23.2306 20.7875 23.2306 20.4644C23.2306 20.1412 23.4937 19.8784 23.8165 19.8784H34.8849C35.2081 19.8784 35.4709 20.1412 35.4709 20.4644C35.4709 20.7875 35.2081 21.0503 34.8849 21.0503H28.028C27.7045 21.0503 27.442 21.3127 27.442 21.6362C27.442 21.96 27.7045 22.2222 28.028 22.2222H34.8849C35.8542 22.2222 36.6428 21.4336 36.6428 20.4644C36.6428 19.4951 35.8542 18.7065 34.8849 18.7065Z" fill="#ABABA9"/>
<path d="M34.8849 23.1182H23.8165C22.8473 23.1182 22.0587 23.9067 22.0587 24.876C22.0587 25.8452 22.8473 26.6338 23.8165 26.6338H34.8849C35.8542 26.6338 36.6428 25.8452 36.6428 24.876C36.6428 23.9067 35.8542 23.1182 34.8849 23.1182ZM34.8849 25.4619H23.8165C23.4937 25.4619 23.2306 25.1992 23.2306 24.876C23.2306 24.5528 23.4937 24.29 23.8165 24.29H34.8849C35.2081 24.29 35.4709 24.5528 35.4709 24.876C35.4709 25.1992 35.2081 25.4619 34.8849 25.4619Z" fill="#ABABA9"/>
<path d="M29.7067 27.5298H23.8165C22.8473 27.5298 22.0587 28.3181 22.0587 29.2876C22.0587 30.2568 22.8473 31.0454 23.8165 31.0454H29.7067C30.676 31.0454 31.4645 30.2568 31.4645 29.2876C31.4645 28.3181 30.676 27.5298 29.7067 27.5298ZM29.7067 29.8735H23.8165C23.4937 29.8735 23.2306 29.6105 23.2306 29.2876C23.2306 28.9644 23.4937 28.7017 23.8165 28.7017H29.7067C30.0299 28.7017 30.2927 28.9644 30.2927 29.2876C30.2927 29.6105 30.0299 29.8735 29.7067 29.8735Z" fill="#ABABA9"/>
</g>
<defs>
<clipPath id="clip0_56_4587">
<rect width="40" height="40" fill="white"/>
</clipPath>
</defs>
</svg>
