<svg width="40" height="40" viewBox="0 0 40 40" fill="none" xmlns="http://www.w3.org/2000/svg">
<path d="M23.685 15.9502L19.0054 13.6104C18.5214 13.3684 17.9576 13.3937 17.4972 13.6782C17.0369 13.9626 16.7621 14.4556 16.7621 14.9968V19.6764C16.7621 20.2175 17.0369 20.7105 17.4972 20.995C17.7479 21.1498 18.029 21.2279 18.3112 21.2279C18.5476 21.2279 18.7848 21.1731 19.0054 21.0628L23.6849 18.723C24.2135 18.4587 24.5418 17.9275 24.5418 17.3366C24.5419 16.7457 24.2135 16.2144 23.685 15.9502ZM23.1608 17.6749L18.4813 20.0146C18.3111 20.0998 18.1672 20.0314 18.1133 19.998C18.0594 19.9647 17.9339 19.8666 17.9339 19.6763V14.9967C17.9339 14.8064 18.0594 14.7084 18.1133 14.675C18.148 14.6535 18.2203 14.6174 18.3129 14.6174C18.3638 14.6174 18.4208 14.6283 18.4812 14.6584L23.1608 16.9982C23.3495 17.0926 23.3699 17.2662 23.3699 17.3365C23.37 17.4069 23.3496 17.5805 23.1608 17.6749Z" fill="#ABABA9"/>
<path d="M25.1332 12.1238C25.3391 11.8742 25.3038 11.5049 25.0542 11.2989C23.6364 10.1288 21.8414 9.48438 20 9.48438C15.619 9.48438 12.0548 13.0486 12.0548 17.4296C12.0548 21.8106 15.619 25.3748 20 25.3748C24.3811 25.3748 27.9453 21.8105 27.9453 17.4296C27.9453 16.2041 27.6736 15.0287 27.1377 13.9358C26.9952 13.6452 26.6443 13.5252 26.3536 13.6677C26.0631 13.8102 25.9431 14.1612 26.0855 14.4517C26.5419 15.3826 26.7734 16.3845 26.7734 17.4295C26.7734 21.1644 23.7349 24.2028 20 24.2028C16.2652 24.2028 13.2267 21.1643 13.2267 17.4295C13.2267 13.6947 16.2652 10.6562 20 10.6562C21.5698 10.6562 23.0999 11.2054 24.3082 12.2027C24.5579 12.4088 24.9272 12.3733 25.1332 12.1238Z" fill="#ABABA9"/>
<path d="M36.2217 5.01514H3.77828C1.69492 5.01514 0 6.71006 0 8.79342V23.3208C0 23.6444 0.262344 23.9068 0.585938 23.9068C0.909531 23.9068 1.17188 23.6444 1.17188 23.3208V8.79342C1.17188 7.35623 2.34109 6.18701 3.77828 6.18701H36.2217C37.6589 6.18701 38.8281 7.35623 38.8281 8.79342V28.3499H1.17188V26.8137C1.17188 26.4901 0.909531 26.2277 0.585938 26.2277C0.262344 26.2277 0 26.4901 0 26.8137V31.2062C0 32.5151 0.669219 33.6704 1.68328 34.3487C1.70242 34.3626 1.72211 34.3754 1.7425 34.3866C2.33055 34.7644 3.02898 34.9845 3.77828 34.9845H36.2217C38.3051 34.9845 40 33.2896 40 31.2062V8.79342C40 6.71006 38.3051 5.01514 36.2217 5.01514ZM1.17188 31.2061V29.5217H5.55055L1.98109 33.0912C1.48312 32.6162 1.17188 31.947 1.17188 31.2061ZM3.77828 33.8126C3.51742 33.8126 3.26555 33.7735 3.02766 33.7019L7.20781 29.5218H14.9188L10.628 33.8126H3.77828ZM12.2852 33.8125L16.576 29.5217H24.287L19.9962 33.8125H12.2852ZM21.6534 33.8125L25.9442 29.5217H33.6552L29.3644 33.8125H21.6534ZM38.8281 31.2061C38.8281 32.6433 37.6589 33.8125 36.2217 33.8125H31.0216L35.3124 29.5217H38.8281V31.2061Z" fill="#ABABA9"/>
</svg>
