<svg width="40" height="40" viewBox="0 0 40 40" fill="none" xmlns="http://www.w3.org/2000/svg">
<path d="M36.7113 34.8333H3.28867C1.47242 34.8333 0 33.3609 0 31.5446V8.45547C0 6.63914 1.47242 5.1668 3.28867 5.1668H36.7113C38.5276 5.1668 40 6.63914 40 8.45547V31.5446C40 33.3609 38.5276 34.8333 36.7113 34.8333Z" fill="#9EF07B"/>
<path opacity="0.1" d="M21.1508 26.0844C25.3378 26.0844 28.7321 22.6901 28.7321 18.5031C28.7321 14.3161 25.3378 10.9219 21.1508 10.9219C16.9638 10.9219 13.5696 14.3161 13.5696 18.5031C13.5696 22.6901 16.9638 26.0844 21.1508 26.0844Z" fill="black"/>
<path d="M20 24.9336C24.187 24.9336 27.5812 21.5394 27.5812 17.3523C27.5812 13.1653 24.187 9.77109 20 9.77109C15.8129 9.77109 12.4187 13.1653 12.4187 17.3523C12.4187 21.5394 15.8129 24.9336 20 24.9336Z" fill="white"/>
<path opacity="0.1" d="M24.9378 11.5997C26.0775 12.9263 26.7665 14.6513 26.7665 16.5374C26.7665 20.7245 23.3722 24.1188 19.185 24.1188C17.299 24.1188 15.5739 23.4298 14.2473 22.2902C15.6377 23.9085 17.699 24.9338 20 24.9338C24.1872 24.9338 27.5815 21.5395 27.5815 17.3524C27.5815 15.0514 26.5561 12.9901 24.9378 11.5997Z" fill="black"/>
<path d="M23.5261 18.1448L18.7052 20.5552C18.0449 20.8855 17.2678 20.4052 17.2678 19.6669V14.846C17.2678 14.1077 18.0449 13.6274 18.7052 13.9577L23.5261 16.368C24.2581 16.7341 24.2581 17.7788 23.5261 18.1448Z" fill="#9EF07B"/>
<path d="M0 29.2057V31.5445C0 33.3608 1.47242 34.8332 3.28867 34.8332H36.7113C38.5276 34.8332 40 33.3608 40 31.5445V29.2057H0Z" fill="#E8E8E8"/>
<path d="M10.5951 34.8333H13.9675L19.595 29.2058H16.2226L10.5951 34.8333ZM1.48389 34.2934C2.00209 34.6343 2.62193 34.8333 3.28857 34.8333H4.31646L9.94396 29.2058H6.57162L1.48389 34.2934ZM20.246 34.8333H23.6184L29.2459 29.2058H25.8735L20.246 34.8333ZM35.5244 29.2057L29.8969 34.8332H33.2694L38.8969 29.2057H35.5244Z" fill="#404B58"/>
<path opacity="0.1" d="M36.7114 5.16672H34.2529C36.0692 5.16672 37.5416 6.63914 37.5416 8.45539V31.5445C37.5416 33.3608 36.0692 34.8332 34.2529 34.8332H36.7114C38.5277 34.8332 40.0001 33.3608 40.0001 31.5445V8.45539C40.0001 6.63914 38.5277 5.16672 36.7114 5.16672Z" fill="black"/>
</svg>
