<svg width="42" height="42" viewBox="0 0 42 42" fill="none" xmlns="http://www.w3.org/2000/svg">
<path d="M24.3183 35H9.54548C8.84297 35 8.27277 34.4298 8.27277 33.7273C8.27277 33.0259 8.84297 32.4546 9.54548 32.4546H19.8324L24.3183 35Z" fill="#544575"/>
<path d="M17.5747 10.0087C18.8505 14.7514 14.9325 17.7801 13.2526 14.2885C12.9234 13.5919 12.7273 12.7196 12.7273 11.7727C12.7273 9.48857 13.8668 7.63638 15.2728 7.63638C16.2901 7.63638 17.1683 8.60706 17.5747 10.0087Z" fill="#415FCA"/>
<path d="M26.9708 17.1182L32.4333 5.91987C33.337 4.06761 31.9879 1.90912 29.9278 1.90912H26.7858C24.2172 1.90912 23.8502 2.6876 23.5423 3.31883L17.8055 15.1545C17.1231 16.8334 18.3697 18.4546 20.4461 19.3582C23.0078 20.1905 25.906 19.7384 26.9708 17.1182Z" fill="#FFDDCF"/>
<path d="M19.6199 15.1545L25.3567 3.31883C25.6645 2.6876 26.1745 2.19787 26.7858 1.90912H23.2679C22.2183 1.90912 21.2383 2.49933 20.7583 3.48379C16.9025 11.3877 18.4093 8.29886 16.2357 12.7545L16.2349 12.7553C15.0139 15.7598 17.5087 18.4037 20.4461 19.3582C19.386 18.2758 18.9376 16.8334 19.6199 15.1545Z" fill="#FFCBBE"/>
<path d="M35.1646 26.2555C34.05 24.7279 29.7892 18.9112 28.6364 17.1818C25.5775 17.198 22.4972 16.4869 19.6806 15.0313C16.2357 14.1131 13.0032 21.6465 14.873 25.1581C22.7038 33.8047 41.8982 38.1622 35.1646 26.2555Z" fill="#727BEB"/>
<path d="M16.2349 12.7553C15.4599 12.0772 14.2163 12.3127 13.7505 13.2669C13.7097 13.3505 11.7569 17.3543 11.7636 17.3406C11.7625 17.343 11.7613 17.3453 11.7599 17.3481C11.4393 20.109 12.7317 22.7938 14.8729 25.1582L19.6805 15.0314C18.4765 14.409 17.3202 13.6515 16.2349 12.7553Z" fill="#5A6CD9"/>
<path d="M35.5515 35.6152L30.8141 36.9092L17.4576 28.0778C15.8217 26.5338 15.1878 22.957 17.8055 22.904C19.7078 23.0219 23.38 23.7499 26.0909 27.3636C27.5928 29.3661 30.4717 30.4826 33.4134 31.0995L35.5515 35.6152Z" fill="#A98D3F"/>
<path d="M17.651 27.3238C18.4871 25.1615 18.1359 22.7843 16.857 20.979C15.1509 19.3582 11.4758 26.2183 13.608 27.8227C15.2824 28.4132 16.95 28.3864 17.651 27.3238Z" fill="#FDCD64"/>
<path d="M14.6898 19.0163L11.76 17.3481L9.23237 22.5307C8.66078 24.7439 11.1417 26.953 13.608 27.8227L16.857 20.979C16.3021 20.1956 15.5735 19.5194 14.6898 19.0163Z" fill="#FDB245"/>
<path d="M15.9091 37.5455C16.6116 37.5455 17.1818 38.1157 17.1818 38.8182C17.1818 39.5196 16.6116 40.0909 15.9091 40.0909H13.3636C12.6611 40.0909 12.0909 39.5207 12.0909 38.8182C12.0909 38.1168 12.6611 37.5455 13.3636 37.5455H15.9091Z" fill="#544575"/>
<path d="M6.99997 37.5455C7.70249 37.5455 8.27269 38.1157 8.27269 38.8182C8.27269 39.5196 7.70249 40.0909 6.99997 40.0909H1.27271C0.570199 40.0909 0 39.5207 0 38.8182C0 38.1168 0.570199 37.5455 1.27271 37.5455H6.99997Z" fill="#544575"/>
<path d="M42 33.0909V35C41.5121 37.5455 35.1646 37.8849 34.3636 35C32.694 30.5602 33.3507 28.7948 35.1646 26.2556C38.9395 26.2555 42 29.316 42 33.0909Z" fill="#FDCD64"/>
<path d="M38.9785 40.0909C40.6472 40.0909 42 38.7381 42 37.0694V34.9999H31.4704C31.2495 34.9999 31.0329 34.9427 30.841 34.8334C29.121 33.8541 20.4782 28.9333 14.6547 25.6178L13.3396 25.5536L12.4404 27.4476C12.102 28.1689 11.4652 29.4317 13.1617 30.5942L29.6659 39.9259C29.8571 40.034 30.0728 40.0907 30.2923 40.0907H38.9785V40.0909Z" fill="#F0EDFF"/>
<path d="M13.3528 28.3602L14.6547 25.6179C11.6607 23.9133 9.41194 22.6329 9.23238 22.5306C7.87894 25.305 8.3457 24.3481 8.24472 24.5551C7.54475 25.989 8.08098 27.7191 9.46912 28.5065L13.1617 30.5943C12.9657 29.8747 13.0145 29.0816 13.3528 28.3602Z" fill="#DCDBFF"/>
<path d="M26.1378 20.6034C26.0054 20.2778 26.162 19.9066 26.4876 19.7741L29.705 18.4658C30.0304 18.3333 30.4018 18.4899 30.5342 18.8156C30.6666 19.1412 30.51 19.5124 30.1845 19.6449L26.967 20.9532C26.6419 21.0852 26.2705 20.9296 26.1378 20.6034Z" fill="#A98D3F"/>
<path d="M28.7031 23.1928C28.5465 22.8783 28.6744 22.4962 28.989 22.3395L31.5234 21.077C31.6116 21.0331 31.7087 21.0102 31.8071 21.0102C32.1585 21.0102 32.4439 21.2951 32.4439 21.6466C32.4439 21.9052 32.29 22.1277 32.0687 22.2273L29.5565 23.4788C29.2425 23.6351 28.8602 23.5081 28.7031 23.1928Z" fill="#A98D3F"/>
<path d="M31.2867 25.8046C31.0934 25.5111 31.1747 25.1164 31.4682 24.9232L33.3323 23.6954C33.6258 23.5021 34.0204 23.5834 34.2138 23.8769C34.4071 24.1704 34.3258 24.565 34.0323 24.7583L32.1682 25.9861C31.874 26.1798 31.4797 26.0975 31.2867 25.8046Z" fill="#A98D3F"/>
</svg>
