<?xml version="1.0" encoding="UTF-8"?><svg id="Layer_1" xmlns="http://www.w3.org/2000/svg" viewBox="0 0 4000 4000"><path d="m1514.17,3090.36c0,25.65-3.64,50.41-10.48,73.87-31.95,110.2-133.67,190.77-254.16,190.77s-228.15-85.37-256.82-200.54c-5.12-20.49-7.82-42-7.82-64.1,0-146.14,118.49-264.6,264.64-264.6s264.64,118.46,264.64,264.6Z" style="fill:#413757;"/><g style="fill:none; opacity:.6;"><path d="m1456.59,2925.68c24.91,40.35,39.32,87.87,39.32,138.77,0,25.65-3.64,50.41-10.48,73.87-31.95,110.2-133.67,190.77-254.16,190.77-83.76,0-158.38-38.95-206.87-99.69,46.64,75.36,130,125.6,225.14,125.6,120.49,0,222.21-80.56,254.16-190.77,6.84-23.46,10.48-48.22,10.48-73.87,0-62.28-21.57-119.48-57.58-164.68Z" style="fill:#fff;"/></g><circle cx="1249.53" cy="3090.37" r="113.41" transform="translate(-1819.25 1788.7) rotate(-45)" style="fill:#fffefc;"/><path d="m1249.53,3372.5c-75.36,0-146.21-29.35-199.49-82.63-53.29-53.29-82.63-124.13-82.63-199.49s29.35-146.21,82.63-199.49c53.29-53.29,124.13-82.63,199.49-82.63s146.21,29.35,199.49,82.63c53.29,53.29,82.63,124.13,82.63,199.49s-29.35,146.21-82.63,199.49c-53.29,53.29-124.13,82.63-199.49,82.63Zm0-529.25c-136.27,0-247.13,110.86-247.13,247.13s110.86,247.13,247.13,247.13,247.13-110.86,247.13-247.13-110.86-247.13-247.13-247.13Z" style="fill:#371a45;"/><path d="m1249.53,3221.29c-72.18,0-130.91-58.73-130.91-130.91s58.73-130.91,130.91-130.91,130.91,58.73,130.91,130.91-58.73,130.91-130.91,130.91Zm0-226.82c-52.89,0-95.91,43.03-95.91,95.91s43.03,95.91,95.91,95.91,95.91-43.03,95.91-95.91-43.03-95.91-95.91-95.91Z" style="fill:#371a45;"/><g style="fill:none; opacity:.3;"><path d="m1514.17,3090.36c0,25.65-3.64,50.41-10.48,73.87-380.45-193.39-518.8-51.78-518.8-73.87,0-146.14,118.49-264.6,264.64-264.6s264.64,118.46,264.64,264.6Z" style="fill:#371a45;"/></g><path d="m2453.27,2611.96c-563.14,0-496.66-355.33-496.66-431.86,0-24.56,11.69-85.65,41.69-157.25.51-1.21,1.02-2.42,1.52-3.64,64.18-150.92,209.38-346.26,496.47-346.26,183.8,0,255.29,52.68,305.04,130.19,38.56,60.07,23.35,155.1,14.55,226.04-2.58,20.57-4.58,39.11-4.58,54.2,0,16.74,25.42,76.42,32.73,128.98,22.06,158.03,31.87,399.6-390.76,399.6Z" style="fill:#fbfffe;"/><g style="fill:none; opacity:.3;"><path d="m2449.65,2607.32c-400.5,0-482.55-179.74-496.51-311.06,55.84,95.5,180.71,180.05,455.44,180.05,422.63,0,412.82-241.57,390.76-399.6-7.31-52.56-32.73-112.24-32.73-128.98,0-15.1,1.99-33.63,4.58-54.2,4.42-35.74,10.48-77.59,10.48-117.99,5.63,7.39,10.95,15.02,16.03,22.96,38.56,60.07,23.35,155.1,14.55,226.04-2.58,20.57-4.58,39.11-4.58,54.2,0,16.74,25.42,76.42,32.73,128.98,22.06,158.03,31.87,399.6-390.76,399.6Z" style="fill:#371a45;"/></g><path d="m2844.05,2212.36c-63.63-93.04-169.65-128.98-380.79-128.98-234.29,0-391.19-40.36-463.42-64.17,64.17-150.92,209.38-346.26,496.47-346.26,183.8,0,255.29,52.68,305.04,130.19,49.74,77.51,9.97,213.17,9.97,280.24,0,16.74,25.42,76.42,32.73,128.98Z" style="fill:#413757;"/><path d="m2453.3,2629.46c-106.58,0-198.13-12.79-272.08-38-65.03-22.17-117.93-54.42-157.24-95.86-95.88-101.08-89.01-231.17-85.7-293.69.46-8.74.86-16.3.86-21.81,0-40.67,28.49-170.74,113.13-292.27,47.6-68.35,105.14-122.67,171.01-161.47,79.88-47.04,171.74-70.9,273.04-70.9,89.25,0,158.08,12.36,210.44,37.79,45.08,21.89,78.79,52.87,109.33,100.45,39.53,61.59,28.1,151.54,18.91,223.81-3.18,24.99-6.18,48.6-6.18,65.9,0,7.62,4.57,26.77,9.41,47.05,10.19,42.7,25.6,107.23,26.93,174.41,1.62,81.71-18.09,149.17-58.6,200.48-30.85,39.09-74.17,69.34-128.74,89.92-60.16,22.69-135.7,34.2-224.52,34.2Zm43.02-939.01c-218.15,0-346.27,118.21-415.33,217.37-81.53,117.06-106.85,240.54-106.85,272.27,0,6.44-.42,14.42-.91,23.66-3.04,57.65-9.38,177.6,76.14,267.76,77.39,81.58,213.29,122.95,403.93,122.95,158.14,0,267.75-37.28,325.79-110.81,82.52-104.54,45.17-261.01,25.1-345.08-6.02-25.21-10.37-43.43-10.37-55.17,0-19.52,2.99-43.06,6.46-70.32,8.47-66.65,19.01-149.6-13.65-200.49-47.05-73.31-114.42-122.14-290.31-122.14Z" style="fill:#371a45;"/><g style="fill:none; opacity:.3;"><path d="m2815.87,2029.19c-153.54,71.8-456.54,161.24-817.58-6.34.51-1.21,1.02-2.42,1.52-3.64,64.18-150.92,209.38-346.26,496.47-346.26,183.8,0,255.29,52.68,305.04,130.19,38.56,60.07,23.35,155.1,14.55,226.04Z" style="fill:#371a45;"/></g><path d="m2727.9,3090.36c0,25.65-3.64,50.41-10.48,73.87-31.95,110.2-133.67,190.77-254.16,190.77s-228.15-85.37-256.82-200.54c-5.12-20.49-7.82-42-7.82-64.1,0-146.14,118.49-264.6,264.64-264.6s264.64,118.46,264.64,264.6Z" style="fill:#413757;"/><g style="fill:none; opacity:.6;"><path d="m2670.32,2925.68c24.91,40.35,39.32,87.87,39.32,138.77,0,25.65-3.64,50.41-10.48,73.87-31.95,110.2-133.67,190.77-254.16,190.77-83.76,0-158.38-38.95-206.87-99.69,46.64,75.36,130,125.6,225.14,125.6,120.49,0,222.21-80.56,254.16-190.77,6.84-23.46,10.48-48.22,10.48-73.87,0-62.28-21.57-119.48-57.58-164.68Z" style="fill:#fff;"/></g><circle cx="2463.26" cy="3090.37" r="113.41" transform="translate(-1463.75 2646.94) rotate(-45)" style="fill:#fffefc;"/><path d="m2463.26,3372.5c-75.36,0-146.21-29.35-199.49-82.63-53.29-53.29-82.63-124.13-82.63-199.49s29.35-146.21,82.63-199.49c53.29-53.29,124.13-82.63,199.49-82.63s146.21,29.35,199.49,82.63c53.29,53.29,82.63,124.13,82.63,199.49s-29.35,146.21-82.63,199.49c-53.29,53.29-124.13,82.63-199.49,82.63Zm0-529.25c-136.27,0-247.13,110.86-247.13,247.13s110.86,247.13,247.13,247.13,247.13-110.86,247.13-247.13-110.86-247.13-247.13-247.13Z" style="fill:#371a45;"/><path d="m2463.26,3221.29c-72.18,0-130.91-58.73-130.91-130.91s58.73-130.91,130.91-130.91,130.91,58.73,130.91,130.91-58.73,130.91-130.91,130.91Zm0-226.82c-52.89,0-95.91,43.03-95.91,95.91s43.03,95.91,95.91,95.91,95.91-43.03,95.91-95.91-43.03-95.91-95.91-95.91Z" style="fill:#371a45;"/><g style="fill:none; opacity:.3;"><path d="m2727.9,3090.36c0,25.65-3.64,50.41-10.48,73.87-101.64-23.9-372.78-34.75-510.98-9.78-5.12-20.49-7.82-42-7.82-64.1,0-146.14,118.49-264.6,264.64-264.6s264.64,118.46,264.64,264.6Z" style="fill:#371a45;"/></g><path d="m1637.86,3069.94c-.64,0-1.29-.04-1.94-.11-9.61-1.06-16.54-9.7-15.48-19.31l14.07-127.62c1.06-9.61,9.71-16.54,19.31-15.48,9.61,1.06,16.54,9.71,15.48,19.31l-14.07,127.62c-.99,8.96-8.57,15.59-17.37,15.59Z" style="fill:#371a45;"/><path d="m1454.29,2221.57l-175.98,511.62s-131.01-31.29-234.64,39.11c-80.03,54.36-101.68,160.34-66.48,195.54,35.2,35.2,148.61-7.82,211.18,0,62.57,7.82,265.93,148.61,285.48,46.93,0,0-3.91,34.38,58.66,36.74,62.57,2.37,582.7,0,582.7,0,0,0,23.46,21.92,58.66,33.65,35.2,11.73,594.43,0,594.43,0,0,0,31.29-7.82,43.02-50.84,0,0,43.02-7.82,43.02-74.3s-11.73-262.02-101.68-262.02c0,0,70.39-27.38,70.39-86.04s-27.38-70.39-66.48-70.39h-719.57s-50.84-5.87-50.84,54.75c0,39.11,22.13,101.68,112.74,101.68,0,0-97.1,27.38-97.1,226.82h-349.89s68.32-598.34-49.01-676.56c-117.32-78.21-148.61-26.69-148.61-26.69Z" style="fill:#9ef07b;"/><g style="fill:none; opacity:.6;"><path d="m2035.72,2578.13h719.57c34.17,0,59.39,8.96,65.2,50.37.8-4.22,1.28-8.61,1.28-13.22,0-58.66-27.38-70.39-66.48-70.39h-719.57s-50.84-5.87-50.84,54.75c0,5.37.44,11.2,1.39,17.23,8.13-43.49,49.45-38.74,49.45-38.74Z" style="fill:#fff;"/></g><g style="fill:none; opacity:.6;"><path d="m2811.3,3031.97c-2.27,8.29-5.24,15.29-8.64,21.16-24.21-68.05-105.82-234.96-323.77-234.96-262.61,0-335.93,158.54-356.15,237.22-4.89-3.75-7.55-6.26-7.55-6.26,0,0,14.35-280.52,363.7-280.52,273.75,0,332.41,263.35,332.41,263.35Z" style="fill:#fff;"/></g><g style="fill:none; opacity:.2;"><path d="m2752.64,2658.49h-653.76c-76.64,0-104.29-44.77-110.99-82.24-1.1,5.17-1.75,11.01-1.75,17.71,0,39.11,22.13,101.68,112.75,101.68h653.76s70.39-27.38,70.39-86.04c0-8.29-.57-15.62-1.62-22.14-10.46,48.32-68.78,71.02-68.78,71.02Z" style="fill:#371a45;"/></g><g style="fill:none; opacity:.6;"><path d="m1460.58,2940.69c-17.6-49.71-40.87-85.06-64.53-110.17-52.05-55.22-106.02-60.81-106.02-60.81,0,0-131.01-31.29-234.64,39.11-57.37,38.99-84.75,104.49-82.63,151.38-28.67-39.5-5.44-138.4,70.9-190.26,103.63-70.39,234.64-39.11,234.64-39.11,0,0,53.97,5.59,106.02,60.81,29.41,31.21,58.19,78.25,76.26,149.04Z" style="fill:#fff;"/></g><g style="fill:none; opacity:.6;"><path d="m1467.32,2261.16s16.12-26.44,68.41-12.62l9.55-34.27c-70.39-28.98-91,4.93-91,4.93l-175.98,511.64s9.88,1.04,25.23,6.52l163.79-476.2Z" style="fill:#fff;"/></g><g style="fill:none; opacity:.6;"><path d="m2077.34,2732.14h668.83c90.08,0,103.48,187.36,104,257.63,2.56-8.79,4.14-19.36,4.14-32.11,0-66.48-11.73-262.02-101.68-262.02h-653.76s-39.85,11.23-68.49,71.74c23.9-28.88,46.95-35.24,46.95-35.24Z" style="fill:#fff;"/><path d="m1569.91,2282.41c120.03,78.21,50.13,676.56,50.13,676.56h395.44c0-12.88.42-25.02,1.2-36.5h-364.79s68.32-598.34-49-676.56c-22.13-14.74-41.22-24.91-57.6-31.64l-12.9,46.28c11.44,5.8,23.91,12.99,37.53,21.85Z" style="fill:#fff;"/></g><g style="fill:none; opacity:.3;"><path d="m2854.29,2965.28c-2.23,61.63-42.94,69.02-42.94,69.02-11.73,43.02-43.02,50.84-43.02,50.84,0,0-559.23,11.73-594.43,0-35.2-11.73-58.66-33.67-58.66-33.67,0,0-520.13,2.39-582.7,0-62.57-2.35-58.66-36.72-58.66-36.72-19.55,101.68-222.91-39.11-285.48-46.93-62.57-7.82-175.98,35.2-211.18,0-27.96-27.96-20.02-100.7,24.6-156.62-11.03,37.7-7.63,73.01,9.97,90.61,35.2,35.2,148.61-7.82,211.18,0,62.57,7.82,265.93,148.61,285.48,46.93,0,0-3.91,34.37,58.66,36.72,62.57,2.39,582.7,0,582.7,0,0,0,23.46,21.94,58.66,33.67,35.2,11.73,594.43,0,594.43,0,0,0,31.29-7.82,43.02-50.84,0,0,3.44-.63,8.37-3.01Z" style="fill:#371a45;"/></g><path d="m2342.92,3107.88c-156.22,0-168.62-4.13-174.58-6.12-28.46-9.49-49.9-24.95-59.52-32.73-62.79.28-517.79,2.2-576.96-.04-25.17-.95-44.46-6.8-57.53-17.42-4.53,4.55-9.31,7.74-13.61,9.96-21.22,10.94-50.52,9.94-92.23-3.16-32.86-10.32-69.07-26.86-101.03-41.45-33.43-15.27-65.01-29.69-81.26-31.72-22.28-2.79-54.17,1.93-85,6.48-55.97,8.27-108.83,16.08-136.38-11.47-16.43-16.42-23.8-43.14-20.76-75.23,2.46-26,11.43-53.01,25.95-78.14,15.96-27.62,38.03-51.49,63.84-69.02,45.18-30.69,102.45-47.62,165.64-48.97,28.73-.62,52.56,2.08,67.19,4.37l171.07-497.35c.41-1.18.94-2.32,1.59-3.39,1.08-1.77,11.25-17.49,36.46-23.09,35.02-7.78,81.05,7.13,136.81,44.3,31.48,20.98,52.65,70.27,64.75,150.67,9.07,60.31,12.95,138.29,11.54,231.77-1.89,125.04-12.91,245.33-17.55,291.18h313.19c3.25-111.59,37.38-169.17,66.73-198.22-27.86-8.24-45.49-23.06-56.26-36.17-16.76-20.41-26.37-48.33-26.37-76.61,0-24.86,7.31-43.99,21.72-56.83,18.46-16.45,41.43-15.89,47.41-15.42h718.78c36.05,0,83.98,9.11,83.98,87.89,0,38.37-23.62,65.08-45.45,81.58,9.34,6.35,17.91,15,25.66,25.92,13.79,19.42,25.04,46.48,33.45,80.41,16.35,65.97,17.62,139.26,17.62,160.15,0,40.53-14.64,63.02-26.93,74.74-6.92,6.6-13.96,10.69-19.55,13.18-16.07,44.52-51.23,53.81-52.81,54.2-1.27.32-2.57.49-3.88.52-1.4.03-141.55,2.95-284.21,4.4-57.01.58-103.54.82-141.54.82Zm-163.64-39.37c7.26,1.95,51.85,6.15,307.48,3.52,130.68-1.35,258.57-3.91,278.5-4.31,5.14-2.08,21.74-10.74,29.17-38,1.83-6.71,6.71-11.58,13.57-12.59,1.19-.31,7.62-2.25,14.02-8.97,9.69-10.17,14.81-26.82,14.81-48.14,0-19.89-1.2-89.6-16.6-151.73-10.49-42.33-30.73-92.79-67.58-92.79-8.42,0-15.65-6-17.2-14.27-1.55-8.28,3.01-16.48,10.86-19.54.55-.22,59.24-23.93,59.24-69.73,0-21.9-4.24-36.71-12.6-44.02-6.92-6.05-18.48-8.87-36.38-8.87h-719.57c-.77,0-1.18,0-1.91-.1-1.18-.09-13.33-.74-21.61,6.82-6.52,5.94-9.82,16.22-9.82,30.53,0,19.75,6.87,84.18,95.25,84.18,8.83,0,16.52,6.52,17.6,15.28,1.08,8.73-4.25,16.83-12.75,19.03-1.91.63-21.44,7.6-41.4,34.97-19.64,26.93-43.05,79.15-43.05,175.03,0,9.66-7.83,17.5-17.5,17.5h-349.89c-4.99,0-9.74-2.13-13.06-5.85s-4.9-8.68-4.33-13.64c.17-1.49,17.03-150.77,19.39-307.47,1.38-91.52-2.38-167.52-11.17-225.89-12.95-86.02-34.09-116.35-49.54-126.65-87.83-58.55-117.94-37.73-123.37-32.59l-174.96,508.65c-2.93,8.52-11.85,13.42-20.61,11.33-.29-.07-31.86-7.4-75.01-6.35-39.06.95-96.05,9.16-145.74,42.91-49.78,33.81-71.3,86.58-74.61,121.5-1.98,20.89,2.01,38.53,10.67,47.19,15.11,15.11,65.79,7.62,106.52,1.6,33.16-4.9,67.44-9.96,94.46-6.59,21.57,2.7,53.96,17.49,91.46,34.61,31.03,14.17,66.19,30.23,96.97,39.9,39.17,12.31,57.35,9.76,65.69,5.45,3.98-2.05,9.56-6.25,12-18.97l17.19,3.3,17.39,1.98s.06-.28.06-.8c-.02,5.7,8.7,16.82,41.87,18.07,61.49,2.32,576.76.01,581.96-.01h.08c4.43,0,8.7,1.68,11.95,4.71.18.16,21.33,19.5,52.13,29.8Zm628.91-51.41h0,0Z" style="fill:#371a45;"/><path d="m1384.33,2811.54c-1.56,0-3.14-.21-4.71-.65-9.31-2.6-14.75-12.25-12.16-21.56l160.96-577.42c2.6-9.31,12.25-14.76,21.56-12.16,9.31,2.6,14.75,12.25,12.16,21.56l-160.96,577.42c-2.16,7.74-9.19,12.81-16.85,12.81Z" style="fill:#371a45;"/><path d="m1473.83,3032.27c-8.71,0-16.25-6.5-17.35-15.36-12.77-103.7-48.67-182.79-103.82-228.71-39.61-32.98-75.8-37.56-76.16-37.59-9.61-1-16.6-9.6-15.6-19.22,1-9.61,9.61-16.59,19.22-15.6,1.88.2,46.59,5.25,94.94,45.51,27.84,23.18,51.42,53.42,70.07,89.86,22.9,44.74,38.41,99.07,46.09,161.47,1.18,9.59-5.64,18.33-15.23,19.51-.73.09-1.45.13-2.16.13Z" style="fill:#371a45;"/><path d="m2752.66,2715.5h-653.76c-9.67,0-17.5-7.84-17.5-17.5s7.83-17.5,17.5-17.5h653.76c9.67,0,17.5,7.83,17.5,17.5s-7.83,17.5-17.5,17.5Z" style="fill:#371a45;"/><path d="m2115.22,3068.99c-.31,0-.63,0-.94-.03-9.64-.51-17.04-8.71-16.55-18.35.16-3.06,4.4-75.82,53.8-149.14,29.08-43.16,67.8-77.54,115.07-102.17,58.34-30.4,129.77-45.81,212.3-45.81,65.48,0,124.69,14.6,175.99,43.38,41.09,23.05,77.06,55.13,106.92,95.34,50.52,68.04,65.95,135.45,66.58,138.29,2.1,9.43-3.84,18.79-13.28,20.89-9.43,2.1-18.78-3.84-20.89-13.28-.14-.61-14.8-63.94-61.28-126.06-61.35-82-146.83-123.57-254.05-123.57-137.99,0-238.07,44.15-297.46,131.23-44.56,65.34-48.72,132.04-48.76,132.71-.52,9.32-8.24,16.55-17.46,16.55Z" style="fill:#371a45;"/><path d="m1664.38,2106.81c-9.82,65.82-87.91,108.72-174.42,95.81-24.83-3.72-47.63-11.61-67.34-22.53-48.92-27.18-78.53-73.13-71.53-120.1,6.69-44.74,44.93-78.92,95.93-92.1,24.01-6.26,50.84-7.86,78.53-3.72,86.51,12.94,148.69,76.77,138.83,142.62Z" style="fill:#9ef07b;"/><path d="m1514.17,2071.19c0,57.33-40.32,104.38-91.55,108.91-48.92-27.18-78.53-73.13-71.53-120.1,6.69-44.74,44.93-78.92,95.93-92.1,39.07,14.74,67.15,55.45,67.15,103.28Z" style="fill:#ffdc2b;"/><ellipse cx="1673.3" cy="1855.89" rx="80.82" ry="66.48" transform="translate(-472.27 3136.82) rotate(-78.8)" style="fill:#413757;"/><g style="fill:none; opacity:.6;"><path d="m1608.09,1871.1c8.67-43.79,44.9-73.5,80.92-66.37,25.87,5.12,44.52,27.89,49.8,56.52,7.69-43.09-14.3-83.31-49.8-90.34-36.02-7.13-72.25,22.58-80.92,66.37-2.44,12.34-2.36,24.44-.29,35.67.11-.62.17-1.23.29-1.85Z" style="fill:#fff;"/></g><g style="fill:none; opacity:.3;"><path d="m1738.5,1834.98c-8.67,43.79-44.9,73.5-80.91,66.37-25.87-5.12-44.52-27.89-49.8-56.52-7.69,43.09,14.3,83.31,49.8,90.34,36.02,7.13,72.24-22.58,80.92-66.37,2.44-12.34,2.36-24.44.29-35.67-.11.62-.16,1.23-.29,1.85Z" style="fill:#371a45;"/></g><g style="fill:none; opacity:.3;"><path d="m1670.81,2107.6c-9.82,65.82-87.91,108.72-174.42,95.81-24.83-3.72-47.63-11.61-67.34-22.53-48.92-27.18-78.53-73.13-71.53-120.1.98-6.61,2.66-12.94,5.01-19.05,10.52,29.1,34.34,55.1,66.52,72.97,19.71,10.91,42.51,18.81,67.34,22.53,77.82,11.61,148.88-21.94,169.45-76.77,5.48,15.1,7.35,31.05,4.97,47.12Z" style="fill:#371a45;"/></g><g style="fill:none; opacity:.6;"><path d="m1664.38,2103.97c-.31,2.03-.66,4.03-1.13,6.02-11.38-52.6-66.25-98-137.7-108.72-27.69-4.15-54.52-2.54-78.53,3.72-48.65,12.55-85.68,44.23-94.8,85.96-2.39-11.03-2.82-22.37-1.13-33.79,6.69-44.74,44.93-78.92,95.93-92.1,24.01-6.26,50.84-7.86,78.53-3.72,86.5,12.94,148.69,76.77,138.83,142.62Z" style="fill:#fff;"/></g><path d="m1520.72,2222.43c-11,0-22.15-.82-33.34-2.49-26.31-3.94-50.95-12.19-73.24-24.52-27.07-15.04-48.92-35.38-63.21-58.84-15.22-24.98-21.15-52.35-17.15-79.15,7.51-50.26,49.23-91.05,108.86-106.46,26.9-7.01,56.48-8.42,85.5-4.08,45.61,6.82,86.62,26.91,115.5,56.57,30.13,30.95,43.64,68.57,38.05,105.95-5.57,37.36-29.49,69.39-67.33,90.18-27.38,15.04-59.79,22.85-93.64,22.85Zm-25.69-243.02c-15,0-29.74,1.82-43.6,5.43-45.83,11.84-77.64,41.63-83.04,77.75-5.72,38.38,18.31,77.54,62.72,102.21,18.6,10.29,39.27,17.2,61.43,20.52,38.07,5.68,75.34-.15,104.95-16.42,28.04-15.4,45.65-38.37,49.57-64.67,0,0,0,0,0,0,3.94-26.31-6.19-53.43-28.51-76.36-23.57-24.2-57.52-40.67-95.6-46.37-9.31-1.39-18.67-2.09-27.93-2.09Z" style="fill:#371a45;"/><path d="m1422.62,2197.6c-2.97,0-5.89-.75-8.5-2.2-27.05-15.03-48.9-35.37-63.18-58.82-15.22-24.98-21.15-52.35-17.15-79.15,7.51-50.26,49.23-91.05,108.86-106.46,3.49-.9,7.18-.7,10.56.57,46.93,17.71,78.47,65.8,78.47,119.66,0,31.76-10.9,62.14-30.7,85.55-20.03,23.69-47.31,38.18-76.81,40.79-.51.05-1.03.07-1.54.07Zm23.26-211.22c-42.82,12.74-72.3,41.56-77.48,76.21-5.51,36.96,16.58,74.66,57.89,99.43,39.87-6.44,70.38-45.25,70.38-90.83,0-37.37-20.2-70.73-50.79-84.8Z" style="fill:#371a45;"/><path d="m1668.52,1953.75c-4.77,0-9.56-.47-14.32-1.41-22.65-4.48-41.66-19.13-53.53-41.24-11.27-20.98-14.73-46.38-9.75-71.52,4.98-25.15,17.86-47.31,36.27-62.41,19.4-15.92,42.56-22.21,65.21-17.73,22.65,4.49,41.66,19.13,53.53,41.24,11.27,20.98,14.73,46.38,9.75,71.52-4.98,25.14-17.86,47.31-36.27,62.41-15.32,12.57-32.98,19.14-50.89,19.14Zm9.63-160.71c-23.94,0-46.76,22.29-52.9,53.33-3.41,17.21-1.19,34.31,6.25,48.16,6.83,12.72,17.31,21.05,29.5,23.47,12.2,2.42,25.05-1.3,36.22-10.45,12.16-9.97,20.73-24.94,24.13-42.15,6.78-34.25-9.26-66.38-35.75-71.63-2.48-.49-4.97-.73-7.45-.73Z" style="fill:#371a45;"/><path d="m1610.52,2015.48c-2.77,0-5.57-.66-8.19-2.05-8.54-4.53-11.78-15.13-7.25-23.66l32.77-61.75c4.53-8.54,15.12-11.79,23.66-7.25,8.54,4.53,11.78,15.12,7.25,23.66l-32.77,61.75c-3.14,5.92-9.2,9.3-15.47,9.3Z" style="fill:#371a45;"/><path d="m1773.41,957.96c10.59,44.51,31.89,87.39,58.88,120.48,19.34,23.68,54.55,24.46,76.22,2.37,11.16-11.38,22.55-22.22,33.92-32.51,50.07-45.21,100.34-79.46,133.66-100.7,3.21-2.07,6.26-3.96,9.16-5.81,2.15-1.34,4.19-2.83,6.09-4.47,12.34-10.42,19.51-26.14,18.77-42.63-3.59-77.02-55.93-149.43-131.15-170.25-8.6-2.36-17.08-4.1-25.49-5.23-83.48-11.2-156.48,38.05-180.68,125.73-1.36,4.93-2.49,9.91-3.41,14.98-5.87,31.38-3.86,65.14,4.03,98.03Z" style="fill:#413757;"/><g style="fill:none; opacity:.4;"><path d="m1773.41,957.96c46.5,40.31,106.4,71.29,169.02,90.35,50.07-45.21,100.34-79.46,133.66-100.7,3.21-2.07,6.26-3.96,9.16-5.81,2.15-1.34,4.19-2.83,6.09-4.47-8.8,1.9-16.6,3.2-21.57,3.51-129.16,7.67-232.48,14.67-300.4-80.91-5.87,31.38-3.86,65.14,4.03,98.03Z" style="fill:#371a45;"/></g><g style="fill:none; opacity:.6;"><path d="m1808.07,786.95c66.95-36.27,101.8-44.85,163.17-23.64,53.5,18.49,100.64,78.98,110.13,93.04,1.44-3.54,2.83-6.87,4.13-10.03,7.29-17.41,4.82-37.78-6.91-52.81-47.41-60.82-131.94-89.73-205.36-63.27-8.39,3.03-16.34,6.53-23.86,10.45l-41.3,46.26Z" style="fill:#fff;"/></g><path d="m1870.28,1109.82c-.06,0-.12,0-.18,0-18.64-.25-36.09-8.69-47.89-23.16-26.45-32.43-47.4-73.56-58.97-115.81-12.61-46.05-13.65-90.79-3-129.38,13.78-49.95,43.58-90.42,83.91-113.95,40.4-23.57,89.51-29.12,138.3-15.62,39.18,10.84,73.53,34.62,99.33,68.74,24.76,32.75,39.44,73.04,41.33,113.43.53,11.25-1.93,22.55-7.1,32.69-3.27,6.4-11.11,8.95-17.51,5.68-6.4-3.27-8.95-11.11-5.68-17.51,3.12-6.11,4.6-12.9,4.29-19.64-3.48-74.35-53.48-139.45-121.6-158.3-41.96-11.61-83.95-6.99-118.23,13.01-34.42,20.09-59.97,55.03-71.94,98.39-18.44,66.82,5.02,158.02,57.04,221.8,7.02,8.61,16.99,13.43,28.07,13.58,7.19.1,12.94,6,12.84,13.19-.1,7.13-5.91,12.84-13.01,12.84Z" style="fill:#371a45;"/><path d="m2967.75,957.96c-10.59,44.51-31.89,87.39-58.88,120.48-19.34,23.68-54.55,24.46-76.22,2.37-11.16-11.38-22.55-22.22-33.92-32.51-50.07-45.21-100.34-79.46-133.66-100.7-3.21-2.07-6.26-3.96-9.16-5.81-2.15-1.34-4.19-2.83-6.09-4.47-12.34-10.42-19.51-26.14-18.77-42.63,3.59-77.02,55.93-149.43,131.15-170.25,8.6-2.36,17.08-4.1,25.49-5.23,83.48-11.2,156.48,38.05,180.68,125.73,1.36,4.93,2.49,9.91,3.41,14.98,5.87,31.38,3.86,65.14-4.03,98.03Z" style="fill:#413757;"/><g style="fill:none; opacity:.4;"><path d="m2967.75,957.96c-46.5,40.31-106.4,71.29-169.02,90.35-50.07-45.21-100.34-79.46-133.66-100.7-3.21-2.07-6.26-3.96-9.16-5.81-2.15-1.34-4.19-2.83-6.09-4.47,8.8,1.9,16.6,3.2,21.57,3.51,129.16,7.67,232.48,14.67,300.4-80.91,5.87,31.38,3.86,65.14-4.03,98.03Z" style="fill:#371a45;"/></g><g style="fill:none; opacity:.6;"><path d="m2933.08,786.95c-66.95-36.27-101.8-44.85-163.17-23.64-53.5,18.49-100.64,78.98-110.13,93.04-1.44-3.54-2.83-6.87-4.13-10.03-7.29-17.41-4.82-37.78,6.91-52.81,47.41-60.82,131.94-89.73,205.36-63.27,8.39,3.03,16.34,6.53,23.86,10.45l41.3,46.26Z" style="fill:#fff;"/></g><path d="m2870.87,1109.82c-7.11,0-12.92-5.71-13.01-12.84-.1-7.19,5.65-13.1,12.84-13.19,11.08-.15,21.05-4.97,28.07-13.58,52.02-63.78,75.48-154.99,57.04-221.8-11.96-43.36-37.51-78.3-71.94-98.39-34.28-20.01-76.27-24.63-118.23-13.01-68.12,18.85-118.12,83.95-121.6,158.3-.31,6.74,1.17,13.53,4.29,19.64,3.27,6.4.73,14.25-5.68,17.51-6.4,3.27-14.24.73-17.51-5.68-5.17-10.14-7.63-21.44-7.1-32.69,1.89-40.39,16.57-80.68,41.33-113.43,25.8-34.13,60.15-57.9,99.33-68.74,48.79-13.5,97.9-7.95,138.3,15.62,40.33,23.54,70.13,64,83.91,113.95,10.65,38.59,9.61,83.33-3,129.38-11.57,42.25-32.51,83.38-58.97,115.81-11.8,14.46-29.25,22.9-47.89,23.16-.06,0-.12,0-.18,0Z" style="fill:#371a45;"/><path d="m3075.16,1425.32c45.94,399.53-315.57,569.48-704.85,569.48s-747.25-169.55-704.85-569.48c44.43-419.05,385.87-641.37,704.85-641.37s656.66,222.32,704.85,641.37Z" style="fill:#fff;"/><g style="fill:none; opacity:.2;"><path d="m2363.71,1997.98c-389.26,0-747.24-169.54-704.85-569.47.44-4.01.87-8.03,1.37-12.01,42.39,304.3,301.75,490.91,703.48,490.91s660.84-185.68,703.92-486.74c.31,2.61.62,5.23.93,7.84,45.93,399.53-315.56,569.47-704.85,569.47Z" style="fill:#371a45;"/></g><path d="m2367.72,2012.3c-125.27,0-245.13-17.73-346.62-51.29-111.8-36.96-201.06-91.9-265.28-163.3-42.88-47.66-74.08-102.49-92.75-162.97-19.75-63.99-25.67-135.07-17.59-211.26,45.74-431.34,397.96-657.03,722.25-657.03,82.59,0,164.61,14.23,243.77,42.29,81.36,28.84,155.84,70.99,221.36,125.27,69.35,57.46,126.38,126.75,169.48,205.94,46.3,85.07,75.78,180.41,87.62,283.37,8.7,75.66,3.36,146.32-15.88,210.04-18.17,60.19-48.91,114.84-91.35,162.45-64.16,71.96-153.81,127.38-266.47,164.72-102.15,33.87-222.68,51.77-348.53,51.77Zm0-1210.85c-308.64,0-643.88,214.93-687.44,625.72-14.74,139.04,19.43,255.83,101.56,347.14,116.05,129.01,329.59,202.99,585.88,202.99s472.84-74.64,588.88-204.78c81.27-91.15,114.44-207.29,98.59-345.2-47.24-410.89-381.6-625.87-687.46-625.87Z" style="fill:#371a45;"/><path d="m2460.46,1599.24c-2.39,14.35-10.44,57.72-26.51,95.23-14.2,33.08-34.57,61.59-62.73,61.59s-49.71-29.41-64.45-63.12c-15.33-35.04-23.82-74.77-26.91-91.04,43.84,23.03,112.82,43.17,180.6-2.66Z" style="fill:#371a45;"/><path d="m2433.94,1694.46c-14.2,33.08-34.57,61.59-62.73,61.59s-49.71-29.41-64.45-63.12c31.25-13.96,80.44-26.4,127.18,1.53Z" style="fill:#ed2e7a;"/><path d="m2370.69,1639.96c-20.92,0-40.02-3.41-56.44-8.13-54.62-15.71-90.81-48.49-92.32-49.88-6.11-5.6-6.52-15.09-.92-21.19,5.6-6.1,15.08-6.51,21.18-.93.73.66,33.53,29.99,81.36,43.46,62.94,17.73,121.86.77,175.13-50.38,5.98-5.74,15.47-5.55,21.21.43,5.74,5.98,5.55,15.47-.43,21.21-52.28,50.2-104.59,65.42-148.78,65.42Z" style="fill:#371a45;"/><path d="m2369.94,1771.33c-20.08,0-38.26-9.94-54.01-29.55-11.24-13.99-21.35-33.14-30.04-56.92-14.37-39.31-20.12-77.97-20.36-79.59-1.2-8.2,4.47-15.81,12.67-17.01,8.2-1.19,15.81,4.47,17.01,12.67.07.5,5.65,37.66,19,74.03,9.1,24.79,28.44,66.38,55.73,66.38s46.91-42.12,56.1-67.22c13.43-36.67,19.03-73.74,19.08-74.11,1.22-8.19,8.84-13.86,17.04-12.63,8.19,1.22,13.85,8.85,12.63,17.04-.24,1.64-6.11,40.5-20.59,80.02-8.76,23.9-18.91,43.15-30.18,57.21-15.8,19.71-34,29.7-54.09,29.7Z" style="fill:#371a45;"/><ellipse cx="2370.36" cy="1490.89" rx="74.92" ry="40.89" style="fill:#371a45;"/><path d="m2369.94,1640.02c-8.28,0-15-6.72-15-15v-114.09c0-8.28,6.72-15,15-15s15,6.72,15,15v114.09c0,8.28-6.72,15-15,15Z" style="fill:#371a45;"/><path d="m1918.15,1343.16c-48.26,75.29-65.64,198.84,21.23,250.96,80.91,48.55,185.36,2.16,242.19-110.08,56.83-112.24,33.05-260.32-41.42-283.73-67.57-21.24-154.11,36.94-222,142.85Z" style="fill:#413757;"/><path d="m2114.61,1438.09c-1.18-1.19-2.39-2.61-3.57-3.91l-3.53-3.96c-2.31-2.63-4.66-5.19-6.94-7.71-4.61-5.03-9.23-9.79-13.9-14.13-9.33-8.68-18.95-15.5-28.6-18.27-4.85-1.39-9.77-1.84-15.04-1.34-5.27.52-10.83,2.07-16.53,4.36-5.66,2.38-11.48,5.37-17.27,8.86-5.82,3.48-11.6,7.41-17.72,11.33l-.07.04c-2.41,1.54-5.61.83-7.15-1.57-1.02-1.59-1.05-3.53-.27-5.1,3.41-6.8,7.71-13.12,12.71-19.08,5.04-5.9,10.86-11.43,17.69-16.12,1.73-1.16,3.46-2.32,5.33-3.32l2.8-1.53,2.91-1.41c3.97-1.75,8.17-3.25,12.59-4.28,8.86-2.02,18.6-1.97,27.62.33,9.05,2.26,17.24,6.53,24.08,11.77,6.87,5.25,12.51,11.42,17.19,17.97,4.67,6.56,8.36,13.55,11.25,20.75,1.44,3.61,2.64,7.29,3.63,11.03.48,1.88.92,3.76,1.27,5.68.35,1.94.63,3.79.81,5.92.25,2.87-1.88,5.39-4.75,5.63-1.59.14-3.08-.46-4.13-1.51l-.41-.42Z" style="fill:#fff;"/><path d="m2823.01,1343.16c48.26,75.29,65.64,198.84-21.24,250.96-80.91,48.55-185.36,2.16-242.19-110.08-56.83-112.24-33.05-260.32,41.42-283.73,67.57-21.24,154.11,36.94,222,142.85Z" style="fill:#413757;"/><path d="m2617.26,1434.38c.18-2.13.46-3.97.81-5.92.35-1.92.79-3.8,1.27-5.68.99-3.74,2.19-7.42,3.63-11.03,2.88-7.21,6.57-14.19,11.25-20.75,4.68-6.54,10.31-12.72,17.19-17.97,6.84-5.24,15.03-9.51,24.08-11.77,9.03-2.3,18.77-2.34,27.62-.33,4.43,1.03,8.63,2.53,12.59,4.28l2.91,1.41,2.8,1.53c1.87,1.01,3.6,2.17,5.33,3.32,6.83,4.68,12.65,10.21,17.69,16.12,5,5.95,9.3,12.27,12.71,19.08,1.28,2.56.25,5.66-2.31,6.94-1.69.84-3.61.68-5.1-.26l-.08-.05c-6.13-3.91-11.91-7.85-17.72-11.33-5.8-3.49-11.61-6.48-17.27-8.86-5.7-2.29-11.27-3.84-16.53-4.36-5.27-.5-10.2-.05-15.04,1.34-9.65,2.77-19.27,9.59-28.6,18.27-4.67,4.34-9.29,9.1-13.9,14.13-2.29,2.52-4.63,5.08-6.94,7.71l-3.53,3.96c-1.18,1.3-2.39,2.71-3.57,3.91l-.4.4c-2.02,2.04-5.32,2.06-7.37.04-1.14-1.12-1.64-2.67-1.52-4.15Z" style="fill:#fff;"/><path d="m2455.49,2083.87c0-111.51-166.91-131.67-377.59-89.54-210.68,42.14-356.75-75.48-425.92,34.68-69.17,110.16,109.91,244.47,360.09,244.47s443.43-68.47,443.43-189.61Z" style="fill:#413757;"/><g style="fill:none; opacity:.6;"><path d="m1649.11,2065.42c69.17-110.16,215.25,7.46,425.92-34.68,205-41,368.54-23,377.21,80.74,2.12-8.5,3.23-17.29,3.23-26.39,0-111.51-166.91-131.67-377.59-89.54-210.68,42.14-356.75-75.48-425.92,34.68-12.34,19.65-16.74,40.08-14.28,60.37,2.47-8.48,6.24-16.89,11.43-25.17Z" style="fill:#fff;"/></g><g style="fill:none; opacity:.3;"><path d="m2463.38,2083.88c0,121.12-193.27,189.59-443.44,189.59s-413.76-123.03-367.65-230.15c34.06,83.65,181.11,158.35,367.65,158.35,223.5,0,401.59-54.67,436.98-152.71,4.26,10.48,6.45,22.1,6.45,34.92Z" style="fill:#371a45;"/></g><path d="m2012.07,2290.98c-86.22,0-168.37-15.46-237.57-44.7-66.03-27.9-115.43-66.84-139.1-109.64-10.57-19.12-15.92-38.68-15.89-58.13.03-20.41,5.97-40.19,17.65-58.8,20.6-32.81,49.61-50.97,88.68-55.54,33.5-3.91,71.33,1.93,115.13,8.71,67.41,10.42,143.8,22.24,233.5,4.3,80.87-16.17,152.49-22.93,212.87-20.08,65.87,3.11,115.18,17.73,146.56,43.45,25.94,21.27,39.09,49.3,39.09,83.33,0,65.54-48,119.64-138.82,156.45-81.76,33.14-193.14,50.66-322.1,50.66Zm-263.55-292.94c-37.29,0-62.68,9.96-81.72,40.27-16.15,25.72-16.41,53.1-.78,81.38,37.44,67.72,168.33,136.28,346.04,136.28,122.72,0,232.44-17.08,308.96-48.1,53.36-21.63,116.97-60.7,116.97-124.01,0-23.36-8.6-41.76-26.28-56.26-25.07-20.55-68.65-32.85-126.02-35.56-56.72-2.67-127.38,4.05-204.36,19.44-95.77,19.16-178.91,6.3-245.71-4.03-34.81-5.38-63.37-9.42-87.11-9.42Z" style="fill:#371a45;"/><path d="m2333.65,2438.19c-32.33-91.02-207.27-152.52-316.77-31.29,0,0-89.95-67.27-144.7-17.99-54.75,49.28,12.06,163.24,93.19,244.81,81.13,81.58,450.71,36.56,368.27-195.54Z" style="fill:#413757;"/><g style="fill:none; opacity:.6;"><path d="m1872.2,2424.28c54.75-49.28,144.7,17.99,144.7,17.99,109.5-121.23,266.01-66.24,236.66-83.5-54.93-32.3-159.49-37.32-236.67,48.13,0,0-89.95-67.27-144.7-17.99-18.22,16.4-22.92,39.99-18.17,67.14,2.67-12.25,8.48-23.04,18.18-31.77Z" style="fill:#fff;"/></g><g style="fill:none; opacity:.3;"><path d="m1968.52,2555.91c-61.38-45.61-104.62-82.42-114.4-136.75-12.83,56.88,44.3,146.22,111.25,213.55,75.57,75.99,401.35,42.1,379.02-150.48-74.75,146.27-299.45,130.46-375.87,73.68Z" style="fill:#371a45;"/></g><path d="m2096.65,2688.84c-13.86,0-27.5-.76-40.69-2.28-32.34-3.75-76.46-13.81-102.99-40.49-58.35-58.67-120.04-145.1-118.19-211.73.66-24.02,9.31-43.68,25.7-58.43,27.49-24.75,65.73-29.21,110.56-12.92,17.79,6.46,33.18,14.96,43.36,21.25,26.13-25.6,56.39-43.61,90.13-53.61,8.5-3.1,73.93-24.67,156.18,12.18,8.82,3.95,12.77,14.31,8.81,23.12-3.95,8.82-14.31,12.77-23.13,8.81-30.32-13.58-61.35-19.62-92.24-17.92-23.2,1.27-37.64,6.68-37.78,6.73-.48.19-.88.32-1.38.47-32.31,9.47-60.95,27.85-85.12,54.6-6.06,6.71-16.23,7.7-23.47,2.29-.77-.57-79.15-58.03-122.51-19-9.11,8.2-13.73,19.12-14.13,33.38-.64,23.12,9.9,53.6,30.46,88.13,19.12,32.1,46.66,66.89,77.56,97.95,32.19,32.37,124.6,42.14,206,21.78,73.69-18.44,124.47-57.3,139.32-106.63,2.79-9.25,12.55-14.5,21.8-11.71,9.25,2.79,14.5,12.55,11.71,21.8-10.01,33.25-31.25,61.93-63.14,85.25-27.11,19.82-62.1,35.47-101.2,45.25-30.96,7.75-63.84,11.72-95.63,11.72Z" style="fill:#371a45;"/><circle cx="1718.27" cy="2083.41" r="48.88" style="fill:#fff;"/><path d="m1718.27,2149.79c-36.6,0-66.38-29.78-66.38-66.38s29.78-66.38,66.38-66.38,66.38,29.78,66.38,66.38-29.78,66.38-66.38,66.38Zm0-97.77c-17.31,0-31.38,14.08-31.38,31.38s14.08,31.38,31.38,31.38,31.38-14.08,31.38-31.38-14.08-31.38-31.38-31.38Z" style="fill:#371a45;"/></svg>