<svg width="40" height="40" viewBox="0 0 40 40" fill="none" xmlns="http://www.w3.org/2000/svg">
<g clip-path="url(#clip0_52_2947)">
<path d="M11.1221 35.9188C11.5115 35.0717 11.7056 34.1162 11.6412 33.1085C11.4529 30.1586 9.03717 27.7941 6.08398 27.6672C2.74902 27.5234 0 30.1849 0 33.4881C0 33.497 0 35.9188 2.44293 35.9188H11.1221Z" fill="#9AD880"/>
<path d="M3.75671 7.18994H36.243V35.9189H3.75671V7.18994Z" fill="#FFEDCA"/>
<path d="M3.75671 7.18994V35.9189H12.6599C12.6575 33.2126 12.6547 29.2914 12.6556 26.6248C12.6559 25.0333 13.7766 23.6707 15.3333 23.3386C20.372 22.2635 22.0801 19.3689 22.0801 19.3689L22.7783 7.18994H3.75671Z" fill="#FFDAAA"/>
<path d="M3.75671 8.28217V6.03607C3.75671 4.94598 4.6405 4.0625 5.73059 4.0625H34.2694C35.3595 4.0625 36.243 4.94598 36.243 6.03607V8.28217L20 11.2256L3.75671 8.28217Z" fill="#FFEDCA"/>
<path d="M14.7012 6.03607C14.7012 4.94598 15.5847 4.0625 16.6748 4.0625H5.73059C4.6405 4.0625 3.75671 4.94598 3.75671 6.03607V8.28217L14.7012 10.2655V6.03607Z" fill="#FFDAAA"/>
<path d="M36.2433 8.2821H3.7567L0.538317 13.7649C-0.239576 15.09 -0.166028 16.7666 0.773303 17.9824C1.64794 19.1149 3.01909 19.844 4.56084 19.844C6.14592 19.844 7.55004 19.0725 8.4204 17.8851C9.29076 19.0725 10.6952 19.844 12.2803 19.844C13.8653 19.844 15.2698 19.0725 16.1401 17.8851C17.0105 19.0725 18.4149 19.844 20 19.844C21.5851 19.844 22.9895 19.0725 23.8598 17.8851C24.7299 19.0725 26.1343 19.844 27.7194 19.844C29.3045 19.844 30.7089 19.0725 31.5793 17.8851C32.4496 19.0725 33.854 19.844 35.4391 19.844C36.9806 19.844 38.3517 19.1149 39.2267 17.9824C40.166 16.7666 40.2392 15.09 39.4617 13.7649L36.2433 8.2821Z" fill="#CCF8FF"/>
<path d="M13.5684 12.8506L14.7012 8.2821H3.7567L0.538317 13.7649C-0.239576 15.09 -0.166028 16.7666 0.773303 17.9824C1.64794 19.1149 3.01909 19.844 4.56084 19.844C6.14592 19.844 7.55004 19.0725 8.4204 17.8851C9.29076 19.0725 10.6952 19.844 12.2803 19.844C12.8039 19.844 13.3084 19.7598 13.7799 19.6041C13.2693 18.7316 13.2675 17.7297 13.2675 17.7297V15.3124C13.2675 14.4827 13.3685 13.6559 13.5684 12.8506Z" fill="#ABEBF4"/>
<path d="M16.301 13.2748L16.9052 8.2821H10.9122L8.83148 13.1094C8.56049 13.7386 8.42041 14.4164 8.42041 15.1016V17.8848C9.29077 19.0722 10.6952 19.844 12.2803 19.844C13.8654 19.844 15.2698 19.0722 16.1401 17.8848L16.192 14.8568C16.2012 14.3279 16.2375 13.8 16.301 13.2748Z" fill="#9EF07B"/>
<path d="M13.5684 12.8506L14.7012 8.2821H10.9122L8.83148 13.1094C8.56049 13.7386 8.42041 14.4164 8.42041 15.1016V17.8848C9.29077 19.0722 10.6952 19.844 12.2803 19.844C12.804 19.844 13.3084 19.7595 13.7799 19.6038C13.2693 18.7313 13.2675 17.7297 13.2675 17.7297V15.3124C13.2675 14.4827 13.3685 13.6559 13.5684 12.8506Z" fill="#9EF07B"/>
<path d="M31.1685 13.1094L29.0878 8.2821H23.0948L23.699 13.2748C23.7625 13.8 23.7991 14.3279 23.808 14.8568L23.8599 17.8848C24.7302 19.0722 26.1346 19.844 27.7197 19.844C29.3048 19.844 30.7092 19.0722 31.5796 17.8848V15.1016C31.5796 14.4164 31.4395 13.7386 31.1685 13.1094Z" fill="#9EF07B"/>
<path d="M0.773304 17.9825C1.64794 19.115 3.01909 19.8441 4.56084 19.8441C6.14592 19.8441 7.55004 19.0726 8.4204 17.8851C9.29076 19.0726 10.6952 19.8441 12.2803 19.8441C13.8653 19.8441 15.2698 19.0726 16.1401 17.8851C17.0105 19.0726 18.4149 19.8441 20 19.8441C21.5851 19.8441 22.9895 19.0726 23.8599 17.8851C24.7299 19.0726 26.1343 19.8441 27.7194 19.8441C29.3045 19.8441 30.7089 19.0726 31.5793 17.8851C32.4496 19.0726 33.8541 19.8441 35.4391 19.8441C36.9806 19.8441 38.3517 19.115 39.2267 17.9825C40.0967 16.8561 40.2234 15.3345 39.6188 14.0631H0.380238C-0.22401 15.3345 -0.0970572 16.8561 0.773304 17.9825Z" fill="#ABEBF4"/>
<path d="M13.3441 14.0631H0.380238C-0.22401 15.3345 -0.0970572 16.8561 0.773304 17.9825C1.64794 19.115 3.01909 19.8441 4.56084 19.8441C6.14592 19.8441 7.55004 19.0726 8.4204 17.8851C9.29076 19.0726 10.6952 19.8441 12.2803 19.8441C12.8039 19.8441 13.3084 19.7598 13.7799 19.6042C13.2693 18.7317 13.2675 17.7298 13.2675 17.7298V15.3125C13.2675 14.8944 13.2931 14.4772 13.3441 14.0631Z" fill="#8ED7E8"/>
<path d="M16.2262 14.0631H8.52875C8.45703 14.4037 8.42041 14.7519 8.42041 15.1016V17.8848C9.29077 19.0723 10.6952 19.8441 12.2803 19.8441C13.8654 19.8441 15.2698 19.0723 16.1401 17.8848L16.192 14.8569C16.1966 14.592 16.2079 14.3274 16.2262 14.0631Z" fill="#9EF07B"/>
<path d="M31.4706 14.0631H23.7738C23.7921 14.3274 23.8034 14.592 23.808 14.8569L23.8599 17.8848C24.7302 19.0726 26.1343 19.8441 27.7197 19.8441C29.3048 19.8441 30.7092 19.0726 31.5793 17.8848V15.1016C31.5796 14.7519 31.5424 14.4037 31.4706 14.0631Z" fill="#9EF07B"/>
<path d="M17.894 35.9189H8.07556V25.033C8.07556 23.7589 9.10828 22.7258 10.3827 22.7258H15.5865C16.861 22.7258 17.8937 23.7589 17.8937 25.033V35.9189H17.894Z" fill="#9EF07B"/>
<path d="M10.3827 22.7258C9.10828 22.7258 8.07556 23.7589 8.07556 25.0333V35.9189H12.6599C12.6578 33.2126 12.6547 29.2914 12.6556 26.6251C12.6562 25.0333 13.7766 23.6707 15.3333 23.3386C15.8054 23.2379 16.2488 23.121 16.6638 22.9922C16.3425 22.8223 15.9756 22.7258 15.5869 22.7258H10.3827Z" fill="#9EF07B"/>
<path d="M31.2479 31.7902H22.1835V24.6414C22.1835 23.5837 23.0411 22.7258 24.0991 22.7258H29.3323C30.3903 22.7258 31.2479 23.5837 31.2479 24.6414V31.7902Z" fill="#CCF8FF"/>
<path d="M31.3516 31.7902H22.0798C21.1542 31.7902 20.4041 31.0397 20.4041 30.1144C20.4041 29.1888 21.1542 28.4387 22.0798 28.4387H31.3516C32.2772 28.4387 33.0273 29.1888 33.0273 30.1144C33.0273 31.0397 32.2772 31.7902 31.3516 31.7902Z" fill="#FFC477"/>
<path d="M28.3588 33.1085C28.5471 30.1586 30.9628 27.7941 33.916 27.6672C37.251 27.5234 40 30.1849 40 33.4881C40 33.497 40 35.9188 37.5571 35.9188H30.9689C28.0069 35.9188 28.3572 33.131 28.3588 33.1085Z" fill="#B2E59C"/>
<path d="M15.4794 28.3813V26.0815C15.4794 25.5618 15.058 25.1404 14.5383 25.1404H11.431C10.9113 25.1404 10.4901 25.5618 10.4901 26.0815V28.3813C10.4901 28.9011 10.9113 29.3222 11.431 29.3222H14.5383C15.058 29.3222 15.4794 28.9011 15.4794 28.3813Z" fill="#CCF8FF"/>
<path d="M13.0035 25.1404H11.431C10.9113 25.1404 10.4901 25.5618 10.4901 26.0815V28.3813C10.4901 28.9011 10.9113 29.3222 11.431 29.3222H12.6556C12.6553 28.3539 12.6553 27.4316 12.6556 26.6248C12.6556 26.0947 12.7802 25.5902 13.0035 25.1404Z" fill="#ABEBF4"/>
<path d="M13.3441 14.0631H8.52875C8.45703 14.4037 8.42041 14.7519 8.42041 15.1016V17.8848C9.29077 19.0726 10.6952 19.8441 12.2803 19.8441C12.804 19.8441 13.3084 19.7598 13.7799 19.6042C13.2693 18.7317 13.2675 17.7298 13.2675 17.7298V15.3125C13.2675 14.8944 13.2932 14.4772 13.3441 14.0631Z" fill="#9EF07B"/>
</g>
<defs>
<clipPath id="clip0_52_2947">
<rect width="40" height="40" fill="white"/>
</clipPath>
</defs>
</svg>
