<svg width="40" height="34" viewBox="0 0 40 34" fill="none" xmlns="http://www.w3.org/2000/svg">
<path d="M38.0753 25.5941C37.5614 25.1019 36.9797 24.7097 36.3532 24.4228V17.2628C37.4433 16.9704 38.4153 16.3308 39.1273 15.4091C40.1826 14.0429 40.2885 12.1789 39.3967 10.66L36.2727 5.33802C36.1674 5.15888 35.9751 5.04871 35.7673 5.04871H4.81874V3.45447C4.81874 2.72113 5.41536 2.12451 6.14869 2.12451H33.8514C34.4807 2.12451 35.0285 2.57068 35.1545 3.18561C35.2192 3.50269 35.5286 3.70716 35.8457 3.64216C36.1631 3.57746 36.3673 3.2677 36.3026 2.95093C36.0657 1.79309 35.0349 0.952637 33.8517 0.952637H6.14869C4.7693 0.952637 3.64686 2.07477 3.64686 3.45447V5.47535L0.603334 10.66C-0.288392 12.1789 -0.182496 14.0429 0.872804 15.4091C1.58478 16.3308 2.55677 16.9704 3.64686 17.2628V24.4241C1.44776 25.4314 0 27.6571 0 30.1022C0 31.1208 0.617982 33.0474 2.95746 33.0474H37.0426C39.3818 33.0474 40.0001 31.1208 40.0001 30.1022C40.0001 28.384 39.3165 26.7831 38.0753 25.5941ZM38.1998 14.6926C37.4244 15.6963 36.2534 16.2719 34.9869 16.2719C33.7611 16.2719 32.5934 15.7076 31.8262 14.7548C31.8262 14.7548 31.8192 11.9722 31.8085 11.8322H38.6491C38.9774 12.8002 38.8215 13.8878 38.1998 14.6926ZM16.8955 11.8322H23.1049C23.1067 11.8972 23.1574 14.7594 23.1574 14.7594C22.3899 15.7091 21.2241 16.2719 20 16.2719C18.776 16.2719 17.6102 15.7091 16.8427 14.7594C16.8427 14.7594 16.8933 11.8972 16.8955 11.8322ZM17.5153 6.22059H22.4851C22.4851 6.22059 23.0167 10.624 23.0207 10.6603H16.9794C16.9834 10.624 17.5153 6.22059 17.5153 6.22059ZM24.3293 14.7506C24.3293 14.7506 24.2786 11.8905 24.2771 11.8322H30.6336C30.647 11.9719 30.6544 14.7548 30.6544 14.7548C29.8871 15.7076 28.7195 16.2719 27.4936 16.2719C26.2659 16.2719 25.0968 15.7058 24.3293 14.7506ZM38.0381 10.6603H31.5882C31.529 10.4671 29.7123 6.22059 29.7123 6.22059H35.4319L38.0381 10.6603ZM28.4363 6.22059C28.4363 6.22059 30.3321 10.6243 30.3464 10.6603H24.1993C24.1907 10.577 23.6652 6.22059 23.6652 6.22059H28.4363ZM16.3349 6.22059C16.3349 6.22059 15.8094 10.577 15.8008 10.6603H9.65364C9.66799 10.6243 11.5637 6.22059 11.5637 6.22059H16.3349ZM4.56819 6.22059H10.2878C10.2878 6.22059 8.47109 10.4671 8.41188 10.6603H1.96198L4.56819 6.22059ZM1.80024 14.6926C1.17859 13.8878 1.02265 12.8002 1.35102 11.8322H8.19185C8.18117 11.9722 8.17384 14.7548 8.17384 14.7548C7.40663 15.7076 6.23903 16.2719 5.01313 16.2719C3.74665 16.2719 2.57569 15.6963 1.80024 14.6926ZM1.41968 31.0488C1.17951 30.5905 1.17188 30.1049 1.17188 30.1022C1.17188 28.3028 2.13715 26.6503 3.64686 25.7467V31.8755H2.95746C2.21466 31.8755 1.71143 31.6052 1.41968 31.0488ZM4.81874 17.4383C4.88343 17.4407 6.93513 17.7035 8.75948 15.8608C9.22274 16.3369 9.77388 16.7229 10.3821 16.9936C10.6772 17.1252 11.0239 16.9924 11.1554 16.697C11.2873 16.4013 11.1545 16.0549 10.8588 15.9231C10.2698 15.6609 9.751 15.2578 9.34572 14.7542C9.34572 14.7542 9.35305 11.9719 9.36647 11.8322H15.723C15.7215 11.8905 15.6708 14.7518 15.6708 14.7518C15.0037 15.5819 14.032 16.1233 12.9767 16.245C12.6551 16.282 12.4246 16.5725 12.4616 16.8941C12.4988 17.2155 12.7896 17.4462 13.111 17.409C14.3061 17.2713 15.4181 16.7174 16.2534 15.8602C17.2312 16.8621 18.5859 17.4438 20 17.4438C21.4142 17.4438 22.7689 16.8621 23.7467 15.8602C24.7245 16.8621 26.0792 17.4438 27.4936 17.4438C28.9078 17.4438 30.2625 16.8621 31.2403 15.8602C32.2181 16.8621 33.6576 17.5127 35.1813 17.438V24.0231C34.6329 23.8961 34.0635 23.8412 33.483 23.8662C32.7997 23.8955 32.1323 24.0386 31.5043 24.2831V21.5145C31.5043 20.1662 30.4072 19.0691 29.0589 19.0691H23.9792C22.6307 19.0691 21.5339 20.1662 21.5339 21.5145V24.6688C20.5463 24.8907 19.8063 25.7739 19.8063 26.8273C19.8063 28.0471 20.7987 29.0398 22.0188 29.0398H25.8896C26.2134 29.0398 26.4756 28.7774 26.4756 28.4539C26.4756 28.1301 26.2134 27.868 25.8896 27.868H22.0188C21.4447 27.868 20.9781 27.4011 20.9781 26.8273C20.9781 26.2533 21.4451 25.7864 22.0188 25.7864H29.2582C28.2383 26.8484 27.6258 28.2244 27.53 29.6847C27.5049 29.9279 27.4399 30.9939 28.0555 31.8755H18.5416V21.8948C18.5416 20.3368 17.2739 19.0691 15.716 19.0691H10.6644C9.10646 19.0691 7.83907 20.3368 7.83907 21.8948V31.8755H4.81874V17.4383ZM30.3324 24.6148H22.7057V21.5148C22.7057 20.8123 23.277 20.241 23.9792 20.241H29.0589C29.7611 20.241 30.3324 20.8126 30.3324 21.5148V24.6148ZM9.01094 31.8755V21.8948C9.01094 20.9829 9.75252 20.241 10.6644 20.241H15.716C16.6278 20.241 17.3697 20.9829 17.3697 21.8948V31.8755H9.01094ZM38.5804 31.0488C38.2887 31.6052 37.7854 31.8755 37.0426 31.8755H30.6476C29.9558 31.8755 29.4425 31.6952 29.123 31.3397C28.6008 30.7595 28.6921 29.8382 28.696 29.7994C28.697 29.7912 28.6979 29.7796 28.6985 29.7711C28.7778 28.5308 29.3162 27.3635 30.2146 26.4837C31.113 25.6042 32.2916 25.0906 33.5334 25.0368C34.9332 24.9764 36.2571 25.4751 37.2648 26.4404C38.2731 27.4062 38.8282 28.7066 38.8282 30.1C38.8282 30.1049 38.8206 30.5905 38.5804 31.0488Z" fill="#ABABA9"/>
</svg>
