<svg width="45" height="45" viewBox="0 0 45 45" fill="none" xmlns="http://www.w3.org/2000/svg">
<path d="M28.3133 44.2801H19.1866C10.4599 44.0055 12.3284 36.798 19.5308 35.063H27.968C29.7247 36.8335 30.8977 38.8624 31.5011 41.0206C31.9683 42.6904 30.4066 44.2801 28.3133 44.2801Z" fill="#FF6E80"/>
<path d="M19.1867 44.28H11.0479C8.9535 44.28 7.39179 42.6903 7.85902 41.0206C8.46239 38.8624 9.6353 36.8335 11.392 35.063H19.5309C17.7741 36.8335 16.6012 38.8624 15.9979 41.0206C15.5305 42.6903 17.0934 44.28 19.1867 44.28Z" fill="#F9475E"/>
<path d="M22.9441 36.6339C22.9549 36.7221 22.9604 36.8103 22.9604 36.9004C22.9604 39.5004 18.8676 40.5767 17.015 38.4642C16.9773 38.3809 16.4912 37.2506 17.3658 36.2964C18.4305 35.1347 21.2041 34.9088 22.9441 36.6339Z" fill="#FFCCBF"/>
<path d="M19.1769 35.4319C18.2969 36.38 17.577 37.3966 17.015 38.4641C16.5336 37.9175 16.3383 37.2628 16.416 36.6339C16.4803 36.5795 17.6009 35.6537 19.1769 35.4319Z" fill="#FFBBAE"/>
<path d="M4.48712 22.6061V27.4481C4.24643 27.4481 4.07434 27.4436 4.00574 27.4419C1.92903 27.8212 0 26.5295 0 24.824C0 23.3172 1.5171 22.1036 3.36093 22.141C3.75416 22.2933 4.12994 22.4483 4.48712 22.6061Z" fill="#FFBBAE"/>
<path d="M39.3611 24.8239C39.3611 26.5453 37.4072 27.8205 35.3554 27.4417C35.1855 27.3651 35.0254 27.2796 34.8761 27.186V22.5819C35.4337 22.2754 35.9434 22.1533 36.0001 22.1409C37.844 22.1035 39.3611 23.3171 39.3611 24.8239Z" fill="#FFCCBF"/>
<path d="M17.9745 36.8282C6.53688 34.1112 3.29994 22.3832 13.7183 16.6119C15.2104 16.2225 16.856 15.9561 18.652 15.8822C29.2413 15.4473 35.5471 22.1133 36.0514 22.6658C36.6543 30.9613 28.0333 37.6911 17.9745 36.8282Z" fill="#FFDED0"/>
<path d="M17.9745 36.8282C9.36476 36.1007 2.78106 29.9424 3.30991 22.6658C3.88062 22.0376 7.43858 18.247 13.7184 16.6119C7.21427 22.9291 9.18305 32.6196 17.9745 36.8282Z" fill="#FFCCBF"/>
<path d="M11.0061 29.7968C12.7737 29.7968 14.2067 28.8632 14.2067 27.7115C14.2067 26.5598 12.7737 25.6262 11.0061 25.6262C9.23849 25.6262 7.80554 26.5598 7.80554 27.7115C7.80554 28.8632 9.23849 29.7968 11.0061 29.7968Z" fill="#FFA1AC"/>
<path d="M28.3543 29.7968C30.1219 29.7968 31.5549 28.8632 31.5549 27.7115C31.5549 26.5598 30.1219 25.6262 28.3543 25.6262C26.5867 25.6262 25.1537 26.5598 25.1537 27.7115C25.1537 28.8632 26.5867 29.7968 28.3543 29.7968Z" fill="#FFA1AC"/>
<path d="M11.5412 25.8903C11.0901 25.8903 10.7244 25.5911 10.7244 25.2221V24.1528C10.7244 23.7836 11.0901 23.4845 11.5412 23.4845C11.9924 23.4845 12.358 23.7837 12.358 24.1528V25.2221C12.358 25.5911 11.9924 25.8903 11.5412 25.8903Z" fill="#495560"/>
<path d="M22.2606 26.1093C22.2606 24.8046 21.1054 24.682 19.6802 24.682C18.2551 24.682 17.0997 24.8046 17.0997 26.1093C17.0997 27.414 18.255 28.4718 19.6802 28.4718C21.1054 28.4718 22.2606 27.4141 22.2606 26.1093Z" fill="#495560"/>
<path d="M27.8192 25.8903C27.3681 25.8903 27.0024 25.5911 27.0024 25.2221V24.1528C27.0024 23.7836 27.3681 23.4845 27.8192 23.4845C28.2704 23.4845 28.636 23.7837 28.636 24.1528V25.2221C28.6361 25.5911 28.2704 25.8903 27.8192 25.8903Z" fill="#495560"/>
<path d="M36.0513 22.6658C30.6058 22.0901 25.3161 20.5112 20.5753 17.9441C20.0329 17.65 19.3272 17.65 18.7848 17.9441C16.2037 19.3422 13.4591 20.447 10.6155 21.2552C10.3687 20.7328 9.63099 18.9741 10.5573 17.1243C11.6598 14.9225 14.6692 13.4918 18.0693 13.6323C22.6016 13.5678 27.1033 13.7759 31.5969 14.2632C34.1629 16.4827 35.8128 19.4188 36.0513 22.6658Z" fill="#687DAA"/>
<path d="M18.0693 13.6323C14.5438 15.2971 11.869 17.9735 10.6155 21.2553C8.238 21.9334 5.78974 22.4039 3.30988 22.6659C3.54729 19.4189 5.19726 16.4828 7.76317 14.2633C10.8573 13.9281 14.3098 13.6876 18.0693 13.6323Z" fill="#4A66A0"/>
<path d="M32.1437 10.9814V10.9822C26.387 12.5788 20.2371 13.0477 14.2411 12.3491C11.7987 10.5215 12.4488 7.72238 15.0721 6.16877C16.4297 5.62669 17.3437 4.50282 17.82 3.32983H21.5403C22.8319 6.50995 26.574 7.76199 29.7182 4.81702L32.7939 5.92549C33.0683 7.64791 32.8396 9.36947 32.1437 10.9814Z" fill="#FFCF6B"/>
<path d="M14.2411 12.3492C11.3822 12.0186 9.00143 11.4769 7.21753 10.9824C6.5205 9.37045 6.29176 7.64803 6.56627 5.92561L9.6419 4.81714C11.4465 6.50748 13.4493 6.81493 15.0721 6.16889C13.6225 8.13805 13.3492 10.3995 14.2411 12.3492Z" fill="#FFB451"/>
<path d="M33.6205 12.5862V12.587C33.6205 13.4478 32.82 14.1651 31.7734 14.2488C26.5983 14.6643 21.2902 14.8128 16.0925 14.6872C11.0152 13.2627 8.54751 11.925 13.873 11.2656C19.5769 11.4844 25.4946 11.3821 31.3867 10.9252C32.594 10.8313 33.6205 11.6096 33.6205 12.5862Z" fill="#FCEC78"/>
<path d="M16.0925 14.6873C13.2173 14.6204 10.3747 14.4734 7.58557 14.2489C6.54215 14.1654 5.73962 13.4496 5.73962 12.5871C5.73962 11.6016 6.7765 10.8326 7.97552 10.9253C9.91851 11.0759 11.8864 11.19 13.873 11.2657C14.1593 12.5253 14.9033 13.7205 16.0925 14.6873Z" fill="#FFCF6B"/>
<path d="M7.3799 6.0382C8.73857 6.0382 9.84 5.13706 9.84 4.02545C9.84 2.91383 8.73857 2.0127 7.3799 2.0127C6.02122 2.0127 4.9198 2.91383 4.9198 4.02545C4.9198 5.13706 6.02122 6.0382 7.3799 6.0382Z" fill="#FFCF6B"/>
<path d="M31.9807 6.0382C33.3393 6.0382 34.4408 5.13706 34.4408 4.02545C34.4408 2.91383 33.3393 2.0127 31.9807 2.0127C30.622 2.0127 29.5206 2.91383 29.5206 4.02545C29.5206 5.13706 30.622 6.0382 31.9807 6.0382Z" fill="#FCEC78"/>
<path d="M19.6803 4.0255C21.0389 4.0255 22.1404 3.12436 22.1404 2.01275C22.1404 0.901139 21.0389 0 19.6803 0C18.3216 0 17.2202 0.901139 17.2202 2.01275C17.2202 3.12436 18.3216 4.0255 19.6803 4.0255Z" fill="#FCEC78"/>
<path d="M31.8038 37.5722L31.8022 37.5714C31.6552 37.7255 31.0893 38.2877 30.1244 38.555C26.7771 36.2142 30.1499 33.5863 34.2846 33.5463H35.2597C35.5142 35.4337 34.1725 37.163 31.8038 37.5722Z" fill="#00C5FD"/>
<path d="M34.2849 33.5463C33.2775 33.5463 32.3213 33.9188 31.6754 34.5631C30.3566 35.8807 30.2884 35.9259 30.0842 36.2213C29.6562 36.8477 29.739 37.6648 30.1245 38.555C28.6163 38.9713 27.0675 38.3976 26.2407 37.5722C26.2884 36.2772 27.1061 35.73 28.2741 34.5631C28.92 33.9189 29.8762 33.5464 30.8837 33.5464H34.2849V33.5463Z" fill="#00B4FD"/>
<path d="M44.2491 37.5961C43.1514 39.8142 39.5712 40.1127 38.6881 37.5961C36.443 37.2091 34.9034 35.481 35.2303 33.5703H39.6063C40.6148 33.5703 41.57 33.9428 42.2158 34.587C43.396 35.7661 44.2254 36.3656 44.2491 37.5961Z" fill="#00C5FD"/>
<path d="M35.2606 44.28C35.1322 44.28 35.0036 44.2738 34.8762 44.2622C31.8111 42.9042 28.2019 40.1593 29.8271 37.5714H31.8022C33.113 38.2235 35.4415 40.9836 35.2606 44.28Z" fill="#5AD6FF"/>
<path d="M34.8761 44.2622C34.3099 44.2088 33.7577 44.0368 33.2741 43.7463C31.1731 42.4838 29.1779 41.1258 27.3101 39.6734C26.5859 39.1111 26.2254 38.3413 26.2417 37.5715H29.8271C30.078 39.2479 32.5211 42.7855 34.8761 44.2622Z" fill="#00C5FD"/>
<path d="M44.2795 37.5714C44.2957 38.3413 43.9353 39.111 43.211 39.6732C41.3432 41.1257 39.348 42.4836 37.2472 43.7462C36.6547 44.1026 35.9576 44.28 35.2606 44.28C35.0345 41.7716 36.2062 39.2766 38.7183 37.5714H44.2795Z" fill="#5AD6FF"/>
<path d="M38.7183 37.5714C38.8076 38.0962 38.7065 38.6413 38.4048 39.135L35.2606 44.2799L32.1165 39.135C31.8148 38.6413 31.7131 38.0961 31.8023 37.5714C33.7751 36.2455 36.6597 36.1861 38.7183 37.5714Z" fill="#00C5FD"/>
<path d="M37.9926 36.2289C38.3923 36.6209 38.6367 37.0866 38.7183 37.5713H31.8024C31.8841 37.0866 32.1278 36.6201 32.5275 36.2279L35.2598 33.5461L37.9926 36.2289Z" fill="#5AD6FF"/>
</svg>
