<svg width="42" height="42" viewBox="0 0 42 42" fill="none" xmlns="http://www.w3.org/2000/svg">
<g clip-path="url(#clip0_837_4336)">
<path d="M10.2394 3.33913H17.0385V8.03973H10.2394V3.33913Z" fill="#95CBEC"/>
<path d="M17.0328 4.36561H10.245C9.61051 4.36561 9.09607 3.85126 9.09607 3.21668V2.82459C9.09615 1.26465 10.3608 -1.52588e-05 11.9208 -1.52588e-05H15.357C16.917 -1.52588e-05 18.1816 1.26465 18.1816 2.82468V3.21676C18.1816 3.85126 17.6673 4.36561 17.0328 4.36561Z" fill="#8E9CAF"/>
<path d="M18.9006 23.513H7.88196V27.5685L13.3913 29.1533L18.9006 27.5685V23.513Z" fill="#95CBEC"/>
<path d="M6.26807 23.513H20.958L20.1652 19.4575L13.639 17.3057L7.11273 19.4575L6.26807 23.513Z" fill="#95CBEC"/>
<path d="M22.2004 24.1493H5.0774C4.72596 24.1493 4.44104 23.8644 4.44104 23.513C4.44104 23.1615 4.72596 22.8766 5.0774 22.8766H22.2005C22.552 22.8766 22.8369 23.1615 22.8369 23.513C22.8369 23.8644 22.552 24.1493 22.2004 24.1493Z" fill="#6FB6E1"/>
<path d="M22.2005 23.513H17.5253L17.8608 27.5685H22.2005C23.2122 27.5685 24.0322 26.7484 24.0322 25.7368V25.3447C24.0322 24.333 23.2122 23.513 22.2005 23.513Z" fill="#6FB6E1"/>
<path d="M22.2005 19.4575H19.4496C18.183 20.1575 17.3633 21.5548 17.4917 23.1082L17.5252 23.513H22.2005C23.2121 23.513 24.0322 22.6929 24.0322 21.6813V21.2892C24.0322 20.2776 23.2121 19.4575 22.2005 19.4575Z" fill="#6FB6E1"/>
<path d="M8.90902 23.513H5.07744C4.06579 23.513 3.24573 24.333 3.24573 25.3447V25.7368C3.24573 26.7484 4.06579 27.5685 5.07744 27.5685H8.90902V23.513Z" fill="#6FB6E1"/>
<path d="M8.90902 19.4575H5.07744C4.06579 19.4575 3.24573 20.2775 3.24573 21.2892V21.6813C3.24573 22.6929 4.06579 23.513 5.07744 23.513H8.90902V19.4575Z" fill="#6FB6E1"/>
<path d="M14.5114 6.96665H15.3922C20.1639 6.96665 24.0323 10.8349 24.0323 15.6067C24.0323 17.7423 22.3009 19.4737 20.1653 19.4737H8.90904L6.07739 18.118L9.30757 8.57877L14.5114 6.96665Z" fill="#CEEAFB"/>
<path d="M8.90899 19.3942C8.90899 14.4466 11.0758 10.0058 14.5113 6.96657H11.8856C7.11393 6.96657 3.24561 10.8348 3.24561 15.6066C3.24561 17.7423 4.97694 19.4736 7.11258 19.4736H8.9089L8.90899 19.3942Z" fill="#A7D4F1"/>
<path d="M19.0955 41.7009C18.4547 41.8954 17.7749 42 17.0706 42H16.9151L11.3437 41.2162L6.26807 30.2207L8.90906 27.5685H17.8607L22.0719 33.5252L19.0955 41.7009Z" fill="#CEEAFB"/>
<path d="M20.2551 27.5685H17.8607L18.9722 41.0052C18.992 41.2442 19.034 41.4763 19.0952 41.7C21.9523 40.8327 24.0322 38.1788 24.0322 35.0384V31.3456C24.0322 29.2595 22.3411 27.5685 20.2551 27.5685Z" fill="#A7D4F1"/>
<path d="M38.2402 30.8869L38.3326 29.7696L38.7436 24.801C38.8913 23.0157 37.4822 21.4852 35.6909 21.4852H22.854C21.0627 21.4852 19.6536 23.0157 19.8013 24.801L20.2281 29.9603L20.3245 31.1266L29.2725 35.1267L38.2402 30.8869Z" fill="#CEEAFB"/>
<path d="M8.90902 27.802V27.5685H7.02284C4.93676 27.5685 3.24573 29.2596 3.24573 31.3456V35.0384C3.24573 38.8832 6.36255 42 10.2073 42H16.9152C12.1163 39.0931 8.90902 33.8222 8.90902 27.802Z" fill="#A7D4F1"/>
<path d="M26.1742 28.1137C22.4991 28.3686 20.5868 31.0775 20.5868 31.0775L23.4859 37.3978L34.26 36.791L37.9992 30.6971C31.15 30.814 30.9863 27.78 26.1742 28.1137Z" fill="#6FB6E1"/>
<path d="M34.5007 42C36.0945 42 37.4221 40.7778 37.5534 39.1893L38.2402 30.8868C38.2889 30.2977 37.7739 29.8198 37.1895 29.9083C34.334 30.3409 33.1556 31.1872 28.5466 31.1872C24.821 31.1872 23.3371 30.6342 21.3971 30.1937C20.8167 30.0619 20.2755 30.5332 20.3245 31.1264L20.9914 39.1892C21.1228 40.7778 22.4504 42 24.0442 42H34.5007Z" fill="#95CBEC"/>
<path d="M7.75091 16.2287C8.95078 16.2287 9.92346 15.4541 9.92346 14.4986C9.92346 13.543 8.95078 12.7684 7.75091 12.7684C6.55105 12.7684 5.57837 13.543 5.57837 14.4986C5.57837 15.4541 6.55105 16.2287 7.75091 16.2287Z" fill="#E89FA9"/>
<path d="M19.5269 16.2287C20.7268 16.2287 21.6995 15.4541 21.6995 14.4986C21.6995 13.543 20.7268 12.7684 19.5269 12.7684C18.3271 12.7684 17.3544 13.543 17.3544 14.4986C17.3544 15.4541 18.3271 16.2287 19.5269 16.2287Z" fill="#E89FA9"/>
<path d="M9.01698 13.4695C8.66554 13.4695 8.38062 13.1846 8.38062 12.8332V11.945C8.38062 11.5935 8.66554 11.3086 9.01698 11.3086C9.36842 11.3086 9.65334 11.5935 9.65334 11.945V12.8331C9.65334 13.1846 9.36851 13.4695 9.01698 13.4695Z" fill="#4F5C6F"/>
<path d="M18.2609 13.4695C17.9094 13.4695 17.6245 13.1846 17.6245 12.8332V11.945C17.6245 11.5935 17.9094 11.3086 18.2609 11.3086C18.6123 11.3086 18.8972 11.5935 18.8972 11.945V12.8331C18.8972 13.1846 18.6123 13.4695 18.2609 13.4695Z" fill="#4F5C6F"/>
<path d="M13.639 13.9982C12.988 13.9982 12.3691 13.7164 11.9407 13.2247C11.7098 12.9598 11.7374 12.5578 12.0023 12.3269C12.2672 12.096 12.6693 12.1236 12.9002 12.3886C13.0868 12.6026 13.3561 12.7254 13.639 12.7254C13.9219 12.7254 14.1912 12.6026 14.3779 12.3885C14.6088 12.1235 15.0107 12.0959 15.2757 12.3269C15.5407 12.5577 15.5683 12.9598 15.3373 13.2247C14.9088 13.7163 14.2899 13.9982 13.639 13.9982Z" fill="#4F5C6F"/>
<path d="M24.324 37.9055C25.3344 37.9055 26.1535 37.2532 26.1535 36.4485C26.1535 35.6439 25.3344 34.9916 24.324 34.9916C23.3136 34.9916 22.4945 35.6439 22.4945 36.4485C22.4945 37.2532 23.3136 37.9055 24.324 37.9055Z" fill="white"/>
<path d="M34.2408 37.9055C35.2512 37.9055 36.0703 37.2532 36.0703 36.4485C36.0703 35.6439 35.2512 34.9916 34.2408 34.9916C33.2304 34.9916 32.4113 35.6439 32.4113 36.4485C32.4113 37.2532 33.2304 37.9055 34.2408 37.9055Z" fill="white"/>
<path d="M26.2611 35.4995C25.9096 35.4995 25.6247 35.2146 25.6247 34.8631C25.6247 34.7339 25.5196 34.6287 25.3903 34.6287C25.261 34.6287 25.1558 34.7339 25.1558 34.8631C25.1558 35.2146 24.8709 35.4995 24.5194 35.4995C24.1679 35.4995 23.8831 35.2146 23.8831 34.8631C23.8831 34.0321 24.5592 33.356 25.3903 33.356C26.2213 33.356 26.8975 34.0321 26.8975 34.8631C26.8975 35.2146 26.6125 35.4995 26.2611 35.4995Z" fill="#4F5C6F"/>
<path d="M34.0453 35.4995C33.6938 35.4995 33.4089 35.2146 33.4089 34.8631C33.4089 34.7339 33.3038 34.6287 33.1745 34.6287C33.0452 34.6287 32.94 34.7339 32.94 34.8631C32.94 35.2146 32.6551 35.4995 32.3036 35.4995C31.9521 35.4995 31.6672 35.2146 31.6672 34.8631C31.6672 34.0321 32.3434 33.356 33.1745 33.356C34.0055 33.356 34.6816 34.0321 34.6816 34.8631C34.6816 35.2146 34.3968 35.4995 34.0453 35.4995Z" fill="#4F5C6F"/>
<path d="M29.2824 36.9381C28.7443 36.9381 28.2328 36.7051 27.8789 36.2989C27.648 36.034 27.6756 35.6319 27.9407 35.4011C28.2056 35.1702 28.6075 35.1978 28.8386 35.4628C28.9507 35.5916 29.1125 35.6654 29.2824 35.6654C29.4524 35.6654 29.6142 35.5916 29.7263 35.4628C29.9573 35.1978 30.3593 35.1702 30.6242 35.4012C30.8892 35.632 30.9167 36.034 30.6859 36.299C30.3318 36.7052 29.8204 36.9381 29.2824 36.9381Z" fill="#4F5C6F"/>
</g>
<defs>
<clipPath id="clip0_837_4336">
<rect width="42" height="42" fill="white"/>
</clipPath>
</defs>
</svg>
