<svg width="43" height="42" viewBox="0 0 43 42" fill="none" xmlns="http://www.w3.org/2000/svg">
<g clip-path="url(#clip0_837_4375)">
<path d="M0.757525 18.2457C-0.220369 14.2287 1.6497 10.0622 5.29804 8.11724C9.53019 5.86114 14.9301 4.17843 20.8171 4.17843C26.7041 4.17843 32.104 5.86114 36.3361 8.11724C39.9845 10.0622 41.8546 14.2287 40.8766 18.2457L36.8981 34.5885C35.9922 38.3095 32.6592 40.9284 28.8296 40.9284H12.8046C8.97492 40.9284 5.64191 38.3094 4.73612 34.5885L0.757525 18.2457Z" fill="#8DAEE1"/>
<path d="M0.757525 18.2457C-0.220369 14.2287 1.6497 10.0622 5.29804 8.11724C9.53019 5.86114 14.9301 4.17843 20.8171 4.17843C26.7041 4.17843 32.104 5.86114 36.3361 8.11724C39.9845 10.0622 41.8546 14.2287 40.8766 18.2457L36.8981 34.5885C35.9922 38.3095 32.6592 40.9284 28.8296 40.9284H12.8046C8.97492 40.9284 5.64191 38.3094 4.73612 34.5885L0.757525 18.2457Z" fill="#B39BDB"/>
<path d="M20.8171 4.17843C19.4207 4.17843 18.0523 4.27408 16.7198 4.44864V10.8537H24.9143V4.44864C23.5818 4.27408 22.2134 4.17843 20.8171 4.17843Z" fill="#A2DDFD"/>
<path d="M12.2432 5.35542C9.70331 6.05424 7.36156 7.0172 5.29807 8.11724C1.64973 10.0622 -0.220422 14.2287 0.757555 18.2457L4.73607 34.5885C5.64194 38.3095 8.97495 40.9284 12.8046 40.9284H22.4679C13.1136 36.4215 8.92598 14.611 12.2432 5.35542Z" fill="#8F8BD5"/>
<path d="M26.9391 13.3363V11.048C26.9391 10.4985 26.6241 9.99592 26.1261 9.76377C24.8811 9.18332 22.9508 8.67965 20.8171 8.67965C18.6833 8.67965 16.7531 9.18324 15.508 9.76377C15.0101 9.99592 14.6951 10.4985 14.6951 11.048V13.3363C14.6951 14.1205 15.3308 14.7563 16.115 14.7563H25.519C26.3033 14.7563 26.9391 14.1205 26.9391 13.3363Z" fill="white"/>
<path d="M19.1943 12.2634C18.954 12.0231 18.5644 12.0232 18.3242 12.2634C18.084 12.5037 18.084 12.8933 18.3242 13.1335L19.9471 14.7563H21.6872L19.1943 12.2634Z" fill="#4E5660"/>
<path d="M28.1226 18.8441L26.2158 22.5581C25.719 23.5257 24.7227 24.1341 23.6351 24.1341H17.9991C16.9114 24.1341 15.9152 23.5257 15.4185 22.5581L13.5117 18.8441C12.68 17.2243 10.7729 16.4765 9.06179 17.0993L7.32355 17.732C6.06445 18.1903 5.35144 19.5222 5.66841 20.8241L8.52227 32.5474C9.12512 35.0239 11.3434 36.7669 13.8923 36.7669H27.742C30.2907 36.7669 32.509 35.0239 33.1119 32.5474L35.9659 20.824C36.2829 19.5221 35.5699 18.1901 34.3108 17.7319L32.5724 17.0992C30.8614 16.4765 28.9542 17.2243 28.1226 18.8441Z" fill="#A2DDFD"/>
<path d="M9.06179 17.0993L7.32355 17.732C6.06445 18.1903 5.35144 19.5222 5.66841 20.8241L8.52227 32.5475C9.12512 35.024 11.3434 36.767 13.8923 36.767H17.7674C14.1371 31.8447 11.8798 24.0553 11.2788 17.0178C10.571 16.8176 9.79835 16.8312 9.06179 17.0993Z" fill="#7ACDF9"/>
<path d="M13.7553 34.7648C15.1944 34.7648 16.361 33.8358 16.361 32.6898C16.361 31.5438 15.1944 30.6147 13.7553 30.6147C12.3162 30.6147 11.1495 31.5438 11.1495 32.6898C11.1495 33.8358 12.3162 34.7648 13.7553 34.7648Z" fill="white"/>
<path d="M27.8789 34.7648C29.318 34.7648 30.4846 33.8358 30.4846 32.6898C30.4846 31.5438 29.318 30.6147 27.8789 30.6147C26.4398 30.6147 25.2732 31.5438 25.2732 32.6898C25.2732 33.8358 26.4398 34.7648 27.8789 34.7648Z" fill="white"/>
<path d="M15.2738 31.282C14.934 31.282 14.6586 31.0065 14.6586 30.6667V29.6527C14.6586 29.3129 14.934 29.0374 15.2738 29.0374C15.6136 29.0374 15.889 29.3129 15.889 29.6527V30.6667C15.889 31.0065 15.6136 31.282 15.2738 31.282Z" fill="#4E5660"/>
<path d="M20.817 31.9416C20.0791 31.9416 19.3774 31.622 18.8918 31.0647C18.6686 30.8086 18.6952 30.42 18.9514 30.1967C19.2075 29.9735 19.5962 30.0001 19.8195 30.2563C20.0713 30.5453 20.4349 30.711 20.817 30.711C21.1992 30.711 21.5629 30.5452 21.8147 30.2562C22.038 30.0001 22.4267 29.9734 22.6828 30.1966C22.9389 30.4199 22.9656 30.8086 22.7424 31.0647C22.2568 31.622 21.555 31.9416 20.817 31.9416Z" fill="#4E5660"/>
<path d="M27.7313 31.2537C27.3915 31.2537 27.1161 30.9782 27.1161 30.6384C27.1161 30.3297 26.8648 30.0785 26.5562 30.0785C26.2475 30.0785 25.9962 30.3297 25.9962 30.6384C25.9962 30.9782 25.7208 31.2537 25.381 31.2537C25.0412 31.2537 24.7657 30.9782 24.7657 30.6384C24.7657 29.6512 25.5689 28.848 26.5562 28.848C27.5434 28.848 28.3466 29.6512 28.3466 30.6384C28.3466 30.9782 28.0712 31.2537 27.7313 31.2537Z" fill="#4E5660"/>
<path d="M12.7018 26.8189H11.2953C10.9555 26.8189 10.6801 26.5434 10.6801 26.2037C10.6801 25.8639 10.9555 25.5884 11.2953 25.5884H12.7018C13.0416 25.5884 13.317 25.8639 13.317 26.2037C13.317 26.5434 13.0416 26.8189 12.7018 26.8189Z" fill="white"/>
<path d="M10.7842 23.4966H9.84656C9.50678 23.4966 9.23132 23.2212 9.23132 22.8814C9.23132 22.5416 9.50678 22.2662 9.84656 22.2662H10.7842C11.1239 22.2662 11.3994 22.5416 11.3994 22.8814C11.3994 23.2212 11.1239 23.4966 10.7842 23.4966Z" fill="white"/>
<path d="M30.3391 26.8189H28.9326C28.5928 26.8189 28.3174 26.5434 28.3174 26.2037C28.3174 25.8639 28.5928 25.5884 28.9326 25.5884H30.3391C30.6789 25.5884 30.9544 25.8639 30.9544 26.2037C30.9544 26.5434 30.679 26.8189 30.3391 26.8189Z" fill="white"/>
<path d="M31.7878 23.4966H30.8501C30.5103 23.4966 30.2349 23.2212 30.2349 22.8814C30.2349 22.5416 30.5103 22.2662 30.8501 22.2662H31.7878C32.1277 22.2662 32.403 22.5416 32.403 22.8814C32.403 23.2212 32.1277 23.4966 31.7878 23.4966Z" fill="white"/>
</g>
<defs>
<clipPath id="clip0_837_4375">
<rect width="42" height="42" fill="white" transform="translate(0.5)"/>
</clipPath>
</defs>
</svg>
